<svg width="11" height="11" viewBox="0 0 11 11" fill="none" xmlns="http://www.w3.org/2000/svg">
<path d="M5.04167 5.95833H0.458333C0.328472 5.95833 0.219618 5.91435 0.131771 5.82638C0.0439236 5.73843 0 5.62943 0 5.49938C0 5.36934 0.0439236 5.26054 0.131771 5.173C0.219618 5.08544 0.328472 5.04167 0.458333 5.04167H5.04167V0.458333C5.04167 0.328472 5.08565 0.219618 5.17362 0.131771C5.26158 0.0439236 5.37057 0 5.50062 0C5.63066 0 5.73946 0.0439236 5.827 0.131771C5.91456 0.219618 5.95833 0.328472 5.95833 0.458333V5.04167H10.5417C10.6715 5.04167 10.7804 5.08565 10.8682 5.17362C10.9561 5.26158 11 5.37057 11 5.50062C11 5.63066 10.9561 5.73946 10.8682 5.827C10.7804 5.91456 10.6715 5.95833 10.5417 5.95833H5.95833V10.5417C5.95833 10.6715 5.91435 10.7804 5.82638 10.8682C5.73843 10.9561 5.62943 11 5.49938 11C5.36934 11 5.26054 10.9561 5.173 10.8682C5.08544 10.7804 5.04167 10.6715 5.04167 10.5417V5.95833Z" fill="#666666" fill-opacity="0.6"/>
</svg>
