<svg width="36" height="33" viewBox="0 0 36 33" fill="none" xmlns="http://www.w3.org/2000/svg">
<path d="M3.74967 32.25C2.87884 32.25 2.13336 31.94 1.51322 31.3198C0.893077 30.6997 0.583008 29.9542 0.583008 29.0834V10.0834C0.583008 9.21254 0.893077 8.46705 1.51322 7.84692C2.13336 7.22678 2.87884 6.91671 3.74967 6.91671H8.73717L10.7163 4.77921C11.0066 4.46254 11.3563 4.21185 11.7653 4.02712C12.1743 3.8424 12.6031 3.75004 13.0518 3.75004H19.583C20.0316 3.75004 20.4077 3.90178 20.7111 4.20525C21.0146 4.50872 21.1663 4.88476 21.1663 5.33337C21.1663 5.78199 21.0146 6.15803 20.7111 6.4615C20.4077 6.76497 20.0316 6.91671 19.583 6.91671H13.0518L10.1622 10.0834H3.74967V29.0834H29.083V16.4167C29.083 15.9681 29.2347 15.5921 29.5382 15.2886C29.8417 14.9851 30.2177 14.8334 30.6663 14.8334C31.115 14.8334 31.491 14.9851 31.7945 15.2886C32.0979 15.5921 32.2497 15.9681 32.2497 16.4167V29.0834C32.2497 29.9542 31.9396 30.6997 31.3195 31.3198C30.6993 31.94 29.9538 32.25 29.083 32.25H3.74967ZM29.083 6.91671H27.4997C27.0511 6.91671 26.675 6.76497 26.3715 6.4615C26.0681 6.15803 25.9163 5.78199 25.9163 5.33337C25.9163 4.88476 26.0681 4.50872 26.3715 4.20525C26.675 3.90178 27.0511 3.75004 27.4997 3.75004H29.083V2.16671C29.083 1.7181 29.2347 1.34205 29.5382 1.03858C29.8417 0.73511 30.2177 0.583374 30.6663 0.583374C31.115 0.583374 31.491 0.73511 31.7945 1.03858C32.0979 1.34205 32.2497 1.7181 32.2497 2.16671V3.75004H33.833C34.2816 3.75004 34.6577 3.90178 34.9611 4.20525C35.2646 4.50872 35.4163 4.88476 35.4163 5.33337C35.4163 5.78199 35.2646 6.15803 34.9611 6.4615C34.6577 6.76497 34.2816 6.91671 33.833 6.91671H32.2497V8.50004C32.2497 8.94865 32.0979 9.32469 31.7945 9.62817C31.491 9.93164 31.115 10.0834 30.6663 10.0834C30.2177 10.0834 29.8417 9.93164 29.5382 9.62817C29.2347 9.32469 29.083 8.94865 29.083 8.50004V6.91671ZM16.4163 26.7084C18.3955 26.7084 20.0778 26.0157 21.4632 24.6302C22.8486 23.2448 23.5413 21.5625 23.5413 19.5834C23.5413 17.6042 22.8486 15.9219 21.4632 14.5365C20.0778 13.1511 18.3955 12.4584 16.4163 12.4584C14.4372 12.4584 12.7549 13.1511 11.3695 14.5365C9.98405 15.9219 9.29134 17.6042 9.29134 19.5834C9.29134 21.5625 9.98405 23.2448 11.3695 24.6302C12.7549 26.0157 14.4372 26.7084 16.4163 26.7084ZM16.4163 23.5417C15.308 23.5417 14.3712 23.1591 13.6059 22.3938C12.8406 21.6285 12.458 20.6917 12.458 19.5834C12.458 18.475 12.8406 17.5382 13.6059 16.773C14.3712 16.0077 15.308 15.625 16.4163 15.625C17.5247 15.625 18.4615 16.0077 19.2268 16.773C19.992 17.5382 20.3747 18.475 20.3747 19.5834C20.3747 20.6917 19.992 21.6285 19.2268 22.3938C18.4615 23.1591 17.5247 23.5417 16.4163 23.5417Z" fill="white"/>
</svg>
