<svg width="45" height="45" viewBox="0 0 45 45" fill="none" xmlns="http://www.w3.org/2000/svg">
<path d="M22.5 31.291C22.6779 31.291 22.8503 31.264 23.0174 31.2099C23.1845 31.1558 23.3377 31.0626 23.4772 30.9304C24.2368 30.2405 24.9555 29.5662 25.6334 28.9075C26.3113 28.2489 26.9081 27.6059 27.4237 26.9785C27.9393 26.3511 28.3522 25.7351 28.6623 25.1305C28.9724 24.5259 29.1274 23.9448 29.1274 23.3871C29.1274 22.3487 28.7729 21.4845 28.0637 20.7946C27.3546 20.1047 26.5 19.7597 25.5 19.7597C24.8798 19.7597 24.3179 19.8877 23.8143 20.1437C23.3107 20.3997 22.8726 20.7212 22.5 21.1082C22.1755 20.7212 21.7518 20.3997 21.229 20.1437C20.7061 19.8877 20.1538 19.7597 19.5721 19.7597C18.5721 19.7597 17.7175 20.1047 17.0084 20.7946C16.2993 21.4845 15.9447 22.3487 15.9447 23.3871C15.9447 23.9448 16.0937 24.5259 16.3918 25.1305C16.6899 25.7351 17.0968 26.3511 17.6124 26.9785C18.128 27.6059 18.7248 28.2489 19.4026 28.9075C20.0805 29.5662 20.7872 30.2405 21.5228 30.9304C21.6622 31.0626 21.8155 31.1558 21.9826 31.2099C22.1497 31.264 22.3221 31.291 22.5 31.291ZM12.4038 37.5001C11.5649 37.5001 10.8503 37.205 10.2602 36.6149C9.67006 36.0248 9.375 35.3102 9.375 34.4713V20.3547L6.49036 22.6011C6.2692 22.7694 6.04084 22.8343 5.80528 22.7958C5.56969 22.7573 5.36776 22.6275 5.19951 22.4064C5.03123 22.1852 4.96212 21.9568 4.99219 21.7213C5.02222 21.4857 5.1442 21.2837 5.35814 21.1155L20.6358 9.37872C20.9075 9.17678 21.2025 9.02532 21.521 8.92435C21.8395 8.82342 22.1659 8.77295 22.5 8.77295C22.8341 8.77295 23.1544 8.82342 23.4609 8.92435C23.7674 9.02532 24.0565 9.17678 24.3281 9.37872L39.6526 21.1155C39.8666 21.2837 39.9868 21.4857 40.0133 21.7213C40.0397 21.9568 39.9688 22.1852 39.8005 22.4064C39.6322 22.6203 39.4303 22.7465 39.1947 22.785C38.9592 22.8234 38.7344 22.7585 38.5204 22.5902L35.625 20.3547V34.4713C35.625 35.3102 35.3299 36.0248 34.7398 36.6149C34.1497 37.205 33.4351 37.5001 32.5962 37.5001H12.4038ZM12.4038 35.6251H32.5962C32.9327 35.6251 33.2091 35.5169 33.4255 35.3006C33.6418 35.0842 33.75 34.8078 33.75 34.4713V18.9376L23.1851 10.9003C22.9928 10.7321 22.7644 10.6479 22.5 10.6479C22.2356 10.6479 22.0072 10.7321 21.8149 10.9003L11.25 18.9376V34.4713C11.25 34.8078 11.3582 35.0842 11.5745 35.3006C11.7909 35.5169 12.0673 35.6251 12.4038 35.6251ZM12.4038 35.6251H11.25H33.75H12.4038Z" fill="white" fill-opacity="0.8"/>
</svg>
