<svg width="40" height="40" viewBox="0 0 40 40" fill="none" xmlns="http://www.w3.org/2000/svg">
<path d="M3.57083 22.3911C2.94263 21.3484 2.46827 20.2864 2.14774 19.2052C1.82724 18.124 1.66699 17.0556 1.66699 16.0001C1.66699 13.4018 2.57298 11.1967 4.38495 9.38471C6.1969 7.57273 8.40202 6.66675 11.0003 6.66675C12.6862 6.66675 14.3048 7.10425 15.8561 7.97925C17.4074 8.85425 18.7888 10.1155 20.0003 11.7629C21.2119 10.1155 22.5933 8.85425 24.1446 7.97925C25.6959 7.10425 27.3144 6.66675 29.0003 6.66675C31.5986 6.66675 33.8038 7.57273 35.6157 9.38471C37.4277 11.1967 38.3337 13.4018 38.3337 16.0001C38.3337 17.0129 38.1734 18.0492 37.8529 19.109C37.5324 20.1689 37.058 21.2522 36.4298 22.359C36.2561 22.1295 36.0508 21.9242 35.8139 21.743C35.5771 21.5618 35.3305 21.4103 35.074 21.2885C35.6018 20.3505 35.9993 19.4424 36.2664 18.5642C36.5335 17.686 36.667 16.8313 36.667 16.0001C36.667 13.8548 35.9255 12.0407 34.4426 10.5578C32.9597 9.07487 31.1456 8.33341 29.0003 8.33341C27.2845 8.33341 25.7263 8.84997 24.3257 9.88308C22.925 10.9162 21.4832 12.3997 20.0003 14.3334C18.5174 12.3932 17.0756 10.9082 15.675 9.87829C14.2744 8.84837 12.7161 8.33341 11.0003 8.33341C8.85502 8.33341 7.04092 9.07487 5.55803 10.5578C4.07512 12.0407 3.33366 13.8548 3.33366 16.0001C3.33366 16.874 3.4672 17.7554 3.73428 18.6443C4.00139 19.5332 4.38814 20.4253 4.89453 21.3206C4.63814 21.4637 4.39777 21.6208 4.17341 21.7917C3.94905 21.9627 3.74819 22.1625 3.57083 22.3911ZM1.66699 33.8462V33.6251C1.66699 32.5952 2.21084 31.7442 3.29853 31.0722C4.38626 30.4002 5.79784 30.0642 7.53328 30.0642C7.85106 30.0642 8.15524 30.0765 8.44583 30.101C8.73644 30.1256 9.01315 30.1657 9.27595 30.2212C9.03665 30.6486 8.85183 31.0974 8.72149 31.5677C8.59113 32.038 8.52595 32.5389 8.52595 33.0706V35.0642H2.88495C2.53987 35.0642 2.2506 34.9475 2.01716 34.714C1.78371 34.4806 1.66699 34.1913 1.66699 33.8462ZM11.667 33.718V33.1892C11.667 31.811 12.4375 30.7159 13.9785 29.9039C15.5195 29.0919 17.5297 28.686 20.0092 28.686C22.5118 28.686 24.5249 29.0919 26.0484 29.9039C27.5719 30.7159 28.3337 31.811 28.3337 33.1892V33.718C28.3337 34.0995 28.2047 34.4192 27.9467 34.6772C27.6886 34.9352 27.3689 35.0642 26.9875 35.0642H13.0264C12.6308 35.0642 12.3053 34.9352 12.05 34.6772C11.7947 34.4192 11.667 34.0995 11.667 33.718ZM31.4747 35.0642V33.0656C31.4747 32.5326 31.4165 32.0322 31.3 31.5642C31.1835 31.0962 31.0089 30.6486 30.776 30.2212C31.0388 30.1657 31.3159 30.1256 31.6072 30.101C31.8986 30.0765 32.1963 30.0642 32.5003 30.0642C34.2503 30.0642 35.66 30.4002 36.7295 31.0722C37.7989 31.7442 38.3337 32.5952 38.3337 33.6251V33.8462C38.3337 34.1913 38.2169 34.4806 37.9835 34.714C37.7501 34.9475 37.4608 35.0642 37.1157 35.0642H31.4747ZM19.9964 30.3527C18.1165 30.3527 16.557 30.6037 15.3176 31.1059C14.0783 31.608 13.433 32.2543 13.3817 33.045V33.3975H26.6285V33.045C26.5708 32.2543 25.9293 31.608 24.7039 31.1059C23.4784 30.6037 21.9093 30.3527 19.9964 30.3527ZM7.53237 28.4937C6.88012 28.4937 6.32176 28.2614 5.85728 27.797C5.39281 27.3325 5.16058 26.7741 5.16058 26.1219C5.16058 25.4766 5.39281 24.9253 5.85728 24.468C6.32176 24.0107 6.88012 23.7821 7.53237 23.7821C8.17767 23.7821 8.7343 24.0107 9.20224 24.468C9.67019 24.9253 9.90416 25.4766 9.90416 26.1219C9.90416 26.7741 9.67019 27.3325 9.20224 27.797C8.7343 28.2614 8.17767 28.4937 7.53237 28.4937ZM32.5003 28.4937C31.8614 28.4937 31.3064 28.2614 30.8352 27.797C30.3641 27.3325 30.1285 26.7741 30.1285 26.1219C30.1285 25.4766 30.3641 24.9253 30.8352 24.468C31.3064 24.0107 31.8635 23.7821 32.5065 23.7821C33.1691 23.7821 33.729 24.0107 34.1862 24.468C34.6435 24.9253 34.8721 25.4766 34.8721 26.1219C34.8721 26.7741 34.6448 27.3325 34.1902 27.797C33.7357 28.2614 33.1724 28.4937 32.5003 28.4937ZM20.0116 27.436C18.9998 27.436 18.136 27.0807 17.4202 26.3702C16.7044 25.6598 16.3465 24.7971 16.3465 23.7821C16.3465 22.7469 16.7017 21.8791 17.4122 21.1787C18.1226 20.4784 18.9854 20.1282 20.0003 20.1282C21.0356 20.1282 21.9034 20.4773 22.6037 21.1755C23.304 21.8737 23.6542 22.7388 23.6542 23.7708C23.6542 24.7826 23.3051 25.6464 22.607 26.3622C21.9088 27.0781 21.0437 27.436 20.0116 27.436ZM20.0003 21.795C19.464 21.795 18.9987 21.9854 18.6045 22.3662C18.2103 22.7471 18.0132 23.2191 18.0132 23.7821C18.0132 24.3185 18.2103 24.7837 18.6045 25.178C18.9987 25.5722 19.4693 25.7693 20.0164 25.7693C20.5634 25.7693 21.0286 25.5722 21.4122 25.178C21.7957 24.7837 21.9875 24.3131 21.9875 23.7661C21.9875 23.2191 21.7971 22.7538 21.4162 22.3702C21.0353 21.9867 20.5634 21.795 20.0003 21.795Z" fill="white" fill-opacity="0.8"/>
</svg>
