<svg width="45" height="45" viewBox="0 0 45 45" fill="none" xmlns="http://www.w3.org/2000/svg">
<path d="M8.84855 33.678L6.15141 23.7837C6.08172 23.4808 6.10877 23.1515 6.23255 22.7958C6.35636 22.44 6.59134 22.2044 6.9375 22.089L9.375 21.2453V13.1251C9.375 12.2621 9.66406 11.5415 10.2422 10.9634C10.8203 10.3853 11.5409 10.0962 12.4038 10.0962H18.75V5.98563C18.75 5.55054 18.8936 5.18937 19.1809 4.90212C19.4681 4.61483 19.8293 4.47119 20.2644 4.47119H24.7356C25.1707 4.47119 25.5319 4.61483 25.8191 4.90212C26.1064 5.18937 26.25 5.55054 26.25 5.98563V10.0962H32.5962C33.4591 10.0962 34.1797 10.3853 34.7578 10.9634C35.3359 11.5415 35.625 12.2621 35.625 13.1251V21.2453L38.0625 22.089C38.4784 22.2429 38.7608 22.4898 38.9099 22.83C39.0589 23.1701 39.0865 23.4881 38.9928 23.7837L36.1515 33.678C35.1178 33.3414 34.2079 32.8769 33.4219 32.2843C32.6358 31.6918 31.8654 31.0085 31.1106 30.2344C30.8149 29.9148 30.4507 29.7549 30.018 29.7549C29.5853 29.7549 29.2211 29.9268 28.9255 30.2705C28.0745 31.2128 27.1298 32.0283 26.0913 32.717C25.0529 33.4057 23.8558 33.7501 22.5 33.7501C22.1635 33.7501 21.8546 33.7344 21.5733 33.7032C21.2921 33.6719 21.0108 33.6131 20.7296 33.5265C19.8233 33.291 18.994 32.8787 18.2416 32.2897C17.4892 31.7008 16.7572 31.0217 16.0457 30.2525C15.7716 29.9304 15.4213 29.7633 14.9946 29.7513C14.5679 29.7393 14.2176 29.8943 13.9435 30.2164C13.2128 31.0121 12.4315 31.7038 11.5997 32.2916C10.768 32.8793 9.85095 33.3414 8.84855 33.678ZM22.5 41.2501C21.2188 41.2501 19.9453 41.0938 18.6797 40.7813C17.4141 40.4688 16.1875 40.0001 15 39.3751C13.8125 40.0001 12.5938 40.4688 11.3438 40.7813C10.0938 41.0938 8.8125 41.2501 7.5 41.2501H5.625C5.35816 41.2501 5.1352 41.1605 4.95614 40.9815C4.77705 40.8023 4.6875 40.5794 4.6875 40.3126C4.6875 40.0458 4.77705 39.8228 4.95614 39.6437C5.1352 39.4646 5.35816 39.3751 5.625 39.3751H7.5C8.67306 39.3751 9.82811 39.2068 10.9651 38.8703C12.1022 38.5337 13.1791 38.0566 14.1959 37.4388C14.4603 37.2753 14.7284 37.1936 15 37.1936C15.2716 37.1936 15.5397 37.2753 15.8041 37.4388C16.5637 37.9244 17.3828 38.3078 18.2614 38.589C19.14 38.8703 20.0216 39.0698 20.9062 39.1876C21.1562 39.2188 21.4219 39.2423 21.7031 39.2579C21.9844 39.2735 22.25 39.2813 22.5 39.2813C23.6731 39.2813 24.8281 39.1287 25.9651 38.8234C27.1022 38.5181 28.1791 38.0566 29.1959 37.4388C29.4603 37.2753 29.7284 37.1936 30 37.1936C30.2716 37.1936 30.5397 37.2753 30.8041 37.4388C31.8209 38.0638 32.8918 38.5427 34.0168 38.8757C35.1418 39.2086 36.3029 39.3751 37.5 39.3751H39.375C39.6418 39.3751 39.8648 39.4646 40.0439 39.6437C40.223 39.8228 40.3125 40.0458 40.3125 40.3126C40.3125 40.5794 40.223 40.8024 40.0439 40.9814C39.8648 41.1605 39.6418 41.2501 39.375 41.2501H37.5C36.1875 41.2501 34.9062 41.0938 33.6562 40.7813C32.4062 40.4688 31.1875 40.0001 30 39.3751C28.8125 40.0001 27.5859 40.4688 26.3203 40.7813C25.0547 41.0938 23.7812 41.2501 22.5 41.2501ZM11.25 20.6034L21.5445 17.2501C21.8474 17.1491 22.1659 17.0986 22.5 17.0986C22.8341 17.0986 23.1526 17.1491 23.4555 17.2501L33.75 20.6034V13.1251C33.75 12.7885 33.6418 12.5121 33.4255 12.2958C33.2091 12.0794 32.9327 11.9712 32.5962 11.9712H12.4038C12.0673 11.9712 11.7909 12.0794 11.5745 12.2958C11.3582 12.5121 11.25 12.7885 11.25 13.1251V20.6034ZM22.5 31.8751C23.5817 31.8751 24.5589 31.5451 25.4315 30.8853C26.3041 30.2254 27.1009 29.4796 27.8221 28.6479C28.4038 27.9796 29.1334 27.6533 30.0108 27.6689C30.8882 27.6846 31.6142 28.0265 32.1887 28.6948C32.6046 29.1587 33.0325 29.6028 33.4724 30.0271C33.9123 30.4514 34.4111 30.8246 34.9688 31.1467L37.0312 23.7188L22.5 18.9376L7.94709 23.7188L10.0312 31.1251C10.5817 30.8029 11.0889 30.4291 11.5529 30.0037C12.0168 29.5782 12.4567 29.1215 12.8726 28.6335C13.4615 27.9893 14.1725 27.6593 15.0054 27.6437C15.8383 27.6281 16.5457 27.9424 17.1274 28.5866C17.6851 29.1996 18.262 29.7952 18.8582 30.3733C19.4543 30.9514 20.137 31.3739 20.9062 31.6407C21.1562 31.7344 21.4141 31.7969 21.6797 31.8282C21.9453 31.8594 22.2188 31.8751 22.5 31.8751Z" fill="white" fill-opacity="0.8"/>
</svg>
