<svg width="45" height="45" viewBox="0 0 45 45" fill="none" xmlns="http://www.w3.org/2000/svg">
<path d="M16.659 36.6708C14.0532 35.7958 11.7552 34.4406 9.76474 32.6053C7.77437 30.7699 6.50274 28.5313 5.94987 25.8895C5.87774 25.5025 5.96128 25.1533 6.20046 24.842C6.43965 24.5307 6.75275 24.3751 7.13974 24.3751H9.37535V10.2693C9.37535 9.89674 9.50156 9.56862 9.75396 9.28496C10.0064 9.0013 10.3189 8.84024 10.6915 8.80177L38.4415 5.74046C38.7107 5.70202 38.9337 5.76933 39.1103 5.9424C39.287 6.11546 39.3754 6.33661 39.3754 6.60586C39.3754 6.8054 39.2984 6.98388 39.1446 7.14132C38.9907 7.29879 38.8141 7.39315 38.6145 7.4244L19.5436 9.5049V13.4496H38.546C38.784 13.4496 38.9817 13.5283 39.1392 13.6858C39.2966 13.8432 39.3754 14.041 39.3754 14.2789C39.3754 14.5169 39.2966 14.7146 39.1392 14.8721C38.9817 15.0296 38.784 15.1083 38.546 15.1083H19.5436V24.3751H37.861C38.248 24.3751 38.5671 24.5307 38.8183 24.842C39.0695 25.1533 39.159 25.5025 39.0869 25.8895C38.534 28.5554 37.2564 30.812 35.254 32.6594C33.2516 34.5067 30.9234 35.8439 28.2696 36.6708V37.8607C28.2696 38.2958 28.126 38.657 27.8387 38.9442C27.5515 39.2315 27.1903 39.3751 26.7551 39.3751H18.1734C17.7383 39.3751 17.3771 39.2315 17.0899 38.9442C16.8026 38.657 16.659 38.2958 16.659 37.8607V36.6708ZM15.2888 13.4496H17.8849V9.68879L15.2888 9.98447V13.4496ZM11.034 13.4496H13.6302V10.1684L11.034 10.428V13.4496ZM15.2888 24.3751H17.8849V15.1083H15.2888V24.3751ZM11.034 24.3751H13.6302V15.1083H11.034V24.3751ZM18.534 37.5001H26.3946V35.3655L27.4403 35.0049C29.635 34.3511 31.5869 33.2729 33.296 31.7705C35.0052 30.2681 36.2359 28.428 36.9883 26.2501H8.01237C8.74074 28.428 9.95949 30.2699 11.6686 31.776C13.3777 33.282 15.3176 34.3583 17.4883 35.0049L18.534 35.3655V37.5001Z" fill="white" fill-opacity="0.8"/>
</svg>
