<svg width="26" height="26" viewBox="0 0 26 26" fill="none" xmlns="http://www.w3.org/2000/svg">
<path d="M21.1708 22.2917L14.3666 15.4875C13.825 15.9347 13.202 16.2847 12.4979 16.5375C11.7937 16.7903 11.0652 16.9167 10.3125 16.9167C8.46087 16.9167 6.89381 16.2756 5.61128 14.9934C4.32876 13.7112 3.6875 12.1445 3.6875 10.2934C3.6875 8.44229 4.3286 6.87506 5.6108 5.59172C6.89299 4.30841 8.45966 3.66675 10.3108 3.66675C12.1619 3.66675 13.7291 4.30801 15.0125 5.59053C16.2958 6.87305 16.9375 8.44011 16.9375 10.2917C16.9375 11.0653 16.8076 11.8042 16.5479 12.5084C16.2881 13.2125 15.9416 13.825 15.5083 14.3459L22.3124 21.15L21.1708 22.2917ZM10.3125 15.2917C11.7083 15.2917 12.8906 14.8074 13.8594 13.8386C14.8281 12.8698 15.3125 11.6876 15.3125 10.2917C15.3125 8.89587 14.8281 7.71358 13.8594 6.74482C12.8906 5.77607 11.7083 5.29169 10.3125 5.29169C8.91662 5.29169 7.73433 5.77607 6.76558 6.74482C5.79684 7.71358 5.31247 8.89587 5.31247 10.2917C5.31247 11.6876 5.79684 12.8698 6.76558 13.8386C7.73433 14.8074 8.91662 15.2917 10.3125 15.2917Z" fill="#2D2D2D"/>
</svg>
