<svg width="26" height="26" viewBox="0 0 26 26" fill="none" xmlns="http://www.w3.org/2000/svg">
<path d="M19.6354 14.8959V11.6459H16.3854V10.021H19.6354V6.77098H21.2604V10.021H24.5104V11.6459H21.2604V14.8959H19.6354ZM9.74997 12.6667C8.70728 12.6667 7.81467 12.2955 7.07214 11.553C6.3296 10.8104 5.95833 9.91783 5.95833 8.87514C5.95833 7.83243 6.3296 6.93982 7.07214 6.1973C7.81467 5.45476 8.70728 5.0835 9.74997 5.0835C10.7927 5.0835 11.6853 5.45476 12.4278 6.1973C13.1703 6.93982 13.5416 7.83243 13.5416 8.87514C13.5416 9.91783 13.1703 10.8104 12.4278 11.553C11.6853 12.2955 10.7927 12.6667 9.74997 12.6667ZM1.62503 20.9167V18.5084C1.62503 17.9779 1.76911 17.4866 2.05728 17.0345C2.34548 16.5824 2.73055 16.2349 3.21249 15.9918C4.28333 15.4668 5.36354 15.073 6.45312 14.8106C7.5427 14.5481 8.64165 14.4168 9.74997 14.4168C10.8583 14.4168 11.9572 14.5481 13.0468 14.8106C14.1364 15.073 15.2166 15.4668 16.2875 15.9918C16.7694 16.2349 17.1545 16.5824 17.4426 17.0345C17.7308 17.4866 17.8749 17.9779 17.8749 18.5084V20.9167H1.62503ZM3.24997 19.2918H16.25V18.5084C16.25 18.289 16.1864 18.0859 16.0593 17.8991C15.9323 17.7123 15.7597 17.5598 15.5416 17.4418C14.6083 16.982 13.6566 16.6338 12.6866 16.397C11.7165 16.1602 10.7376 16.0418 9.74997 16.0418C8.7623 16.0418 7.78343 16.1602 6.81338 16.397C5.84333 16.6338 4.89164 16.982 3.95831 17.4418C3.74025 17.5598 3.56769 17.7123 3.44061 17.8991C3.31352 18.0859 3.24997 18.289 3.24997 18.5084V19.2918ZM9.74997 11.0418C10.3458 11.0418 10.8559 10.8297 11.2802 10.4053C11.7045 9.98104 11.9166 9.47097 11.9166 8.87514C11.9166 8.2793 11.7045 7.76923 11.2802 7.34493C10.8559 6.92062 10.3458 6.70847 9.74997 6.70847C9.15414 6.70847 8.64407 6.92062 8.21976 7.34493C7.79546 7.76923 7.58331 8.2793 7.58331 8.87514C7.58331 9.47097 7.79546 9.98104 8.21976 10.4053C8.64407 10.8297 9.15414 11.0418 9.74997 11.0418Z" fill="#2D2D2D"/>
</svg>
