<svg width="15" height="15" viewBox="0 0 15 15" fill="none" xmlns="http://www.w3.org/2000/svg">
<path d="M6.09375 10.024L10.024 7.49999L6.09375 4.97597V10.024ZM7.50103 13.4375C6.67982 13.4375 5.90793 13.2816 5.18534 12.97C4.46275 12.6583 3.8342 12.2353 3.29969 11.7011C2.76517 11.1668 2.34201 10.5385 2.0302 9.81624C1.7184 9.09398 1.5625 8.32224 1.5625 7.50103C1.5625 6.67982 1.71833 5.90793 2.03 5.18534C2.34167 4.46275 2.76464 3.8342 3.29891 3.29969C3.83319 2.76517 4.46146 2.34201 5.18373 2.0302C5.906 1.7184 6.67773 1.5625 7.49894 1.5625C8.32015 1.5625 9.09204 1.71833 9.81463 2.03C10.5372 2.34167 11.1658 2.76464 11.7003 3.29891C12.2348 3.83319 12.658 4.46146 12.9698 5.18374C13.2816 5.906 13.4375 6.67773 13.4375 7.49894C13.4375 8.32015 13.2816 9.09204 12.97 9.81463C12.6583 10.5372 12.2353 11.1658 11.7011 11.7003C11.1668 12.2348 10.5385 12.658 9.81624 12.9698C9.09398 13.2816 8.32224 13.4375 7.50103 13.4375ZM7.49998 12.5C8.89582 12.5 10.0781 12.0156 11.0469 11.0469C12.0156 10.0781 12.5 8.89582 12.5 7.49999C12.5 6.10415 12.0156 4.92186 11.0469 3.95311C10.0781 2.98436 8.89582 2.49998 7.49998 2.49998C6.10415 2.49998 4.92186 2.98436 3.95311 3.95311C2.98436 4.92186 2.49998 6.10415 2.49998 7.49999C2.49998 8.89582 2.98436 10.0781 3.95311 11.0469C4.92186 12.0156 6.10415 12.5 7.49998 12.5Z" fill="white" fill-opacity="0.8"/>
</svg>
