<svg width="15" height="15" viewBox="0 0 15 15" fill="none" xmlns="http://www.w3.org/2000/svg">
<path d="M4.65627 9.28122H9.34374V4.59375H4.65627V9.28122ZM7.00105 12.875C6.17984 12.875 5.40794 12.7191 4.68536 12.4075C3.96277 12.0958 3.33421 11.6728 2.7997 11.1386C2.26518 10.6043 1.84202 9.97601 1.53022 9.25374C1.21842 8.53148 1.06252 7.75974 1.06252 6.93853C1.06252 6.11732 1.21835 5.34543 1.53002 4.62284C1.84168 3.90025 2.26465 3.2717 2.79892 2.73719C3.3332 2.20267 3.96148 1.77951 4.68375 1.4677C5.40601 1.1559 6.17774 1 6.99895 1C7.82016 1 8.59206 1.15583 9.31464 1.4675C10.0372 1.77917 10.6658 2.20214 11.2003 2.73641C11.7348 3.27069 12.158 3.89896 12.4698 4.62124C12.7816 5.3435 12.9375 6.11523 12.9375 6.93644C12.9375 7.75765 12.7817 8.52954 12.47 9.25213C12.1583 9.97472 11.7354 10.6033 11.2011 11.1378C10.6668 11.6723 10.0385 12.0955 9.31625 12.4073C8.59399 12.7191 7.82226 12.875 7.00105 12.875ZM7 11.9375C8.39583 11.9375 9.57813 11.4531 10.5469 10.4844C11.5156 9.51561 12 8.33332 12 6.93749C12 5.54165 11.5156 4.35936 10.5469 3.39061C9.57813 2.42186 8.39583 1.93748 7 1.93748C5.60417 1.93748 4.42187 2.42186 3.45312 3.39061C2.48437 4.35936 2 5.54165 2 6.93749C2 8.33332 2.48437 9.51561 3.45312 10.4844C4.42187 11.4531 5.60417 11.9375 7 11.9375Z" fill="white" fill-opacity="0.8"/>
</svg>
