<svg width="190" height="64" viewBox="0 0 190 64" fill="none" xmlns="http://www.w3.org/2000/svg">
<g clip-path="url(#clip0_22_494)">
<path d="M55.58 48.409C54.2817 47.9404 54.0358 47.628 54.0358 47.0905C54.0358 46.5531 54.4093 46.1259 55.2976 46.1259C55.949 46.1259 56.3818 46.3418 56.8555 46.7368L57.3202 46.1626C56.7735 45.7216 56.2178 45.4644 55.3431 45.4644C54.1314 45.4644 53.3114 46.0891 53.3114 47.1365C53.3114 48.0828 53.7852 48.5422 55.1883 49.0475C56.3772 49.4793 56.7371 49.8238 56.7371 50.4302C56.7371 51.1239 56.1996 51.5557 55.3386 51.5557C54.669 51.5557 54.1041 51.2433 53.6121 50.7701L53.1338 51.3122C53.644 51.8359 54.4321 52.2218 55.3158 52.2218C56.6688 52.2218 57.4659 51.4225 57.4659 50.3981C57.4659 49.3736 57.0241 48.9372 55.5846 48.4135L55.58 48.409Z" fill="white"/>
<path d="M60.409 47.1044C59.7758 47.1044 59.2018 47.2606 58.7736 47.4949L59.0378 48.0645C59.4341 47.8302 59.8532 47.6878 60.3634 47.6878C61.074 47.6878 61.4202 48.0415 61.4202 48.7765V49.3553C61.1333 49.1946 60.6914 49.0705 60.204 49.0705C59.2428 49.0705 58.3408 49.5391 58.3408 50.6416C58.3408 51.8268 59.138 52.2127 59.8942 52.2127C60.5957 52.2127 61.074 51.8819 61.4202 51.5098V52.1116H62.1127V48.6847C62.1127 47.5454 61.4567 47.0952 60.409 47.0952V47.1044ZM61.4202 50.9126C61.1241 51.3215 60.6504 51.6476 60.0217 51.6476C59.425 51.6476 59.0241 51.3307 59.0241 50.6003C59.0241 49.9847 59.4523 49.6356 60.1675 49.6356C60.7597 49.6356 61.1014 49.7458 61.4202 49.9204V50.9172V50.9126Z" fill="white"/>
<path d="M69.1005 49.2403V52.116H69.7929V49.1255C69.7929 47.6923 69.1734 47.1042 68.1803 47.1042C67.3877 47.1042 66.9913 47.4763 66.7043 47.9449C66.472 47.4763 66.0575 47.1042 65.3696 47.1042C64.7956 47.1042 64.3857 47.3845 64.1351 47.8071V47.2099H63.4336V52.1206H64.1351V49.2449C64.1351 48.1562 64.5497 47.7106 65.2193 47.7106C65.8889 47.7106 66.267 48.1195 66.267 49.2449V52.1206H66.964V49.2449C66.964 48.1562 67.3877 47.7106 68.0482 47.7106C68.7497 47.7106 69.0959 48.1195 69.0959 49.2449L69.1005 49.2403Z" fill="white"/>
<path d="M72.5851 49.2589C71.7606 48.8822 71.5146 48.7215 71.5146 48.3034C71.5146 47.9451 71.8062 47.697 72.3209 47.697C72.8357 47.697 73.1545 47.8349 73.5326 48.138L73.9199 47.619C73.5509 47.3112 73.0316 47.0999 72.3665 47.0999C71.4782 47.0999 70.845 47.6052 70.845 48.3494C70.845 49.1349 71.2504 49.4335 72.2298 49.8561C73.0908 50.2282 73.3778 50.4533 73.3778 50.8575C73.3778 51.3353 73.0634 51.6155 72.3938 51.6155C71.9109 51.6155 71.4554 51.418 71.0682 51.0735L70.6582 51.5834C71.1229 51.9601 71.7059 52.2127 72.3756 52.2127C73.2183 52.2127 74.0428 51.7947 74.0428 50.8254C74.0428 49.948 73.5053 49.677 72.5806 49.2543L72.5851 49.2589Z" fill="white"/>
<path d="M78.1061 50.0764C78.1061 51.1514 77.5732 51.6061 76.9035 51.6061C76.12 51.6061 75.751 51.133 75.751 50.0764V47.2053H75.0586V50.1959C75.0586 51.6061 75.7373 52.2171 76.7623 52.2171C77.3773 52.2171 77.8283 51.9277 78.1061 51.5143V52.116H78.8031V47.2053H78.1061V50.0764Z" fill="white"/>
<path d="M83.7227 52.116V49.1255C83.7227 47.7106 83.044 47.1042 82.0144 47.1042C81.404 47.1042 80.9485 47.3937 80.6752 47.8071V47.2099H79.9736V52.1206H80.6752V49.2449C80.6752 48.17 81.199 47.7106 81.8732 47.7106C82.6522 47.7106 83.0257 48.1884 83.0257 49.2449V52.1206H83.7227V52.116Z" fill="white"/>
<path d="M85.9142 53.3841L86.1374 53.917C87.9459 53.8619 88.6019 53.1498 88.6019 51.6706V47.2009H87.9049V47.7522C87.5632 47.3571 87.1442 47.0999 86.5337 47.0999C85.5133 47.0999 84.6934 47.9956 84.6934 49.7367C84.6934 51.4777 85.4678 52.2127 86.4381 52.2127C87.0986 52.2127 87.5632 51.882 87.9049 51.5099V51.7625C87.9049 52.9064 87.5359 53.3382 85.9096 53.3795L85.9142 53.3841ZM86.6157 51.6063C85.8459 51.6063 85.3812 50.9632 85.3812 49.7275C85.3812 48.4091 85.7775 47.7062 86.5884 47.7062C87.1669 47.7062 87.6361 48.0324 87.9049 48.4412V50.8989C87.5632 51.3307 87.135 51.6063 86.6157 51.6063Z" fill="white"/>
<path d="M96.2819 48.7948C96.2819 46.5485 95.0246 45.5654 93.3209 45.5654H91.6035V52.1161H93.1933C94.9289 52.1161 96.2819 51.1698 96.2819 48.7948ZM92.3278 46.2269H93.2662C94.7604 46.2269 95.5576 47.1457 95.5576 48.8178C95.5576 50.7013 94.6829 51.45 93.2844 51.45H92.3278V46.2269Z" fill="white"/>
<path d="M98.1364 47.8117V47.2054H97.4395V52.1161H98.1364V49.2312C98.1364 48.2941 98.5191 47.7474 99.1978 47.7474C99.5213 47.7474 99.7308 47.8209 99.9267 47.9358L100.1 47.2283C99.9358 47.1548 99.7035 47.1089 99.339 47.1089C98.8152 47.1089 98.3551 47.4259 98.1364 47.8163V47.8117Z" fill="white"/>
<path d="M104.263 51.6475L103.935 51.1422C103.489 51.4408 103.156 51.6108 102.587 51.6108C101.794 51.6108 101.298 50.9447 101.234 49.9019H104.478C104.5 49.787 104.509 49.686 104.509 49.5206C104.509 48.1195 103.817 47.1089 102.546 47.1089C101.389 47.1089 100.537 48.0782 100.537 49.6355C100.537 51.5694 101.621 52.2217 102.514 52.2217C103.248 52.2217 103.676 52.0242 104.263 51.6521V51.6475ZM102.546 47.7107C103.398 47.7107 103.808 48.3768 103.863 49.3277H101.234C101.316 48.2298 101.822 47.7107 102.546 47.7107Z" fill="white"/>
<path d="M106.833 52.2173C107.53 52.2173 108.008 51.8866 108.35 51.5145V52.1162H109.047V48.6893C109.047 47.55 108.391 47.0999 107.343 47.0999C106.71 47.0999 106.136 47.256 105.707 47.4903L105.967 48.06C106.368 47.8257 106.783 47.6833 107.293 47.6833C108.008 47.6833 108.35 48.037 108.35 48.772V49.3508C108.063 49.19 107.625 49.066 107.138 49.066C106.172 49.066 105.266 49.5345 105.266 50.6371C105.266 51.8222 106.067 52.2081 106.828 52.2081L106.833 52.2173ZM107.101 49.631C107.694 49.631 108.04 49.7413 108.354 49.9158V50.9127C108.058 51.3215 107.584 51.6477 106.956 51.6477C106.363 51.6477 105.958 51.3307 105.958 50.6003C105.958 49.9847 106.391 49.6356 107.101 49.6356V49.631Z" fill="white"/>
<path d="M116.034 49.2403V52.116H116.731V49.1255C116.731 47.6923 116.112 47.1042 115.119 47.1042C114.331 47.1042 113.93 47.4763 113.647 47.9449C113.415 47.4763 113.001 47.1042 112.313 47.1042C111.734 47.1042 111.329 47.3845 111.078 47.8071V47.2099H110.386V52.1206H111.078V49.2449C111.078 48.1562 111.497 47.7106 112.167 47.7106C112.837 47.7106 113.219 48.1195 113.219 49.2449V52.1206H113.912V49.2449C113.912 48.1562 114.335 47.7106 115 47.7106C115.702 47.7106 116.048 48.1195 116.048 49.2449L116.034 49.2403Z" fill="white"/>
<path d="M55.58 58.1522C54.2772 57.6836 54.0403 57.3758 54.0403 56.8338C54.0403 56.2917 54.4138 55.8737 55.3021 55.8737C55.9536 55.8737 56.3909 56.085 56.8601 56.48L57.3247 55.9104C56.7781 55.474 56.2178 55.2122 55.3477 55.2122C54.1314 55.2122 53.316 55.8277 53.316 56.8843C53.316 57.8306 53.7898 58.2854 55.1928 58.7907C56.3818 59.2271 56.7416 59.567 56.7416 60.178C56.7416 60.8671 56.2041 61.2989 55.3386 61.2989C54.669 61.2989 54.1041 60.9865 53.6121 60.5134L53.1338 61.0554C53.644 61.5791 54.4321 61.9604 55.3158 61.9604C56.6688 61.9604 57.4614 61.1657 57.4614 60.1367C57.4614 59.1077 57.0195 58.6759 55.5846 58.1522H55.58Z" fill="white"/>
<path d="M60.4178 57.454C60.9097 57.454 61.2332 57.6286 61.5839 57.9501L62.003 57.4264C61.6204 57.0865 61.1147 56.843 60.4633 56.843C59.4429 56.843 58.3633 57.6102 58.3633 59.4247C58.3633 61.1382 59.3427 61.9559 60.4132 61.9559C61.0965 61.9559 61.5703 61.694 61.9802 61.2714L61.5612 60.8258C61.2286 61.152 60.9143 61.3449 60.4405 61.3449C59.5796 61.3449 59.0648 60.5686 59.0648 59.3604C59.0648 58.1522 59.6525 57.4448 60.4132 57.4448L60.4178 57.454Z" fill="white"/>
<path d="M64.9773 56.8476C64.3669 56.8476 63.9068 57.137 63.6289 57.5505V55.2444H62.9365V61.8686H63.6289V58.9929C63.6289 57.918 64.1619 57.4586 64.8361 57.4586C65.6196 57.4586 65.9886 57.9317 65.9886 58.9929V61.8686H66.6856V58.8689C66.6856 57.4586 66.0068 56.8476 64.9773 56.8476Z" fill="white"/>
<path d="M69.7924 56.8477C68.608 56.8477 67.665 57.7434 67.665 59.411C67.665 61.0785 68.5716 61.9651 69.756 61.9651C70.9404 61.9651 71.8924 61.0418 71.8924 59.3742C71.8924 57.7067 70.9768 56.8477 69.7924 56.8477ZM69.7787 61.3541C68.9314 61.3541 68.362 60.6834 68.362 59.3926C68.362 58.1017 68.9314 57.4586 69.7787 57.4586C70.626 57.4586 71.1955 58.1017 71.1955 59.3926C71.1955 60.6834 70.6215 61.3541 69.7787 61.3541Z" fill="white"/>
<path d="M73.6374 55.2397H72.9404V61.8639H73.6374V55.2397Z" fill="white"/>
<path d="M76.8214 56.8477C76.1882 56.8477 75.6142 57.0084 75.1906 57.2427L75.4502 57.8169C75.8511 57.5827 76.2702 57.4403 76.7804 57.4403C77.491 57.4403 77.8372 57.7986 77.8372 58.5244V59.1078C77.5503 58.947 77.1129 58.823 76.6255 58.823C75.6598 58.823 74.7578 59.2915 74.7578 60.3986C74.7578 61.5838 75.555 61.9651 76.3157 61.9651C77.0127 61.9651 77.491 61.6389 77.8372 61.2669V61.8686H78.5342V58.4463C78.5342 57.2978 77.8737 56.8523 76.8259 56.8523L76.8214 56.8477ZM77.8327 60.6559C77.5411 61.0601 77.0583 61.3909 76.4342 61.3909C75.842 61.3909 75.4411 61.0739 75.4411 60.3435C75.4411 59.7234 75.8693 59.3834 76.5845 59.3834C77.1767 59.3834 77.5184 59.4845 77.8327 59.6636V60.6559Z" fill="white"/>
<path d="M80.5524 57.5596V56.944H79.8555V61.8594H80.5524V58.9745C80.5524 58.0419 80.926 57.4861 81.6093 57.4861C81.9373 57.4861 82.1468 57.5596 82.3427 57.6744L82.5204 56.9624C82.3518 56.8889 82.124 56.8384 81.7596 56.8384C81.2403 56.8384 80.7711 57.1553 80.557 57.555L80.5524 57.5596Z" fill="white"/>
<path d="M85.1903 59.0067C84.3657 58.63 84.1152 58.4601 84.1152 58.0512C84.1152 57.6975 84.4113 57.4448 84.9215 57.4448C85.4317 57.4448 85.7597 57.5873 86.1378 57.8858L86.525 57.3713C86.1514 57.0636 85.6367 56.8477 84.9671 56.8477C84.0833 56.8477 83.441 57.353 83.441 58.1018C83.441 58.8505 83.851 59.1859 84.8258 59.6039C85.6868 59.976 85.9738 60.2057 85.9738 60.6053C85.9738 61.0877 85.6595 61.3633 84.9944 61.3633C84.507 61.3633 84.056 61.1658 83.6642 60.8213L83.2588 61.3358C83.7234 61.7125 84.3065 61.9605 84.9762 61.9605C85.8189 61.9605 86.6434 61.5379 86.6434 60.5778C86.6434 59.6958 86.1059 59.4293 85.1857 59.0067H85.1903Z" fill="white"/>
<path d="M89.8227 56.8476C89.2032 56.8476 88.7522 57.137 88.4743 57.5505V55.2444H87.7773V61.8686H88.4743V58.9929C88.4743 57.918 89.0027 57.4586 89.6815 57.4586C90.4605 57.4586 90.8294 57.9317 90.8294 58.9929V61.8686H91.5264V58.8689C91.5264 57.4586 90.8522 56.8476 89.8227 56.8476Z" fill="white"/>
<path d="M93.5948 56.9441H92.9023V61.8594H93.5948V56.9441Z" fill="white"/>
<path d="M93.2625 55.0698C92.98 55.0698 92.7568 55.2949 92.7568 55.5797C92.7568 55.8645 92.98 56.0759 93.2625 56.0759C93.5221 56.0759 93.7454 55.8462 93.7454 55.5797C93.7454 55.2949 93.5221 55.0698 93.2625 55.0698Z" fill="white"/>
<path d="M97.1618 56.8477C96.5059 56.8477 96.0412 57.1784 95.695 57.5505V56.9487H94.998V63.6694H95.695V61.3128C96.0367 61.7033 96.4558 61.9651 97.0707 61.9651C98.0866 61.9651 98.9066 61.0647 98.9066 59.3283C98.9066 57.5918 98.1321 56.8477 97.1618 56.8477ZM97.0115 61.3541C96.4376 61.3541 95.9638 61.028 95.695 60.6145V58.1615C96.0367 57.7343 96.4649 57.454 96.9842 57.454C97.7586 57.454 98.2233 58.0972 98.2233 59.3329C98.2233 60.6513 97.8224 61.3495 97.0161 61.3495L97.0115 61.3541Z" fill="white"/>
<path d="M102.591 55.9747H105.68V55.3132H101.867V61.8639H102.591V58.8091H104.373V58.1476H102.591V55.9747Z" fill="white"/>
<path d="M107.794 56.8477C106.61 56.8477 105.662 57.7434 105.662 59.411C105.662 61.0785 106.573 61.9651 107.758 61.9651C108.942 61.9651 109.894 61.0418 109.894 59.3742C109.894 57.7067 108.988 56.8477 107.794 56.8477ZM107.776 61.3541C106.929 61.3541 106.368 60.6834 106.368 59.3926C106.368 58.1017 106.933 57.4586 107.776 57.4586C108.619 57.4586 109.197 58.1017 109.197 59.3926C109.197 60.6834 108.623 61.3541 107.776 61.3541Z" fill="white"/>
<path d="M113.734 59.8198C113.734 60.8947 113.21 61.3541 112.531 61.3541C111.752 61.3541 111.379 60.8809 111.379 59.8198V56.9441H110.687V59.9392C110.687 61.3495 111.365 61.9605 112.395 61.9605C113.001 61.9605 113.456 61.6757 113.734 61.2622V61.864H114.436V56.9487H113.734V59.8244V59.8198Z" fill="white"/>
<path d="M117.642 56.8476C117.032 56.8476 116.576 57.137 116.299 57.5505V56.9487H115.602V61.864H116.299V58.9883C116.299 57.9134 116.827 57.454 117.506 57.454C118.285 57.454 118.654 57.9271 118.654 58.9883V61.864H119.351V58.8643C119.351 57.454 118.672 56.843 117.642 56.843V56.8476Z" fill="white"/>
<path d="M123.537 57.5045C123.191 57.1094 122.776 56.843 122.161 56.843C121.141 56.843 120.325 57.7388 120.325 59.4844C120.325 61.23 121.095 61.9604 122.07 61.9604C122.73 61.9604 123.191 61.6343 123.532 61.2622V61.8639H124.229V55.2397H123.532V57.5045H123.537ZM123.537 60.642C123.191 61.0692 122.767 61.3494 122.248 61.3494C121.478 61.3494 121.013 60.7063 121.013 59.4706C121.013 58.1476 121.409 57.4493 122.22 57.4493C122.794 57.4493 123.263 57.7755 123.537 58.1889V60.6374V60.642Z" fill="white"/>
<path d="M127.181 56.8477C126.552 56.8477 125.978 57.0084 125.55 57.2427L125.805 57.8169C126.206 57.5827 126.625 57.4403 127.136 57.4403C127.846 57.4403 128.188 57.7986 128.188 58.5244V59.1078C127.901 58.947 127.464 58.823 126.972 58.823C126.01 58.823 125.108 59.2915 125.108 60.3986C125.108 61.5838 125.91 61.9651 126.671 61.9651C127.368 61.9651 127.846 61.6389 128.188 61.2669V61.8686H128.885V58.4463C128.885 57.2978 128.229 56.8523 127.177 56.8523L127.181 56.8477ZM128.188 60.6559C127.892 61.0601 127.423 61.3909 126.785 61.3909C126.197 61.3909 125.801 61.0739 125.801 60.3435C125.801 59.7234 126.224 59.3834 126.94 59.3834C127.532 59.3834 127.878 59.4845 128.188 59.6636V60.6559Z" fill="white"/>
<path d="M131.108 55.2397H130.407V56.944H129.806V57.5366H130.407V60.8487C130.407 61.6618 130.735 61.9558 131.341 61.9558C131.705 61.9558 131.965 61.9007 132.234 61.7904L132.284 61.1841C132.061 61.2759 131.878 61.3219 131.596 61.3219C131.227 61.3219 131.108 61.1703 131.108 60.7339V57.5366H132.316V56.944H131.108V55.2397Z" fill="white"/>
<path d="M133.896 55.0698C133.609 55.0698 133.381 55.2949 133.381 55.5797C133.381 55.8645 133.609 56.0759 133.896 56.0759C134.155 56.0759 134.374 55.8462 134.374 55.5797C134.374 55.2949 134.151 55.0698 133.896 55.0698Z" fill="white"/>
<path d="M134.228 56.9441H133.531V61.8594H134.228V56.9441Z" fill="white"/>
<path d="M137.408 56.8477C136.224 56.8477 135.276 57.7434 135.276 59.411C135.276 61.0785 136.183 61.9651 137.372 61.9651C138.561 61.9651 139.504 61.0418 139.504 59.3742C139.504 57.7067 138.593 56.8477 137.408 56.8477ZM137.39 61.3541C136.547 61.3541 135.978 60.6834 135.978 59.3926C135.978 58.1017 136.547 57.4586 137.39 57.4586C138.233 57.4586 138.811 58.1017 138.811 59.3926C138.811 60.6834 138.237 61.3541 137.39 61.3541Z" fill="white"/>
<path d="M142.551 56.8476C141.941 56.8476 141.485 57.137 141.203 57.5505V56.9487H140.506V61.864H141.203V58.9883C141.203 57.9134 141.731 57.454 142.41 57.454C143.189 57.454 143.563 57.9271 143.563 58.9883V61.864H144.255V58.8643C144.255 57.454 143.576 56.843 142.551 56.843V56.8476Z" fill="white"/>
<path d="M79.9331 32.6707C77.1361 32.6752 74.8311 34.8803 74.8311 37.6457C74.8311 40.4111 77.1361 42.5932 79.9331 42.6024C82.7574 42.5932 85.0396 40.3836 85.0396 37.6457C85.0396 34.9078 82.7574 32.6752 79.9331 32.6707ZM79.8647 40.333C78.4025 40.333 77.3001 39.1295 77.3001 37.6457C77.3001 36.1619 78.4799 34.9354 79.9376 34.9354C81.3953 34.9354 82.5342 36.1389 82.5342 37.6457C82.5342 39.1524 81.3407 40.333 79.8693 40.333H79.8647Z" fill="white"/>
<path d="M56.5229 29.2484C57.3019 30.0248 58.1947 30.7046 59.0739 31.141L59.165 31.1916L60.6728 29.3954L60.5271 29.3127C59.0967 28.5318 57.9761 27.5441 57.2427 26.2992C56.5138 25.0727 56.1402 23.6486 56.1402 21.9443V20.3457H53.4435V21.7744C53.4435 23.6211 53.0289 25.0727 52.25 26.3452C51.3799 27.7554 50.0907 28.8901 48.4417 29.9421L48.2959 30.0339L49.9313 31.7428L50.0224 31.6923C50.9972 31.1594 52.0313 30.3371 52.9287 29.4184C53.7077 28.6145 54.3819 27.7554 54.7919 26.9423C55.1882 27.7417 55.794 28.5548 56.5229 29.253V29.2484Z" fill="white"/>
<path d="M53.6025 41.4264H64.8907V33.6492H53.6025V41.4264ZM56.1399 35.845H62.3534V39.2306H56.1399V35.845Z" fill="white"/>
<path d="M91.2393 41.4264H104.003V33.6492H91.2393V41.4264ZM93.7493 35.845H101.498V39.2306H93.7493V35.845Z" fill="white"/>
<path d="M64.9368 19.8862H62.4268V32.7579H64.9368V27.0617H67.875V24.774H64.9368V19.8862Z" fill="white"/>
<path d="M116.977 29.9053C117.802 30.6266 118.745 31.2329 119.633 31.6234L119.724 31.6648L121.081 29.8135L120.936 29.74C119.642 29.0739 118.489 28.247 117.66 27.2364C116.818 26.2074 116.317 24.9671 116.317 23.4741V23.0377H120.052V20.8235H109.912V23.0377H113.643V23.5706C113.643 24.9303 113.196 26.1982 112.454 27.2961C111.584 28.6145 110.313 29.6757 109.078 30.3647L108.914 30.452L110.581 32.193L110.672 32.1471C111.57 31.6326 112.563 30.8563 113.41 29.9834C114.089 29.2668 114.699 28.5088 115.073 27.7509C115.524 28.4859 116.216 29.2209 116.982 29.9053H116.977Z" fill="white"/>
<path d="M135.131 35.8955H144.255V41.4218H146.788V33.6997H135.131V35.8955Z" fill="white"/>
<path d="M141.426 27.0434C141.426 25.8261 140.884 24.7052 140.082 23.8507H142.587V21.6595H137.804V19.2478H135.085V21.6595H130.188V23.8507H132.748C131.964 24.7052 131.422 25.8169 131.422 27.0434C131.422 29.7583 133.64 31.9633 136.415 31.9725C139.189 31.9633 141.421 29.7583 141.426 27.0434ZM133.841 26.9424C133.841 25.4402 135.098 24.1677 136.415 24.1677C137.731 24.1677 138.984 25.4448 138.988 26.9424C138.988 28.4215 137.731 29.6986 136.415 29.7032C135.094 29.6986 133.845 28.4215 133.841 26.9424Z" fill="white"/>
<path d="M146.788 19.8862H144.282V32.8039H146.788V27.8748H149.735V25.5871H146.788V19.8862Z" fill="white"/>
<path d="M125.528 19.8862H123.022V32.8039H125.528V27.0617H128.471V24.774H125.528V19.8862Z" fill="white"/>
<path d="M82.9987 23.7174H79.0537V25.9822H82.9987V33.2127H85.5087V19.8862H82.9987V23.7174Z" fill="white"/>
<path d="M76.6255 29.5838C77.409 30.3555 78.3246 31.0354 79.1992 31.4948L79.2949 31.5499L80.8027 29.7537L80.657 29.671C79.2266 28.9131 78.1287 27.93 77.3908 26.7035C76.6437 25.4861 76.2701 24.0069 76.2701 22.3026V20.3457H73.5688V22.1373C73.5688 23.984 73.1588 25.431 72.3981 26.6805C71.5325 28.1138 70.216 29.2576 68.567 30.3004L68.4258 30.3923L70.0703 32.1057L70.1523 32.0506C71.1226 31.5131 72.1339 30.7368 73.0313 29.8502C73.8421 29.0371 74.5163 28.1505 74.9263 27.3007C75.3135 28.077 75.9057 28.8671 76.6255 29.5883V29.5838Z" fill="white"/>
<path d="M120.148 32.6707C117.351 32.6752 115.046 34.8803 115.041 37.6457C115.046 40.3836 117.346 42.5932 120.148 42.6024C122.967 42.5932 125.254 40.3836 125.254 37.6457C125.254 34.9078 122.967 32.6752 120.148 32.6707ZM120.075 40.333C118.617 40.333 117.505 39.1295 117.505 37.6457C117.505 36.1619 118.681 34.9354 120.148 34.9354C121.614 34.9354 122.74 36.1389 122.744 37.6457C122.744 39.1249 121.546 40.333 120.075 40.333Z" fill="white"/>
<path d="M94.2961 27.2685H96.8061V20.6948H90.0322V22.8815H94.2961V27.2685Z" fill="white"/>
<path d="M101.831 27.2685H104.345V20.6948H97.5713V22.8815H101.831V27.2685Z" fill="white"/>
<path d="M165.811 25.7065H163.701V20.2445H161.328V40.8705H163.701V28.1872H165.811V41.4218H168.271V19.8862H165.811V25.7065Z" fill="white"/>
<path d="M157.848 28.5595C157.283 27.3145 157.051 25.9226 157.051 24.2138V23.4007H159.898V21.0808H151.626V23.4007H154.564V24.2597C154.564 25.8767 154.354 27.1997 153.849 28.4262C153.261 29.8365 152.272 31.1044 150.696 32.4641L150.587 32.5652L152.145 34.1225L152.241 34.049C153.024 33.4656 153.844 32.6203 154.527 31.7475C155.106 31.0125 155.593 30.25 155.898 29.5793C156.213 30.2316 156.705 30.9804 157.279 31.6786C157.944 32.4963 158.695 33.2727 159.415 33.7366L159.511 33.8009L160.823 32.2207L160.718 32.1242C159.306 30.8839 158.431 29.7768 157.857 28.5549L157.848 28.5595Z" fill="white"/>
<path d="M87.9326 30.3279H96.2644V32.7809H98.9839V30.3279H107.448V28.1274H87.9326V30.3279Z" fill="white"/>
<path d="M182.561 29.6251H174.079V23.1158H180.539V20.8235H171.537V31.8485H182.561V29.6251Z" fill="white"/>
<path d="M177.764 34.5588H175.227V41.4219H187.093V39.1618H177.764V34.5588Z" fill="white"/>
<path d="M187.035 25.8491V19.8818H184.529V35.7717H187.035V28.1368H190V25.8491H187.035Z" fill="white"/>
<path d="M53.2116 13.2392L46.7111 10.5243L53.2116 7.80939L52.0545 5.0026L45.5586 7.71752L48.2508 1.16222L45.4629 0L42.7752 6.5553L40.083 0L37.2951 1.16222L39.9873 7.71752L33.4914 5.0026L32.3389 7.80939L38.8348 10.5243L32.3389 13.2392L33.4914 16.046L39.9873 13.3311L37.2951 19.8864L40.083 21.0486L42.7752 14.4979L45.4629 21.0486L48.2508 19.8818L45.5586 13.3311L52.0545 16.046L53.2116 13.2392Z" fill="white"/>
<path d="M11.1515 31.5271H15.4746V19.8865H0.692383V23.8095H11.1515V31.5271Z" fill="white"/>
<path d="M28.0158 31.5271H32.3388V19.8865H17.5566V23.8095H28.0158V31.5271Z" fill="white"/>
<path d="M0 37.5495H28.0155V43.5444H32.3386V33.6265H0V37.5495Z" fill="white"/>
<path d="M10.459 61.8643H32.3384V45.561H10.459V61.8643ZM14.782 49.4841H28.0199V57.9412H14.782V49.4841Z" fill="white"/>
</g>
<defs>
<clipPath id="clip0_22_494">
<rect width="190" height="63.6649" fill="white"/>
</clipPath>
</defs>
</svg>
