<svg width="129" height="137" viewBox="0 0 129 137" fill="none" xmlns="http://www.w3.org/2000/svg">
<path d="M14.9713 59.5095C10.5205 63.9407 8.09277 69.8 8.09277 76.0623C8.09277 88.9529 18.6497 99.4632 31.5975 99.4632C37.8875 99.4632 43.7728 97.0096 48.2237 92.6151C50.5778 90.2347 52.3802 87.4515 53.5573 84.4485H75.4803C78.8644 93.2376 87.3982 99.4999 97.4033 99.4999C103.693 99.4999 109.579 97.0462 114.029 92.6517C118.48 88.2205 120.908 82.3611 120.908 76.0989C120.908 63.2082 110.351 52.6979 97.4033 52.6979C93.6146 52.6979 89.973 53.6135 86.6993 55.2614C85.3383 53.174 83.683 51.1965 81.7335 49.402C80.5932 48.3766 78.8644 48.3034 77.6505 49.2189C77.5034 49.3288 64.5923 58.9235 52.2331 50.1344L45.7224 40.1002C50.0261 45.3371 56.6103 48.7062 63.9302 48.7062C70.2202 48.7062 76.1056 46.2526 80.5564 41.8214C85.0072 37.3903 87.4349 31.4942 87.4349 25.2686C87.4349 12.378 76.8781 1.86768 63.9302 1.86768C57.6402 1.86768 51.7549 4.3213 47.3041 8.75247C42.8533 13.1836 40.4255 19.0796 40.4255 25.3053C40.4255 29.0772 41.3451 32.6661 42.9636 35.8155L35.1287 23.7305C32.7378 20.0318 27.772 18.9698 24.0568 21.3502C20.3417 23.7305 19.275 28.6744 21.6659 32.3732L35.0184 52.9177C33.9148 52.7712 32.8113 52.6613 31.6343 52.6613C25.3443 52.6613 19.4589 55.1149 15.0081 59.5095H14.9713ZM51.7917 13.1836C55.0286 9.96097 59.3323 8.16653 63.9302 8.16653C73.3836 8.16653 81.0714 15.8204 81.1082 25.232C81.1082 29.773 79.3058 34.0577 76.0688 37.317C72.8319 40.5397 68.5282 42.3341 63.9302 42.3341C54.4769 42.3341 46.7891 34.6803 46.7523 25.2686C46.7523 20.7276 48.5547 16.4063 51.7917 13.1836ZM85.2647 63.9406C88.5017 60.718 92.8421 58.9235 97.4033 58.9235C106.857 58.9235 114.581 66.5774 114.581 76.0257C114.581 80.6033 112.779 84.888 109.542 88.1107C106.305 91.3333 102.001 93.1278 97.4033 93.1278C87.9499 93.1278 80.2254 85.4739 80.2254 76.0257C80.2254 71.448 82.0278 67.1633 85.2647 63.9406ZM25.9696 29.5533C25.565 28.9308 25.4178 28.1617 25.565 27.4293C25.7121 26.6969 26.1535 26.0743 26.7788 25.6348C28.0663 24.8292 29.8687 25.1954 30.7147 26.4771L46.0534 50.0978L49.9893 56.177L50.2468 56.4333C51.3135 57.0925 52.4538 57.6784 53.5573 58.1545C54.4769 58.5573 55.4332 58.8869 56.4264 59.1799C66.2108 62.0363 75.186 58.008 79.0851 55.7741C79.9679 56.7629 80.7403 57.8249 81.4392 58.8869C81.2185 59.1066 80.961 59.2898 80.7403 59.5095C76.2895 63.9407 73.8618 69.8 73.8618 76.0623C73.8618 76.7215 73.8986 77.4173 73.9722 78.0764H54.9918C55.0654 77.4173 55.1022 76.7215 55.1022 76.0623C55.1022 67.1999 50.0996 59.4729 42.7797 55.4811L42.4486 54.9685L25.9696 29.5899V29.5533ZM48.7754 76.0257C48.7754 80.6033 46.973 84.888 43.7361 88.1107C40.4991 91.3333 36.1954 93.1278 31.5975 93.1278C22.1441 93.1278 14.4195 85.4739 14.4195 76.0257C14.4195 71.448 16.2219 67.1633 19.4589 63.9406C22.6959 60.718 27.0363 58.9235 31.5975 58.9235C41.0509 58.9235 48.7754 66.5774 48.7754 76.0257Z" fill="white" stroke="white" stroke-miterlimit="10"/>
<path d="M2.75846 134.217C3.34699 134.803 4.15623 135.169 5.00225 135.169H58.1913C59.8833 135.169 61.2811 133.814 61.3547 132.129C61.3547 131.287 61.8697 111.548 49.4 100.196C48.2597 99.1703 46.5677 99.0971 45.3538 100.013C44.8021 100.452 31.4129 110.34 18.7225 100.013C17.5455 99.0604 15.8166 99.0604 14.6396 100.086C14.1246 100.525 2.13314 111.145 1.83887 131.983C1.83887 132.825 2.13314 133.631 2.75846 134.253V134.217ZM17.1041 106.604C28.2863 113.965 40.2777 110.486 46.862 106.531C53.1152 113.599 54.5865 123.78 54.9176 128.833H8.31278C9.26915 117.151 14.3453 109.79 17.0673 106.604H17.1041Z" fill="white" stroke="white" stroke-miterlimit="10"/>
<path d="M111.159 99.976C110.608 100.415 97.2185 110.303 84.5282 99.976C83.3511 99.0238 81.6223 99.0238 80.4452 100.049C79.9303 100.489 67.9388 111.109 67.6445 131.946C67.6445 132.789 67.9756 133.594 68.5641 134.217C69.1527 134.803 69.9619 135.169 70.8079 135.169H123.997C125.689 135.169 127.087 133.814 127.16 132.129C127.16 131.287 127.712 111.548 115.206 100.196C114.065 99.1703 112.373 99.0971 111.159 100.013V99.976ZM120.723 128.833H74.1184C75.0748 117.151 80.151 109.79 82.8729 106.604C94.0551 113.965 106.047 110.486 112.631 106.531C118.884 113.599 120.355 123.78 120.686 128.833H120.723Z" fill="white" stroke="white" stroke-miterlimit="10"/>
</svg>
