<svg width="53" height="58" viewBox="0 0 53 58" fill="none" xmlns="http://www.w3.org/2000/svg">
<g clip-path="url(#clip0_22_324)">
<path d="M51.031 48.315C52.4863 50.7051 52.9352 52.7653 52.1243 54.1876C49.8725 58.1174 38.8888 56.0352 26.4932 49.6641C27.9919 48.9016 29.5124 48.0731 31.0402 47.1787C35.3989 44.6273 39.3087 41.8926 42.5597 39.1946L42.6611 39.3192C45.4052 41.6067 47.6859 43.8648 49.3512 45.947C49.0037 46.2109 48.7865 46.6288 48.7865 47.098C48.7865 47.9045 49.4309 48.557 50.2273 48.557C50.5242 48.557 50.7921 48.4617 51.0238 48.315H51.031Z" stroke="black" stroke-width="1.3" stroke-linecap="round" stroke-linejoin="round"/>
<path d="M50.2348 45.6463C51.024 45.6463 51.6756 46.2988 51.6756 47.098C51.6756 47.6038 51.4222 48.0511 51.0312 48.315C50.7995 48.469 50.5316 48.5569 50.2348 48.5569C49.4383 48.5569 48.7939 47.9044 48.7939 47.098C48.7939 46.6287 49.0112 46.2108 49.3587 45.9469C49.5976 45.7636 49.9017 45.6463 50.2348 45.6463Z" stroke="black" stroke-width="1.3" stroke-linecap="round" stroke-linejoin="round"/>
<path d="M49.2934 22.2587C49.2934 22.3246 49.2934 22.3833 49.2789 22.442C49.192 23.1531 48.5838 23.703 47.8598 23.703C47.0633 23.703 46.4189 23.0505 46.4189 22.2513V22.2367C46.4189 21.4375 47.0706 20.7997 47.8598 20.7997C48.649 20.7997 49.2934 21.4449 49.2934 22.2513V22.2587Z" stroke="black" stroke-width="1.3" stroke-linecap="round" stroke-linejoin="round"/>
<path d="M37.4329 16.3787C37.4329 19.9932 35.6373 23.1824 32.9076 25.096V27.0022H21.0044V25.096C18.282 23.1824 16.4863 19.9932 16.4863 16.3787C16.4863 10.5281 21.1781 5.77728 26.956 5.77728C32.7339 5.77728 37.4257 10.5281 37.4257 16.3787H37.4329ZM27.7742 15.8435L28.8385 15.7042C28.7589 15.279 28.5923 14.9491 28.3317 14.6925C28.0638 14.4505 27.7162 14.2819 27.2673 14.2379V13.82H26.6591V14.2379C26.1885 14.2892 25.8048 14.4652 25.5224 14.7804C25.2328 15.0957 25.0952 15.4843 25.0952 15.9462C25.0952 16.408 25.2111 16.782 25.4717 17.1119C25.7251 17.4345 26.1306 17.6691 26.6591 17.823V19.5899C26.5143 19.5166 26.3768 19.3993 26.2609 19.238C26.1378 19.0767 26.0509 18.8788 26.0075 18.6515L24.9214 18.7908C25.0083 19.3407 25.2038 19.7586 25.5007 20.0592C25.8048 20.3598 26.1813 20.5431 26.6664 20.6017V21.3715H27.2746V20.587C27.8249 20.4991 28.252 20.2864 28.5489 19.9345C28.8602 19.5899 29.0195 19.1647 29.0195 18.6515C29.0195 18.2043 28.8892 17.8304 28.6503 17.5298C28.4041 17.2438 27.9552 17.0092 27.2746 16.8259V15.1763C27.5497 15.2937 27.7235 15.5209 27.7814 15.8582L27.7742 15.8435Z" stroke="black" stroke-width="1.3" stroke-linecap="round" stroke-linejoin="round"/>
<path d="M32.915 31.2398V33.1973H30.8442H23.0825H21.0117V31.841V31.2398H32.915Z" stroke="black" stroke-width="1.3" stroke-linecap="round" stroke-linejoin="round"/>
<path d="M32.915 29.2163H21.0117V31.2472H32.915V29.2163Z" stroke="black" stroke-width="1.3" stroke-linecap="round" stroke-linejoin="round"/>
<path d="M32.915 27.0095H21.0117V29.2163H32.915V27.0095Z" stroke="black" stroke-width="1.3" stroke-linecap="round" stroke-linejoin="round"/>
<path d="M30.8448 33.1973V36.7531H28.2165H25.7185H23.083V33.1973H30.8448Z" stroke="black" stroke-width="1.3" stroke-linecap="round" stroke-linejoin="round"/>
<path d="M28.2157 36.7531H25.7178V39.847H28.2157V36.7531Z" stroke="black" stroke-width="1.3" stroke-linecap="round" stroke-linejoin="round"/>
<path d="M27.8179 18.3142C27.9265 18.4462 27.9771 18.6075 27.9771 18.7908C27.9771 19.0034 27.9047 19.194 27.7816 19.348C27.6586 19.4946 27.4776 19.5972 27.2676 19.6486V17.9916C27.521 18.0723 27.702 18.1676 27.8179 18.3142Z" stroke="black" stroke-width="1.3" stroke-linecap="round" stroke-linejoin="round"/>
<path d="M26.66 15.1544V16.6207C26.4862 16.5327 26.3486 16.4374 26.2618 16.3054C26.1749 16.1808 26.1387 16.0415 26.1387 15.8875C26.1387 15.7336 26.1821 15.5723 26.2835 15.4403C26.3776 15.3157 26.5007 15.213 26.6672 15.1544H26.66Z" stroke="black" stroke-width="1.3" stroke-linecap="round" stroke-linejoin="round"/>
<path d="M21.012 27.0095V31.8483H20.9396C17.0008 34.2237 13.453 36.7311 10.4627 39.2092C3.1281 33.146 -0.868626 27.2808 0.87632 24.2235C1.9479 22.3319 5.05405 21.8334 9.36935 22.5372C9.35487 22.6252 9.34763 22.7059 9.34763 22.8012C9.34763 23.6076 9.99203 24.2601 10.7885 24.2601C11.4691 24.2601 12.0411 23.7763 12.1931 23.1238C14.8069 23.7763 17.7248 24.766 20.8237 26.0784H21.012V27.0022V27.0095Z" stroke="black" stroke-width="1.3" stroke-linecap="round" stroke-linejoin="round"/>
<path d="M9.36938 22.5372C9.49971 21.8554 10.0789 21.3422 10.7885 21.3422C11.5777 21.3422 12.2293 22.002 12.2293 22.8011C12.2293 22.9184 12.2149 23.0211 12.1931 23.1237C12.0411 23.7762 11.4691 24.2601 10.7885 24.2601C9.99205 24.2601 9.34766 23.6076 9.34766 22.8011C9.34766 22.7058 9.34766 22.6252 9.36938 22.5372Z" stroke="black" stroke-width="1.3" stroke-linecap="round" stroke-linejoin="round"/>
<path d="M5.72756 56.0645C5.72756 56.0645 5.72756 56.1378 5.72032 56.1745C5.66964 56.9296 5.0542 57.5235 4.29396 57.5235C3.53371 57.5235 2.86035 56.871 2.86035 56.0645C2.86035 55.9472 2.87483 55.8446 2.89655 55.7346C3.04136 55.0894 3.61336 54.6129 4.29396 54.6129C5.09041 54.6129 5.72756 55.2654 5.72756 56.0645Z" stroke="black" stroke-width="1.3" stroke-linecap="round" stroke-linejoin="round"/>
<path d="M23.0829 33.1973H21.0122V25.1033C18.2898 23.1897 16.4941 20.0005 16.4941 16.386C16.4941 10.5355 21.1859 5.78461 26.9638 5.78461C32.7417 5.78461 37.4335 10.5355 37.4335 16.386C37.4335 20.0005 35.6379 23.1897 32.9082 25.1033V33.1973H30.8374" fill="#FFB703"/>
<path d="M23.0829 33.1973H21.0122V25.1033C18.2898 23.1897 16.4941 20.0005 16.4941 16.386C16.4941 10.5355 21.1859 5.78461 26.9638 5.78461C32.7417 5.78461 37.4335 10.5355 37.4335 16.386C37.4335 20.0005 35.6379 23.1897 32.9082 25.1033V33.1973H30.8374" stroke="black" stroke-miterlimit="10"/>
<path d="M2.88874 55.7345C1.96196 55.4046 1.27412 54.8914 0.875896 54.1802C-0.86905 51.1376 3.13491 45.2797 10.455 39.2018C13.4453 36.7164 16.9931 34.209 20.9319 31.8336" stroke="black" stroke-width="1.3" stroke-linecap="round" stroke-linejoin="round"/>
<path d="M49.286 22.4492C50.6327 22.7351 51.6102 23.3217 52.1315 24.2308C53.8692 27.2734 49.8797 33.1313 42.5669 39.1945C39.3159 41.8925 35.4061 44.6345 31.0473 47.1786C29.5196 48.073 27.9991 48.9015 26.5004 49.664C18.2173 53.9236 10.5642 56.2624 5.72754 56.1744" stroke="black" stroke-width="1.3" stroke-linecap="round" stroke-linejoin="round"/>
<path d="M33.0234 25.7265C38.2583 23.593 42.9428 22.3759 46.4182 22.244" stroke="black" stroke-width="1.3" stroke-linecap="round" stroke-linejoin="round"/>
<path d="M49.3581 45.9469C47.6928 43.8574 45.4121 41.5993 42.668 39.3192" stroke="black" stroke-width="1.3" stroke-linecap="round" stroke-linejoin="round"/>
<path d="M9.36938 22.5372C5.05408 21.8334 1.95517 22.3319 0.876348 24.2235C-0.868598 27.2734 3.12812 33.1387 10.4554 39.2092C13.6992 41.8999 17.609 44.6346 21.9533 47.1786C23.481 48.0731 25.0015 48.9015 26.5003 49.664C38.8886 56.0351 49.8796 58.1173 52.1314 54.1876C52.9423 52.7653 52.4934 50.7051 51.0381 48.315" stroke="black" stroke-width="1.3" stroke-linecap="round" stroke-linejoin="round"/>
<path d="M20.8161 26.0857C17.7172 24.7734 14.7993 23.7763 12.1855 23.1311" stroke="black" stroke-width="1.3" stroke-linecap="round" stroke-linejoin="round"/>
<path d="M26.3193 0.476562V4.0617" stroke="black" stroke-width="1.3" stroke-linecap="round" stroke-linejoin="round"/>
<path d="M31.4885 1.00439L30.5762 4.47956" stroke="black" stroke-width="1.3" stroke-linecap="round" stroke-linejoin="round"/>
<path d="M36.3395 2.87396L34.5801 5.98988" stroke="black" stroke-width="1.3" stroke-linecap="round" stroke-linejoin="round"/>
<path d="M16.4648 3.46783L18.2388 6.57642" stroke="black" stroke-width="1.3" stroke-linecap="round" stroke-linejoin="round"/>
<path d="M21.207 1.3197L22.1121 4.78753" stroke="black" stroke-width="1.3" stroke-linecap="round" stroke-linejoin="round"/>
<path d="M22.2714 20.6823L20.1283 21.5328L19.5418 20.499L21.3374 19.0474C21.1854 18.6441 21.0695 18.2262 21.0044 17.7937L18.7236 17.4491V16.2467L21.0044 15.8948C21.0695 15.4622 21.1781 15.0443 21.3374 14.6411L19.5418 13.1895L20.1283 12.1484L22.2714 12.9988C22.5393 12.6616 22.8434 12.3537 23.1765 12.0897L22.3366 9.91958L23.3575 9.3184L24.7911 11.1293C25.1893 10.9827 25.602 10.8727 26.0365 10.792L26.3768 8.48993H27.5642L27.9045 10.792C28.3317 10.8654 28.7516 10.9753 29.1426 11.1293L30.5762 9.3184L31.5971 9.91958L30.7572 12.0897C31.0903 12.3537 31.3944 12.6616 31.6551 12.9988L33.7982 12.1484L34.3919 13.1895L32.5891 14.6411C32.7484 15.0443 32.8497 15.4622 32.9149 15.8948L35.2029 16.2467V17.4418L32.9149 17.7937C32.8497 18.2189 32.7484 18.6441 32.5891 19.0474L34.3919 20.499L33.7982 21.5328L31.6551 20.6823" stroke="black" stroke-width="1.3" stroke-linecap="round" stroke-linejoin="round"/>
<path d="M19.4766 27.0095H21.0115H32.9148H34.4498" stroke="black" stroke-width="1.3" stroke-linecap="round" stroke-linejoin="round"/>
<path d="M19.4766 29.2163H21.0115H32.9148H34.4498" stroke="black" stroke-width="1.3" stroke-linecap="round" stroke-linejoin="round"/>
<path d="M19.4766 31.2398H21.0115H32.9148H34.4498" stroke="black" stroke-width="1.3" stroke-linecap="round" stroke-linejoin="round"/>
<path d="M25.7176 36.7531H23.082V33.1973H30.8438V36.7531H28.2155" stroke="black" stroke-width="1.3" stroke-linecap="round" stroke-linejoin="round"/>
<path d="M28.2157 36.7531H25.7178V39.847H28.2157V36.7531Z" stroke="black" stroke-width="1.3" stroke-linecap="round" stroke-linejoin="round"/>
<path d="M9.36938 22.5372C9.49971 21.8554 10.0789 21.3422 10.7885 21.3422C11.5777 21.3422 12.2293 22.002 12.2293 22.8011C12.2293 22.9184 12.2149 23.0211 12.1931 23.1237C12.0411 23.7762 11.4691 24.2601 10.7885 24.2601C9.99205 24.2601 9.34766 23.6076 9.34766 22.8011C9.34766 22.7058 9.34766 22.6252 9.36938 22.5372Z" fill="#FFB703" stroke="black" stroke-miterlimit="10"/>
<path d="M49.3577 45.9469C49.5967 45.7636 49.9008 45.6463 50.2338 45.6463C51.023 45.6463 51.6747 46.2988 51.6747 47.098C51.6747 47.6038 51.4213 48.0511 51.0303 48.315C50.7986 48.469 50.5307 48.5569 50.2338 48.5569C49.4374 48.5569 48.793 47.9044 48.793 47.098C48.793 46.6287 49.0102 46.2108 49.3577 45.9469Z" fill="#FFB703" stroke="black" stroke-miterlimit="10"/>
<path d="M2.89655 55.7345C3.04136 55.0893 3.61336 54.6128 4.29396 54.6128C5.09041 54.6128 5.72756 55.2653 5.72756 56.0644C5.72756 56.1011 5.72756 56.1378 5.72032 56.1744C5.66964 56.9296 5.0542 57.5234 4.29396 57.5234C3.53371 57.5234 2.86035 56.8709 2.86035 56.0644C2.86035 55.9471 2.87483 55.8445 2.89655 55.7345Z" fill="#FFB703" stroke="black" stroke-miterlimit="10"/>
<path d="M46.418 22.244C46.418 21.4449 47.0696 20.807 47.8588 20.807C48.648 20.807 49.2924 21.4522 49.2924 22.2587C49.2924 22.3246 49.2924 22.3833 49.2779 22.4419C49.1911 23.1531 48.5829 23.703 47.8588 23.703C47.0624 23.703 46.418 23.0505 46.418 22.2513V22.2367V22.244Z" fill="#FFB703" stroke="black" stroke-miterlimit="10"/>
</g>
<defs>
<clipPath id="clip0_22_324">
<rect width="53" height="58" fill="white"/>
</clipPath>
</defs>
</svg>
