<svg width="21" height="21" viewBox="0 0 21 21" fill="none" xmlns="http://www.w3.org/2000/svg">
<path d="M9.84375 11.1562H5.46875C5.28281 11.1562 5.12695 11.0933 5.00117 10.9675C4.87539 10.8416 4.8125 10.6857 4.8125 10.4997C4.8125 10.3137 4.87539 10.1578 5.00117 10.0322C5.12695 9.90657 5.28281 9.84375 5.46875 9.84375H9.84375V5.46875C9.84375 5.28281 9.90666 5.12695 10.0325 5.00117C10.1583 4.87539 10.3143 4.8125 10.5003 4.8125C10.6863 4.8125 10.8421 4.87539 10.9678 5.00117C11.0934 5.12695 11.1562 5.28281 11.1562 5.46875V9.84375H15.5312C15.7171 9.84375 15.873 9.90666 15.9988 10.0325C16.1246 10.1583 16.1875 10.3143 16.1875 10.5003C16.1875 10.6863 16.1246 10.8421 15.9988 10.9678C15.873 11.0934 15.7171 11.1562 15.5312 11.1562H11.1562V15.5312C11.1562 15.7171 11.0933 15.873 10.9675 15.9988C10.8416 16.1246 10.6857 16.1875 10.4997 16.1875C10.3137 16.1875 10.1578 16.1246 10.0322 15.9988C9.90657 15.873 9.84375 15.7171 9.84375 15.5312V11.1562Z" fill="white" fill-opacity="0.6"/>
</svg>
