<svg width="60" height="58" viewBox="0 0 60 58" fill="none" xmlns="http://www.w3.org/2000/svg">
<path d="M49.4141 8.92749L49.3857 48.6119H56.964L56.9829 8.93693H49.4046L49.4141 8.92749ZM51.7357 12.174C51.16 12.174 50.6881 11.7021 50.6881 11.1264C50.6881 10.5507 51.16 10.0694 51.7357 10.0694C52.3302 10.0694 52.7927 10.5319 52.7927 11.1264C52.7927 11.7021 52.3302 12.1834 51.7357 12.174Z" fill="#6BC8E9" stroke="black" stroke-miterlimit="10"/>
<g style="mix-blend-mode:multiply">
<path d="M56.9918 10.6829H54.3965V11.5889H56.9918V10.6829Z" fill="black"/>
</g>
<g style="mix-blend-mode:multiply">
<path d="M54.9443 13.2687H56.9923V12.5609H54.9443V13.2687Z" fill="black"/>
</g>
<g style="mix-blend-mode:multiply">
<path d="M56.9923 14.335H54.9443V15.0428H56.9923V14.335Z" fill="black"/>
</g>
<g style="mix-blend-mode:multiply">
<path d="M56.9923 16.1094H54.9443V16.8172H56.9923V16.1094Z" fill="black"/>
</g>
<g style="mix-blend-mode:multiply">
<path d="M56.9924 17.7986H54.3877V18.6952H56.9924V17.7986Z" fill="black"/>
</g>
<g style="mix-blend-mode:multiply">
<path d="M54.9346 20.3751H56.9919V19.6673H54.9346V20.3751Z" fill="black"/>
</g>
<g style="mix-blend-mode:multiply">
<path d="M56.9825 21.4415H54.9346V22.1493H56.9825V21.4415Z" fill="black"/>
</g>
<g style="mix-blend-mode:multiply">
<path d="M56.9825 23.2157H54.9346V23.9329H56.9825V23.2157Z" fill="black"/>
</g>
<g style="mix-blend-mode:multiply">
<path d="M54.3896 24.9014L54.3887 25.798L56.984 25.8007L56.9849 24.9041L54.3896 24.9014Z" fill="black"/>
</g>
<g style="mix-blend-mode:multiply">
<path d="M54.9346 27.4814L56.9825 27.4909V26.7736H54.9346V27.4814Z" fill="black"/>
</g>
<g style="mix-blend-mode:multiply">
<path d="M54.9346 29.2651H56.9825V28.5573H54.9346V29.2651Z" fill="black"/>
</g>
<g style="mix-blend-mode:multiply">
<path d="M56.9825 30.3315H54.9346V31.0394H56.9825V30.3315Z" fill="black"/>
</g>
<g style="mix-blend-mode:multiply">
<path d="M56.9732 32.0114H54.3779V32.9174H56.9732V32.0114Z" fill="black"/>
</g>
<g style="mix-blend-mode:multiply">
<path d="M56.9825 33.88H54.9346V34.5878H56.9825V33.88Z" fill="black"/>
</g>
<g style="mix-blend-mode:multiply">
<path d="M56.9727 35.6636H54.9248V36.3714H56.9727V35.6636Z" fill="black"/>
</g>
<g style="mix-blend-mode:multiply">
<path d="M56.9727 37.4379H54.9248V38.1551H56.9727V37.4379Z" fill="black"/>
</g>
<g style="mix-blend-mode:multiply">
<path d="M56.9732 39.1178H54.3779V40.0238H56.9732V39.1178Z" fill="black"/>
</g>
<g style="mix-blend-mode:multiply">
<path d="M56.9729 46.2243H54.3682V47.1303H56.9729V46.2243Z" fill="black"/>
</g>
<g style="mix-blend-mode:multiply">
<path d="M56.9822 40.9959H54.9248V41.7037H56.9822V40.9959Z" fill="black"/>
</g>
<g style="mix-blend-mode:multiply">
<path d="M56.9727 42.7701H54.9248V43.4779H56.9727V42.7701Z" fill="black"/>
</g>
<g style="mix-blend-mode:multiply">
<path d="M56.9727 44.5443H54.9248V45.2521H56.9727V44.5443Z" fill="black"/>
</g>
<path d="M6.64406 54.2461C6.64406 54.633 6.33263 54.9444 5.95513 54.9444H3.82227V53.5571H5.95513C6.33263 53.5571 6.64406 53.8686 6.64406 54.2461Z" fill="#534B64"/>
<path d="M6.64406 50.0465C6.64406 50.424 6.33263 50.7354 5.95513 50.7354H3.82227V49.3481H5.95513C6.33263 49.3481 6.64406 49.6595 6.64406 50.0465Z" fill="#534B64"/>
<path d="M6.64406 45.8373C6.64406 46.2148 6.33263 46.5262 5.95513 46.5262H3.82227V45.1484H5.95513C6.33263 45.1484 6.64406 45.4504 6.64406 45.8373Z" fill="#534B64"/>
<path d="M6.64406 41.6282C6.64406 42.0057 6.33263 42.3171 5.95513 42.3171H3.82227V40.9393H5.95513C6.33263 40.9393 6.64406 41.2507 6.64406 41.6282Z" fill="#534B64"/>
<path d="M6.64406 37.419C6.64406 37.7965 6.33263 38.108 5.95513 38.108H3.82227V36.7301H5.95513C6.33263 36.7301 6.64406 37.0415 6.64406 37.419Z" fill="#534B64"/>
<path d="M6.64406 33.2099C6.64406 33.5969 6.33263 33.8989 5.95513 33.8989H3.82227V32.521H5.95513C6.33263 32.521 6.64406 32.8324 6.64406 33.2099Z" fill="#534B64"/>
<path d="M6.64406 29.0009C6.64406 29.3879 6.33263 29.6899 5.95513 29.6899H3.82227V28.312H5.95513C6.33263 28.312 6.64406 28.6234 6.64406 29.0009Z" fill="#534B64"/>
<path d="M6.64406 24.8012C6.64406 25.1787 6.33263 25.4901 5.95513 25.4901H3.82227V24.1028H5.95513C6.33263 24.1028 6.64406 24.4143 6.64406 24.8012Z" fill="#534B64"/>
<path d="M6.64406 20.5921C6.64406 20.9696 6.33263 21.281 5.95513 21.281H3.82227V19.9031H5.95513C6.33263 19.9031 6.64406 20.2051 6.64406 20.5921Z" fill="#534B64"/>
<path d="M6.64406 16.383C6.64406 16.7605 6.33263 17.0719 5.95513 17.0719H3.82227V15.694H5.95513C6.33263 15.694 6.64406 15.996 6.64406 16.383Z" fill="#534B64"/>
<path d="M6.64406 12.1739C6.64406 12.5514 6.33263 12.8629 5.95513 12.8629H3.82227V11.485H5.95513C6.33263 11.485 6.64406 11.7964 6.64406 12.1739Z" fill="#534B64"/>
<path d="M6.64406 7.96487C6.64406 8.34237 6.33263 8.65381 5.95513 8.65381H3.82227V7.27594H5.95513C6.33263 7.27594 6.64406 7.58738 6.64406 7.96487Z" fill="#534B64"/>
<path d="M6.64406 3.75573C6.64406 3.99167 6.53081 4.19929 6.3515 4.32198C6.23825 4.39748 6.09669 4.44467 5.95513 4.44467H3.82227V1L5.38888 3.0668H5.95513C6.33263 3.0668 6.64406 3.37824 6.64406 3.75573Z" fill="#534B64"/>
<path d="M3.82227 1L5.38888 3.0668H5.95513C6.33263 3.0668 6.64406 3.37824 6.64406 3.75573C6.64406 3.99167 6.53081 4.19929 6.3515 4.32198C6.23825 4.39748 6.09669 4.44467 5.95513 4.44467H3.82227V7.2759H5.95513C6.33263 7.2759 6.64406 7.58734 6.64406 7.96483C6.64406 8.34233 6.33263 8.65377 5.95513 8.65377H3.82227V11.485H5.95513C6.33263 11.485 6.64406 11.7964 6.64406 12.1739C6.64406 12.5514 6.33263 12.8629 5.95513 12.8629H3.82227V15.6941H5.95513C6.33263 15.6941 6.64406 15.9961 6.64406 16.383C6.64406 16.77 6.33263 17.072 5.95513 17.072H3.82227V19.9032H5.95513C6.33263 19.9032 6.64406 20.2052 6.64406 20.5921C6.64406 20.9791 6.33263 21.2811 5.95513 21.2811H3.82227V24.1029H5.95513C6.33263 24.1029 6.64406 24.4143 6.64406 24.8012C6.64406 25.1882 6.33263 25.4902 5.95513 25.4902H3.82227V28.312H5.95513C6.33263 28.312 6.64406 28.6234 6.64406 29.0009C6.64406 29.3784 6.33263 29.6898 5.95513 29.6898H3.82227V32.5211H5.95513C6.33263 32.5211 6.64406 32.8325 6.64406 33.21C6.64406 33.5875 6.33263 33.8989 5.95513 33.8989H3.82227V36.7302H5.95513C6.33263 36.7302 6.64406 37.0416 6.64406 37.4191C6.64406 37.7966 6.33263 38.108 5.95513 38.108H3.82227V40.9393H5.95513C6.33263 40.9393 6.64406 41.2507 6.64406 41.6282C6.64406 42.0057 6.33263 42.3171 5.95513 42.3171H3.82227V45.1484H5.95513C6.33263 45.1484 6.64406 45.4504 6.64406 45.8373C6.64406 46.2242 6.33263 46.5262 5.95513 46.5262H3.82227V49.348H5.95513C6.33263 49.348 6.64406 49.6595 6.64406 50.0464C6.64406 50.4333 6.33263 50.7353 5.95513 50.7353H3.82227V53.5571H5.95513C6.33263 53.5571 6.64406 53.8686 6.64406 54.2461C6.64406 54.6236 6.33263 54.9444 5.95513 54.9444H3.82227V57.0018H46.3663V1H3.82227ZM34.6921 26.6887H15.4964V11.938H34.6921V26.6887Z" stroke="black" stroke-miterlimit="10"/>
<path d="M34.6909 11.938H15.4951V26.6887H34.6909V11.938Z" fill="#6BC8E9" stroke="black" stroke-miterlimit="10"/>
<path opacity="0.1" d="M6.64385 3.75571C6.64385 3.99164 6.5306 4.19927 6.35129 4.32195L5.38867 3.06677H5.95492C6.33242 3.06677 6.64385 3.37821 6.64385 3.75571Z" fill="#F2F2F2"/>
<path opacity="0.1" d="M46.3747 1V57.0112L46.3652 57.0018V1H46.3747Z" fill="#F2F2F2"/>
<path d="M6.64359 3.75571C6.64359 3.99164 6.53034 4.19927 6.35103 4.32195C6.23778 4.39745 6.09622 4.44464 5.95466 4.44464H1.68893C1.31144 4.44464 1 4.14264 1 3.75571C1 3.36877 1.31144 3.06677 1.68893 3.06677H5.95466C6.33216 3.06677 6.64359 3.37821 6.64359 3.75571Z" stroke="black" stroke-miterlimit="10"/>
<path d="M6.64359 7.96487C6.64359 8.34237 6.33216 8.65381 5.95466 8.65381H1.68893C1.31144 8.65381 1 8.34237 1 7.96487C1 7.58738 1.31144 7.27594 1.68893 7.27594H5.95466C6.33216 7.27594 6.64359 7.58738 6.64359 7.96487Z" stroke="black" stroke-miterlimit="10"/>
<path d="M6.64359 12.1739C6.64359 12.5514 6.33216 12.8629 5.95466 12.8629H1.68893C1.31144 12.8629 1 12.5514 1 12.1739C1 11.7964 1.31144 11.485 1.68893 11.485H5.95466C6.33216 11.485 6.64359 11.7964 6.64359 12.1739Z" stroke="black" stroke-miterlimit="10"/>
<path d="M6.64359 16.383C6.64359 16.7605 6.33216 17.0719 5.95466 17.0719H1.68893C1.31144 17.0719 1 16.7605 1 16.383C1 16.0055 1.31144 15.694 1.68893 15.694H5.95466C6.33216 15.694 6.64359 15.996 6.64359 16.383Z" stroke="black" stroke-miterlimit="10"/>
<path d="M6.64359 20.5921C6.64359 20.9696 6.33216 21.281 5.95466 21.281H1.68893C1.31144 21.281 1 20.9696 1 20.5921C1 20.2146 1.31144 19.9031 1.68893 19.9031H5.95466C6.33216 19.9031 6.64359 20.2051 6.64359 20.5921Z" stroke="black" stroke-miterlimit="10"/>
<path d="M6.64359 24.8012C6.64359 25.1787 6.33216 25.4901 5.95466 25.4901H1.68893C1.31144 25.4901 1 25.1787 1 24.8012C1 24.4237 1.31144 24.1028 1.68893 24.1028H5.95466C6.33216 24.1028 6.64359 24.4143 6.64359 24.8012Z" stroke="black" stroke-miterlimit="10"/>
<path d="M6.64359 29.0009C6.64359 29.3879 6.33216 29.6899 5.95466 29.6899H1.68893C1.31144 29.6899 1 29.3879 1 29.0009C1 28.614 1.31144 28.312 1.68893 28.312H5.95466C6.33216 28.312 6.64359 28.6234 6.64359 29.0009Z" stroke="black" stroke-miterlimit="10"/>
<path d="M6.64359 33.2099C6.64359 33.5969 6.33216 33.8989 5.95466 33.8989H1.68893C1.31144 33.8989 1 33.5969 1 33.2099C1 32.823 1.31144 32.521 1.68893 32.521H5.95466C6.33216 32.521 6.64359 32.8324 6.64359 33.2099Z" stroke="black" stroke-miterlimit="10"/>
<path d="M6.64359 37.419C6.64359 37.7965 6.33216 38.108 5.95466 38.108H1.68893C1.31144 38.108 1 37.7965 1 37.419C1 37.0415 1.31144 36.7301 1.68893 36.7301H5.95466C6.33216 36.7301 6.64359 37.0415 6.64359 37.419Z" stroke="black" stroke-miterlimit="10"/>
<path d="M6.64359 41.6282C6.64359 42.0057 6.33216 42.3171 5.95466 42.3171H1.68893C1.31144 42.3171 1 42.0057 1 41.6282C1 41.2507 1.31144 40.9393 1.68893 40.9393H5.95466C6.33216 40.9393 6.64359 41.2507 6.64359 41.6282Z" stroke="black" stroke-miterlimit="10"/>
<path d="M6.64359 45.8373C6.64359 46.2148 6.33216 46.5262 5.95466 46.5262H1.68893C1.31144 46.5262 1 46.2148 1 45.8373C1 45.4598 1.31144 45.1484 1.68893 45.1484H5.95466C6.33216 45.1484 6.64359 45.4504 6.64359 45.8373Z" stroke="black" stroke-miterlimit="10"/>
<path d="M6.64359 50.0465C6.64359 50.424 6.33216 50.7354 5.95466 50.7354H1.68893C1.31144 50.7354 1 50.424 1 50.0465C1 49.669 1.31144 49.3481 1.68893 49.3481H5.95466C6.33216 49.3481 6.64359 49.6595 6.64359 50.0465Z" stroke="black" stroke-miterlimit="10"/>
<path d="M6.64359 54.2461C6.64359 54.633 6.33216 54.9444 5.95466 54.9444H1.68893C1.31144 54.9444 1 54.633 1 54.2461C1 53.8591 1.31144 53.5571 1.68893 53.5571H5.95466C6.33216 53.5571 6.64359 53.8686 6.64359 54.2461Z" stroke="black" stroke-miterlimit="10"/>
<path d="M58.8338 53.3117C58.8338 53.5194 58.8055 53.7175 58.7395 53.8968C58.7112 53.9818 58.6828 54.0573 58.6545 54.1233C58.5507 54.3404 58.4186 54.5386 58.2582 54.7085C58.1827 54.784 58.1072 54.85 58.0222 54.9161C57.9467 54.9727 57.8618 55.0293 57.7768 55.0765C57.7108 55.1143 57.6353 55.1426 57.5692 55.1709C57.522 55.1992 57.4654 55.2181 57.4088 55.2275C57.3899 55.237 57.371 55.2464 57.3522 55.2464C57.2861 55.2653 57.22 55.2842 57.1445 55.2936C57.0407 55.3125 56.9275 55.3219 56.8142 55.3219H54.8701V51.2921H56.8142C57.9278 51.2921 58.8338 52.1981 58.8338 53.3117Z" stroke="#020202" stroke-miterlimit="10"/>
<path d="M58.6532 54.1234C58.5588 54.3404 58.4267 54.5386 58.2568 54.7085C58.4173 54.5386 58.5494 54.3404 58.6532 54.1234Z" fill="#71C9D4"/>
<path d="M54.8689 51.2921V55.3219H51.3487C50.2257 55.3219 49.3291 54.4253 49.3291 53.3117C49.3291 52.7549 49.5556 52.2547 49.9142 51.8867C49.9992 51.8017 50.0841 51.7357 50.1785 51.6696C50.254 51.613 50.3389 51.5564 50.4238 51.5186C50.4333 51.5092 50.4522 51.4997 50.4616 51.4997C50.471 51.4997 50.4805 51.4997 50.4899 51.4997C50.7542 51.3676 51.0467 51.3016 51.3487 51.3016H54.8689V51.2921Z" stroke="black" stroke-miterlimit="10"/>
<g style="mix-blend-mode:multiply">
<path d="M50.4893 52.0753C50.4893 52.0753 50.5363 52.0471 50.5551 52.0377C50.5551 52.0377 50.5081 52.0659 50.4893 52.0753Z" fill="#E9D6CE"/>
</g>
</svg>
