<svg width="123" height="123" viewBox="0 0 123 123" fill="none" xmlns="http://www.w3.org/2000/svg">
<g clip-path="url(#clip0_147_28)">
<path d="M101.266 16.3875C90.2787 6.68333 76.1635 1.33667 61.5136 1.33667C56.4075 1.33667 51.3015 1.97827 46.3826 3.26147C44.832 3.66247 43.2548 4.14367 41.5706 4.7318C36.3041 6.5764 31.3317 9.16953 26.7336 12.431C25.5306 13.2865 24.381 14.1687 23.285 15.0776C9.33018 26.5462 1.33691 43.4684 1.33691 61.5134C1.33691 83.6218 13.4204 103.886 32.8555 114.445C33.7912 114.953 34.8338 115.488 36.0368 116.049C44.0568 119.792 52.6114 121.69 61.4869 121.69C67.3949 121.69 73.2228 120.835 78.8368 119.15C78.9437 119.15 79.0507 119.204 79.1576 119.204C79.3715 119.204 79.6121 119.177 79.8259 119.097C80.7081 118.83 81.5903 118.509 82.4725 118.188C92.0163 114.686 100.624 108.724 107.335 100.945C108.03 100.116 108.725 99.2875 109.366 98.4588C109.607 98.138 109.767 97.7637 109.821 97.3627C117.573 86.9367 121.69 74.5592 121.69 61.5134C121.69 45.7942 115.649 30.9037 104.661 19.5955C103.592 18.4727 102.442 17.4034 101.293 16.3875H101.266ZM61.4869 5.8546C74.9605 5.8546 87.9529 10.7201 98.0848 19.5955C97.2561 19.649 96.4808 19.5955 95.8392 19.4084C94.3956 19.0341 93.0322 18.6064 91.5084 18.1519C85.3063 16.2539 79.4517 14.4895 72.5812 16.6281C70.897 17.1628 69.4267 17.8311 67.9831 18.4727L67.8761 18.5262C66.1652 19.3015 64.6414 19.9965 63.1176 20.2906C62.6097 20.3975 62.075 20.451 61.5671 20.451C59.7492 20.451 57.9046 19.7559 55.8461 18.3123C53.7075 16.7885 52.3708 14.6499 50.9272 12.3241C49.8579 10.6131 48.842 8.95567 47.4786 7.619C52.0233 6.44273 56.7283 5.8546 61.4601 5.8546H61.4869ZM35.2882 110.676C35.2882 110.676 35.0744 110.569 34.9674 110.516C16.9759 100.758 5.80138 81.9911 5.80138 61.5401C5.80138 44.8585 13.2065 29.1928 26.092 18.5797C26.9207 17.8846 27.8029 17.2163 28.6851 16.5747C31.9733 16.6816 32.9892 16.842 33.7912 21.6807C33.9783 22.8303 33.8714 24.0065 33.7912 25.263C33.6308 26.9472 33.4704 28.7116 34.0852 30.476C34.5397 31.8661 35.4754 32.8285 36.3843 33.7642C37.5338 34.9939 38.2556 35.7959 38.3358 37.0256C38.6299 41.4634 33.7912 42.6931 27.4554 43.8159C26.894 43.9228 26.3326 44.0298 25.7712 44.11C24.1404 44.4308 22.6166 44.7516 21.3602 45.2595C18.1789 46.5427 16.2541 48.3338 15.5323 50.7398C14.2758 54.8568 17.0561 59.3212 19.6225 62.3421C23.3919 66.8066 25.5306 73.8107 24.5414 78.6494C24.3008 79.8524 23.8731 81.0822 23.4721 82.2584C22.1622 86.0546 20.6651 90.3854 25.2632 94.2082C26.8405 95.5182 28.2841 96.2667 29.5673 96.935C30.3158 97.3093 30.9842 97.6835 31.5723 98.0845C32.909 98.9935 33.9248 100.17 34.5932 102.576C35.3417 105.329 35.5823 108.003 35.2882 110.649V110.676ZM103.913 98.0043C97.7105 105.196 89.744 110.729 80.922 113.964C80.6279 114.071 80.3606 114.178 80.0665 114.258C75.6288 107.976 68.0098 100.491 59.5888 98.138C55.9798 97.1221 54.9907 95.8657 53.1995 93.5933C52.6649 92.8983 52.05 92.123 51.2748 91.2408C48.8955 88.5408 46.3826 87.4179 43.4686 86.108C42.8003 85.814 42.132 85.5199 41.4369 85.1724C36.8388 82.9802 34.9407 79.1841 35.9031 74.185C37.3734 66.4858 44.9122 63.8124 51.3817 63.8124C51.7827 63.8124 52.1569 63.8124 52.5312 63.8392C54.2421 63.9194 55.7927 64.2134 57.1828 64.454C61.1393 65.1758 64.5879 65.7907 69.0524 61.647C72.2069 58.7331 72.7416 55.632 73.2495 52.6112C73.5436 50.8468 73.8377 49.1626 74.5862 47.3714C75.2011 45.9278 76.4575 43.9228 77.7675 42.9604C78.917 42.1317 79.7457 42.2386 80.7883 42.399C81.5903 42.5327 82.4993 42.6664 83.5151 42.2654C85.4399 41.5168 86.5093 40.0732 87.5786 38.6564C88.9687 36.8118 90.2787 35.0474 93.5936 34.887C97.6036 34.6999 105.169 37.0256 107.388 41.0089C108.35 42.7198 108.163 44.4842 106.853 46.409C105.864 47.8526 104.715 48.8952 103.592 49.8844C101.56 51.729 99.4749 53.6003 98.8868 57.637C98.2987 61.7005 99.8492 63.3312 101.346 64.9352C102.282 65.9244 103.164 66.8333 103.752 68.4373C104.608 70.7096 103.806 73.1424 102.924 75.7088C102.122 78.088 101.266 80.5742 101.747 83.1139C101.881 83.809 101.961 84.6377 102.041 85.5199C102.202 87.1506 103.779 92.6577 105.062 96.641C104.688 97.0954 104.314 97.5499 103.913 98.0043ZM108.243 91.7487C107.254 88.4071 106.559 85.7338 106.506 85.1189C106.426 84.1832 106.319 83.2208 106.158 82.3386C105.891 80.9218 106.533 79.1039 107.174 77.1791C108.217 74.1315 109.393 70.6562 107.949 66.8868C107.014 64.4273 105.677 63.0104 104.581 61.8609C103.325 60.551 103.03 60.2302 103.298 58.3321C103.645 55.8994 104.688 54.9904 106.559 53.3062C106.8 53.0656 107.067 52.825 107.335 52.5844C107.709 52.2369 108.11 51.8626 108.511 51.4616C108.858 51.1141 109.206 50.7398 109.527 50.3388C109.874 49.9378 110.195 49.4834 110.516 49.0289C113.59 44.5377 112.307 40.7416 111.264 38.897C110.222 37.0524 108.564 35.5019 106.613 34.2454C102.416 31.4651 96.7481 30.1552 93.0857 30.3156C87.6588 30.5829 85.2795 33.7642 83.6755 35.9029C82.8468 36.9989 82.3389 37.6672 81.6973 37.9613C81.5369 37.9613 81.2695 37.9078 81.1359 37.8811C79.8527 37.694 77.4467 37.3464 74.8001 39.2445C72.6614 40.8218 70.9772 43.5218 70.1217 45.5268C69.1593 47.7992 68.8118 49.9111 68.491 51.7557C68.0098 54.536 67.7157 56.3806 65.684 58.2519C62.8503 60.8718 61.3265 60.6044 57.6373 59.9361C56.1402 59.6688 54.4293 59.348 52.4243 59.2678C43.9231 58.84 33.2832 62.2619 31.1446 73.2493C29.9416 79.4782 32.107 84.7179 37.0794 87.9794C37.8012 88.4606 38.5764 88.915 39.4052 89.316C40.1537 89.6636 40.8488 89.9843 41.5438 90.3051C43.0944 91.0002 44.3776 91.5884 45.5271 92.3369C46.2489 92.8448 46.9172 93.4062 47.5321 94.128C48.2272 94.9033 48.7886 95.6518 49.2965 96.2934C50.553 97.8974 51.7025 99.341 53.6273 100.544C54.8035 101.319 56.2739 101.988 58.2521 102.549C60.4175 103.164 62.5829 104.233 64.6681 105.57C68.6514 108.216 72.3406 111.906 75.1209 115.541C70.6297 116.691 66.0315 117.252 61.3532 117.252C53.7342 117.252 46.3558 115.729 39.4319 112.761C39.5121 112.28 39.5923 111.825 39.6458 111.371C39.6458 111.371 39.6458 111.318 39.6458 111.291C39.6992 110.81 39.7527 110.328 39.7527 109.847C39.7527 109.687 39.7527 109.5 39.7527 109.339C39.7527 108.992 39.7527 108.644 39.7527 108.323C39.7527 108.136 39.7527 107.922 39.7527 107.735C39.7527 107.414 39.7527 107.094 39.6992 106.773C39.6992 106.559 39.6725 106.372 39.6458 106.158C39.619 105.837 39.5656 105.516 39.5388 105.196C39.5388 105.008 39.4854 104.795 39.4586 104.607C39.4052 104.26 39.3517 103.912 39.2715 103.565C39.2448 103.404 39.218 103.217 39.1646 103.057C39.0576 102.549 38.924 102.014 38.7903 101.48C37.32 96.0528 34.2189 94.4488 31.4921 93.0319C30.3158 92.4171 29.193 91.8289 27.99 90.8398C25.985 89.1823 26.1454 87.9259 27.5623 83.7822C28.0168 82.4456 28.498 81.0822 28.792 79.5851C30.0485 73.3295 27.6158 65.0689 22.884 59.5084C20.371 56.541 19.1413 53.7607 19.6492 52.13C19.676 51.9963 19.7294 51.8894 19.8096 51.7557C19.9968 51.4082 20.2908 51.0606 20.6651 50.7398C21.0661 50.3923 21.6008 50.0715 22.2156 49.7774C22.4295 49.6705 22.6434 49.5903 22.8572 49.4834C24.0602 49.0022 26.092 48.6279 28.0435 48.2804C33.711 47.2645 43.1746 45.5803 42.6132 36.785C42.426 33.8444 40.6884 32.0265 39.4319 30.7166C38.817 30.075 38.3091 29.5403 38.1487 29.1126C37.8546 28.2304 37.9616 27.0541 38.0952 25.6907C38.2289 24.3006 38.3626 22.6966 38.0952 21.0124C38.015 20.5045 37.9081 20.0233 37.8279 19.5955C37.8012 19.4619 37.7477 19.3282 37.721 19.1678C37.6408 18.8737 37.5606 18.5797 37.4804 18.3123C37.4269 18.1519 37.4002 18.0183 37.3467 17.8846C37.2665 17.644 37.1863 17.4034 37.0794 17.1628C37.0259 17.0291 36.9724 16.8955 36.919 16.7885C36.812 16.5479 36.7051 16.3341 36.5982 16.1202C36.5447 16.04 36.518 15.9331 36.4645 15.8529C36.3041 15.5588 36.117 15.2915 35.9566 15.0509C35.9298 15.0241 35.9031 14.9707 35.8764 14.9439C35.716 14.7301 35.5556 14.5429 35.3684 14.3825C35.2882 14.3023 35.2348 14.2489 35.1546 14.1687C35.0209 14.035 34.8605 13.9013 34.7268 13.7944C34.6466 13.7409 34.5664 13.6607 34.4595 13.6073C34.2991 13.5003 34.1387 13.3934 33.9783 13.3132C33.9248 13.2865 33.8714 13.233 33.8179 13.2063C36.3843 11.7359 39.0844 10.4795 41.8379 9.43687C41.9448 9.49033 42.0518 9.51706 42.1587 9.57053C44.1904 10.2656 45.4202 12.2439 46.9974 14.7835C48.5212 17.2163 50.2322 19.9965 53.1194 22.0283C55.9264 24.0065 58.6531 24.9689 61.4067 24.9689C64.481 24.9689 67.0741 23.7927 69.5871 22.6699L68.6514 20.6114L69.694 22.6164C71.0039 22.0283 72.3406 21.4134 73.7575 20.9857C79.318 19.248 84.0498 20.6916 90.0381 22.5095C91.5886 22.9907 93.0055 23.4184 94.5025 23.8194C94.8233 23.8996 95.1174 23.9798 95.4382 24.0333C95.5451 24.0333 95.6521 24.0333 95.759 24.06C95.9729 24.0867 96.1867 24.1135 96.4006 24.1402C96.5343 24.1402 96.6412 24.1402 96.7749 24.1402C96.962 24.1402 97.1759 24.1402 97.3897 24.1402C97.5234 24.1402 97.6571 24.1402 97.7907 24.1402C97.9779 24.1402 98.1917 24.1402 98.3789 24.1402C98.5125 24.1402 98.6729 24.1402 98.8066 24.1135C98.9937 24.1135 99.2076 24.0867 99.3947 24.06C99.5284 24.06 99.6888 24.0333 99.8225 24.0065C100.01 24.0065 100.223 23.9531 100.411 23.9263C100.544 23.9263 100.705 23.8996 100.838 23.8729C101.052 23.8461 101.239 23.8194 101.453 23.7659C101.614 23.7659 101.747 23.7125 101.908 23.6857C101.961 23.6857 102.015 23.6857 102.068 23.6857C111.719 34.0315 117.012 47.4516 117.012 61.6203C117.012 72.474 113.938 82.8198 108.083 91.8289L108.243 91.7487Z" fill="white" stroke="white" stroke-miterlimit="10"/>
<path d="M91.0801 69.1324C86.6424 67.9828 82.0175 69.5601 79.1303 72.982C76.1629 69.5066 71.5113 67.9294 67.1003 69.0789C62.7161 70.2552 59.9893 73.8909 59.9893 78.5692C59.9893 88.9685 77.5263 101.373 78.2748 101.907L79.1303 102.522L79.9858 101.907C80.7343 101.373 98.2714 88.9685 98.2714 78.5692C98.2714 73.8909 95.5178 70.2552 91.0534 69.1056L91.0801 69.1324ZM79.157 98.8331C73.9441 95.0102 63.0101 85.5199 63.0101 78.5692C63.0101 75.2543 64.828 72.7681 67.9023 71.9661C68.5439 71.779 69.2657 71.6988 70.0143 71.6988C72.7945 71.6988 75.9758 73.0354 77.8738 76.3236L79.2105 78.6227L80.4937 76.2969C82.6591 72.3671 87.0968 71.1641 90.3583 72.0196C91.8554 72.3938 95.3307 73.8107 95.3307 78.5692C95.3307 85.4931 84.3968 95.0102 79.1838 98.8331H79.157Z" fill="white" stroke="white" stroke-miterlimit="10"/>
</g>
<defs>
<clipPath id="clip0_147_28">
<rect width="123" height="123" fill="white"/>
</clipPath>
</defs>
</svg>
