<svg width="161" height="108" viewBox="0 0 161 108" fill="none" xmlns="http://www.w3.org/2000/svg">
<path d="M159.388 91.5232C159.388 90.5899 159.968 68.4171 146.108 55.7056C145.141 54.8045 143.659 54.7401 142.595 55.5447C142.434 55.6734 126.286 67.8057 111.265 55.5447C110.234 54.7079 108.751 54.7401 107.752 55.609C107.43 55.8986 103.014 59.8248 99.1783 67.4195C98.308 67.0333 97.2444 67.1299 96.4385 67.7413C95.7617 68.2562 80.0646 79.938 65.1088 67.7413C64.3675 67.1299 63.4005 67.0011 62.5625 67.2586C60.6285 63.1072 57.9533 59.0524 54.2788 55.6734C53.3118 54.7723 51.8291 54.7079 50.7655 55.5125C50.6043 55.6412 34.456 67.7735 19.4357 55.5125C18.4043 54.6758 16.9216 54.7079 15.9224 55.5768C15.3423 56.0596 1.99811 67.9666 1.64355 91.3623C1.64355 92.1025 1.90141 92.8104 2.41713 93.3253C2.93284 93.8402 3.64195 94.1299 4.35106 94.1299H48.2191C47.7034 97.0262 47.3489 100.18 47.3166 103.559C47.3166 104.299 47.5745 105.007 48.0902 105.522C48.6059 106.037 49.315 106.327 50.0241 106.327H110.492C111.974 106.327 113.167 105.136 113.232 103.655C113.232 103.269 113.328 99.4076 112.522 94.0977H156.681C158.163 94.0977 159.356 92.907 159.42 91.4588L159.388 91.5232ZM49.444 88.6913H7.1875C8.15447 73.9845 14.891 64.7806 17.9531 61.3051C32.2319 71.2812 46.8331 64.3623 52.0548 61.2085C54.859 64.2336 56.8574 67.7735 58.3078 71.3456C55.6003 74.7246 51.7969 80.4851 49.444 88.7234V88.6913ZM52.8606 100.92C53.8275 86.2133 60.5641 77.0095 63.6261 73.5017C77.905 83.4779 92.474 76.559 97.7278 73.4052C105.85 82.1263 107.398 95.3206 107.688 100.92H52.8606ZM111.427 88.7234C110.041 83.1239 107.591 76.8808 103.304 71.5387C105.56 66.5828 108.203 63.1394 109.815 61.3373C124.094 71.3134 138.695 64.3945 143.917 61.2407C152.039 69.9618 153.586 83.1561 153.876 88.7234H111.427Z" fill="white" stroke="white" stroke-miterlimit="10"/>
<path d="M126.447 1.60901C119.55 1.60901 113.071 4.31223 108.172 9.20376C104.111 13.2908 101.564 18.4719 100.855 24.1036C96.1169 17.8605 88.6713 13.8379 80.2909 13.8379C73.3932 13.8379 66.9145 16.5411 62.0152 21.4326C61.3384 22.1084 60.7259 22.8164 60.1135 23.5566C58.2118 11.1668 47.5107 1.64119 34.5856 1.64119C27.6879 1.64119 21.2092 4.34441 16.3099 9.23595C11.4106 14.1275 8.73535 20.6281 8.73535 27.5148C8.73535 41.7711 20.339 53.3885 34.5856 53.3885C41.4833 53.3885 47.962 50.6853 52.8613 45.7938C53.5382 45.1179 54.1506 44.41 54.763 43.6698C56.6647 56.0595 67.3658 65.5852 80.2909 65.5852C87.1886 65.5852 93.6673 62.882 98.5666 57.9904C102.628 53.9034 105.174 48.7222 105.883 43.0905C110.621 49.3015 118.067 53.3563 126.447 53.3563C133.345 53.3563 139.824 50.6531 144.723 45.7616C149.622 40.87 152.298 34.3694 152.298 27.4827C152.298 13.2264 140.694 1.60901 126.447 1.60901ZM48.9934 41.8998C45.1255 45.7616 40.0328 47.8855 34.5856 47.8855C23.3366 47.8855 14.1826 38.7461 14.1826 27.4827C14.1826 22.044 16.3099 16.9272 20.1456 13.0655C24.0134 9.20376 29.1061 7.07981 34.5534 7.07981C45.8024 7.07981 54.9241 16.2193 54.9564 27.4827C54.9564 32.9213 52.829 38.0381 48.9612 41.8998H48.9934ZM94.6665 54.0965C90.7986 57.9582 85.7059 60.0822 80.2587 60.0822C69.0096 60.0822 59.8557 50.9427 59.8557 39.6793C59.8557 34.2407 61.983 29.1239 65.8186 25.2622C69.6865 21.4004 74.7792 19.2765 80.2264 19.2765C91.4755 19.2765 100.597 28.4159 100.629 39.6793C100.629 45.1179 98.5021 50.2348 94.6343 54.0965H94.6665ZM140.855 41.8998C136.987 45.7616 131.895 47.8855 126.447 47.8855C115.198 47.8855 106.044 38.7461 106.044 27.4827C106.044 22.044 108.172 16.9272 112.007 13.0655C115.875 9.20376 120.968 7.07981 126.415 7.07981C137.664 7.07981 146.786 16.2193 146.818 27.4827C146.818 32.9213 144.691 38.0381 140.823 41.8998H140.855Z" fill="white" stroke="white" stroke-miterlimit="10"/>
</svg>
