<svg width="30" height="30" viewBox="0 0 30 30" fill="none" xmlns="http://www.w3.org/2000/svg">
<path d="M11.25 17.8125C10.8125 17.8125 10.4427 17.6615 10.1406 17.3594C9.83851 17.0573 9.68747 16.6875 9.68747 16.25C9.68747 15.8125 9.83851 15.4427 10.1406 15.1406C10.4427 14.8385 10.8125 14.6875 11.25 14.6875C11.6875 14.6875 12.0573 14.8385 12.3593 15.1406C12.6614 15.4427 12.8125 15.8125 12.8125 16.25C12.8125 16.6875 12.6614 17.0573 12.3593 17.3594C12.0573 17.6615 11.6875 17.8125 11.25 17.8125ZM18.75 17.8125C18.3125 17.8125 17.9427 17.6615 17.6406 17.3594C17.3385 17.0573 17.1875 16.6875 17.1875 16.25C17.1875 15.8125 17.3385 15.4427 17.6406 15.1406C17.9427 14.8385 18.3125 14.6875 18.75 14.6875C19.1875 14.6875 19.5573 14.8385 19.8593 15.1406C20.1614 15.4427 20.3125 15.8125 20.3125 16.25C20.3125 16.6875 20.1614 17.0573 19.8593 17.3594C19.5573 17.6615 19.1875 17.8125 18.75 17.8125ZM15 25C17.7916 25 20.1562 24.0312 22.0937 22.0938C24.0312 20.1562 25 17.7917 25 15C25 14.5 24.9687 14.0156 24.9062 13.5469C24.8437 13.0781 24.7291 12.625 24.5625 12.1875C24.125 12.2917 23.6875 12.3698 23.25 12.4219C22.8125 12.474 22.3541 12.5 21.875 12.5C19.9791 12.5 18.1875 12.0938 16.5 11.2812C14.8125 10.4688 13.375 9.33333 12.1875 7.875C11.5208 9.5 10.5677 10.9115 9.32809 12.1094C8.08851 13.3073 6.6458 14.2083 4.99997 14.8125V15C4.99997 17.7917 5.96872 20.1562 7.90622 22.0938C9.84372 24.0312 12.2083 25 15 25ZM15.0021 26.875C13.3596 26.875 11.8159 26.5633 10.3707 25.94C8.9255 25.3166 7.6684 24.4707 6.59938 23.4022C5.53033 22.3336 4.68401 21.077 4.06041 19.6325C3.4368 18.188 3.125 16.6445 3.125 15.0021C3.125 13.3597 3.43667 11.8159 4.06 10.3707C4.68333 8.92553 5.52927 7.66843 6.59781 6.59941C7.66637 5.53037 8.92293 4.68404 10.3675 4.06044C11.812 3.43683 13.3555 3.12503 14.9979 3.12503C16.6403 3.12503 18.1841 3.4367 19.6293 4.06003C21.0744 4.68337 22.3315 5.5293 23.4006 6.59784C24.4696 7.66641 25.3159 8.92296 25.9395 10.3675C26.5631 11.812 26.8749 13.3555 26.8749 14.9979C26.8749 16.6403 26.5633 18.1841 25.9399 19.6293C25.3166 21.0745 24.4707 22.3316 23.4021 23.4006C22.3336 24.4696 21.077 25.316 19.6325 25.9396C18.1879 26.5632 16.6445 26.875 15.0021 26.875ZM12.7235 5.27644C13.6706 7.02327 14.9843 8.35142 16.6646 9.26088C18.3449 10.1703 20.0817 10.625 21.875 10.625C22.2147 10.625 22.5461 10.6074 22.869 10.5722C23.1919 10.5369 23.5192 10.4864 23.8509 10.4207C23.016 8.76205 21.8065 7.44393 20.2223 6.46634C18.6382 5.48878 16.8974 5 15 5C14.5801 5 14.1887 5.02363 13.8257 5.07091C13.4627 5.1182 13.0953 5.18671 12.7235 5.27644ZM5.35091 12.613C6.52559 12.0249 7.641 11.1655 8.69712 10.0349C9.75323 8.90428 10.4351 7.54889 10.7428 5.96872C9.37579 6.58893 8.22032 7.48037 7.27641 8.64303C6.33249 9.8057 5.69066 11.129 5.35091 12.613Z" fill="white"/>
</svg>
