<svg width="52" height="59" viewBox="0 0 52 59" fill="none" xmlns="http://www.w3.org/2000/svg">
<g clip-path="url(#clip0_22_277)">
<path d="M9.83794 40.2496V42.0739L9.21598 44.0455C9.13116 44.0864 9.04635 44.1436 8.97096 44.2091L6.40771 46.377L4.70202 46.1807C2.71362 45.9516 0.90427 47.1705 0.640406 48.8885C0.621558 49.0276 0.612135 49.1585 0.612135 49.2975C0.612135 50.8601 1.94088 52.2099 3.76908 52.4144L4.03294 52.4472H3.9387C3.63714 52.4472 3.32616 52.4144 3.0246 52.3408C1.17756 51.9072 0.093831 50.2547 0.593287 48.6513L3.24135 40.2496H9.83794Z" stroke="black" stroke-miterlimit="10"/>
<path d="M51.5189 49.273C51.6131 50.6637 50.586 51.9645 48.9745 52.3408C48.6729 52.4144 48.362 52.4472 48.0604 52.4472H47.9756L48.3148 52.4063C50.1525 52.1936 51.5 50.8437 51.5189 49.273Z" stroke="black" stroke-miterlimit="10"/>
<path d="M50.3408 40.2496H42.1422V39.0061L41.671 38.8016L41.1527 38.8589L40.7852 38.8998L39.6449 38.3762L39.2303 38.188C39.0606 38.1798 38.9004 38.1717 38.7402 38.1717V30.179H38.7874C40.7286 30.1872 42.5568 30.6044 44.1589 31.3489C45.186 31.8152 46.1284 32.4206 46.9389 33.1323C49.0403 34.9484 50.3408 37.4681 50.3408 40.2496Z" fill="#FD3866" stroke="black" stroke-miterlimit="10"/>
<path d="M13.2207 30.179V38.1717C13.0699 38.1717 12.9097 38.1798 12.7495 38.188L12.316 38.3844L11.1946 38.8998L10.8459 38.8589L10.3088 38.8016L9.83759 39.0061V40.2496H1.62012C1.62012 37.4681 2.92059 34.9484 5.02207 33.1323C5.82309 32.4287 6.74661 31.8315 7.76437 31.3652C9.37582 30.6126 11.2229 30.1872 13.1736 30.179H13.2207Z" fill="#FD3866" stroke="black" stroke-miterlimit="10"/>
<path d="M34.1886 30.179C34.1886 30.359 34.1791 30.539 34.1603 30.7189C34.1603 30.9071 34.1226 31.0871 34.0943 31.2671C34.066 31.3979 34.0378 31.5207 34.0095 31.6434C33.5477 33.5904 32.1719 35.2429 30.2871 36.2492C29.1374 36.8709 27.7993 37.2472 26.3669 37.3045C26.2349 37.3127 26.1124 37.3127 25.9805 37.3127C25.8392 37.3127 25.6978 37.3127 25.5564 37.3045C24.1429 37.239 22.8141 36.8627 21.6739 36.2492C19.7891 35.2429 18.4133 33.5904 17.9515 31.6434C17.9232 31.5207 17.895 31.3979 17.8667 31.2671C17.8384 31.0953 17.8196 30.9153 17.8007 30.7353C17.7819 30.5553 17.7725 30.3672 17.7725 30.179H20.1472V28.821C21.1556 29.4018 22.1733 29.86 23.144 30.179C24.1712 30.5144 25.1418 30.6944 25.9899 30.6944C26.8381 30.6944 27.7804 30.5144 28.7982 30.179C29.7783 29.86 30.8054 29.3936 31.8326 28.7964V30.179H34.1886Z" stroke="black" stroke-miterlimit="10"/>
<path d="M29.8446 39.3006C27.4793 39.9469 25.9903 40.6177 25.9903 40.6177C25.9903 40.6177 25.8867 40.5687 25.6793 40.4868C25.227 40.2987 24.2752 39.9305 22.9653 39.5297C22.7015 39.4479 22.4187 39.3742 22.1172 39.2924C23.3423 39.0961 24.4637 38.5725 25.2459 37.6972C25.3589 37.5745 25.4626 37.4436 25.5568 37.3045C25.6982 37.3127 25.8396 37.3127 25.9809 37.3127C26.1128 37.3127 26.2353 37.3127 26.3673 37.3045C26.4615 37.4436 26.5652 37.5745 26.6783 37.6972C27.4699 38.5807 28.6007 39.1125 29.8446 39.3006Z" stroke="black" stroke-miterlimit="10"/>
<path d="M38.7407 30.179V38.1717C37.4685 38.1308 36.234 38.1962 35.0654 38.3189C35.9324 37.8035 36.6769 37.1082 37.1669 36.2492C38.0245 34.7766 38.1564 32.8214 36.9879 30.449C36.9502 30.359 36.9031 30.269 36.8559 30.179H38.7407Z" stroke="black" stroke-miterlimit="10"/>
<path d="M16.8488 38.3107C15.6991 38.188 14.4741 38.1308 13.2207 38.1717V30.179H15.0677C15.0206 30.269 14.9735 30.359 14.9358 30.449C13.7673 32.8214 13.8992 34.7766 14.7568 36.2492C15.2468 37.1082 15.9818 37.7954 16.8488 38.3107Z" stroke="black" stroke-miterlimit="10"/>
<path d="M40.2385 16.6234C40.2385 16.6888 40.2385 16.7543 40.2291 16.8197C40.2291 17.3433 40.1725 17.8669 40.0783 18.3741V18.3905C40.0312 18.6441 39.9746 18.8977 39.9087 19.1431C39.8427 19.3967 39.7767 19.6421 39.6919 19.8875C39.6448 20.0512 39.5883 20.2066 39.5223 20.3702C39.4752 20.5093 39.4186 20.6402 39.3527 20.7711C39.3432 20.8202 39.315 20.8692 39.2961 20.9183C39.2113 21.1065 39.1265 21.2946 39.0323 21.4746C38.8626 21.8264 38.6742 22.17 38.4668 22.5054C38.3349 22.7263 38.1935 22.939 38.0428 23.1517C38.0239 23.1844 38.0051 23.2253 37.9768 23.258C36.3748 25.565 34.1131 27.4875 31.8325 28.7964C30.8054 29.3936 29.7782 29.8599 28.7981 30.179C27.7804 30.5144 26.8286 30.6944 25.9899 30.6944C25.1511 30.6944 24.1711 30.5144 23.1439 30.179C22.1733 29.8599 21.1555 29.4018 20.1472 28.821C17.8478 27.5121 15.5767 25.5814 13.9841 23.258C13.8521 23.0617 13.7202 22.8654 13.5883 22.6608C13.4846 22.4809 13.3715 22.3091 13.2773 22.1209C13.1736 21.9491 13.0794 21.7691 12.9851 21.5892C12.9663 21.5564 12.9474 21.5155 12.938 21.4746C12.8155 21.2456 12.7119 21.0083 12.6176 20.7711C12.4857 20.4766 12.3726 20.1739 12.2784 19.8712C12.1935 19.6258 12.1276 19.3803 12.0616 19.1349C12.0051 18.8895 11.9485 18.6441 11.9014 18.3905C11.8731 18.2432 11.8543 18.0959 11.8354 17.9487C11.826 17.8751 11.8166 17.8014 11.8072 17.7278C11.7978 17.6787 11.7978 17.6378 11.7883 17.5887V17.5724C11.7883 17.5724 11.7789 17.5151 11.7789 17.4906C11.7789 17.286 11.7601 17.0897 11.7506 16.8852C11.7506 16.7952 11.7412 16.7134 11.7412 16.6234C11.7412 16.378 11.7506 16.1407 11.7601 15.9035C11.7601 15.8708 11.7601 15.838 11.7695 15.8053C11.7695 15.609 11.7883 15.4045 11.8166 15.2081C11.8354 15.0036 11.8637 14.7909 11.892 14.5864C11.9203 14.4228 11.9485 14.251 11.9768 14.0873C11.9957 13.9728 12.0145 13.8665 12.0428 13.7519C12.0805 13.572 12.1182 13.4002 12.1653 13.2202C12.2124 13.0238 12.2689 12.8275 12.3255 12.6393H17.0939L18.1776 7.86993L19.0352 12.6393H21.2215L21.834 9.8006L22.6256 12.6393H39.6542C39.7108 12.8275 39.7673 13.0238 39.8144 13.2202C39.8615 13.4002 39.8992 13.572 39.9369 13.7519C39.9652 13.8665 39.9841 13.9728 40.0029 14.0873C40.0312 14.251 40.0594 14.4228 40.0877 14.5864C40.116 14.7909 40.1443 15.0036 40.1631 15.2081C40.1914 15.4045 40.2008 15.609 40.2102 15.8053C40.2196 15.838 40.2196 15.8626 40.2196 15.8953C40.2196 16.1326 40.2385 16.378 40.2385 16.6234Z" stroke="black" stroke-miterlimit="10"/>
<path d="M12.6175 20.7711C12.6175 20.7711 12.5422 20.7793 12.5045 20.7793C10.9213 20.7793 9.63965 19.6667 9.63965 18.2923C9.63965 17.147 10.5349 16.1817 11.76 15.9035C11.7506 16.1407 11.7411 16.378 11.7411 16.6234C11.7411 17.2206 11.7977 17.8096 11.9013 18.3823C11.939 18.6441 11.9956 18.8895 12.0615 19.1349C12.1181 19.3803 12.1935 19.6258 12.2783 19.8712C12.3725 20.1739 12.4856 20.4766 12.6175 20.7711Z" stroke="black" stroke-miterlimit="10"/>
<path d="M44.225 21.4828C44.225 22.0718 44.1967 22.669 44.159 23.2581V31.3489C42.557 30.6044 40.7288 30.1872 38.7875 30.179H31.8328V28.7965C34.1133 27.4875 36.375 25.565 37.977 23.2581C38.0053 23.2253 38.0242 23.1844 38.043 23.1517C38.1938 22.939 38.3351 22.7263 38.4671 22.5054C38.6744 22.17 38.8629 21.8264 39.0325 21.4746C39.1267 21.2947 39.2116 21.1065 39.2964 20.9183C39.3152 20.8693 39.3435 20.8202 39.3529 20.7711C39.4094 20.7793 39.466 20.7793 39.5225 20.7793C41.0963 20.7793 42.3779 19.6667 42.3779 18.2923C42.3779 17.1388 41.4544 16.1571 40.2199 15.8953C40.2199 15.8626 40.2199 15.8381 40.2105 15.8053C40.201 15.609 40.1916 15.4045 40.1633 15.2081C40.1445 15.0036 40.1162 14.7909 40.088 14.5864C40.0597 14.4228 40.0314 14.251 40.0031 14.0874C39.9843 13.9728 39.9654 13.8665 39.9372 13.752C39.9089 13.572 39.8618 13.4002 39.8147 13.2202C39.7676 13.0239 39.711 12.8275 39.6545 12.6394H22.6258L21.8342 9.80063L21.2217 12.6394H19.0354L18.1778 7.86996L17.0941 12.6394H12.3257C12.2692 12.8275 12.2126 13.0239 12.1655 13.2202C12.1184 13.4002 12.0713 13.572 12.043 13.752C12.0147 13.8665 11.9959 13.9728 11.977 14.0874C11.9488 14.251 11.9205 14.4228 11.8922 14.5864C11.864 14.7909 11.8357 15.0036 11.8168 15.2081C11.7886 15.4045 11.7791 15.609 11.7697 15.8053C11.7603 15.8381 11.7603 15.8708 11.7603 15.9035C10.5352 16.1817 9.63997 17.147 9.63997 18.2923C9.63997 19.6667 10.9216 20.7793 12.5048 20.7793C12.5425 20.7793 12.5802 20.7793 12.6179 20.7711C12.7121 21.0083 12.8158 21.2456 12.9383 21.4746C12.9477 21.5155 12.9665 21.5564 12.9854 21.5892C13.0796 21.7692 13.1739 21.9491 13.2775 22.1209C13.3718 22.3091 13.4848 22.4809 13.5885 22.6609C13.7204 22.8654 13.8524 23.0617 13.9843 23.2581C15.5769 25.5814 17.848 27.5121 20.1474 28.821V30.179H13.1739C11.2231 30.1872 9.3761 30.6126 7.76465 31.3652V21.4746C7.76465 9.83335 15.9256 0.409058 25.9901 0.409058C36.0546 0.409058 44.225 9.84153 44.225 21.4828Z" stroke="black" stroke-miterlimit="10"/>
<path d="M42.3776 18.2923C42.3776 19.6667 41.0959 20.7793 39.5222 20.7793C39.4656 20.7793 39.4091 20.7793 39.3525 20.7711C39.4185 20.6402 39.475 20.5093 39.5222 20.3702C39.5881 20.2066 39.6447 20.0512 39.6918 19.8876C39.7766 19.6421 39.852 19.3967 39.9085 19.1431C39.9745 18.8977 40.031 18.6441 40.0782 18.3905V18.3741C40.1253 18.1123 40.163 17.8505 40.1913 17.5806C40.2007 17.4579 40.2101 17.327 40.2195 17.1961C40.2195 17.0079 40.2384 16.8116 40.2384 16.6234C40.2384 16.378 40.2289 16.1326 40.2195 15.8953C41.454 16.1571 42.3776 17.1388 42.3776 18.2923Z" stroke="black" stroke-miterlimit="10"/>
<path d="M42.3776 18.2923C42.3776 19.6667 41.0959 20.7793 39.5222 20.7793C39.4656 20.7793 39.4091 20.7793 39.3525 20.7711C39.4185 20.6402 39.475 20.5093 39.5222 20.3702C39.5881 20.2066 39.6447 20.0512 39.6918 19.8876C39.7766 19.6421 39.852 19.3967 39.9085 19.1431C39.9745 18.8977 40.031 18.6441 40.0782 18.3905V18.3741C40.1253 18.1123 40.163 17.8505 40.1913 17.5806C40.2007 17.4579 40.2101 17.327 40.2195 17.1961C40.2195 17.0734 40.2195 16.9506 40.2195 16.8198C40.2289 16.7543 40.2289 16.6889 40.2289 16.6234C40.2289 16.378 40.2195 16.1326 40.2101 15.8953C41.4446 16.1571 42.3681 17.1388 42.3681 18.2923H42.3776Z" stroke="black" stroke-miterlimit="10"/>
<path d="M12.6175 20.7711C12.6175 20.7711 12.5422 20.7793 12.5045 20.7793C10.9213 20.7793 9.63965 19.6667 9.63965 18.2923C9.63965 17.147 10.5349 16.1817 11.76 15.9035C11.7506 16.1407 11.7411 16.378 11.7411 16.6234C11.7411 16.7134 11.7506 16.7952 11.7506 16.8852C11.7506 17.1224 11.7694 17.3597 11.7883 17.5887C11.8165 17.8587 11.8542 18.1205 11.9013 18.3823C11.9485 18.6441 12.005 18.8895 12.0615 19.1349C12.1275 19.3803 12.1935 19.6258 12.2783 19.8712C12.3725 20.1739 12.4856 20.4766 12.6175 20.7711Z" stroke="black" stroke-miterlimit="10"/>
<path d="M25.5568 37.3045C25.4626 37.4436 25.3589 37.5745 25.2459 37.6972C24.4637 38.5725 23.3423 39.0961 22.1172 39.2924C20.6471 38.8998 18.8377 38.5153 16.8493 38.3107C15.9824 37.7954 15.2473 37.1082 14.7573 36.2492C13.8997 34.7766 13.7678 32.8214 14.9363 30.449C14.974 30.359 15.0211 30.269 15.0683 30.179H17.7729C17.7729 30.3672 17.7823 30.5553 17.8011 30.7353C17.82 30.9153 17.8388 31.0953 17.8671 31.2671C17.8954 31.398 17.9236 31.5207 17.9519 31.6434C18.4137 33.5904 19.7895 35.2429 21.6743 36.2492C22.8145 36.8627 24.1433 37.2391 25.5568 37.3045Z" fill="#FD3866" stroke="black" stroke-miterlimit="10"/>
<path d="M37.1668 36.2492C36.6767 37.1082 35.9322 37.8035 35.0653 38.3189C33.0863 38.5234 31.3052 38.9079 29.8445 39.3006C28.6006 39.1125 27.4698 38.5807 26.6782 37.6972C26.5651 37.5745 26.4614 37.4436 26.3672 37.3045C27.7996 37.2472 29.1378 36.8709 30.2874 36.2492C32.1722 35.2429 33.5481 33.5904 34.0098 31.6434C34.0381 31.5207 34.0664 31.398 34.0946 31.2671C34.1229 31.0871 34.1512 30.9071 34.1606 30.7189C34.1794 30.539 34.1889 30.359 34.1889 30.179H36.8558C36.9029 30.269 36.95 30.359 36.9877 30.449C38.1562 32.8214 38.0243 34.7766 37.1668 36.2492Z" fill="#FD3866" stroke="black" stroke-miterlimit="10"/>
<path d="M28.2328 57.4293C28.2328 58.0756 27.6296 58.591 26.8852 58.591H25.0947C24.3502 58.591 23.7471 58.0756 23.7471 57.4293V40.6177" stroke="black" stroke-miterlimit="10"/>
<path d="M28.2328 40.6177V40.6341C28.1668 40.855 28.016 41.0513 27.8275 41.1904C27.5825 41.3867 27.2621 41.5013 26.904 41.5013H25.0758C24.7271 41.5013 24.3973 41.3867 24.1617 41.1904C23.9638 41.0431 23.813 40.8468 23.7471 40.6177H28.2328Z" stroke="black" stroke-miterlimit="10"/>
<path d="M42.1424 39.0061V43.8001C41.5393 43.6692 40.8702 43.8246 40.3991 44.2336C40.3802 44.25 40.3614 43.4319 40.3519 43.4565V40.7813L39.8996 40.8304L30.0236 41.9757V55.6377L38.3635 54.6724L40.3425 54.4433V53.0362L41.1718 53.0689L42.133 53.1098V55.8095L28.2236 57.4129V40.6177L38.7311 39.3988L39.73 39.2843L41.2189 39.1125H41.2378L42.133 39.0061H42.1424Z" stroke="black" stroke-miterlimit="10"/>
<path d="M38.5518 42.6548V46.238C38.2691 46.3362 38.024 46.467 37.779 46.6225C37.779 46.6307 37.7696 46.6307 37.7696 46.6307L31.8232 47.2769V43.432L38.5518 42.6548Z" stroke="black" stroke-miterlimit="10"/>
<path d="M23.7473 40.6177V57.4129L9.83789 55.8095V53.1098L10.7803 53.0689L11.9488 53.0198C14.1634 52.9298 15.8691 51.3019 15.7654 49.3794C15.7466 49.1012 15.69 48.8313 15.6052 48.5695L21.9474 49.2976V42.2539L12.0336 41.1086L11.6284 41.0595V44.2664C11.6284 44.2664 11.6095 44.2418 11.6001 44.2336C11.1289 43.8164 10.4504 43.6692 9.83789 43.8082V39.0061L10.7331 39.1125H10.7708L12.2221 39.2843L13.221 39.3988L23.7473 40.6177Z" stroke="black" stroke-miterlimit="10"/>
<path d="M25.6795 40.4868L24.0869 40.6177L23.7477 40.3559L13.2214 39.137L12.2508 39.0225L11.1953 38.8998L12.3167 38.3844L12.7502 38.188C12.9104 38.1798 13.0706 38.1717 13.2214 38.1717C14.4748 38.1308 15.6998 38.188 16.8495 38.3107C18.8379 38.5153 20.6473 38.8998 22.1174 39.2924C22.4189 39.3742 22.7017 39.4561 22.9655 39.5297C24.2754 39.9305 25.2272 40.2987 25.6795 40.4868Z" stroke="black" stroke-miterlimit="10"/>
<path d="M25.9899 40.4623L25.6789 40.4868C25.2265 40.2987 24.2747 39.9305 22.9648 39.5297C24.8402 40.0614 25.9899 40.4623 25.9899 40.4623Z" stroke="black" stroke-miterlimit="10"/>
<path d="M40.7854 38.8998L39.7111 39.0225L38.7405 39.137L28.2331 40.3559L27.8938 40.6177H25.9902C25.9902 40.6177 27.4792 39.9469 29.8445 39.3006C31.3052 38.9079 33.0863 38.5234 35.0653 38.3189C36.2338 38.1962 37.4683 38.1308 38.7405 38.1717C38.9007 38.1717 39.0609 38.1798 39.2305 38.188L39.6452 38.3762L40.7854 38.8998Z" stroke="black" stroke-miterlimit="10"/>
<g style="mix-blend-mode:multiply">
<path d="M21.9479 42.2539V49.2976L15.6057 48.5695C15.1345 47.1542 13.655 46.1316 11.9305 46.0743C12.0624 45.8535 12.1284 45.5999 12.1284 45.3544C12.1284 44.9945 11.987 44.6345 11.6949 44.34C11.6854 44.3155 11.6572 44.2909 11.6289 44.2664V41.0595L12.0341 41.1086L21.9479 42.2539Z" stroke="black" stroke-miterlimit="10"/>
</g>
<path d="M42.7834 44.0455C42.5855 43.9146 42.3687 43.841 42.1426 43.8001V42.0085L42.7834 44.0455Z" stroke="black" stroke-miterlimit="10"/>
<path d="M51.5192 49.2321V49.273C51.5004 50.8437 50.1528 52.1936 48.3152 52.4063L47.9759 52.4472L45.6011 52.7089C44.9698 53.028 44.2159 53.1916 43.4337 53.1589L42.1426 53.1098L41.1814 53.0689L40.3521 53.0362L39.994 53.0198C37.7418 52.9216 35.9984 51.2691 36.102 49.3139C36.1209 49.0685 36.1586 48.8394 36.2246 48.6104C36.2434 48.5367 36.2623 48.4631 36.2999 48.3977C36.3282 48.324 36.3565 48.2422 36.3942 48.1686C36.4225 48.1032 36.4601 48.0295 36.4978 47.9641C36.6204 47.7268 36.7711 47.5141 36.9596 47.3096C37.1952 47.0478 37.4685 46.8188 37.7795 46.6306C37.7795 46.6306 37.7889 46.6306 37.7889 46.6224C38.0339 46.467 38.2789 46.3361 38.5616 46.2379C39.014 46.0661 39.504 45.968 40.0129 45.9516C39.9281 45.7634 39.881 45.5589 39.881 45.3626C39.881 45.0108 40.0129 44.659 40.2862 44.3727C40.2862 44.34 40.3239 44.3154 40.3616 44.2909C40.371 44.2663 40.3898 44.25 40.4087 44.2336C40.8799 43.8246 41.5489 43.6692 42.1521 43.8C42.3782 43.8409 42.595 43.9146 42.7929 44.0455L42.1521 42.0084V40.2496H48.7675L51.1611 47.8332L51.4156 48.6513C51.4533 48.7576 51.4721 48.8558 51.491 48.9621C51.5098 49.0521 51.5192 49.1421 51.5287 49.2321H51.5192Z" stroke="black" stroke-miterlimit="10"/>
<path d="M51.5189 49.2321C51.5095 49.1421 51.5 49.0521 51.4812 48.9621C51.4624 48.8558 51.4435 48.7576 51.4058 48.6513L51.1514 47.8332C51.321 48.1359 51.4341 48.4631 51.4906 48.8149C51.5095 48.954 51.5189 49.093 51.5189 49.2321Z" stroke="black" stroke-miterlimit="10"/>
<path d="M15.7656 49.3794C15.8693 51.3018 14.1636 52.9298 11.949 53.0198L10.7805 53.0689L9.83811 53.1098L8.55649 53.1589C7.78374 53.1834 7.05812 53.028 6.42673 52.7171L4.03311 52.4472L3.76925 52.4144C1.94105 52.2099 0.612305 50.8601 0.612305 49.2975C0.612305 49.1585 0.621728 49.0276 0.640576 48.8885C0.90444 47.1705 2.71379 45.9516 4.70219 46.1807L6.40788 46.377L8.97113 44.2091C9.04652 44.1436 9.13133 44.0864 9.21615 44.0455C9.40462 43.9228 9.62137 43.8409 9.83811 43.8082C10.4507 43.6691 11.1292 43.8164 11.6003 44.2336C11.6003 44.2418 11.6192 44.25 11.6286 44.2664C11.6569 44.2909 11.6852 44.3154 11.6946 44.34C11.9867 44.6345 12.1281 44.9944 12.1281 45.3544C12.1281 45.5998 12.0621 45.8534 11.9302 46.0743C13.6547 46.1316 15.1342 47.1542 15.6054 48.5695C15.6902 48.8312 15.7468 49.1012 15.7656 49.3794Z" stroke="black" stroke-miterlimit="10"/>
</g>
<defs>
<clipPath id="clip0_22_277">
<rect width="52" height="59" fill="white"/>
</clipPath>
</defs>
</svg>
