<svg xmlns="http://www.w3.org/2000/svg" xmlns:xlink="http://www.w3.org/1999/xlink" width="136" height="49.449" viewBox="0 0 136 49.449">
  <defs>
    <clipPath id="clip-path">
      <rect id="사각형_12" data-name="사각형 12" width="136" height="49.449" fill="none"/>
    </clipPath>
  </defs>
  <g id="logo_w" transform="translate(0 0)">
    <g id="그룹_1" data-name="그룹 1" transform="translate(0 0)" clip-path="url(#clip-path)">
      <path id="패스_1" data-name="패스 1" d="M100.792,27.98a3.15,3.15,0,0,1-2.967-4.2l5.486-15.462L86.8,14.159a3.148,3.148,0,0,1-2.1-5.935L107.437.18A3.148,3.148,0,0,1,111.452,4.2l-7.694,21.683a3.148,3.148,0,0,1-2.966,2.1" transform="translate(24.366 0.001)" fill="#e60019"/>
      <rect id="사각형_10" data-name="사각형 10" width="3.67" height="12.519" transform="translate(105.352 21.721)" fill="#fff"/>
      <rect id="사각형_11" data-name="사각형 11" width="3.67" height="7.177" transform="translate(105.352 37.099)" fill="#fff"/>
      <path id="패스_2" data-name="패스 2" d="M4.856,40.241h0s0,.052,0,.129v.3l.016.011c.074,1.011.488,3.415,2.791,3.415H22.338v-2.1h-.027v-6.96h.027v-2.1H4.856Zm3.669-5.208H18.641v6.96H8.525ZM22.338,16.957H3.776v2.1H18.67v8.794H0v2.1H27.842v-2.1h-5.5Zm86.2,15.243H90.729v2.1h17.806ZM77.617,34.52h3.67v-17.7h-3.67v7.284H72.06v2.1h5.557Zm31.026-12.572H101.3v2.1h7.34ZM45.358,34.813a7.837,7.837,0,0,0,6.5-7.471,7.375,7.375,0,0,0-2.7-5.638h5.379V19.6H45.358v-3H41.689v3H32.517v2.1H37.9a7.371,7.371,0,0,0-2.7,5.638,7.836,7.836,0,0,0,6.5,7.471v3.807H29.36v2.1H57.687v-2.1H45.358Zm-6.475-7.469a4.646,4.646,0,1,1,4.641,4.423,4.538,4.538,0,0,1-4.641-4.423m28.253,15.1L67.1,33.458l-3.669.013.023,7.231v.43l.017.013c.076,1.01.5,3.413,2.8,3.4l15.54-.049-.006-2.1Zm41.979-.047-14.681.047-.016-3.066h14.333v-2.1h-18v.084h-.018l.026,3.776.017.013c.076,1.011.5,3.413,2.8,3.4L109.12,44.5ZM71.412,17.63H59.866v2.1h7.892c-.32,5.78-8.943,10.684-8.943,10.684l.971,1.4C71.871,26.642,71.412,17.63,71.412,17.63m21.5,2.861c1.187.755,4.964,4.963,4.64,8.957h3.13s-1.942-8.741-7.23-11.871c0,0-2.16-.971-3.022.324S86.44,29.34,86.44,29.34h2.914s2.374-9.6,3.561-8.849" transform="translate(0 4.899)" fill="#fff"/>
    </g>
  </g>
</svg>
