<svg xmlns="http://www.w3.org/2000/svg" xmlns:xlink="http://www.w3.org/1999/xlink" width="136.333" height="49.57" viewBox="0 0 136.333 49.57">
  <defs>
    <clipPath id="clip-path">
      <rect id="사각형_12" data-name="사각형 12" width="136.333" height="49.57" fill="none"/>
    </clipPath>
  </defs>
  <g id="logo_b" transform="translate(0 0)">
    <g id="그룹_1" data-name="그룹 1" transform="translate(0 0)" clip-path="url(#clip-path)">
      <path id="패스_1" data-name="패스 1" d="M100.836,28.049a3.159,3.159,0,0,1-2.974-4.211l5.5-15.5-16.55,5.856a3.155,3.155,0,1,1-2.1-5.949L107.5.18a3.156,3.156,0,0,1,4.026,4.031L103.81,25.947a3.157,3.157,0,0,1-2.974,2.1" transform="translate(24.628 0.001)" fill="#e60019"/>
      <rect id="사각형_10" data-name="사각형 10" width="3.679" height="12.549" transform="translate(105.61 21.774)" fill="#1d1d1d"/>
      <rect id="사각형_11" data-name="사각형 11" width="3.679" height="7.194" transform="translate(105.61 37.189)" fill="#1d1d1d"/>
      <path id="패스_2" data-name="패스 2" d="M4.868,40.3h0s0,.052,0,.13v.3l.016.012c.074,1.014.489,3.423,2.8,3.423H22.393V42.055h-.027V35.077h.027V32.968H4.868Zm3.678-5.221H18.687v6.978H8.546Zm13.847-18.12H3.785v2.109h14.93v8.816H0v2.109H27.91V27.883H22.393ZM108.8,32.238H90.951v2.109H108.8ZM77.807,34.563h3.679V16.823H77.807v7.3h-5.57v2.109h5.57Zm31.1-12.6h-7.358V24.07h7.358Zm-63.441,12.9a7.856,7.856,0,0,0,6.514-7.489,7.393,7.393,0,0,0-2.711-5.652h5.393V19.609h-9.2v-3H41.791v3H32.6v2.108h5.393a7.389,7.389,0,0,0-2.711,5.652,7.855,7.855,0,0,0,6.513,7.489v3.817H29.432v2.109h28.4V38.675H45.469ZM38.978,27.37A4.657,4.657,0,1,1,43.631,31.8a4.549,4.549,0,0,1-4.653-4.434M67.3,42.505,67.269,33.5l-3.678.013.023,7.249v.431l.017.013c.077,1.013.5,3.422,2.808,3.413l15.578-.049-.006-2.109Zm42.082-.047-14.717.047-.016-3.074h14.368V37.322H90.978v.084H90.96l.026,3.785L91,41.2c.077,1.014.5,3.422,2.808,3.413l15.576-.049Zm-37.8-24.826H60.012v2.109h7.911c-.321,5.794-8.965,10.71-8.965,10.71l.974,1.406c12.116-5.193,11.655-14.226,11.655-14.226M93.142,20.5c1.19.757,4.976,4.976,4.651,8.979h3.138s-1.947-8.763-7.248-11.9c0,0-2.165-.974-3.03.325s-4,11.467-4,11.467h2.921s2.38-9.627,3.57-8.87" transform="translate(0 4.952)" fill="#1d1d1d"/>
    </g>
  </g>
</svg>
