<svg width="470" height="407" viewBox="0 0 470 407" fill="none" xmlns="http://www.w3.org/2000/svg">
<g clip-path="url(#clip0_27_1853)">
<path d="M110.369 182.559C110.257 181.5 110.244 180.429 110.332 179.358C110.257 180.417 110.257 181.5 110.369 182.559Z" fill="#66A2F1"/>
<path d="M283.994 179.209C289.692 179.346 295.302 179.508 300.8 179.695C308.23 179.944 315.473 180.23 322.48 180.554C323.452 180.604 324.412 180.654 325.372 180.703C325.459 180.703 325.534 180.703 325.609 180.716C331.244 180.99 336.729 181.289 342.04 181.625C350.306 182.123 358.147 182.684 365.54 183.306C374.404 184.054 382.607 184.863 390.037 185.735C391.01 185.847 391.957 185.971 392.892 186.083C397.842 186.694 402.429 187.341 406.618 188.014C418.574 189.919 427.288 192.049 432.013 194.315C433.509 195.038 434.606 195.772 435.267 196.52C435.504 196.781 435.691 197.055 435.816 197.329C435.853 197.89 435.878 198.45 435.891 199.01C436.501 215.636 435.068 232.337 431.639 248.676V248.701C427.438 268.776 420.232 288.316 410.159 306.461C410.159 306.461 410.146 306.461 410.146 306.474C408.937 308.678 407.678 310.857 406.357 313.024C406.357 313.037 406.332 313.062 406.319 313.074C403.19 318.255 399.811 323.323 396.184 328.23C395.274 329.463 394.363 330.684 393.428 331.879C393.428 331.879 393.428 331.892 393.416 331.892C393.379 331.966 393.329 332.004 393.279 332.066V332.091C385.437 342.191 376.573 351.618 366.687 360.186C366.089 360.71 365.465 361.22 364.854 361.731C364.306 362.204 363.745 362.665 363.184 363.126C362.723 363.499 362.274 363.86 361.812 364.234C361.401 364.57 360.977 364.906 360.566 365.23C359.992 365.691 359.419 366.139 358.845 366.588C358.559 366.799 358.284 367.011 357.998 367.223C357.424 367.671 356.838 368.107 356.252 368.543C355.392 369.191 354.544 369.813 353.672 370.436C352.799 371.059 351.926 371.669 351.054 372.267C350.705 372.516 350.355 372.765 350.006 372.989C347.725 374.558 345.406 376.065 343.062 377.51C342.065 378.12 341.068 378.73 340.058 379.328C339.061 379.926 338.038 380.523 337.028 381.096C334.996 382.254 332.939 383.375 330.87 384.446C329.835 384.982 328.8 385.505 327.753 386.028C326.718 386.551 325.671 387.049 324.611 387.56C323.552 388.045 322.492 388.544 321.432 389.017C318.253 390.461 315.037 391.819 311.783 393.089C309.651 393.924 307.507 394.721 305.338 395.468L305.226 395.505C304.128 395.891 303.031 396.265 301.922 396.626C298.631 397.71 295.314 398.718 291.961 399.627C290.839 399.939 289.704 400.238 288.57 400.524C284.044 401.682 279.482 402.679 274.881 403.525C272.6 403.949 270.318 404.322 268.012 404.671H268C266.853 404.846 265.706 405.007 264.559 405.157C263.985 405.232 263.399 405.319 262.826 405.381C256.468 406.178 250.085 406.676 243.677 406.888C242.517 406.925 241.345 406.95 240.186 406.963C239.027 406.988 237.855 407 236.695 407C234.85 407 232.993 406.975 231.135 406.925C230.088 406.9 229.053 406.863 228.006 406.826C226.959 406.776 225.911 406.726 224.877 406.664C223.83 406.602 222.795 406.539 221.748 406.477C221.561 406.465 221.361 406.452 221.174 406.427C219.99 406.34 218.805 406.253 217.621 406.141C216.25 406.029 214.878 405.892 213.507 405.73C212.472 405.618 211.437 405.493 210.403 405.369C207.186 404.982 203.982 404.509 200.803 403.949C199.993 403.812 199.17 403.662 198.347 403.513C194.794 402.865 191.266 402.131 187.763 401.284C186.865 401.084 185.968 400.86 185.07 400.636L183.911 400.337C183.175 400.15 182.44 399.964 181.704 399.764C170.945 396.863 160.448 393.089 150.325 388.481C149.739 388.207 149.153 387.933 148.567 387.659C144.004 385.517 139.529 383.201 135.14 380.71C132.672 379.303 130.228 377.846 127.822 376.326C123.683 373.724 119.644 370.959 115.717 368.032C115.144 367.596 114.57 367.173 113.997 366.725C113.161 366.09 112.326 365.442 111.503 364.794C110.568 364.06 109.646 363.3 108.723 362.553C106.891 361.058 105.095 359.514 103.313 357.92C101.542 356.338 99.7844 354.719 98.064 353.05C97.2163 352.241 96.3685 351.419 95.5332 350.572L95.3961 350.435C94.698 349.725 93.9874 349.003 93.2892 348.281C93.1895 348.169 93.0897 348.069 92.99 347.957C92.1547 347.098 91.3319 346.213 90.5216 345.329C89.5866 344.308 88.6515 343.274 87.729 342.228C86.981 341.381 86.2454 340.522 85.5099 339.663C84.6497 338.666 83.8144 337.658 82.9916 336.649C82.7423 336.338 82.4805 336.039 82.2311 335.715C81.6202 334.968 81.0218 334.22 80.4234 333.461C79.9497 332.851 79.4635 332.24 79.0022 331.63C78.0423 330.385 77.0948 329.139 76.1847 327.869C75.8481 327.433 75.5364 326.985 75.2123 326.537C75.0253 326.287 74.8383 326.051 74.6637 325.789C73.816 324.619 72.9932 323.436 72.1953 322.252C71.572 321.356 70.9736 320.459 70.3876 319.562C67.6449 315.44 65.0518 311.206 62.6208 306.897C62.3465 306.424 62.0972 305.951 61.8354 305.477C61.7232 305.29 61.611 305.104 61.4988 304.904C60.9876 303.983 60.4765 303.036 59.9903 302.102C59.9653 302.065 59.9404 302.028 59.9279 301.99C59.2797 300.782 58.6439 299.562 58.0454 298.341C57.7338 297.731 57.4221 297.108 57.1104 296.486C57.0855 296.461 57.073 296.436 57.0606 296.399C56.7364 295.738 56.4123 295.078 56.1006 294.406C56.0632 294.344 56.0258 294.294 56.0133 294.232C55.7017 293.609 55.4025 292.961 55.1033 292.326C55.0659 292.264 55.0409 292.214 55.0285 292.152C54.7043 291.479 54.3927 290.807 54.0935 290.134C53.9314 289.786 53.7693 289.437 53.6322 289.101C53.2083 288.167 52.7969 287.233 52.398 286.299C51.4255 284.044 50.4905 281.778 49.6179 279.499C49.3311 278.776 49.0693 278.067 48.795 277.357C47.9847 275.202 47.2118 273.048 46.4762 270.881C46.2269 270.159 45.99 269.436 45.7407 268.701C45.4913 267.979 45.2669 267.269 45.0425 266.547C44.8057 265.825 44.5937 265.102 44.3693 264.368C44.0202 263.209 43.6712 262.051 43.347 260.881C43.185 260.32 43.0229 259.772 42.8733 259.224C42.7237 258.664 42.5741 258.103 42.4245 257.555C42.225 256.87 42.0505 256.185 41.8884 255.501C41.7014 254.766 41.5019 254.019 41.3274 253.271C41.1529 252.537 40.9783 251.789 40.8038 251.042C40.6168 250.295 40.4547 249.56 40.2927 248.813C40.1929 248.439 40.1181 248.066 40.0433 247.692C39.9685 247.318 39.8813 246.945 39.8065 246.571C39.6569 245.886 39.5197 245.189 39.3826 244.491C39.233 243.806 39.0958 243.122 38.9836 242.424C38.9338 242.15 38.8714 241.889 38.8216 241.615C38.7094 241.017 38.6096 240.419 38.5099 239.821C38.485 239.747 38.4725 239.659 38.4725 239.585C38.3478 238.9 38.2356 238.24 38.1359 237.567C38.0611 237.181 38.0112 236.807 37.9489 236.434C37.8242 235.687 37.712 234.927 37.5998 234.167C37.55 233.794 37.5001 233.408 37.4502 233.034L37.1884 231.166C37.1884 231.166 37.1635 231.041 37.1759 230.992C37.0637 230.17 36.964 229.36 36.8767 228.551C36.777 227.779 36.6897 226.994 36.6149 226.222C36.59 226.023 36.5775 225.798 36.5526 225.612V225.587C36.4903 225.064 36.4404 224.553 36.403 224.042C36.3157 223.083 36.2285 222.125 36.1537 221.166C36.0789 220.207 36.0165 219.248 35.9542 218.289C35.8919 217.33 35.842 216.371 35.7921 215.412C35.7423 214.453 35.7049 213.482 35.6675 212.523C35.5179 208.039 35.5428 203.556 35.7423 199.073C35.7672 198.462 35.7921 197.84 35.842 197.217C36.7895 195.436 40.168 193.705 45.6659 192.086C50.4033 190.679 56.7115 189.346 64.3911 188.101C65.1889 187.976 66.0118 187.839 66.8346 187.715C67.6449 187.59 68.4553 187.466 69.2905 187.354C69.9014 187.254 70.5248 187.167 71.1606 187.08C73.8035 186.706 76.5587 186.345 79.451 185.996H79.4635C80.4484 185.872 81.4457 185.747 82.468 185.635C85.6969 185.262 89.063 184.888 92.5786 184.539C95.7576 184.228 99.0614 183.917 102.452 183.618C105.058 183.381 107.713 183.169 110.431 182.958C111.341 182.883 112.264 182.808 113.186 182.746C117.3 182.422 121.527 182.136 125.89 181.849C126.813 181.787 127.748 181.725 128.695 181.675C137.172 181.152 146.074 180.679 155.349 180.28C168.215 179.732 181.779 179.309 195.891 179.022" fill="#66A2F1"/>
<path d="M432.076 201.003C432.076 201.389 432.063 201.788 432.038 202.174C431.914 206.221 431.59 210.281 431.265 214.316C430.567 222.909 429.869 231.515 429.184 240.133C429.109 240.93 429.046 241.739 428.984 242.536C428.224 251.827 427.451 261.279 424.085 269.984C421.903 275.651 418.649 280.894 416.804 286.685C415.52 290.744 414.909 295.053 412.827 298.765C410.782 302.451 407.429 305.265 405.197 308.84C403.14 312.19 402.106 316.063 400.36 319.575C399.001 322.302 397.181 324.768 395.361 327.221C395.249 327.371 395.137 327.52 395.024 327.67C394.688 328.13 394.339 328.616 393.952 329.065C393.017 330.21 391.945 331.256 390.624 331.817C390.624 331.817 390.619 331.817 390.611 331.817C390.611 331.817 390.599 331.817 390.586 331.817C388.367 332.713 385.724 331.381 385.126 329.052C383.842 323.983 377.172 321.829 375.701 316.81C373.619 309.637 383.505 303.26 381.959 295.95C381.336 292.936 378.867 290.695 377.371 288.005C373.556 281.168 375.052 270.358 367.759 267.431C366.949 267.107 366.101 266.933 365.229 266.833C364.867 266.783 364.506 266.759 364.144 266.746H364.019C363.546 266.746 363.084 266.721 362.623 266.721H362.461C362.187 266.721 361.925 266.734 361.651 266.734C359.556 266.759 357.462 266.759 355.579 265.874C351.976 264.193 350.518 259.959 347.95 256.908C345.668 254.193 342.302 252.437 338.774 251.951C338.599 251.914 338.437 251.901 338.263 251.889C336.567 251.714 334.847 251.827 333.201 252.262C328.987 253.383 325.173 256.41 321.009 257.02C320.946 257.045 320.884 257.045 320.822 257.045C319.139 257.281 317.393 257.107 315.536 256.235C313.18 255.139 311.372 253.147 310.15 250.855C306.722 244.404 306.672 236.359 309.826 229.821C312.145 224.989 316.072 221.016 318.141 216.122C318.278 215.786 318.416 215.437 318.54 215.088C322.467 204.091 315.648 190.442 322.268 180.828C322.33 180.728 322.405 180.629 322.48 180.542C323.452 180.591 324.412 180.641 325.372 180.691C325.459 180.691 325.534 180.691 325.609 180.703C331.244 180.977 336.729 181.276 342.04 181.613C350.306 182.111 358.147 182.671 365.54 183.294C374.404 184.041 382.607 184.85 390.038 185.722C391.01 185.834 391.957 185.959 392.893 186.071C397.842 186.681 402.43 187.329 406.619 188.001C418.574 189.907 427.289 192.036 432.013 194.303C432.126 196.532 432.138 198.761 432.076 200.991V201.003Z" fill="#E6CA85"/>
<path d="M116.303 189.284C114.396 187.503 113.473 185.187 113.174 182.746C117.288 182.422 121.514 182.136 125.878 181.849C126.8 181.787 127.735 181.725 128.683 181.675C128.159 186.183 126.164 190.816 121.539 191.214C120.903 191.252 120.28 191.214 119.669 191.065C118.422 190.791 117.263 190.168 116.315 189.284H116.303Z" fill="#E6CA85"/>
<path d="M263.437 294.219C259.011 299.499 252.366 303.422 250.496 310.073C249 315.328 250.895 321.356 248.315 326.2C243.241 335.827 226.996 331.331 219.342 339.077C214.991 343.449 214.567 350.697 210.129 354.943C205.902 359.028 199.42 359.165 193.71 360.622C189.334 361.743 183.587 364.446 181.866 368.219C181.056 370.05 178.987 370.66 177.378 369.938C176.78 369.689 176.269 369.228 175.907 368.58C175.882 368.568 175.882 368.555 175.882 368.518C175.284 367.41 174.872 366.226 174.436 365.056C174.137 364.259 173.813 363.474 173.414 362.727C173.302 362.503 173.152 362.254 173.002 362.017C172.292 360.921 171.407 360.037 170.397 359.24C170.397 359.24 170.389 359.236 170.372 359.227C166.719 356.388 161.658 354.906 159.289 350.896C155.711 344.893 160.162 337.483 160.922 330.547C161.745 322.95 157.456 315.029 150.637 311.579C145.002 308.715 137.809 308.528 133.545 303.846C127.05 296.697 131.837 283.932 125.603 276.547C123.335 273.832 119.944 272.375 117.213 270.121C111.005 265.027 108.711 255.7 111.89 248.327C112.463 246.994 113.174 245.749 113.959 244.529C116.241 241.029 119.121 237.866 120.754 233.98C120.816 233.843 120.879 233.706 120.941 233.557C121.377 232.498 121.701 231.378 121.901 230.182C122.125 228.8 122.1 227.38 121.726 226.035C120.48 221.639 117.126 219.982 113.324 218.924C108.137 217.479 102.103 217.193 99.4979 212.622C99.473 212.572 99.4356 212.523 99.4106 212.473C99.4106 212.473 95.6706 209.247 91.5441 204.714C91.3571 204.49 91.1825 204.291 90.9955 204.091C88.7266 201.576 85.3979 200.305 82.2189 199.371C80.2616 198.811 78.1422 198.624 76.3221 197.703C75.5616 197.304 75.0629 196.868 74.7388 196.407C73.8661 195.199 74.0157 193.755 73.2303 192.036C72.7939 191.09 71.9337 190.243 71.2356 189.458H71.2231C71.2231 189.458 71.1608 189.371 71.1359 189.346C70.5374 188.686 69.9016 188.026 69.3032 187.354C69.9141 187.254 70.5374 187.167 71.1732 187.08C73.8162 186.706 76.5714 186.345 79.4637 185.996H79.4762C80.461 185.872 81.4584 185.747 82.4807 185.635C81.0719 187.839 80.3364 189.919 83.1913 192.522C87.642 196.569 95.1096 197.18 100.171 200.48C104.41 203.245 110.17 209.907 110.17 209.907C111.341 210.518 112.626 210.779 113.997 210.879H114.097C115.493 210.966 116.939 210.879 118.373 210.804C118.659 210.779 118.946 210.767 119.233 210.754H119.445C122.512 210.617 125.404 210.767 127.274 213.12C127.685 213.668 128.072 214.254 128.471 214.814C129.169 215.81 129.929 216.72 131.076 217.106H131.089C131.824 217.367 132.722 217.404 133.857 217.106C135.041 216.794 136.063 216.159 136.898 215.312C137.472 214.752 137.958 214.092 138.345 213.369C140.04 210.256 142.596 208.799 145.438 208.45H145.526C149.191 208.039 153.305 209.447 156.559 211.452C159.102 213.021 161.496 214.926 164.014 216.57C166.245 218.04 168.564 219.285 171.157 219.908C172.229 220.169 173.314 220.306 174.424 220.356H174.486C178.513 220.555 182.639 219.683 186.679 219.509H186.791C189.209 219.397 191.603 219.546 193.897 220.331C200.23 222.498 204.032 228.825 207.261 234.653C210.765 240.93 214.243 247.206 217.746 253.495C220.352 258.153 223.306 263.172 228.28 265.152C229.49 265.638 230.736 265.912 231.983 266.024H232.033C238.416 266.559 245.148 262.985 251.78 262.487C251.793 262.487 251.805 262.487 251.818 262.487C253.189 262.387 254.548 262.425 255.907 262.649C262.365 263.745 267.514 269.523 268.748 275.924C269.982 282.376 267.676 289.188 263.449 294.219H263.437Z" fill="#E6CA85"/>
<path d="M435.28 199.969C435.28 200.368 435.267 200.779 435.267 201.177C435.155 205.586 434.806 210.007 434.445 214.416C433.747 223.071 433.036 231.726 432.35 240.394C432.275 241.141 432.226 241.901 432.163 242.636C432.001 244.641 431.827 246.658 431.64 248.676V248.701C430.941 255.999 429.894 263.259 427.264 270.084C425.082 275.75 421.828 280.993 419.983 286.784C418.699 290.844 418.088 295.153 416.006 298.864C414.46 301.666 412.154 303.958 410.159 306.461C410.159 306.461 410.147 306.461 410.147 306.473C409.511 307.258 408.913 308.08 408.376 308.939C407.579 310.235 406.93 311.617 406.357 313.024C405.409 315.241 404.612 317.52 403.539 319.674C402.093 322.564 400.136 325.167 398.204 327.769C397.867 328.23 397.518 328.716 397.131 329.164C396.196 330.31 395.124 331.356 393.803 331.916C393.628 331.991 393.454 332.041 393.267 332.091C392.369 332.327 391.422 332.215 390.586 331.829C390.474 331.792 390.374 331.73 390.262 331.667C390.2 331.642 390.15 331.605 390.088 331.568C389.24 331.032 388.567 330.198 388.305 329.164C387.021 324.096 380.351 321.941 378.88 316.922C376.798 309.749 386.684 303.373 385.138 296.062C384.515 293.048 382.047 290.807 380.55 288.117C376.948 281.653 378.082 271.64 372.061 268.091C371.911 268.004 371.761 267.917 371.599 267.842C371.387 267.73 371.163 267.63 370.939 267.543C369.143 266.821 367.186 266.821 365.229 266.846C364.032 266.846 362.823 266.883 361.651 266.746C360.653 266.634 359.681 266.422 358.758 265.986C358.696 265.962 358.634 265.924 358.584 265.887C358.397 265.8 358.222 265.712 358.048 265.6C354.956 263.732 353.522 259.859 351.129 257.02C350.231 255.949 349.171 255.04 348 254.305C347.788 254.143 347.576 254.018 347.351 253.894C347.164 253.782 346.965 253.67 346.765 253.57C344.309 252.325 341.517 251.739 338.774 251.964C337.964 252.026 337.166 252.163 336.38 252.375C331.057 253.794 326.37 258.253 320.822 257.057C320.136 256.92 319.438 256.684 318.715 256.347C318.653 256.322 318.59 256.285 318.528 256.248C318.291 256.136 318.067 256.023 317.842 255.886C315.91 254.741 314.401 252.972 313.329 250.967C309.901 244.516 309.851 236.471 313.005 229.933C315.361 225.014 319.376 220.991 321.408 215.985C321.52 215.723 321.62 215.462 321.719 215.2C325.647 204.204 318.827 190.554 325.447 180.94C325.497 180.865 325.547 180.791 325.609 180.716C331.244 180.99 336.73 181.289 342.04 181.625C350.306 182.123 358.148 182.684 365.54 183.306C374.404 184.053 382.608 184.863 390.038 185.735C391.01 185.847 391.958 185.971 392.893 186.083C397.842 186.694 402.43 187.341 406.619 188.014C418.574 189.919 427.289 192.049 432.014 194.315C433.51 195.038 434.607 195.772 435.267 196.52C435.305 197.665 435.305 198.824 435.28 199.969Z" fill="#A2CC3A"/>
<path d="M111.204 185.909C110.805 184.975 110.556 183.979 110.419 182.958C111.329 182.883 112.252 182.808 113.174 182.746C117.288 182.422 121.514 182.136 125.878 181.849C125.853 182.036 125.828 182.223 125.803 182.41C125.728 182.833 125.653 183.256 125.566 183.667C125.491 183.991 125.417 184.315 125.329 184.639C125.292 184.751 125.267 184.863 125.242 184.963C125.23 184.987 125.217 185 125.205 185.025V185.05C125.205 185.05 125.192 185.087 125.192 185.112C125.142 185.286 125.092 185.436 125.043 185.598C124.98 185.772 124.918 185.934 124.843 186.096C124.718 186.407 124.581 186.719 124.432 187.005C124.382 187.129 124.319 187.242 124.245 187.366C124.245 187.366 124.245 187.379 124.245 187.403C124.182 187.528 124.108 187.64 124.045 187.752C124.045 187.765 124.033 187.765 124.02 187.777C123.858 188.051 123.684 188.313 123.497 188.549C123.422 188.649 123.347 188.748 123.272 188.836C122.998 189.159 122.699 189.471 122.375 189.732C122.262 189.82 122.163 189.907 122.051 189.994C121.926 190.081 121.826 190.156 121.689 190.243C121.564 190.33 121.427 190.405 121.29 190.467C121.178 190.529 121.066 190.592 120.941 190.641C120.654 190.791 120.355 190.903 120.031 190.978C119.981 191.003 119.919 191.003 119.856 191.015C119.831 191.028 119.806 191.04 119.769 191.052C119.744 191.065 119.719 191.065 119.694 191.065C119.408 191.14 119.108 191.189 118.797 191.214C117.986 191.277 117.176 191.177 116.403 190.928C116.291 190.903 116.179 190.866 116.066 190.816C115.68 190.691 115.318 190.517 114.969 190.305C114.732 190.181 114.508 190.031 114.284 189.882C114.034 189.695 113.785 189.496 113.561 189.284C112.75 188.524 112.127 187.677 111.653 186.768C111.491 186.494 111.354 186.208 111.242 185.909H111.204Z" fill="#A2CC3A"/>
<path d="M265.893 283.459C265.706 284.43 265.444 285.402 265.12 286.361C264.459 288.266 263.562 290.097 262.465 291.79C261.916 292.637 261.318 293.447 260.669 294.219C260.108 294.879 259.522 295.527 258.912 296.149C257.091 298.017 255.084 299.773 253.239 301.629L252.778 302.09C250.521 304.431 248.589 306.947 247.716 310.06C246.831 313.186 247.13 316.586 246.993 319.836C246.968 320.172 246.956 320.496 246.931 320.833C246.919 321.019 246.906 321.194 246.881 321.368C246.831 321.854 246.769 322.314 246.682 322.788C246.682 322.85 246.669 322.912 246.657 322.962C246.557 323.423 246.445 323.884 246.308 324.332C246.121 324.967 245.871 325.59 245.547 326.188C245.073 327.097 244.487 327.881 243.827 328.554C243.39 329.002 242.917 329.413 242.418 329.774C242.169 329.949 241.907 330.123 241.633 330.297C241.097 330.634 240.536 330.92 239.95 331.182C239.064 331.568 238.129 331.904 237.145 332.19C234.539 332.95 231.659 333.398 228.817 333.934C228.106 334.058 227.395 334.208 226.697 334.357C225.999 334.519 225.301 334.681 224.615 334.868C223.93 335.055 223.269 335.254 222.608 335.478C220.651 336.163 218.831 337.072 217.31 338.392C217.048 338.604 216.799 338.841 216.562 339.077C212.223 343.448 211.787 350.697 207.349 354.943C206.289 355.964 205.092 356.737 203.808 357.347C202.836 357.808 201.813 358.169 200.754 358.48C199.707 358.779 198.622 359.028 197.525 359.265C196.789 359.414 196.054 359.551 195.318 359.701C194.944 359.763 194.57 359.838 194.209 359.912C193.473 360.049 192.738 360.199 192.015 360.361C191.653 360.448 191.291 360.535 190.942 360.622C186.554 361.743 180.807 364.445 179.086 368.219C178.862 368.717 178.55 369.128 178.176 369.439C178.077 369.527 177.977 369.601 177.865 369.664C177.715 369.776 177.553 369.863 177.378 369.938C177.378 369.938 177.304 369.975 177.266 369.987C177.179 370.025 177.092 370.05 177.004 370.075C176.83 370.137 176.643 370.174 176.456 370.199C176.419 370.212 176.394 370.212 176.369 370.224C175.982 370.261 175.583 370.236 175.209 370.149C175.209 370.149 175.184 370.149 175.172 370.149C175.01 370.112 174.86 370.05 174.711 369.987C174.661 369.962 174.611 369.962 174.561 369.938C174.374 369.85 174.187 369.738 174.012 369.614C173.663 369.352 173.364 369.016 173.127 368.593C173.115 368.58 173.115 368.568 173.09 368.53C172.105 366.687 171.619 364.595 170.634 362.739C170.522 362.515 170.372 362.266 170.222 362.029C168.639 359.539 165.996 358.082 163.353 356.575C160.698 355.03 158.03 353.486 156.509 350.908C152.943 344.906 157.382 337.496 158.13 330.559C158.965 322.962 154.676 315.042 147.857 311.592C142.234 308.727 135.029 308.541 130.777 303.858C124.27 296.71 129.057 283.945 122.836 276.56C120.555 273.845 117.164 272.388 114.433 270.133C108.225 265.04 105.931 255.712 109.11 248.339C109.846 246.646 110.806 245.077 111.853 243.557C112.688 242.337 113.586 241.141 114.446 239.946C115.019 239.149 115.593 238.339 116.116 237.505C116.378 237.081 116.628 236.67 116.877 236.234C117.126 235.811 117.351 235.375 117.563 234.927C117.774 234.491 117.974 234.03 118.161 233.569C118.585 232.511 118.921 231.39 119.121 230.182C119.345 228.824 119.32 227.38 118.959 226.047C118.909 225.885 118.859 225.723 118.797 225.562C118.772 225.462 118.734 225.35 118.697 225.263C118.672 225.175 118.647 225.101 118.61 225.038C118.597 224.989 118.572 224.914 118.535 224.864C118.51 224.802 118.485 224.74 118.46 224.69C118.41 224.553 118.348 224.428 118.286 224.304C118.286 224.304 118.281 224.3 118.273 224.291C118.248 224.229 118.211 224.154 118.173 224.092C118.148 224.042 118.124 223.992 118.086 223.943C118.011 223.793 117.924 223.644 117.824 223.494C117.75 223.37 117.675 223.258 117.587 223.146C117.538 223.071 117.488 223.009 117.425 222.934C117.4 222.896 117.376 222.859 117.351 222.834C117.351 222.822 117.326 222.809 117.313 222.797C117.313 222.797 117.313 222.797 117.313 222.784C117.276 222.747 117.263 222.722 117.226 222.697C117.176 222.635 117.126 222.573 117.076 222.523C117.002 222.411 116.902 222.311 116.815 222.211C116.715 222.112 116.615 222.025 116.528 221.938C116.416 221.825 116.291 221.713 116.166 221.614C116.079 221.539 115.992 221.464 115.892 221.39C115.817 221.327 115.73 221.265 115.655 221.215C115.543 221.116 115.418 221.041 115.306 220.966C115.269 220.929 115.219 220.904 115.169 220.879C114.77 220.605 114.346 220.368 113.897 220.169C113.623 220.045 113.349 219.92 113.062 219.795C112.788 219.683 112.489 219.571 112.202 219.459C111.578 219.235 110.93 219.036 110.269 218.874C109.696 218.712 109.122 218.575 108.537 218.438C108.474 218.413 108.399 218.401 108.337 218.388C107.764 218.276 107.215 218.152 106.654 218.015L105.719 217.79C105.22 217.678 104.734 217.566 104.26 217.429C103.924 217.342 103.587 217.242 103.263 217.143C103.151 217.118 103.051 217.081 102.939 217.043C102.627 216.944 102.316 216.844 102.004 216.719C101.804 216.657 101.63 216.582 101.443 216.508C101.231 216.421 101.007 216.321 100.807 216.221C100.57 216.109 100.346 215.997 100.121 215.873C99.3984 215.474 98.7376 215.013 98.1392 214.44C98.027 214.328 97.9023 214.204 97.8026 214.092C97.7527 214.054 97.7153 214.017 97.6779 213.967C97.6156 213.892 97.5533 213.818 97.5034 213.743C97.1668 213.357 96.8801 212.933 96.6307 212.473C96.6307 212.473 96.5809 212.435 96.4936 212.348C96.0074 211.925 94.287 210.405 92.0803 208.201C91.8435 207.964 91.5941 207.715 91.3448 207.454C90.7588 206.856 90.1355 206.208 89.4997 205.524L89.0135 205C88.8389 204.814 88.6644 204.627 88.5023 204.428H88.4899C88.4026 204.328 88.3029 204.216 88.2031 204.104C87.6297 203.469 86.9938 202.908 86.3206 202.435C84.2761 200.978 81.8076 200.081 79.4265 199.384C79.1771 199.309 78.9403 199.247 78.6909 199.185C77.9429 199.01 77.17 198.861 76.422 198.686C75.674 198.512 74.9259 198.313 74.2278 198.026C73.9909 197.939 73.7541 197.827 73.5297 197.715C73.3427 197.615 73.1681 197.516 73.006 197.404C72.6944 197.204 72.4326 196.98 72.2206 196.756C72.1209 196.644 72.0212 196.532 71.9464 196.42C71.0612 195.212 71.2108 193.767 70.4379 192.049C69.9891 191.065 69.0541 190.168 68.3434 189.359C67.8448 188.811 67.3336 188.275 66.835 187.727C67.6453 187.603 68.4557 187.478 69.2909 187.366C69.9018 187.266 70.5251 187.179 71.161 187.092C73.8039 186.718 76.5591 186.357 79.4514 186.009H79.4639C79.3766 186.133 79.3018 186.27 79.227 186.395C78.2297 188.2 77.918 189.956 79.9127 192.049C80.0623 192.211 80.2243 192.372 80.3989 192.534C81.7827 193.792 83.4782 194.726 85.2859 195.511C89.2878 197.229 93.9005 198.226 97.3787 200.492C97.8525 200.804 98.3387 201.152 98.8373 201.551C99.0867 201.75 99.336 201.949 99.5978 202.161C99.7973 202.323 99.9968 202.485 100.184 202.659C100.246 202.709 100.308 202.759 100.358 202.809C100.62 203.033 100.857 203.244 101.106 203.481C101.106 203.494 101.144 203.506 101.156 203.518C101.406 203.743 101.642 203.967 101.867 204.179C102.054 204.353 102.228 204.527 102.403 204.689C102.69 204.976 102.976 205.25 103.251 205.524L103.3 205.561C104.31 206.582 105.208 207.529 105.906 208.288C106.006 208.375 106.093 208.475 106.18 208.575L106.405 208.836C106.716 209.172 106.953 209.446 107.115 209.633C107.19 209.72 107.265 209.795 107.302 209.845C107.34 209.895 107.365 209.92 107.365 209.92C107.801 210.144 108.262 210.331 108.736 210.468C110.332 210.941 112.102 210.966 113.897 210.891C113.922 210.879 113.947 210.879 113.972 210.891H114.072C115.032 210.841 116.004 210.779 116.952 210.742C117.326 210.729 117.712 210.729 118.086 210.729H118.448C118.448 210.729 118.485 210.729 118.498 210.729C118.66 210.729 118.809 210.729 118.971 210.742C119.059 210.742 119.133 210.742 119.221 210.767H119.395C119.47 210.779 119.545 210.779 119.607 210.791C119.707 210.791 119.807 210.816 119.894 210.829C119.969 210.841 120.043 210.841 120.118 210.854L120.343 210.891C120.48 210.904 120.629 210.928 120.779 210.966C120.841 210.978 120.916 210.991 120.978 211.016H121.016C121.128 211.028 121.228 211.053 121.328 211.09C121.477 211.128 121.627 211.19 121.776 211.252C121.801 211.252 121.814 211.252 121.839 211.265C121.951 211.302 122.063 211.339 122.163 211.389C122.287 211.439 122.412 211.501 122.524 211.564C122.587 211.588 122.649 211.613 122.711 211.651C122.761 211.688 122.824 211.725 122.886 211.763C122.973 211.813 123.06 211.862 123.148 211.912C123.235 211.975 123.322 212.024 123.409 212.099C123.459 212.149 123.509 212.186 123.559 212.224C123.609 212.261 123.659 212.286 123.709 212.336C123.746 212.373 123.796 212.41 123.846 212.46C123.858 212.46 123.871 212.473 123.883 212.498C123.983 212.585 124.083 212.697 124.182 212.796C124.282 212.909 124.382 213.021 124.469 213.133C124.843 213.606 125.18 214.129 125.529 214.64C125.591 214.727 125.654 214.814 125.716 214.901C126.052 215.362 126.402 215.81 126.8 216.196C127.76 217.118 129.02 217.641 131.052 217.118H131.064C132.323 216.782 133.395 216.097 134.256 215.175C134.767 214.64 135.191 214.029 135.552 213.382C136.038 212.473 136.612 211.713 137.235 211.078C137.697 210.605 138.195 210.194 138.719 209.857C139.417 209.397 140.165 209.06 140.95 208.824C141.15 208.774 141.337 208.712 141.536 208.674C141.536 208.674 141.549 208.662 141.561 208.662C142.559 208.438 143.606 208.363 144.665 208.413C144.79 208.413 144.927 208.413 145.064 208.438C145.189 208.438 145.301 208.438 145.413 208.463H145.501C145.638 208.475 145.775 208.5 145.912 208.525C146.361 208.587 146.81 208.662 147.259 208.774C147.383 208.786 147.508 208.824 147.633 208.849C147.695 208.849 147.745 208.886 147.807 208.898C148.156 208.986 148.518 209.098 148.867 209.21C149.141 209.297 149.415 209.384 149.677 209.484C150.911 209.932 152.096 210.505 153.205 211.153C153.392 211.252 153.579 211.352 153.754 211.464C154.352 211.838 154.938 212.224 155.537 212.635C156.123 213.033 156.696 213.444 157.282 213.855C157.868 214.278 158.441 214.689 159.027 215.1C159.688 215.561 160.349 216.022 161.022 216.47C161.234 216.62 161.458 216.757 161.683 216.894C162.281 217.267 162.88 217.629 163.49 217.977C165.036 218.812 166.632 219.509 168.352 219.92C170.322 220.393 172.354 220.468 174.399 220.368H174.461C174.461 220.368 174.524 220.368 174.561 220.356C175.047 220.343 175.521 220.306 176.007 220.256C176.132 220.256 176.256 220.244 176.381 220.219C176.643 220.206 176.905 220.169 177.167 220.144C177.366 220.132 177.553 220.107 177.74 220.094C179.523 219.908 181.318 219.683 183.088 219.571C183.4 219.546 183.712 219.521 184.023 219.509C184.447 219.497 184.871 219.484 185.295 219.484C185.744 219.484 186.205 219.497 186.654 219.522H186.766C187.751 219.584 188.736 219.721 189.696 219.945C189.933 219.995 190.157 220.057 190.381 220.132C190.506 220.157 190.618 220.194 190.73 220.231C190.855 220.269 190.967 220.306 191.092 220.343C193.461 221.153 195.48 222.535 197.251 224.291C198.31 225.325 199.27 226.483 200.155 227.716C201.776 229.908 203.172 232.336 204.469 234.678C207.96 240.942 211.45 247.219 214.941 253.508C215.265 254.093 215.589 254.678 215.938 255.264C216.275 255.849 216.624 256.434 216.986 257.02C217.347 257.593 217.721 258.165 218.108 258.726C218.881 259.834 219.728 260.893 220.651 261.839C222.035 263.247 223.606 264.417 225.476 265.164C225.687 265.252 225.899 265.326 226.099 265.389C226.311 265.463 226.523 265.538 226.735 265.588C226.947 265.65 227.159 265.7 227.371 265.75C228.63 266.036 229.889 266.123 231.173 266.086C231.298 266.086 231.422 266.074 231.534 266.061C231.672 266.061 231.821 266.049 231.958 266.036H232.008C232.345 265.999 232.681 265.974 233.006 265.924C233.043 265.924 233.08 265.924 233.118 265.912C233.492 265.862 233.853 265.812 234.227 265.762C234.227 265.762 234.227 265.762 234.252 265.75C235.013 265.613 235.786 265.463 236.546 265.276C239.102 264.679 241.695 263.869 244.288 263.271C244.525 263.209 244.749 263.159 244.974 263.11C245.111 263.072 245.26 263.047 245.41 263.022C245.859 262.935 246.295 262.848 246.744 262.773C246.856 262.748 246.981 262.736 247.093 262.711C247.367 262.674 247.642 262.636 247.916 262.611C247.991 262.599 248.053 262.586 248.128 262.586C248.402 262.549 248.664 262.524 248.938 262.512C249.063 262.512 249.175 262.512 249.287 262.487C250.123 262.437 250.945 262.437 251.756 262.499C251.768 262.499 251.781 262.499 251.793 262.499C252.017 262.524 252.229 262.549 252.441 262.574C252.666 262.599 252.89 262.624 253.102 262.661C254.112 262.836 255.084 263.122 256.019 263.508C256.954 263.882 257.852 264.367 258.7 264.94C259.036 265.164 259.36 265.401 259.672 265.65C259.996 265.912 260.308 266.173 260.607 266.447C262.814 268.465 264.497 271.092 265.419 273.944C265.644 274.604 265.818 275.264 265.943 275.937C266.429 278.428 266.379 280.981 265.881 283.471L265.893 283.459Z" fill="#A2CC3A"/>
<path opacity="0.25" d="M260.657 294.219C256.231 299.5 249.587 303.422 247.716 310.06C246.22 315.316 248.115 321.356 245.535 326.188C240.448 335.815 224.204 331.331 216.549 339.077C212.211 343.449 211.775 350.684 207.336 354.944C203.11 359.016 196.627 359.165 190.93 360.61C186.542 361.731 180.794 364.433 179.074 368.207C177.964 370.71 174.424 370.947 173.102 368.568C173.09 368.555 173.09 368.531 173.065 368.506C172.08 366.662 171.594 364.57 170.609 362.715C170.497 362.478 170.347 362.241 170.198 362.005C168.614 359.514 165.971 358.044 163.328 356.55C163.49 356.513 163.653 356.538 163.84 356.55C166.682 356.849 169.038 359.875 171.793 359.178C174.15 358.568 174.948 355.703 176.568 353.872C180.458 349.451 188.337 351.843 192.975 348.181C196.889 345.093 196.789 339.277 198.385 334.557C200.155 329.326 204.494 325.055 209.742 323.361C215.203 321.592 222.209 322.028 225.339 317.209C226.972 314.718 226.959 311.517 227.832 308.665C229.103 304.581 232.17 301.343 234.389 297.681C236.596 294.02 237.868 289.126 235.462 285.589C233.542 282.824 229.901 281.778 226.535 281.765C223.169 281.753 219.828 282.538 216.462 282.525C211.613 282.488 206.8 280.707 203.11 277.593C201.751 276.46 200.554 275.153 199.083 274.218C196.839 272.799 194.134 272.301 191.89 270.918C188.225 268.664 186.305 264.393 185.283 260.196C184.273 256.024 183.924 251.652 182.34 247.642C180.77 243.632 177.566 239.896 173.289 239.286C168.141 238.539 163.241 242.511 158.055 241.988C152.495 241.415 148.867 235.998 144.005 233.196C143.132 232.685 142.11 232.262 141.113 232.486C140.24 232.698 139.579 233.395 138.968 234.055C134.804 238.576 130.366 243.358 124.444 245.039C120.255 246.247 115.618 245.612 111.815 243.52C114.047 240.27 116.665 237.243 118.124 233.532C118.548 232.474 118.884 231.353 119.084 230.157C119.32 228.787 119.283 227.355 118.922 226.023C117.962 222.623 115.73 220.879 113.025 219.771C113.985 216.371 115.506 213.258 118.423 210.705C120.804 210.754 122.961 211.228 124.469 213.108C126.102 215.188 127.112 218.102 131.052 217.081C133.034 216.57 134.567 215.138 135.54 213.357C139.429 206.171 147.932 207.865 153.741 211.439C158.541 214.403 162.842 218.563 168.328 219.883C175.758 221.664 183.849 217.841 191.067 220.306C197.4 222.461 201.203 228.8 204.432 234.641C207.935 240.905 211.413 247.194 214.916 253.471C217.522 258.141 220.476 263.147 225.451 265.127C234.177 268.602 243.827 261.067 253.077 262.637C259.535 263.72 264.684 269.499 265.918 275.912C267.152 282.363 264.846 289.175 260.62 294.194L260.657 294.219Z" fill="#335915"/>
<path opacity="0.25" d="M103.238 205.511C103.238 205.511 103.276 205.549 103.288 205.561C99.361 205.349 95.434 205.063 91.5194 204.702C90.5096 204.615 89.4997 204.515 88.4899 204.415H88.4775C85.5228 204.141 82.5806 203.793 79.6385 203.432C74.5021 202.784 69.6027 200.791 65.5385 197.616C64.7032 194.515 64.3167 191.302 64.3791 188.101C65.1769 187.976 65.9997 187.839 66.8226 187.715C67.6329 187.59 68.4432 187.466 69.2785 187.354C69.8894 187.254 70.5127 187.167 71.1485 187.08C73.7915 186.706 76.5467 186.345 79.439 185.996C79.3642 186.133 79.2894 186.258 79.2146 186.382C78.2173 188.188 77.9056 189.944 79.9003 192.036C80.0499 192.186 80.2119 192.348 80.3865 192.51C81.7703 193.78 83.4658 194.714 85.2735 195.499C89.2753 197.217 93.8881 198.213 97.3663 200.48C97.8401 200.791 98.3263 201.14 98.8249 201.539C99.0743 201.738 99.3236 201.937 99.5854 202.149C99.7849 202.311 99.9844 202.473 100.171 202.647C100.234 202.697 100.296 202.747 100.346 202.796C100.608 203.021 100.845 203.232 101.094 203.469C101.094 203.481 101.131 203.494 101.144 203.506C101.393 203.73 101.63 203.955 101.854 204.166C102.041 204.341 102.216 204.515 102.39 204.677C102.677 204.963 102.964 205.237 103.238 205.511Z" fill="#335915"/>
<path opacity="0.25" d="M110.369 182.559C110.257 181.5 110.244 180.429 110.332 179.358C110.257 180.417 110.257 181.5 110.369 182.559Z" fill="#335915"/>
<path opacity="0.25" d="M113.174 182.746C117.288 182.422 121.514 182.136 125.878 181.849C125.853 182.036 125.828 182.223 125.803 182.41C125.741 182.833 125.666 183.244 125.566 183.667C125.491 183.991 125.417 184.315 125.329 184.639C125.292 184.776 125.254 184.9 125.205 185.025V185.05C125.205 185.05 125.192 185.1 125.18 185.124C125.13 185.286 125.08 185.436 125.03 185.598C124.968 185.772 124.905 185.934 124.831 186.096C124.706 186.407 124.569 186.719 124.419 187.005C124.369 187.129 124.307 187.242 124.232 187.366C124.232 187.366 124.232 187.379 124.232 187.403C124.157 187.528 124.083 187.653 124.008 187.777C123.846 188.051 123.671 188.313 123.484 188.549C123.409 188.649 123.335 188.748 123.26 188.836C122.985 189.159 122.686 189.471 122.362 189.732C122.25 189.82 122.15 189.907 122.038 189.994C121.913 190.081 121.814 190.156 121.676 190.243C121.552 190.33 121.415 190.405 121.278 190.467C121.165 190.529 121.053 190.592 120.928 190.641C120.642 190.791 120.343 190.903 120.018 190.978C119.931 191.015 119.844 191.04 119.757 191.052C119.732 191.065 119.707 191.065 119.682 191.065C119.395 191.14 119.096 191.189 118.784 191.214C117.974 191.277 117.163 191.177 116.391 190.928C116.278 190.903 116.166 190.866 116.054 190.816C115.667 190.691 115.306 190.517 114.957 190.305C114.72 190.181 114.496 190.031 114.271 189.882C114.022 189.695 113.773 189.496 113.548 189.284C112.738 188.524 112.114 187.677 111.641 186.768C111.479 186.494 111.341 186.208 111.229 185.909C110.83 184.975 110.581 183.979 110.444 182.958C111.354 182.883 112.276 182.808 113.199 182.746H113.174Z" fill="#335915"/>
<path d="M110.369 182.559C110.257 181.5 110.244 180.429 110.332 179.358C110.257 180.417 110.257 181.5 110.369 182.559Z" fill="#569445"/>
<path d="M111.204 185.909C110.805 184.975 110.556 183.979 110.419 182.958C111.329 182.883 112.252 182.808 113.174 182.746C117.288 182.422 121.514 182.136 125.878 181.849C125.853 182.036 125.828 182.223 125.803 182.41C125.741 182.833 125.666 183.244 125.566 183.667C125.491 183.991 125.417 184.315 125.329 184.639C125.292 184.776 125.254 184.9 125.205 185.025V185.05C125.205 185.05 125.192 185.1 125.18 185.124C125.13 185.286 125.08 185.436 125.03 185.598C124.968 185.772 124.905 185.934 124.831 186.096C124.706 186.407 124.569 186.719 124.419 187.005C124.369 187.129 124.307 187.242 124.232 187.366C124.232 187.366 124.232 187.379 124.232 187.403C124.157 187.528 124.083 187.653 124.008 187.777C123.846 188.051 123.671 188.313 123.484 188.549C123.409 188.649 123.335 188.748 123.26 188.836C122.986 189.159 122.686 189.471 122.362 189.732C122.25 189.82 122.15 189.907 122.038 189.994C121.913 190.081 121.814 190.156 121.677 190.243C121.552 190.33 121.415 190.405 121.278 190.467C121.165 190.529 121.053 190.592 120.928 190.641C120.642 190.791 120.343 190.903 120.018 190.978C119.931 191.015 119.844 191.04 119.757 191.052C119.732 191.065 119.707 191.065 119.682 191.065C119.395 191.14 119.096 191.189 118.784 191.214C117.974 191.277 117.164 191.177 116.391 190.928C116.278 190.903 116.166 190.866 116.054 190.816C115.667 190.691 115.306 190.517 114.957 190.305C114.72 190.181 114.496 190.031 114.271 189.882C114.022 189.695 113.773 189.496 113.548 189.284C112.738 188.524 112.114 187.677 111.641 186.768C111.479 186.494 111.341 186.208 111.229 185.909H111.204Z" fill="#569445"/>
<path d="M265.893 283.459C265.706 284.443 265.444 285.414 265.12 286.361C264.459 288.266 263.562 290.097 262.465 291.791C261.904 292.638 261.305 293.447 260.657 294.219C260.108 294.879 259.522 295.514 258.912 296.149C257.091 298.018 255.084 299.774 253.239 301.629L252.778 302.09C250.521 304.431 248.589 306.947 247.716 310.06C246.831 313.186 247.13 316.586 246.993 319.836C246.981 320.173 246.956 320.509 246.931 320.833C246.918 321.02 246.906 321.194 246.881 321.368C246.831 321.854 246.769 322.327 246.682 322.788C246.682 322.85 246.669 322.913 246.657 322.962C246.557 323.423 246.445 323.884 246.308 324.332C246.121 324.967 245.871 325.59 245.547 326.188C245.073 327.097 244.487 327.882 243.827 328.554C243.39 329.002 242.917 329.413 242.418 329.775C242.169 329.949 241.907 330.123 241.632 330.298C241.096 330.621 240.535 330.908 239.949 331.182C239.064 331.568 238.129 331.904 237.144 332.191C234.539 332.938 231.659 333.386 228.817 333.934C228.106 334.059 227.395 334.208 226.697 334.357C225.999 334.519 225.301 334.681 224.615 334.868C223.93 335.055 223.269 335.254 222.608 335.478C220.651 336.176 218.831 337.085 217.31 338.393C217.048 338.617 216.799 338.853 216.562 339.09C212.223 343.449 211.787 350.697 207.349 354.943C206.289 355.965 205.092 356.737 203.808 357.347C202.836 357.808 201.813 358.169 200.754 358.48C199.706 358.779 198.622 359.028 197.525 359.265C196.789 359.414 196.054 359.551 195.318 359.701C194.944 359.763 194.57 359.838 194.209 359.913C193.473 360.05 192.738 360.199 192.014 360.361C191.653 360.448 191.291 360.535 190.942 360.622C186.554 361.743 180.807 364.446 179.086 368.219C178.862 368.717 178.55 369.128 178.176 369.44C178.077 369.527 177.977 369.602 177.865 369.664C177.715 369.776 177.553 369.863 177.378 369.938C177.378 369.938 177.304 369.975 177.266 369.988C177.179 370.025 177.092 370.05 177.004 370.075C176.83 370.137 176.643 370.174 176.456 370.199C175.596 370.324 174.71 370.125 174.012 369.602C173.663 369.34 173.364 369.004 173.127 368.58C173.115 368.568 173.115 368.555 173.09 368.518C172.105 366.675 171.619 364.583 170.634 362.727C171.893 363.512 173.177 364.284 174.436 365.056C174.461 365.081 174.486 365.093 174.511 365.106C174.997 365.405 175.508 365.703 176.082 365.703C177.628 365.703 178.164 363.686 178.538 362.167C179.548 358.094 182.914 354.694 186.99 353.673C189.683 353.013 192.551 353.3 195.194 352.503C198.21 351.606 200.741 349.24 201.863 346.301C202.536 344.507 202.711 342.552 203.297 340.721C205.155 335.042 210.814 331.418 216.524 329.625C222.234 327.844 228.293 327.408 233.99 325.565C235.549 325.067 237.169 324.395 238.142 323.074C240.062 320.497 238.79 316.922 238.441 313.747C237.93 308.815 239.962 303.946 242.568 299.724C245.173 295.502 248.414 291.666 250.733 287.295C252.342 284.256 253.464 280.47 251.731 277.519C249.487 273.695 244.088 273.608 239.663 273.982C235.623 274.331 231.572 274.679 227.545 275.04C224.653 275.29 221.735 275.539 218.893 274.928C211.737 273.397 206.862 266.858 202.973 260.644C199.158 254.529 195.642 248.252 192.401 241.801C190.431 237.854 187.95 233.37 183.612 232.611C180.408 232.05 177.304 233.769 174.187 234.641C167.181 236.608 160.486 233.657 155.237 228.663C152.819 226.371 150.151 223.943 146.847 223.631C143.83 223.345 140.95 224.902 138.419 226.546C133.732 229.634 129.107 233.395 123.522 233.968C122.587 234.068 121.664 234.068 120.754 233.981C119.881 233.918 119.009 233.769 118.161 233.557C118.585 232.499 118.921 231.378 119.121 230.17C119.345 228.812 119.32 227.368 118.959 226.035C118.909 225.873 118.859 225.711 118.797 225.549C118.772 225.45 118.734 225.338 118.697 225.25C118.672 225.163 118.647 225.089 118.61 225.026C118.61 225.001 118.597 224.989 118.597 224.976C118.572 224.927 118.56 224.889 118.535 224.852C118.535 224.839 118.535 224.839 118.535 224.827C118.51 224.777 118.497 224.727 118.46 224.678C118.41 224.541 118.348 224.416 118.286 224.292C118.273 224.279 118.273 224.267 118.273 224.254C118.236 224.192 118.211 224.142 118.173 224.08C118.148 224.03 118.123 223.98 118.086 223.93C118.011 223.781 117.924 223.631 117.824 223.482C117.774 223.395 117.725 223.333 117.675 223.258C117.6 223.133 117.525 223.021 117.425 222.922C117.4 222.884 117.375 222.847 117.351 222.822C117.338 222.81 117.338 222.797 117.326 222.785C117.263 222.685 117.188 222.598 117.089 222.511C117.014 222.399 116.914 222.299 116.827 222.199C116.727 222.1 116.627 222.012 116.54 221.925C116.428 221.813 116.303 221.701 116.179 221.602C116.091 221.527 116.004 221.452 115.904 221.377C115.83 221.315 115.742 221.253 115.667 221.203C115.555 221.103 115.431 221.029 115.318 220.954C115.281 220.917 115.231 220.892 115.181 220.867C114.782 220.593 114.358 220.356 113.91 220.157C113.797 220.095 113.673 220.032 113.548 219.983C113.399 219.908 113.236 219.846 113.074 219.783C112.8 219.659 112.513 219.547 112.214 219.447C111.591 219.223 110.943 219.024 110.282 218.862C109.708 218.7 109.135 218.563 108.549 218.426C108.487 218.401 108.412 218.388 108.349 218.376C107.477 218.177 106.592 217.99 105.731 217.778C105.233 217.666 104.747 217.554 104.273 217.417C103.936 217.33 103.6 217.23 103.275 217.131C103.163 217.106 103.064 217.068 102.951 217.031C102.64 216.931 102.328 216.832 102.016 216.707C101.817 216.645 101.642 216.57 101.455 216.495C101.243 216.408 101.019 216.309 100.819 216.209C100.583 216.097 100.358 215.985 100.134 215.86C99.4107 215.462 98.75 215.001 98.1516 214.428C98.0394 214.316 97.9147 214.192 97.815 214.079C97.7651 214.042 97.7277 214.005 97.6903 213.955C97.628 213.88 97.5656 213.805 97.5158 213.731C97.1792 213.345 96.8924 212.921 96.6431 212.46C96.6431 212.46 96.5932 212.423 96.506 212.336C96.0198 211.913 94.2993 210.393 92.0927 208.189C91.8558 207.952 91.6065 207.703 91.3572 207.442C90.7712 206.844 90.1479 206.196 89.5121 205.511L89.0259 204.988C88.8513 204.801 88.6768 204.615 88.5147 204.415H88.5022C88.415 204.316 88.3153 204.204 88.2155 204.092C87.642 203.456 87.0062 202.896 86.333 202.423C84.2885 200.941 81.82 200.057 79.4389 199.372C79.1895 199.297 78.9527 199.235 78.7033 199.172C77.9553 198.998 77.1824 198.849 76.4343 198.674C75.6863 198.5 74.9383 198.301 74.2402 198.014C74.0033 197.915 73.7664 197.802 73.542 197.69C73.355 197.591 73.1805 197.491 73.0184 197.391C72.7068 197.18 72.445 196.968 72.233 196.744C72.1333 196.632 72.0336 196.52 71.9588 196.408C71.8341 195.66 71.7219 194.926 71.6471 194.178C71.4476 192.622 71.3105 191.04 71.2357 189.458C71.1858 188.674 71.1733 187.877 71.1733 187.08C73.8163 186.706 76.5715 186.345 79.4638 185.996C79.389 186.133 79.3142 186.258 79.2394 186.382C78.242 188.188 77.9304 189.944 79.9251 192.036C80.0747 192.186 80.2367 192.348 80.4113 192.51C81.7951 193.78 83.4906 194.714 85.2983 195.499C89.3001 197.217 93.9129 198.213 97.3911 200.48C97.8649 200.791 98.3511 201.14 98.8497 201.539C99.0991 201.738 99.3484 201.937 99.6102 202.149C99.8097 202.311 100.009 202.473 100.196 202.647C100.258 202.697 100.321 202.747 100.371 202.796C100.632 203.021 100.869 203.232 101.119 203.469C101.119 203.481 101.156 203.494 101.169 203.506C101.418 203.73 101.655 203.955 101.879 204.166C102.066 204.341 102.241 204.515 102.415 204.677C102.702 204.963 102.989 205.237 103.263 205.511C103.275 205.536 103.3 205.549 103.313 205.561C104.323 206.57 105.22 207.516 105.918 208.276C106.105 208.475 106.268 208.65 106.417 208.824C106.729 209.16 106.966 209.434 107.128 209.621C107.215 209.708 107.277 209.783 107.327 209.833C107.365 209.883 107.39 209.907 107.39 209.907C107.826 210.132 108.287 210.318 108.761 210.455C109.97 210.804 111.267 210.916 112.588 210.916C113.025 210.916 113.473 210.904 113.922 210.879C113.947 210.866 113.972 210.866 113.997 210.879C114.994 210.829 116.004 210.754 116.977 210.729C117.351 210.717 117.737 210.717 118.111 210.717H118.473C118.473 210.717 118.51 210.717 118.522 210.717C118.684 210.717 118.834 210.717 118.996 210.729C119.108 210.729 119.233 210.729 119.345 210.754H119.457C119.457 210.754 119.57 210.767 119.632 210.779C119.806 210.792 119.981 210.804 120.143 210.842L120.368 210.879C120.505 210.891 120.654 210.916 120.804 210.954C120.841 210.954 120.866 210.966 120.904 210.978C120.953 210.978 120.991 210.991 121.041 211.003C121.153 211.016 121.253 211.041 121.352 211.078C121.527 211.128 121.701 211.178 121.864 211.252C121.976 211.29 122.088 211.327 122.188 211.377C122.375 211.452 122.562 211.539 122.736 211.639C122.886 211.713 123.035 211.8 123.173 211.9C123.26 211.962 123.347 212.012 123.434 212.087C123.534 212.162 123.634 212.236 123.734 212.323C123.771 212.361 123.821 212.398 123.871 212.448C123.883 212.448 123.896 212.46 123.908 212.485C124.008 212.573 124.108 212.685 124.207 212.784C124.307 212.896 124.407 213.008 124.494 213.121C124.868 213.594 125.205 214.117 125.554 214.627C125.616 214.715 125.678 214.802 125.741 214.889C126.077 215.35 126.426 215.798 126.825 216.184C127.785 217.106 129.044 217.629 131.077 217.106H131.089C132.348 216.769 133.42 216.085 134.28 215.163C134.792 214.627 135.216 214.017 135.577 213.37C136.063 212.46 136.637 211.701 137.26 211.066C137.721 210.58 138.22 210.181 138.744 209.845C139.442 209.384 140.19 209.048 140.975 208.812C141.175 208.762 141.362 208.699 141.561 208.662C141.561 208.662 141.574 208.65 141.586 208.65C142.558 208.425 143.568 208.351 144.603 208.401C144.628 208.401 144.665 208.401 144.69 208.401C144.815 208.401 144.952 208.401 145.089 208.425C145.214 208.425 145.326 208.425 145.438 208.45C145.613 208.463 145.775 208.488 145.937 208.513C146.386 208.575 146.835 208.65 147.283 208.762C147.47 208.799 147.645 208.836 147.832 208.886C148.181 208.973 148.543 209.086 148.892 209.198C149.166 209.285 149.44 209.372 149.702 209.472C150.936 209.92 152.121 210.493 153.23 211.14C153.417 211.24 153.604 211.352 153.779 211.464C154.377 211.838 154.963 212.224 155.561 212.622C156.147 213.021 156.721 213.432 157.307 213.843C157.893 214.266 158.466 214.677 159.052 215.088C159.713 215.549 160.374 216.01 161.034 216.458C161.246 216.608 161.471 216.745 161.695 216.882C162.293 217.268 162.892 217.629 163.503 217.965C165.049 218.799 166.644 219.497 168.365 219.908C170.335 220.381 172.367 220.456 174.411 220.356H174.474C174.474 220.356 174.536 220.356 174.573 220.344C175.047 220.319 175.533 220.294 176.02 220.244C176.144 220.244 176.269 220.232 176.394 220.207C176.842 220.182 177.291 220.132 177.752 220.082C179.535 219.895 181.33 219.671 183.101 219.559C183.412 219.534 183.724 219.509 184.036 219.497C184.46 219.484 184.883 219.472 185.307 219.472C185.756 219.472 186.217 219.484 186.666 219.509H186.778C187.763 219.572 188.748 219.709 189.708 219.933C189.945 219.983 190.169 220.045 190.394 220.12C190.518 220.144 190.631 220.182 190.743 220.219C190.868 220.257 190.98 220.294 191.104 220.331C193.473 221.141 195.493 222.523 197.263 224.279C198.323 225.3 199.283 226.458 200.168 227.704C201.788 229.896 203.185 232.324 204.481 234.665C207.972 240.93 211.463 247.206 214.953 253.495C215.278 254.081 215.614 254.666 215.951 255.251C216.287 255.837 216.636 256.422 216.998 257.007C217.36 257.58 217.734 258.153 218.12 258.714C218.905 259.822 219.741 260.881 220.663 261.827C222.047 263.234 223.618 264.405 225.488 265.152C225.7 265.239 225.912 265.314 226.111 265.376C226.323 265.451 226.535 265.513 226.747 265.576C226.959 265.638 227.171 265.688 227.383 265.738C227.719 265.812 228.056 265.874 228.393 265.924C228.455 265.924 228.517 265.937 228.58 265.949C228.866 265.987 229.141 266.024 229.427 266.036C229.465 266.036 229.515 266.036 229.552 266.036C230.213 266.074 230.874 266.074 231.547 266.036C231.684 266.036 231.834 266.024 231.971 266.011C232.32 265.987 232.669 265.949 233.018 265.899C233.055 265.899 233.093 265.899 233.13 265.887C233.504 265.837 233.878 265.787 234.265 265.725C235.025 265.588 235.786 265.426 236.558 265.252C239.114 264.654 241.707 263.845 244.3 263.247C244.674 263.147 245.048 263.072 245.422 262.998C245.871 262.91 246.308 262.823 246.756 262.749C247.143 262.686 247.542 262.624 247.928 262.587C248.003 262.574 248.065 262.562 248.14 262.562C248.414 262.524 248.676 262.5 248.951 262.487C249.075 262.487 249.187 262.487 249.3 262.462C250.135 262.412 250.958 262.412 251.768 262.475C251.781 262.475 251.793 262.475 251.805 262.475C252.03 262.5 252.242 262.524 252.454 262.549C252.678 262.574 252.89 262.612 253.114 262.649C254.124 262.823 255.097 263.11 256.032 263.483C256.967 263.869 257.864 264.355 258.712 264.916C259.049 265.14 259.373 265.376 259.684 265.625C260.009 265.887 260.32 266.148 260.619 266.422C262.826 268.44 264.509 271.068 265.432 273.92C265.656 274.58 265.831 275.24 265.968 275.925C266.441 278.415 266.392 280.968 265.893 283.447V283.459Z" fill="#569445"/>
<path d="M396.957 329.065C396.009 330.21 394.937 331.256 393.616 331.817C393.553 331.842 393.479 331.867 393.416 331.891C392.494 332.215 391.496 332.165 390.624 331.817C390.624 331.817 390.62 331.817 390.611 331.817C390.487 331.779 390.374 331.73 390.262 331.667C390.2 331.642 390.15 331.605 390.088 331.568C389.153 331.057 388.405 330.173 388.118 329.065C386.834 323.996 380.164 321.841 378.693 316.822C376.623 309.649 386.51 303.273 384.951 295.963C384.328 292.949 381.872 290.707 380.364 288.017C376.798 281.616 377.883 271.74 372.061 268.091C371.911 268.004 371.761 267.917 371.599 267.842C371.338 267.693 371.051 267.556 370.764 267.444C368.695 266.622 366.401 266.746 364.144 266.759H364.019C363.546 266.759 363.084 266.759 362.623 266.734H362.461C361.115 266.659 359.793 266.46 358.584 265.887C358.397 265.8 358.222 265.712 358.048 265.6C354.831 263.782 353.385 259.822 350.954 256.92C350.107 255.911 349.097 255.027 348 254.305C347.788 254.155 347.576 254.031 347.351 253.894C347.164 253.782 346.965 253.67 346.765 253.57C344.185 252.2 341.18 251.59 338.263 251.901C337.565 251.964 336.879 252.088 336.194 252.275C330.995 253.657 326.395 257.954 321.009 257.032C320.199 256.895 319.376 256.646 318.528 256.248C318.291 256.136 318.067 256.023 317.842 255.886C315.823 254.753 314.252 252.935 313.155 250.868C309.714 244.417 309.664 236.371 312.818 229.833C315.162 224.951 319.139 220.954 321.183 215.997C321.308 215.698 321.42 215.399 321.532 215.101C325.472 204.104 318.653 190.455 325.273 180.84C325.31 180.791 325.335 180.753 325.372 180.703C325.46 180.703 325.534 180.703 325.609 180.716C331.244 180.99 336.73 181.289 342.04 181.625C342.028 181.65 342.015 181.662 342.003 181.687C339.46 185.859 335.558 189.421 334.673 194.228C333.401 201.202 338.986 208.413 339.198 215.051C339.26 216.72 338.974 218.351 338.163 219.933C335.682 224.752 328.788 227.417 328.988 232.847C329.162 237.829 335.308 240.132 340.27 240.369C345.257 240.581 351.079 240.369 354.221 244.242C356.24 246.745 356.465 250.32 358.384 252.898C361.813 257.481 368.695 257.057 374.005 259.174C383.044 262.786 386.759 273.508 388.093 283.135C388.454 285.775 388.754 288.503 390.075 290.807C391.347 292.999 393.491 294.742 394.002 297.233C395.012 302.214 388.804 306.623 389.938 311.579C390.599 314.481 393.603 316.374 394.351 319.263C394.962 321.642 393.94 324.307 394.962 326.536C395.074 326.773 395.212 326.997 395.361 327.221C395.598 327.57 395.885 327.906 396.184 328.23C396.433 328.517 396.695 328.791 396.957 329.065Z" fill="#569445"/>
<path d="M221.486 287.544C219.878 288.054 218.245 288.677 217.085 289.898C215.789 291.255 215.24 293.21 215.24 295.091C215.24 296.971 215.726 298.814 216.25 300.62C216.462 301.343 216.699 302.102 217.26 302.588C217.734 302.999 218.394 303.173 219.018 303.211C220.838 303.348 222.646 302.638 224.117 301.554C225.588 300.471 226.76 299.039 227.844 297.582C229.677 295.128 232.208 291.243 230.649 288.042C228.979 284.63 224.154 286.685 221.474 287.531L221.486 287.544Z" fill="#8FB844"/>
<path d="M200.205 291.529C200.218 292.326 200.604 293.073 201.115 293.696C202.873 295.863 206.214 296.535 208.695 295.265C209.692 294.755 210.578 293.908 210.814 292.812C211.288 290.645 208.52 287.145 206.339 286.797C203.995 286.423 200.155 289.051 200.218 291.542L200.205 291.529Z" fill="#8FB844"/>
<path d="M210.029 300.483C209.356 301.218 208.72 302.015 208.371 302.949C208.022 303.883 207.984 304.967 208.47 305.838C208.957 306.71 210.041 307.258 211.001 306.959C211.512 306.797 211.924 306.424 212.273 306.013C213.233 304.867 213.731 303.348 213.644 301.866C213.607 301.293 213.47 300.683 213.046 300.272C212.285 299.537 211.039 299.811 210.029 300.122V300.471V300.483Z" fill="#8FB844"/>
<path d="M132.859 296.735C133.645 298.329 135.166 299.587 136.911 299.886C138.656 300.185 140.601 299.4 141.486 297.856C141.985 297.009 142.134 296 142.172 295.016C142.222 293.746 142.072 292.451 141.573 291.293C140.427 288.665 136.849 287.295 134.206 288.665C131.563 290.035 131.725 294.468 132.859 296.735Z" fill="#8FB844"/>
<path d="M133.956 280.234C132.785 280.632 131.812 281.766 131.912 282.998C131.937 283.285 132.012 283.571 132.186 283.795C132.473 284.194 132.959 284.381 133.433 284.518C134.293 284.754 135.216 284.879 136.101 284.68C136.973 284.48 137.809 283.945 138.208 283.148C139.554 280.421 135.814 279.611 133.956 280.234Z" fill="#8FB844"/>
<path d="M140.888 284.742C140.439 285.053 140.14 285.564 140.028 286.099C139.965 286.411 139.965 286.747 140.09 287.033C140.315 287.506 140.851 287.731 141.362 287.83C141.873 287.917 142.396 287.917 142.908 287.818C143.369 287.718 143.843 287.531 144.167 287.183C144.491 286.834 144.64 286.298 144.429 285.863C144.304 285.613 144.079 285.414 143.855 285.265C142.982 284.667 141.885 284.057 140.9 284.754L140.888 284.742Z" fill="#8FB844"/>
<path d="M401.57 275.078C401.669 276.186 402.28 277.182 402.991 278.029C403.502 278.627 404.088 279.212 404.836 279.461C405.484 279.673 406.182 279.623 406.856 279.486C407.953 279.262 409.075 278.739 409.636 277.768C410.733 275.9 409.773 270.881 407.242 270.532C404.661 270.183 401.333 272.263 401.57 275.078Z" fill="#8FB844"/>
<path d="M403.901 256.547C402.317 257.506 401.108 259.062 400.585 260.843C400.385 261.541 400.273 262.275 400.422 262.985C400.759 264.666 402.355 265.8 403.963 266.398C405.297 266.896 406.756 267.145 408.164 266.946C409.573 266.746 410.957 266.086 411.867 264.99C412.977 263.658 413.301 261.752 412.839 260.083C411.68 255.837 407.616 254.317 403.913 256.559L403.901 256.547Z" fill="#8FB844"/>
<path d="M414.248 267.668C413.326 268.091 412.578 269.088 412.815 270.084C412.977 270.769 413.588 271.304 414.273 271.466C414.959 271.628 415.695 271.466 416.305 271.093C416.941 270.706 417.452 270.096 417.615 269.374C418.113 267.107 415.782 266.983 414.261 267.668H414.248Z" fill="#8FB844"/>
<path d="M389.689 188.985C388.829 191.526 386.485 193.357 383.942 194.203C377.833 196.233 370.54 193.319 367.136 187.827C366.289 186.457 365.74 184.9 365.541 183.306C374.404 184.054 382.608 184.863 390.038 185.735C390.138 186.831 390.05 187.927 389.689 188.985Z" fill="#8FB844"/>
<path d="M406.619 188.014V188.039C406.494 188.811 406.245 189.595 405.758 190.218C405.247 190.903 404.499 191.376 403.714 191.713C401.333 192.734 398.453 192.584 396.246 191.202C394.463 190.081 393.204 188.151 392.893 186.083C397.842 186.694 402.43 187.341 406.619 188.014Z" fill="#8FB844"/>
<path d="M391.421 194.726C390.249 195.088 389.053 195.773 388.704 196.893C388.479 197.628 388.666 198.438 389.09 199.073C389.526 199.708 390.187 200.194 390.91 200.53C391.284 200.704 391.671 200.841 392.082 200.891C393.067 201.003 394.027 200.58 394.925 200.169C395.573 199.87 396.271 199.534 396.632 198.936C397.468 197.591 396.246 195.947 395.286 194.988C394.251 193.954 392.705 194.34 391.409 194.739L391.421 194.726Z" fill="#8FB844"/>
<path d="M365.715 230.22C365.041 231.938 365.652 234.03 367.011 235.288C368.37 236.558 370.34 237.044 372.173 236.82C376.449 236.297 381.074 231.764 376.735 228.015C373.868 225.524 367.136 226.596 365.702 230.232L365.715 230.22Z" fill="#8FB844"/>
<path d="M435.268 201.165C435.155 205.586 434.806 210.007 434.445 214.403C433.747 223.059 433.036 231.714 432.35 240.394C429.957 240.892 427.351 239.634 425.793 237.729C424.11 235.662 423.387 232.997 422.925 230.394C421.305 221.24 422.688 211.103 428.785 204.091C430.268 202.373 433.285 198.985 435.268 201.177V201.165Z" fill="#8FB844"/>
<path d="M283.995 179.209C289.692 179.346 295.302 179.508 300.8 179.695C296 183.269 291.138 186.856 290.303 192.535C289.867 195.461 290.677 198.425 291.213 201.352C292.173 206.545 292.285 211.8 291.949 217.081C291.587 222.847 290.689 228.625 289.792 234.329C288.944 239.734 287.037 246.31 281.651 247.368C277.15 248.24 273.198 244.554 269.758 241.515C266.317 238.489 261.156 235.749 257.428 238.402C256.156 239.298 255.334 240.643 254.423 241.889C252.055 245.089 248.714 247.792 244.811 248.639C240.909 249.523 236.434 248.29 234.04 245.077C231.896 242.187 231.734 238.289 230.126 235.052C227.283 229.285 220.501 226.595 216.574 221.502C215.689 220.356 214.953 219.086 214.293 217.753C211.176 211.502 209.792 203.892 203.658 200.941C195.505 197.005 185.444 204.876 176.967 201.651C174.187 200.605 171.918 198.438 169.138 197.404C164.712 195.735 159.725 197.117 155.075 196.283C150.425 195.486 145.85 190.081 148.792 186.395C150.3 184.514 153.143 184.066 154.502 182.073C154.888 181.525 155.125 180.915 155.337 180.28C168.203 179.732 181.767 179.309 195.879 179.022" fill="#588ACD"/>
<path d="M364.842 361.731C357.935 367.572 350.655 372.815 343.062 377.51C309.614 398.208 270.231 407.947 231.135 406.925C214.43 406.502 197.799 404.098 181.704 399.764C182.427 398.893 183.287 398.145 184.26 397.598C191.092 393.712 200.753 398.718 207.174 394.173C212.884 390.125 212.073 381.495 215.203 375.231C218.045 369.514 224.091 366.102 230.138 364.06C236.184 362.005 242.58 360.984 248.389 358.318C254.186 355.666 259.535 350.821 260.482 344.507C261.093 340.485 259.896 336.026 261.978 332.527C263.798 329.463 267.464 328.205 270.705 326.723C275.33 324.569 279.731 321.269 281.713 316.586C285.229 308.267 280.404 297.955 284.643 289.985C287.847 283.945 295.115 281.442 301.81 280.184C308.529 278.926 315.735 278.254 321.133 274.094C323.091 272.6 325.01 270.594 327.466 270.594C331.394 270.594 333.226 275.352 334.099 279.188C336.069 287.781 339.609 297.382 347.875 300.458C350.019 301.268 352.45 301.617 354.021 303.273C355.554 304.867 355.841 307.271 355.816 309.5C355.766 314.867 354.357 320.235 351.739 324.918C349.82 328.38 347.139 331.879 347.513 335.827C347.962 340.784 352.849 343.897 356.589 347.21C360.803 350.909 363.944 356.276 364.842 361.718V361.731Z" fill="#588ACD"/>
<path d="M152.968 385.443C152.208 386.576 151.323 387.585 150.313 388.469C149.727 388.195 149.141 387.933 148.555 387.659C143.992 385.517 139.517 383.201 135.128 380.71C132.66 379.303 130.216 377.846 127.81 376.326C123.671 373.724 119.632 370.959 115.705 368.032C115.131 367.596 114.558 367.173 113.984 366.725C113.149 366.09 112.314 365.442 111.491 364.794C110.556 364.06 109.634 363.3 108.711 362.553C106.878 361.046 105.083 359.502 103.3 357.92C101.53 356.338 99.7722 354.719 98.0518 353.05C96.3314 351.394 94.6359 349.7 92.9778 347.957C92.1425 347.098 91.3197 346.213 90.5094 345.329C89.5744 344.308 88.6393 343.274 87.7168 342.228C86.9688 341.381 86.2332 340.522 85.4977 339.663C84.6375 338.666 83.8022 337.658 82.9794 336.649C82.7301 336.338 82.4683 336.039 82.2189 335.715C81.608 334.968 81.0096 334.22 80.4112 333.461C79.9375 332.851 79.4513 332.24 78.99 331.63C78.0301 330.385 77.0826 329.139 76.1725 327.869C75.6489 327.184 75.1502 326.487 74.6515 325.789C73.8038 324.619 72.981 323.436 72.1831 322.252C71.5598 321.356 70.9614 320.459 70.3754 319.562C67.6327 315.44 65.0396 311.206 62.6086 306.897C62.2221 306.237 61.8606 305.577 61.4866 304.904C60.9754 303.983 60.4643 303.036 59.9781 302.102C59.9531 302.065 59.9282 302.028 59.9157 301.99C59.2675 300.782 58.6316 299.562 58.0332 298.341C57.7216 297.731 57.4099 297.108 57.0982 296.486C57.0733 296.461 57.0608 296.436 57.0484 296.399C56.7242 295.738 56.4001 295.078 56.0884 294.406C56.051 294.344 56.0136 294.294 56.0011 294.232C55.6895 293.609 55.3903 292.961 55.0911 292.326C55.0537 292.264 55.0287 292.214 55.0163 292.152C54.6921 291.479 54.3805 290.807 54.0813 290.134C53.9192 289.786 53.7571 289.437 53.62 289.101C53.1961 288.167 52.7847 287.233 52.3858 286.299C51.4133 284.044 50.4783 281.778 49.6057 279.499C49.3189 278.777 49.0571 278.067 48.7828 277.357C47.985 275.265 47.237 273.147 46.5139 271.03C46.5014 270.98 46.4765 270.931 46.464 270.881C46.2147 270.159 45.9778 269.436 45.7285 268.701C45.4791 267.979 45.2547 267.269 45.0303 266.547C44.7935 265.825 44.5815 265.102 44.3571 264.368C43.821 262.661 43.3348 260.943 42.8611 259.224C42.7115 258.664 42.5619 258.103 42.4123 257.555C42.2128 256.87 42.0383 256.185 41.8762 255.501C41.6892 254.766 41.4897 254.019 41.3152 253.271C41.1407 252.537 40.9661 251.789 40.7916 251.042C40.6046 250.295 40.4425 249.56 40.2805 248.813C40.1807 248.439 40.1059 248.066 40.0311 247.692C39.9563 247.318 39.869 246.945 39.7942 246.571C39.6446 245.886 39.5075 245.189 39.3704 244.491C39.2208 243.806 39.0836 243.122 38.9714 242.424C38.9216 242.15 38.8592 241.889 38.8094 241.615C38.6972 241.017 38.5974 240.419 38.4977 239.821C38.4728 239.747 38.4603 239.659 38.4603 239.585C38.3356 238.9 38.2234 238.24 38.1237 237.567C38.0489 237.181 37.999 236.807 37.9367 236.434C37.812 235.687 37.6998 234.927 37.5876 234.167C37.438 233.159 37.3009 232.162 37.1762 231.166C37.1637 231.104 37.1513 231.041 37.1637 230.992C37.0515 230.17 36.9518 229.36 36.8645 228.551C36.7648 227.779 36.6775 226.994 36.6027 226.222C36.5778 226.01 36.5529 225.786 36.5279 225.574C36.4781 225.064 36.4282 224.553 36.3908 224.042C36.3035 223.083 36.2163 222.125 36.1415 221.166C36.0667 220.207 36.0043 219.248 35.942 218.289C35.8797 217.33 35.8298 216.371 35.7799 215.412C35.7301 214.453 35.6927 213.482 35.6553 212.523C35.5057 208.039 35.5306 203.556 35.7301 199.073C35.755 198.462 35.7799 197.84 35.8298 197.217C36.7773 195.436 40.1558 193.705 45.6537 192.086C45.2797 193.892 44.968 195.698 45.1176 197.528C45.342 200.243 46.5887 202.722 47.9974 205.075C48.359 205.686 48.733 206.283 49.107 206.869C52.7099 212.597 56.9486 218.787 63.5436 220.393C67.159 221.278 71.2481 220.68 74.3523 222.76C77.3943 224.815 78.7282 229.086 82.1815 230.332C86.1335 231.776 91.6563 228.8 94.1996 232.15C95.3964 233.707 95.1346 235.911 94.6234 237.816C93.4391 242.113 91.22 246.073 89.9733 250.357C88.7266 254.666 88.6269 259.66 91.3696 263.197C92.5789 264.754 94.2619 265.899 95.521 267.431C100.258 273.247 97.5157 282.774 102.266 288.565C104.535 291.367 108.25 292.824 110.219 295.851C111.99 298.541 112.04 301.953 112.351 305.166C113.087 313.311 116.341 322.028 123.609 325.777C128.359 328.23 134.567 328.479 137.734 332.763C141.013 337.222 139.167 343.436 137.31 348.642C135.465 353.848 133.944 360.261 137.647 364.371C141.387 368.555 148.543 367.883 152.532 371.843C156.035 375.305 155.736 381.358 152.968 385.443Z" fill="#588ACD"/>
<path d="M283.995 179.209C283.97 179.545 283.907 179.882 283.783 180.218C283.234 181.787 281.8 182.833 280.529 183.904C275.131 188.499 271.565 195.909 273.41 202.747C274.021 204.988 275.168 207.08 275.704 209.347C276.327 212.025 276.041 214.777 275.467 217.479C275.293 218.264 275.106 219.048 274.894 219.821C274.545 221.116 274.108 222.486 273.086 223.357C271.353 224.839 268.673 224.267 266.653 223.22C264.621 222.174 262.714 220.705 260.432 220.506C255.483 220.082 251.818 225.823 246.843 225.973C246.108 225.998 245.335 225.873 244.712 225.475C244.275 225.188 243.926 224.765 243.652 224.316C242.492 222.411 242.667 220.144 242.954 217.853C243.278 215.225 243.752 212.548 242.53 210.306C240.236 206.109 234.077 206.582 229.839 204.353C225.999 202.336 223.917 198.151 221.81 194.365C219.691 190.567 216.873 186.607 212.622 185.722C210.827 185.349 208.982 185.573 207.149 185.573C204.818 185.56 202.486 185.162 200.292 184.402C197.924 183.58 195.355 181.638 195.842 179.184C195.842 179.134 195.866 179.072 195.879 179.022" fill="#5280BE"/>
<path d="M109.908 357.521C109.521 359.925 111.291 362.528 111.491 364.782C104.061 358.891 97.0294 352.415 90.5093 345.329C60.4392 312.613 40.991 269.81 36.5278 225.562C38.5475 230.02 40.1432 235.774 42.2002 237.468C44.9554 239.734 49.0071 240.357 51.1514 243.221C54.1185 247.144 52.0491 253.197 54.7419 257.281C58.3448 262.749 67.5578 261.08 71.8963 265.962C75.2748 269.748 74.2026 275.526 73.7164 280.595C73.3175 284.729 73.4422 288.914 74.1154 293.011C74.6265 296.137 75.4743 299.288 77.2819 301.891C81.7575 308.404 90.983 310.16 95.7827 316.437C100.732 322.912 99.8095 332.651 105.183 338.791C106.953 340.796 109.259 342.241 111.055 344.196C112.875 346.126 114.209 348.916 113.349 351.432C112.576 353.673 110.269 355.217 109.895 357.534L109.908 357.521Z" fill="#5280BE"/>
<path d="M343.05 377.497C309.602 398.195 270.219 407.934 231.123 406.913C231.16 406.676 231.185 406.427 231.185 406.178C231.248 403.314 229.515 400.748 229.078 397.921C228.268 392.678 232.257 387.709 236.97 385.268C241.682 382.827 247.093 382.205 252.242 380.897C257.391 379.564 262.714 377.248 265.407 372.677C268 368.306 268 362.229 272.076 359.227C275.206 356.924 279.457 357.359 283.334 357.26C287.847 357.123 292.547 356.002 295.913 352.988C300.326 349.065 301.71 342.627 301.162 336.761C300.875 333.61 300.139 330.41 300.962 327.371C301.399 325.802 302.221 324.382 303.219 323.112C304.902 320.995 307.221 319.226 309.913 318.877C312.594 318.529 315.598 319.924 316.508 322.464C317.406 324.942 316.234 327.707 316.832 330.248C317.73 334.133 322.405 336.474 322.779 340.435C323.028 342.988 321.383 345.342 321.096 347.882C320.61 352.204 324.076 355.989 327.778 358.293C331.481 360.585 335.757 362.142 338.699 365.355C341.691 368.63 342.788 372.976 343.025 377.497H343.05Z" fill="#5280BE"/>
<path d="M338.5 282.326C338.537 284.891 339.385 287.432 340.893 289.499C341.566 290.421 342.377 291.255 343.399 291.753C344.421 292.251 345.668 292.351 346.678 291.84C347.688 291.33 348.336 290.259 348.573 289.15C348.81 288.042 348.697 286.884 348.51 285.775C348.149 283.621 347.488 281.429 346.017 279.798C344.77 278.415 342.589 277.344 340.681 277.842C338.774 278.341 338.462 280.582 338.487 282.338L338.5 282.326Z" fill="#588ACD"/>
<path d="M351.428 293.933C351.59 294.319 351.815 294.692 352.126 294.979C352.824 295.626 353.884 295.763 354.794 295.514C355.704 295.265 356.49 294.655 357.138 293.97C357.649 293.434 358.11 292.812 358.247 292.089C358.646 290.035 356.353 287.419 354.233 287.893C351.715 288.465 350.493 291.728 351.428 293.933Z" fill="#588ACD"/>
<path d="M100.732 190.343C99.0241 191.102 96.9172 190.243 95.2965 189.546C93.8628 188.935 92.3793 187.852 92.2795 186.295C92.2421 185.697 92.4167 185.125 92.5663 184.539C95.7453 184.228 99.049 183.917 102.44 183.618C102.851 184.29 103.275 184.938 103.475 185.685C103.986 187.678 102.477 189.571 100.732 190.343Z" fill="#588ACD"/>
<path d="M283.995 179.209C289.692 179.346 295.302 179.508 300.8 179.695C308.23 179.944 315.473 180.23 322.48 180.554C323.452 180.604 324.412 180.654 325.372 180.703C325.459 180.703 325.534 180.703 325.609 180.716C331.244 180.99 336.729 181.289 342.04 181.625C350.306 182.123 358.147 182.684 365.54 183.306C374.404 184.054 382.607 184.863 390.038 185.735C391.01 185.847 391.958 185.971 392.893 186.083C397.842 186.694 402.43 187.341 406.619 188.014C418.574 189.919 427.289 192.049 432.013 194.315C433.509 195.038 434.607 195.772 435.267 196.52C435.504 196.781 435.691 197.055 435.816 197.329C435.965 197.641 436.04 197.939 436.04 198.251C436.04 198.5 435.99 198.761 435.891 199.01C435.766 199.334 435.567 199.658 435.28 199.969C435.08 200.194 434.843 200.418 434.569 200.642C433.933 201.152 433.086 201.663 432.038 202.174C431.303 202.522 430.468 202.884 429.545 203.232C416.218 208.226 383.243 212.448 339.198 215.051C333.451 215.4 327.516 215.711 321.408 215.985C321.333 215.997 321.258 215.997 321.183 215.997C320.173 216.047 319.164 216.097 318.141 216.134C309.714 216.508 300.962 216.832 291.948 217.081C286.55 217.243 281.052 217.367 275.467 217.479C264.908 217.691 254.049 217.816 242.954 217.853C240.573 217.865 238.191 217.865 235.798 217.865C228.53 217.865 221.361 217.828 214.293 217.753C196.752 217.566 179.884 217.168 164.001 216.57C163.004 216.533 162.019 216.495 161.034 216.458C152.694 216.122 144.64 215.748 136.898 215.312L134.28 215.163C132.323 215.051 130.391 214.939 128.471 214.814C127.486 214.752 126.513 214.69 125.554 214.627C122.175 214.416 118.871 214.179 115.642 213.942C110.02 213.531 104.634 213.096 99.4978 212.622C98.488 212.535 97.4907 212.436 96.4933 212.336C75.2249 210.318 58.5069 207.84 48.0098 205.075C40.8912 203.195 36.6276 201.177 35.7424 199.073C35.6302 198.799 35.5679 198.525 35.5679 198.251C35.5679 197.902 35.6551 197.553 35.8421 197.217C36.7896 195.436 40.1681 193.705 45.666 192.086C50.4034 190.679 56.7116 189.346 64.3912 188.101C65.1891 187.976 66.0119 187.839 66.8347 187.715C67.6451 187.59 68.4554 187.466 69.2907 187.354C69.9016 187.254 70.5249 187.167 71.1607 187.08C73.8037 186.706 76.5588 186.345 79.4512 185.996H79.4636C80.4485 185.872 81.4459 185.747 82.4681 185.635C85.6971 185.262 89.0631 184.888 92.5788 184.539C95.7578 184.228 99.0615 183.917 102.452 183.618C105.058 183.381 107.713 183.169 110.431 182.958C111.341 182.883 112.264 182.808 113.186 182.746C117.3 182.422 121.527 182.136 125.89 181.849C126.813 181.787 127.748 181.725 128.695 181.675C137.173 181.152 146.074 180.679 155.349 180.28C168.215 179.732 181.779 179.309 195.891 179.022" fill="#82652C"/>
<path d="M280.117 180.728C285.354 180.84 290.515 180.965 295.564 181.114C302.396 181.314 309.053 181.55 315.498 181.799C316.396 181.837 317.281 181.874 318.154 181.924C318.229 181.924 318.303 181.924 318.366 181.924C323.552 182.148 328.589 182.385 333.476 182.659C341.08 183.057 348.286 183.505 355.081 184.016C363.234 184.614 370.776 185.274 377.608 185.971C378.506 186.059 379.379 186.158 380.239 186.258C384.789 186.743 389.003 187.267 392.855 187.814C403.851 189.346 411.867 191.065 416.206 192.883C417.577 193.468 418.587 194.054 419.198 194.652C419.41 194.863 419.584 195.087 419.696 195.299C419.833 195.548 419.908 195.785 419.908 196.046C419.908 196.246 419.858 196.457 419.771 196.657C419.659 196.918 419.472 197.18 419.21 197.429C419.023 197.603 418.811 197.79 418.562 197.964C417.976 198.375 417.203 198.786 416.23 199.197C415.557 199.484 414.784 199.77 413.937 200.044C401.682 204.067 371.362 207.454 330.858 209.546C325.572 209.833 320.111 210.082 314.501 210.293C314.426 210.293 314.364 210.293 314.289 210.293C313.367 210.331 312.432 210.368 311.497 210.406C303.742 210.704 295.701 210.966 287.411 211.165C282.449 211.29 277.387 211.389 272.251 211.489C262.539 211.663 252.553 211.763 242.355 211.788C240.161 211.788 237.98 211.788 235.773 211.788C229.091 211.788 222.496 211.763 216.001 211.701C199.868 211.551 184.36 211.227 169.761 210.754C168.838 210.729 167.941 210.692 167.031 210.667C159.364 210.393 151.958 210.094 144.84 209.745C144.042 209.708 143.232 209.671 142.434 209.621C140.638 209.534 138.856 209.447 137.098 209.334C136.188 209.285 135.303 209.235 134.418 209.185C131.313 209.011 128.271 208.824 125.304 208.637C120.131 208.301 115.181 207.952 110.456 207.579C109.534 207.504 108.611 207.429 107.689 207.342C88.1281 205.723 72.7565 203.73 63.1072 201.501C56.5621 199.994 52.635 198.363 51.8247 196.669C51.7249 196.445 51.6626 196.233 51.6626 196.009C51.6626 195.723 51.7374 195.449 51.9119 195.175C52.7846 193.742 55.8889 192.348 60.9504 191.052C65.3013 189.919 71.1109 188.848 78.1671 187.852C78.9027 187.752 79.6631 187.64 80.4111 187.54C81.1592 187.441 81.9072 187.341 82.6676 187.254C83.2286 187.179 83.8021 187.105 84.3881 187.03C86.8191 186.731 89.3499 186.445 92.0053 186.158C92.9154 186.058 93.8255 185.959 94.7729 185.872C97.74 185.573 100.832 185.274 104.073 184.987C106.99 184.738 110.032 184.489 113.149 184.24C115.543 184.053 117.986 183.879 120.48 183.705C121.315 183.642 122.163 183.58 123.01 183.53C126.788 183.269 130.677 183.045 134.692 182.808C135.54 182.758 136.4 182.708 137.272 182.671C145.064 182.248 153.255 181.874 161.782 181.55C173.613 181.114 186.08 180.766 199.058 180.542" fill="#AD8A4D"/>
<path d="M163.353 158.287C163.353 158.287 98.7623 199.098 161.333 203.78C223.904 208.463 192.837 211.389 247.591 205.561C283.197 201.763 285.279 195.349 321.42 204.253C357.561 213.158 317.842 156.743 297.895 154.887C270.992 152.371 237.556 149.42 163.353 158.299V158.287Z" fill="#AD8A4D"/>
<path d="M155.773 179.396C155.773 179.396 159.663 129.456 227.171 126.766C294.679 124.076 312.868 179.396 312.868 179.396C312.868 179.396 325.596 198.736 291.774 193.817C257.951 188.898 248.95 192.061 235.499 199.098C222.047 206.134 201.838 199.446 191.179 193.469C180.52 187.491 149.004 203.668 155.786 179.408L155.773 179.396Z" fill="#82652C"/>
<path opacity="0.21" d="M297.895 154.874C297.683 157.253 296.648 158.411 294.429 156.742C288.333 152.135 272.375 143.056 274.482 151.201C276.602 159.345 256.892 154.551 251.955 147.751C247.03 140.951 237.406 137.439 223.73 139.668C210.054 141.885 214.642 150.802 207.161 152.707C199.681 154.625 195.717 141.636 178.039 159.233C168.614 168.623 163.764 166.232 161.296 161.961C168.801 147.278 186.367 128.398 227.158 126.766C263.25 125.334 285.254 140.478 297.895 154.874Z" fill="#35210C"/>
<path d="M197.213 139.992C197.125 139.992 197.051 139.992 196.963 139.992C196.415 140.017 195.841 140.378 195.717 140.939C195.667 141.188 195.667 141.375 195.717 141.624C195.841 142.197 196.415 142.545 196.963 142.57C197.051 142.57 197.125 142.57 197.213 142.57C198.883 142.645 198.896 139.893 197.213 139.967V139.992Z" fill="#3B2C2D"/>
<path d="M207.161 136.592C209.094 136.592 209.094 133.604 207.161 133.604C205.229 133.604 205.229 136.592 207.161 136.592Z" fill="#3B2C2D"/>
<path d="M185.457 154.924C186.653 154.924 187.663 153.915 187.663 152.72C187.663 151.524 186.653 150.516 185.457 150.516C184.26 150.516 183.25 151.537 183.25 152.72C183.25 153.903 184.26 154.924 185.457 154.924Z" fill="#3B2C2D"/>
<path d="M189.733 161.213C189.733 161.213 189.782 161.288 189.807 161.338C190.468 162.347 191.864 162.347 192.513 161.338C192.538 161.301 192.562 161.263 192.587 161.213C193.286 160.142 192.363 158.723 191.154 158.723C189.944 158.723 189.022 160.142 189.72 161.213H189.733Z" fill="#3B2C2D"/>
<path d="M200.803 149.369C200.902 149.369 200.902 149.22 200.803 149.22C200.704 149.22 200.704 149.369 200.803 149.369Z" fill="#3B2C2D"/>
<path d="M172.715 154.875C175.084 154.875 175.084 151.201 172.715 151.201C170.347 151.201 170.347 154.875 172.715 154.875Z" fill="#3B2C2D"/>
<path d="M262.514 150.827C265.132 150.827 265.132 146.767 262.514 146.767C259.896 146.767 259.896 150.827 262.514 150.827Z" fill="#3B2C2D"/>
<path d="M259.086 141.748C261.766 141.748 261.779 137.576 259.086 137.576C256.393 137.576 256.393 141.748 259.086 141.748Z" fill="#3B2C2D"/>
<path d="M242.268 147.751C244.699 147.751 244.711 143.978 242.268 143.978C239.824 143.978 239.837 147.751 242.268 147.751Z" fill="#3B2C2D"/>
<path d="M278.995 161.736C282.212 161.736 282.212 156.755 278.995 156.755C275.779 156.755 275.779 161.736 278.995 161.736Z" fill="#3B2C2D"/>
<path d="M248.963 137.813C250.783 137.813 250.783 134.998 248.963 134.998C247.143 134.998 247.143 137.813 248.963 137.813Z" fill="#3B2C2D"/>
<path d="M224.304 58.2461C224.191 42.3925 235 29.204 248.414 20.723C261.829 12.242 277.986 8.481 293.844 9.1286C307.183 9.66411 321.52 14.0354 328.9 25.1441C321.159 42.4548 309.091 59.2673 291.263 65.7681C273.76 72.1569 241.495 60.6745 234.202 64.4729C226.909 68.2713 224.353 64.5476 224.316 58.2461H224.304Z" fill="#299056"/>
<path d="M228.555 65.5066C227.969 57.0131 222.284 49.4413 215.066 44.933C207.847 40.4123 199.245 38.5816 190.755 37.8219C183.45 37.1743 175.82 37.3238 169.163 40.3874C161.271 44.0114 155.661 51.3218 151.634 59.0057C147.608 66.6897 144.84 74.9963 140.713 82.6304C157.569 86.2046 176.182 89.5298 191.192 81.0737C197.039 77.7735 201.838 72.9041 207.324 69.0185C212.809 65.1329 219.529 62.1565 226.124 63.4891" fill="#589F38"/>
<path d="M214.018 44.7838C213.121 44.2233 212.285 43.5384 211.438 42.8783C202.898 41.3714 193.947 42.5545 186.367 47.0628C172.304 55.4068 163.565 70.5256 148.655 77.7363C147.433 78.3341 148.256 80.1648 149.515 79.6666C160.66 75.1708 168.863 65.1456 177.503 57.1752C190.182 45.4936 202.723 43.252 218.17 47.3741C216.798 46.5024 215.402 45.6555 214.018 44.7838Z" fill="#258A13"/>
<path d="M152.495 62.5801C155.499 62.5801 158.317 61.5838 161.383 61.7706C164.425 61.9574 167.218 62.9911 170.185 63.5266C170.659 63.6137 170.808 62.9911 170.497 62.7171C166.27 59.0557 156.758 58.0718 152.208 61.6087C151.871 61.8702 152.008 62.5676 152.495 62.5676V62.5801Z" fill="#258A13"/>
<path d="M169.774 45.1698C172.89 44.2731 175.995 43.7376 179.261 44.0863C183.138 44.4848 185.644 46.1785 188.898 48.1089C189.77 48.6319 190.73 47.6854 190.132 46.8261C185.594 40.3004 175.808 41.5208 169.325 43.6878C168.502 43.9618 168.913 45.4188 169.774 45.1698Z" fill="#258A13"/>
<path d="M166.208 65.5938C168.327 70.1269 168.003 73.8631 165.535 78.1471C165.261 78.6328 165.797 79.2929 166.295 78.8695C170.11 75.5941 170.322 68.7819 166.931 65.1455C166.619 64.8092 165.996 65.1206 166.208 65.5813V65.5938Z" fill="#258A13"/>
<path d="M193.324 45.9046C195.306 55.2573 195.455 62.2688 189.758 70.3637C189.135 71.2479 190.282 72.4061 191.142 71.6838C198.585 65.4943 198.572 53.6259 194.919 45.4189C194.545 44.572 193.124 44.9457 193.324 45.8921V45.9046Z" fill="#258A13"/>
<g opacity="0.49">
<path d="M227.931 64.6847C235.636 48.993 247.616 36.1159 264.422 30.2128C283.11 23.6497 305.874 23.0395 325.247 26.1404C326.556 26.3521 327.155 24.4716 325.808 24.1105C315.062 21.1714 303.642 21.7069 292.672 22.8153C281.963 23.8988 270.767 25.0071 260.707 29.0421C245.123 35.3064 231.908 48.059 226.498 64.0745C226.211 64.9089 227.545 65.4942 227.944 64.6847H227.931Z" fill="#83C683"/>
<path d="M249.162 37.8219C249.549 34.2352 249.237 31.3833 251.319 28.1454C253.027 25.4803 255.47 23.5126 257.528 21.1464C258.101 20.4863 257.378 19.4651 256.568 19.9135C251.369 22.728 243.078 31.9687 247.866 38.1831C248.29 38.7435 249.087 38.5442 249.162 37.8344V37.8219Z" fill="#83C683"/>
<path d="M292.983 23.3259C292.946 20.7729 294.118 18.0082 295.601 15.9657C297.16 13.8237 299.391 13.1138 301.299 11.4824C301.86 10.9967 301.374 10.1374 300.738 10.1125C298.032 9.98796 295.414 12.5659 293.943 14.5834C291.949 17.2983 291.537 20.0381 291.899 23.3134C291.974 23.9984 293.008 24.0358 292.996 23.3134L292.983 23.3259Z" fill="#83C683"/>
<path d="M249.86 37.8969C251.643 51.5212 272.862 63.9376 285.74 60.8615C286.6 60.6498 286.288 59.5414 285.553 59.4418C271.303 57.5364 257.901 50.7616 251.057 37.5731C250.783 37.0376 249.773 37.2617 249.86 37.8969Z" fill="#83C683"/>
<path d="M290.527 23.8615C292.597 30.0136 298.007 33.5505 303.455 36.5892C307.943 39.0924 314.601 42.5919 318.952 37.984C319.712 37.1745 318.952 35.9914 317.904 36.2031C308.691 38.0836 297.16 30.7858 292.086 23.2014C291.574 22.4418 290.191 22.8901 290.527 23.8615Z" fill="#83C683"/>
</g>
<path d="M226.485 132.221C227.819 127.015 228.156 121.561 228.567 116.218C229.041 110.066 229.415 103.901 229.577 97.7368C229.876 87.1013 230.101 76.1918 228.393 65.6684C227.932 62.829 227.159 58.0841 224.092 56.901C222.907 56.4402 222.072 57.9347 222.558 58.8936C222.87 59.4914 223.419 60.5873 223.705 61.5587C224.154 63.0531 224.428 64.6223 224.69 66.1541C225.451 70.5503 225.675 75.0461 225.825 79.5045C226.211 91.1363 225.787 102.818 225.089 114.425C224.74 120.241 224.042 126.094 224.179 131.922C224.204 133.217 226.149 133.554 226.485 132.234V132.221Z" fill="#4A775E"/>
<path d="M140.389 366.152C157.643 366.152 149.453 346.525 135.639 352.029C135.639 352.029 146.997 335.578 130.889 325.64C116.216 316.586 100.832 331.244 100.832 331.244C100.832 331.244 104.136 298.055 79.5509 298.055C54.9663 298.055 55.8141 327.371 55.8141 327.371C55.8141 327.371 45.4541 312.713 33.3737 319.176C21.2934 325.64 26.9034 342.017 26.9034 342.017C26.9034 342.017 3.60291 338.567 0.585932 350.211C-2.43104 361.843 6.63235 364.346 14.8231 364.346C23.0138 364.346 140.389 366.152 140.389 366.152Z" fill="#F2F2F2"/>
<path d="M463.156 283.733C475.249 283.733 469.501 269.984 459.827 273.832C459.827 273.832 467.781 262.3 456.499 255.339C446.213 249 435.442 259.262 435.442 259.262C435.442 259.262 437.761 236.01 420.532 236.01C403.303 236.01 403.901 256.547 403.901 256.547C403.901 256.547 396.645 246.272 388.18 250.806C379.715 255.339 383.642 266.809 383.642 266.809C383.642 266.809 367.311 264.393 365.204 272.55C363.084 280.707 369.443 282.463 375.177 282.463C380.912 282.463 463.156 283.733 463.156 283.733Z" fill="#F2F2F2"/>
<path d="M120.841 47.7227C132.934 47.7227 127.187 33.9737 117.513 37.8219C117.513 37.8219 125.467 26.2898 114.184 19.3282C103.899 12.9892 93.1276 23.2511 93.1276 23.2511C93.1276 23.2511 95.4464 0 78.2172 0C60.9881 0 61.5865 20.5362 61.5865 20.5362C61.5865 20.5362 54.3308 10.2619 45.8658 14.795C37.4008 19.3282 41.3279 30.798 41.3279 30.798C41.3279 30.798 24.9963 28.382 22.8894 36.5392C20.77 44.6964 27.1281 46.4524 32.8629 46.4524C38.5976 46.4524 120.841 47.7227 120.841 47.7227Z" fill="#F2F2F2"/>
</g>
<defs>
<clipPath id="clip0_27_1853">
<rect width="470" height="407" fill="white"/>
</clipPath>
</defs>
</svg>
