<svg width="1192" height="948" viewBox="0 0 1192 948" fill="none" xmlns="http://www.w3.org/2000/svg">
<mask id="mask0_27_3167" style="mask-type:luminance" maskUnits="userSpaceOnUse" x="0" y="0" width="1249" height="889">
<path d="M1249 0H0V888.061H1249V0Z" fill="white"/>
</mask>
<g mask="url(#mask0_27_3167)">
<path d="M350.788 602.779C333.061 602.779 341.483 582.586 355.665 588.252C355.665 588.252 344.002 571.317 360.542 561.092C375.622 551.781 391.424 566.854 391.424 566.854C391.424 566.854 388.023 532.695 413.29 532.695C438.557 532.695 437.675 562.857 437.675 562.857C437.675 562.857 448.311 547.784 460.728 554.43C473.145 561.076 467.37 577.946 467.37 577.946C467.37 577.946 491.306 574.399 494.418 586.374C497.514 598.349 488.209 600.933 479.787 600.933C471.365 600.933 350.788 602.795 350.788 602.795V602.779Z" fill="#F2F2F2"/>
<path d="M1000.37 350.855C1091.46 350.855 1165.31 276.967 1165.31 185.821C1165.31 94.6757 1091.46 20.7876 1000.37 20.7876C909.28 20.7876 835.437 94.6757 835.437 185.821C835.437 276.967 909.28 350.855 1000.37 350.855Z" fill="#FFD13E"/>
<path d="M1165.31 185.821C1165.31 276.966 1091.46 350.855 1000.37 350.855C956.606 350.855 916.837 333.791 887.302 305.957C912.184 321.014 941.366 329.698 972.585 329.698C1063.68 329.698 1137.52 255.809 1137.52 164.664C1137.52 117.31 1117.58 74.611 1085.65 44.5291C1133.4 73.4553 1165.31 125.914 1165.31 185.821Z" fill="#F7BE1C"/>
<path d="M988.499 265.537C1021.74 263.883 1045.21 304.656 999.841 304.656C954.473 304.656 952.387 267.319 988.499 265.537Z" fill="#F7BE1C"/>
<path d="M930.489 280.144C941.815 279.213 949.804 302.264 934.355 302.264C918.906 302.264 918.184 281.156 930.489 280.144Z" fill="#F7BE1C"/>
<path d="M960.585 390.745C932.414 390.745 945.794 358.656 968.334 367.662C968.334 367.662 949.804 340.758 976.082 324.513C1000.02 309.713 1025.14 333.679 1025.14 333.679C1025.14 333.679 1019.73 279.422 1059.87 279.422C1100.01 279.422 1098.6 327.338 1098.6 327.338C1098.6 327.338 1115.49 303.388 1135.23 313.951C1154.94 324.513 1145.78 351.288 1145.78 351.288C1145.78 351.288 1183.8 345.654 1188.74 364.676C1193.67 383.698 1178.88 387.791 1165.5 387.791C1152.12 387.791 960.585 390.745 960.585 390.745Z" fill="#F2F2F2"/>
<path d="M788.223 602.202C817.613 665.656 820.581 672.848 852.153 754.104C811.373 731.085 549.3 739.128 503.659 746.769C519.83 713.813 609.027 549.133 644.192 502.469C648.427 515.921 657.957 514.845 670.598 505.31C678.764 517.189 687.636 516.274 697.069 505.31C706.678 515.808 712.983 516.595 714.283 502.469C719.881 507.638 724.55 510.784 727.871 511.057C731.753 511.394 733.806 507.83 733.405 499.066C755.496 528.361 775.341 571.108 788.223 602.186V602.202Z" fill="#517186"/>
<path d="M727.855 511.073C724.534 510.784 719.865 507.654 714.267 502.485C712.967 516.611 706.662 515.824 697.053 505.326C687.62 516.29 678.748 517.205 670.582 505.326C657.957 514.861 648.412 515.937 644.176 502.485C660.636 480.638 676.037 465.773 687.491 465.837C697.711 465.886 708.09 471.905 718.245 481.697C722.079 485.389 725.881 489.611 729.619 494.266C730.871 495.823 732.122 497.444 733.373 499.082C733.758 507.846 731.705 511.41 727.839 511.073H727.855Z" fill="white"/>
<path opacity="0.2" d="M852.153 754.104C821.993 743.108 741.443 729.657 503.659 746.768C532.086 692.849 543.525 672.205 549.573 660.728C668.721 630.614 742.068 584.448 727.855 511.057C726.042 501.714 722.881 491.922 718.261 481.681C722.095 485.373 725.897 489.595 729.635 494.25C730.887 495.807 732.138 497.428 733.389 499.066C763.902 535.729 799.517 622.058 852.137 754.104H852.153Z" fill="#293843"/>
<path d="M724.502 736.704H439.039C464.242 673.827 511.038 639.507 560.113 631.288C583.744 627.339 607.92 629.426 630.46 637.308C638.401 640.085 646.134 643.584 653.577 647.774C668.689 656.298 682.582 667.743 694.454 681.981C707.047 697.087 717.379 715.37 724.502 736.688V736.704Z" fill="#407042"/>
<path d="M881.624 736.704H724.502C723.604 733.991 722.641 731.326 721.63 728.71C714.716 710.779 705.443 695.193 694.454 682.014C718.518 657.967 753.347 647.1 786.555 649.925C831.218 653.713 872.928 682.254 881.624 736.72V736.704Z" fill="#67862F"/>
<path opacity="0.2" d="M881.624 736.704H724.502C723.604 733.991 722.641 731.326 721.63 728.71C799.694 713.925 823.549 688.113 786.555 649.909C831.218 653.697 872.929 682.238 881.624 736.704Z" fill="#455A1F"/>
<path opacity="0.5" d="M630.444 637.324H630.46C638.401 640.101 646.134 643.6 653.577 647.79C668.689 656.314 682.582 667.759 694.454 681.997C707.047 697.103 717.379 715.386 724.502 736.704H439.039C580.102 722.273 696.636 701.886 630.444 637.308V637.324Z" fill="#233D23"/>
<path d="M551.514 651.53C551.514 647.95 551.466 645.896 552.974 640.277C550.648 642.107 550.07 644.323 549.733 647.79C549.429 646.185 547.183 645.205 544.84 643.472C547.937 647.356 549.3 650.326 549.364 651.899L551.53 651.53H551.514Z" fill="#A1C265"/>
<path d="M567.589 689.831C567.589 686.251 567.541 684.196 569.049 678.578C566.722 680.408 566.145 682.623 565.808 686.091C565.503 684.485 563.257 683.506 560.915 681.773C564.011 685.657 565.375 688.627 565.439 690.2L567.605 689.831H567.589Z" fill="#A1C265"/>
<path d="M531.075 698.403C532.599 695.176 533.434 693.282 537.188 688.836C534.3 689.494 532.84 691.259 531.043 694.261C531.444 692.688 529.824 690.842 528.444 688.274C529.583 693.105 529.567 696.38 528.942 697.825L531.059 698.403H531.075Z" fill="#A1C265"/>
<path d="M623.818 672.478C623.818 668.899 623.77 666.844 625.278 661.226C622.952 663.056 622.374 665.271 622.038 668.738C621.733 667.133 619.487 666.154 617.145 664.42C620.241 668.305 621.604 671.275 621.669 672.848L623.834 672.478H623.818Z" fill="#A1C265"/>
<path d="M810.602 686.636C810.602 683.057 810.554 681.002 812.062 675.384C809.736 677.214 809.159 679.429 808.822 682.896C808.517 681.291 806.271 680.312 803.929 678.578C807.025 682.463 808.389 685.433 808.453 687.006L810.619 686.636H810.602Z" fill="#A1C265"/>
<path d="M614.481 710.073C615.62 706.686 616.214 704.711 619.439 699.864C616.647 700.859 615.396 702.785 613.968 705.963C614.177 704.342 612.364 702.705 610.695 700.313C612.396 704.984 612.749 708.227 612.3 709.736L614.465 710.073H614.481Z" fill="#A1C265"/>
<path d="M829.549 722.16C830.688 718.773 831.281 716.799 834.506 711.951C831.715 712.946 830.463 714.872 829.035 718.051C829.244 716.43 827.431 714.792 825.763 712.4C827.463 717.072 827.816 720.314 827.367 721.823L829.533 722.16H829.549Z" fill="#A1C265"/>
<path d="M575.257 659.139C575.851 657.084 576.172 655.896 577.984 652.927C576.332 653.585 575.642 654.757 574.856 656.683C574.952 655.72 573.829 654.773 572.771 653.392C573.893 656.137 574.182 658.08 573.942 658.978L575.241 659.123L575.257 659.139Z" fill="#A1C265"/>
<path d="M803.801 664.324C804.394 662.269 804.715 661.081 806.528 658.112C804.875 658.77 804.186 659.942 803.4 661.868C803.496 660.905 802.373 659.958 801.314 658.577C802.437 661.322 802.726 663.264 802.485 664.163L803.785 664.308L803.801 664.324Z" fill="#A1C265"/>
<path d="M661.631 673.377C662.224 671.323 662.545 670.135 664.358 667.165C662.706 667.823 662.016 668.995 661.23 670.921C661.326 669.958 660.203 669.011 659.144 667.631C660.267 670.376 660.556 672.318 660.315 673.217L661.615 673.361L661.631 673.377Z" fill="#A1C265"/>
<path d="M772.581 670.135C773.175 668.08 773.496 666.892 775.309 663.923C773.656 664.581 772.966 665.753 772.18 667.679C772.277 666.716 771.154 665.769 770.095 664.388C771.218 667.133 771.506 669.075 771.266 669.974L772.565 670.119L772.581 670.135Z" fill="#A1C265"/>
<path d="M528.653 656.892C529.247 654.837 529.568 653.649 531.38 650.679C529.728 651.338 529.038 652.509 528.252 654.436C528.348 653.473 527.225 652.525 526.167 651.145C527.289 653.89 527.578 655.832 527.338 656.731L528.637 656.876L528.653 656.892Z" fill="#A1C265"/>
<path d="M630.572 654.468C631.166 652.413 631.486 651.225 633.299 648.255C631.647 648.914 630.957 650.085 630.171 652.012C630.267 651.048 629.144 650.101 628.085 648.721C629.208 651.466 629.497 653.408 629.257 654.307L630.556 654.452L630.572 654.468Z" fill="#A1C265"/>
<path d="M743.993 658.465C744.587 656.41 744.908 655.222 746.721 652.252C745.068 652.911 744.378 654.082 743.592 656.009C743.689 655.046 742.566 654.098 741.507 652.718C742.63 655.463 742.919 657.405 742.678 658.304L743.977 658.449L743.993 658.465Z" fill="#A1C265"/>
<path d="M513.798 675.962C514.391 673.907 514.712 672.719 516.525 669.75C514.873 670.408 514.183 671.579 513.397 673.506C513.493 672.543 512.37 671.595 511.311 670.215C512.434 672.96 512.723 674.902 512.482 675.801L513.782 675.946L513.798 675.962Z" fill="#A1C265"/>
<path d="M577.166 637.789C577.76 635.735 578.081 634.547 579.894 631.577C578.241 632.235 577.551 633.407 576.765 635.333C576.861 634.37 575.739 633.423 574.68 632.043C575.803 634.788 576.091 636.73 575.851 637.629L577.15 637.773L577.166 637.789Z" fill="#A1C265"/>
<path d="M783.972 696.444C784.566 694.39 784.886 693.202 786.699 690.232C785.047 690.89 784.357 692.062 783.571 693.988C783.667 693.025 782.544 692.078 781.485 690.698C782.608 693.443 782.897 695.385 782.656 696.284L783.956 696.428L783.972 696.444Z" fill="#A1C265"/>
<path d="M846.618 699.189C847.212 697.135 847.533 695.947 849.346 692.977C847.693 693.635 847.003 694.807 846.217 696.733C846.314 695.77 845.191 694.823 844.132 693.443C845.255 696.187 845.544 698.13 845.303 699.029L846.602 699.173L846.618 699.189Z" fill="#A1C265"/>
<path d="M602.562 683.025C603.155 680.97 603.476 679.782 605.289 676.812C603.637 677.471 602.947 678.642 602.161 680.569C602.257 679.606 601.134 678.659 600.075 677.278C601.198 680.023 601.487 681.965 601.246 682.864L602.546 683.009L602.562 683.025Z" fill="#A1C265"/>
<path d="M600.941 655.688C601.326 653.071 601.519 651.546 603.251 647.597C601.342 648.689 600.685 650.246 600.043 652.75C599.995 651.546 598.455 650.583 596.931 649.042C598.776 652.237 599.449 654.564 599.321 655.72L600.941 655.688Z" fill="#A1C265"/>
<path d="M643.358 688.418C643.743 685.802 643.935 684.277 645.668 680.312C643.759 681.403 643.101 682.96 642.459 685.465C642.411 684.261 640.871 683.297 639.347 681.756C641.192 684.951 641.866 687.278 641.738 688.434L643.358 688.402V688.418Z" fill="#A1C265"/>
<path d="M748.148 688.418C748.533 685.802 748.726 684.277 750.459 680.312C748.549 681.403 747.892 682.96 747.25 685.465C747.202 684.261 745.662 683.297 744.138 681.756C745.983 684.951 746.656 687.278 746.528 688.434L748.148 688.402V688.418Z" fill="#A1C265"/>
<path d="M546.396 675.127C546.781 672.51 546.974 670.985 548.707 667.037C546.797 668.128 546.14 669.685 545.498 672.189C545.45 670.985 543.91 670.022 542.386 668.481C544.231 671.676 544.904 674.003 544.776 675.159L546.396 675.127Z" fill="#A1C265"/>
<path d="M760.036 665.143C759.972 665.72 759.892 666.298 759.828 666.876C759.828 667.037 759.78 667.197 759.764 667.374C758.785 674.517 757.197 680.408 755.047 681.789C749.577 685.304 718.727 685.706 713.657 680.777C708.588 675.849 705.443 644.917 710.224 637.244C712.326 633.857 718.165 631.818 725.112 630.903C738.972 629.089 757.261 631.786 759.347 637.244C761.127 641.899 761.256 654.484 760.052 665.143H760.036Z" fill="#65B247"/>
<g opacity="0.39">
<path d="M751.534 638.608C755.914 638.207 758.849 648.914 753.587 649.026C748.309 649.155 748.309 638.897 751.534 638.608Z" fill="#8FFF55"/>
<path d="M743.416 652.943C745.566 647.854 755.079 655.912 752.865 658.834C750.652 661.772 741.443 657.598 743.416 652.943Z" fill="#8FFF55"/>
<path d="M749.336 667.326C754.101 666.266 753.572 675.801 749.336 674.79C745.101 673.779 745.374 668.209 749.336 667.326Z" fill="#8FFF55"/>
</g>
<path opacity="0.28" d="M759.764 667.358C758.785 674.501 757.197 680.392 755.047 681.773C749.577 685.288 718.727 685.689 713.657 680.761C708.588 675.833 705.443 644.901 710.224 637.228C712.326 633.841 718.165 631.802 725.112 630.887C725.176 630.951 725.224 630.983 725.224 630.983C725.224 630.983 712.919 630.871 714.812 654.805C716.705 678.739 733.101 680.2 744.218 680.2C754.277 680.2 758.561 674.228 759.764 667.342V667.358Z" fill="#3C6B41"/>
<path d="M732.01 720.394L733.566 675.817L724.197 669.493C724.197 667.326 733.566 670.44 733.566 670.44V661.049L726.154 657.389L726.539 656.153L732.78 657.389L733.566 641.546H735.523L737.08 666.94L745.277 661.274L746.833 662.253L738.251 670.44L742.277 720.073L732.01 720.394Z" fill="#684D27"/>
<path d="M866.8 746.608L844.147 747.443C844.147 747.443 844.18 736.174 844.42 719.496C844.452 715.9 844.533 712.031 844.581 707.97C844.677 702.753 844.773 697.183 844.885 691.42C844.966 687.439 845.062 683.362 845.158 679.237C845.319 672.334 845.511 665.271 845.736 658.288C845.88 654.131 846.024 649.973 846.185 645.88C846.41 640.085 846.666 634.435 846.923 629.009C847.115 625.461 847.292 622.042 847.5 618.736C847.725 615.044 847.966 611.528 848.238 608.253L853.885 606.841C853.885 606.841 854.078 609.538 854.431 614.241C854.511 615.477 854.623 616.841 854.736 618.334C854.96 621.336 855.233 624.851 855.538 628.768C855.939 633.873 856.388 639.652 856.885 645.896C857.206 649.797 857.543 653.858 857.896 658.048C858.345 663.409 858.81 668.995 859.308 674.63C859.661 678.675 860.03 682.752 860.399 686.829C860.431 687.102 860.447 687.359 860.479 687.616C861.056 694.069 861.682 700.522 862.292 706.782C862.709 710.86 863.11 714.857 863.511 718.741C864.618 729.175 865.725 738.759 866.816 746.592L866.8 746.608Z" fill="#684D27"/>
<g opacity="0.38">
<path d="M860.382 686.829L844.885 691.436C844.965 687.455 845.062 683.378 845.158 679.253L859.292 674.63C859.644 678.675 860.013 682.752 860.382 686.829Z" fill="#C2DC95"/>
<path d="M863.495 718.757L844.42 719.512C844.452 715.916 844.532 712.047 844.58 707.986L862.275 706.798C862.692 710.876 863.094 714.873 863.495 718.757Z" fill="#C2DC95"/>
<path d="M855.537 628.768L846.922 629.025C847.115 625.478 847.291 622.058 847.5 618.752L854.719 618.35C854.944 621.352 855.216 624.868 855.521 628.784L855.537 628.768Z" fill="#C2DC95"/>
<path d="M857.88 658.048L845.719 658.304C845.864 654.147 846.008 649.989 846.168 645.896H856.869C857.19 649.797 857.527 653.858 857.88 658.048Z" fill="#C2DC95"/>
</g>
<path opacity="0.38" d="M866.8 746.608L844.147 747.443C844.147 747.443 844.18 736.174 844.42 719.496C844.452 715.9 844.533 712.031 844.581 707.97C844.677 702.753 844.773 697.183 844.885 691.42C844.966 687.439 845.062 683.362 845.158 679.237C845.319 672.334 845.511 665.271 845.736 658.288C845.88 654.131 846.024 649.973 846.185 645.88C846.41 640.085 846.666 634.435 846.923 629.009C847.115 625.461 847.292 622.042 847.5 618.736C847.725 615.044 847.966 611.528 848.238 608.253L853.885 606.841C853.885 606.841 854.078 609.538 854.431 614.241C853.5 614.273 852.586 614.594 851.816 615.445C848.832 618.671 853.949 689.622 853.949 689.622C853.949 689.622 856.548 688.194 860.463 687.632C861.04 694.085 861.666 700.538 862.276 706.798C862.693 710.876 863.094 714.873 863.495 718.757C864.602 729.191 865.709 738.775 866.8 746.608Z" fill="#35210C"/>
<path d="M852.217 608.253C842.222 600.773 826.083 594.593 826.083 594.593C826.549 592.522 827.142 590.371 827.8 588.348C829.661 582.554 831.859 577.626 831.859 577.626C827.688 579.841 824.351 583.228 822.137 585.957C820.116 588.429 819.009 590.355 819.009 590.355C811.035 587.53 789.779 580.932 789.779 580.932C791.046 578.701 793.79 575.218 796.324 572.152C799.148 568.749 801.731 565.875 801.731 565.875C799.132 566.678 796.18 568.187 793.421 569.808C788.143 572.922 783.57 576.438 783.57 576.438C777.811 572.409 765.859 563.05 765.859 563.05C768.875 558.684 778.068 550.947 790.212 547.046C801.634 543.354 815.656 543.097 829.629 552.215C842.992 560.947 848.816 573.661 851.206 584.753C851.206 584.785 851.206 584.817 851.206 584.833C853.95 597.595 852.185 608.221 852.185 608.221L852.217 608.253Z" fill="#65B247"/>
<g opacity="0.4">
<path d="M832.196 563.885C835.854 561.06 844.485 570.948 840.169 574.833C835.854 578.717 828.554 566.71 832.196 563.885Z" fill="#8FFF55"/>
<path d="M810.265 551.011C806.945 554.35 823.886 563.179 826.533 559.294C829.196 555.409 813.586 547.656 810.265 551.011Z" fill="#8FFF55"/>
<path d="M821.897 565.651C826.212 565.651 827.88 575.186 821.897 574.833C815.913 574.479 817.581 565.651 821.897 565.651Z" fill="#8FFF55"/>
</g>
<path opacity="0.28" d="M793.437 569.808C788.159 572.922 783.587 576.438 783.587 576.438C777.827 572.409 765.875 563.05 765.875 563.05C768.892 558.684 778.084 550.947 790.228 547.046C779.191 550.947 783.041 560.947 793.437 569.792V569.808Z" fill="#30562E"/>
<path opacity="0.28" d="M806.335 578.364C811.212 580.884 816.714 583.581 822.137 585.973C820.115 588.445 819.009 590.371 819.009 590.371C811.035 587.546 789.779 580.948 789.779 580.948C791.046 578.717 793.789 575.234 796.324 572.168C799.308 574.399 802.693 576.502 806.319 578.364H806.335Z" fill="#30562E"/>
<path opacity="0.28" d="M852.217 608.253C842.222 600.773 826.083 594.593 826.083 594.593C826.549 592.522 827.142 590.371 827.8 588.349C841.5 593.774 853.196 595.717 851.238 584.865C853.982 597.627 852.217 608.253 852.217 608.253Z" fill="#30562E"/>
<path d="M902.687 568.412C899.446 566.212 895.436 563.789 892.516 563.082C892.516 563.082 895.949 565.683 899.511 569.921C900.746 571.381 901.997 573.035 903.136 574.849C903.136 574.849 882.778 585.202 876.57 589.44C876.57 589.44 873.409 586.503 869.543 583.838C866.639 581.831 863.383 579.953 860.703 579.552C860.703 579.552 863.318 582.377 866.014 585.668C867.714 587.723 869.447 589.97 870.57 591.8C870.57 591.8 858.217 598.301 851.222 609.168C851.222 609.168 837.137 582.859 855.522 560.273C869.639 542.921 897.473 543.611 914.639 551.476C914.639 551.476 914.703 551.509 914.815 551.557C919.933 553.916 924.072 556.918 926.607 560.273C926.607 560.273 915.986 568.267 908.238 572.505C908.238 572.505 905.831 570.579 902.687 568.444V568.412Z" fill="#65B247"/>
<g opacity="0.4">
<path d="M905.254 552.648C906.906 556.116 890.976 558.941 889.644 553.643C888.313 548.346 903.585 549.165 905.254 552.648Z" fill="#8FFF55"/>
<path d="M878.527 551.059C882.762 550.289 886.853 560.723 880.933 561.782C875.013 562.842 871.404 552.343 878.527 551.059Z" fill="#8FFF55"/>
</g>
<path opacity="0.28" d="M866.014 585.636C867.714 587.69 869.447 589.938 870.57 591.768C870.57 591.768 858.217 598.269 851.222 609.136C851.222 609.136 837.137 582.827 855.522 560.241C846.458 573.773 851.623 593.999 863.479 587.048C864.265 586.599 865.115 586.117 865.998 585.636H866.014Z" fill="#30562E"/>
<path opacity="0.28" d="M899.511 569.905C900.746 571.365 901.997 573.019 903.136 574.833C903.136 574.833 882.778 585.186 876.57 589.424C876.57 589.424 873.409 586.487 869.543 583.822C878.094 579.504 889.725 574.479 899.511 569.921V569.905Z" fill="#30562E"/>
<path opacity="0.28" d="M926.607 560.241C926.607 560.241 915.986 568.235 908.238 572.473C908.238 572.473 905.831 570.546 902.687 568.411C906.634 566.533 910.147 564.752 912.89 563.195C923.591 557.014 916.067 552.263 914.815 551.541C919.933 553.9 924.072 556.902 926.607 560.257V560.241Z" fill="#30562E"/>
<path d="M852.634 611.063C845.511 614.353 828.314 618.318 828.314 618.318C827.479 615.942 826.469 613.422 825.522 611.175C823.95 607.403 822.554 604.465 822.554 604.465C822.201 607.098 822.057 610.115 822.025 612.78C821.945 616.777 822.105 619.988 822.105 619.988C815.463 622.347 796.87 627.516 796.87 627.516C796.742 624.884 796.645 622.267 796.581 619.859C796.437 614.096 796.437 609.634 796.437 609.634C794.784 612.588 793.18 616.681 791.897 620.453C790.116 625.702 788.913 630.341 788.913 630.341C777.843 633.648 760.02 640.23 760.02 640.23C760.02 640.23 760.02 621.545 771.571 606.183C776.833 599.216 784.453 592.924 795.554 589.392C808.918 585.138 820.308 587.145 829.308 591.318C829.308 591.318 829.308 591.318 829.34 591.318C844.276 598.221 852.65 611.047 852.65 611.047L852.634 611.063Z" fill="#65B247"/>
<g opacity="0.33">
<path d="M808.276 592.875C806.239 596.728 815.351 599.537 818.784 595.652C822.217 591.768 809.928 589.745 808.276 592.875Z" fill="#8FFF55"/>
<path d="M827.495 598.269C830.672 595.379 840.602 600.805 836.062 604.754C831.522 608.719 823.469 601.929 827.495 598.269Z" fill="#8FFF55"/>
<path d="M810.939 603.181C815.527 602.009 816.249 614.353 810.939 613.647C805.629 612.941 804.955 604.722 810.939 603.181Z" fill="#8FFF55"/>
</g>
<path opacity="0.28" d="M791.881 620.469C790.1 625.718 788.897 630.357 788.897 630.357C777.827 633.664 760.004 640.246 760.004 640.246C760.004 640.246 760.004 621.561 771.555 606.199C764.4 616.697 773.993 622.203 791.881 620.469Z" fill="#30562E"/>
<path opacity="0.28" d="M822.105 620.004C815.463 622.363 796.87 627.532 796.87 627.532C796.741 624.9 796.645 622.283 796.581 619.875C798.217 619.618 799.902 619.329 801.634 618.96C808.822 617.483 816.025 615.332 822.025 612.796C821.944 616.793 822.105 620.004 822.105 620.004Z" fill="#30562E"/>
<path opacity="0.28" d="M852.634 611.063C845.511 614.353 828.313 618.318 828.313 618.318C827.479 615.942 826.468 613.422 825.522 611.175C837.137 605.428 842.287 598.06 829.324 591.334C844.26 598.237 852.634 611.063 852.634 611.063Z" fill="#30562E"/>
<path d="M907.002 633.728C907.516 630.518 908.125 626.168 908.238 622.363C908.238 622.363 905.478 626.986 902.093 631.738C901.291 632.862 900.457 634.001 899.607 635.077C899.607 635.077 888.088 628.945 879.233 624.707C879.233 624.707 880.66 621.673 881.896 617.917C882.842 615.06 883.66 611.817 883.66 609.184C883.66 609.184 881.254 611.512 878.398 614.08C875.912 616.296 873.104 618.687 871.26 619.859C871.26 619.859 861.313 616.167 851.222 609.136C851.222 609.136 860.302 593.855 882.313 592.907C886.484 592.731 891.104 593.084 896.238 594.127C915.81 598.141 924.136 616.825 927.633 630.823C927.633 630.951 927.681 631.096 927.73 631.24C927.73 631.24 927.73 631.272 927.73 631.288C927.826 631.626 927.906 631.979 927.97 632.316C929.895 640.567 930.136 646.843 930.136 646.843C930.136 646.843 913.628 641.193 906.152 638.368C906.152 638.368 906.537 636.473 906.97 633.744L907.002 633.728Z" fill="#65B247"/>
<g opacity="0.29">
<path d="M911.735 610.035C915.393 608.863 922.853 621.978 917.206 625.574C911.559 629.17 907.596 611.368 911.735 610.035Z" fill="#8FFF55"/>
<path d="M898.805 614.337C902.254 613.663 903.714 625.51 899.495 625.59C895.292 625.67 895.356 615.028 898.805 614.337Z" fill="#8FFF55"/>
<path d="M901.211 601.303C903.136 598.381 908.11 605.476 906.185 608.157C904.259 610.838 898.243 605.813 901.211 601.303Z" fill="#8FFF55"/>
</g>
<path opacity="0.28" d="M878.398 614.08C875.912 616.295 873.104 618.687 871.26 619.859C871.26 619.859 861.313 616.167 851.222 609.136C851.222 609.136 860.302 593.854 882.313 592.907C868.035 594.159 870.217 604.208 878.398 614.064V614.08Z" fill="#30562E"/>
<path opacity="0.28" d="M888.65 623.905C892.532 626.922 897.265 629.603 902.078 631.738C901.275 632.862 900.441 634.001 899.591 635.077C899.591 635.077 888.072 628.945 879.217 624.707C879.217 624.707 880.645 621.673 881.88 617.917C883.949 620.004 886.243 622.042 888.634 623.905H888.65Z" fill="#30562E"/>
<path opacity="0.28" d="M930.152 646.827C930.152 646.827 913.644 641.177 906.168 638.352C906.168 638.352 906.553 636.457 906.987 633.728C918.425 637.854 928.885 638.4 927.97 632.3C929.896 640.551 930.136 646.827 930.136 646.827H930.152Z" fill="#30562E"/>
<path d="M161.87 857.305L139.218 858.139C139.218 858.139 139.25 846.871 139.49 830.192C139.523 826.597 139.603 822.728 139.651 818.667C139.747 813.45 139.843 807.88 139.956 802.117C140.036 798.136 140.132 794.059 140.228 789.933C140.389 783.031 140.581 775.968 140.806 768.985C140.95 764.827 141.095 760.67 141.255 756.577C141.48 750.782 141.736 745.131 141.993 739.706C142.186 736.158 142.362 732.739 142.571 729.432C142.795 725.74 143.036 722.225 143.309 718.95L148.956 717.537C148.956 717.537 149.148 720.234 149.501 724.937C149.581 726.173 149.694 727.538 149.806 729.031C150.031 732.033 150.303 735.548 150.608 739.465C151.009 744.569 151.458 750.348 151.956 756.593C152.276 760.493 152.613 764.554 152.966 768.744C153.416 774.106 153.881 779.692 154.378 785.326C154.731 789.371 155.1 793.449 155.469 797.526C155.501 797.799 155.517 798.056 155.549 798.312C156.127 804.765 156.736 811.219 157.362 817.479C157.779 821.556 158.18 825.553 158.581 829.438C159.688 839.872 160.795 849.455 161.886 857.289L161.87 857.305Z" fill="#684D27"/>
<g opacity="0.38">
<path d="M155.453 797.542L139.956 802.149C140.036 798.168 140.133 794.091 140.229 789.965L154.362 785.342C154.715 789.387 155.084 793.465 155.453 797.542Z" fill="#C2DC95"/>
<path d="M158.565 829.454L139.491 830.208C139.523 826.613 139.603 822.744 139.651 818.683L157.346 817.495C157.763 821.572 158.148 825.569 158.565 829.454Z" fill="#C2DC95"/>
<path d="M150.608 739.465L141.993 739.722C142.186 736.174 142.362 732.755 142.571 729.448L149.79 729.047C150.014 732.049 150.287 735.564 150.592 739.481L150.608 739.465Z" fill="#C2DC95"/>
<path d="M152.966 768.744L140.806 769.001C140.951 764.843 141.095 760.686 141.255 756.593H151.956C152.277 760.493 152.614 764.554 152.966 768.744Z" fill="#C2DC95"/>
</g>
<path opacity="0.38" d="M161.87 857.305L139.218 858.139C139.218 858.139 139.25 846.871 139.49 830.192C139.523 826.597 139.603 822.728 139.651 818.667C139.747 813.45 139.843 807.88 139.956 802.117C140.036 798.136 140.132 794.059 140.228 789.933C140.389 783.031 140.581 775.968 140.806 768.985C140.95 764.827 141.095 760.67 141.255 756.577C141.48 750.782 141.736 745.131 141.993 739.706C142.186 736.158 142.362 732.739 142.571 729.432C142.795 725.74 143.036 722.225 143.309 718.95L148.956 717.537C148.956 717.537 149.148 720.234 149.501 724.937C148.571 724.97 147.656 725.291 146.886 726.141C143.902 729.368 149.02 800.319 149.02 800.319C149.02 800.319 151.619 798.89 155.533 798.328C156.111 804.782 156.72 811.235 157.346 817.495C157.763 821.572 158.164 825.569 158.565 829.454C159.672 839.888 160.779 849.471 161.87 857.305Z" fill="#35210C"/>
<path d="M147.303 718.95C137.309 711.47 121.17 705.289 121.17 705.289C121.635 703.219 122.229 701.068 122.886 699.045C124.747 693.25 126.945 688.322 126.945 688.322C122.774 690.537 119.437 693.924 117.223 696.653C115.202 699.125 114.095 701.052 114.095 701.052C106.122 698.226 84.8654 691.629 84.8654 691.629C86.1327 689.398 88.876 685.914 91.4108 682.848C94.2343 679.445 96.8171 676.572 96.8171 676.572C94.2182 677.374 91.2664 678.883 88.5071 680.505C83.229 683.619 78.6569 687.134 78.6569 687.134C72.8976 683.105 60.9458 673.747 60.9458 673.747C63.9618 669.38 73.1542 661.643 85.2985 657.742C96.7209 654.05 110.742 653.794 124.715 662.911C138.079 671.644 143.902 684.357 146.293 695.449C146.293 695.481 146.293 695.514 146.293 695.53C149.036 708.291 147.271 718.918 147.271 718.918L147.303 718.95Z" fill="#65B247"/>
<g opacity="0.4">
<path d="M127.266 674.597C130.924 671.772 139.555 681.66 135.239 685.545C130.924 689.43 123.624 677.422 127.266 674.597Z" fill="#8FFF55"/>
<path d="M105.352 661.723C102.031 665.062 118.972 673.891 121.619 670.006C124.282 666.122 108.673 658.368 105.352 661.723Z" fill="#8FFF55"/>
<path d="M116.967 676.363C121.282 676.363 122.951 685.898 116.967 685.545C110.983 685.192 112.651 676.363 116.967 676.363Z" fill="#8FFF55"/>
</g>
<path opacity="0.28" d="M88.5071 680.521C83.229 683.635 78.6569 687.15 78.6569 687.15C72.8976 683.121 60.9458 673.763 60.9458 673.763C63.9618 669.396 73.1542 661.659 85.2985 657.759C74.2612 661.659 78.1114 671.66 88.5071 680.505V680.521Z" fill="#30562E"/>
<path opacity="0.28" d="M101.405 689.06C106.282 691.581 111.785 694.277 117.207 696.669C115.186 699.141 114.079 701.068 114.079 701.068C106.106 698.242 84.8491 691.645 84.8491 691.645C86.1165 689.414 88.8598 685.93 91.3945 682.864C94.3785 685.096 97.7635 687.198 101.389 689.06H101.405Z" fill="#30562E"/>
<path opacity="0.28" d="M147.303 718.95C137.309 711.47 121.17 705.289 121.17 705.289C121.635 703.219 122.229 701.068 122.886 699.045C136.587 704.471 148.282 706.413 146.325 695.562C149.068 708.323 147.303 718.95 147.303 718.95Z" fill="#30562E"/>
<path d="M197.757 679.108C194.517 676.909 190.506 674.485 187.586 673.779C187.586 673.779 191.019 676.379 194.581 680.617C195.816 682.078 197.068 683.731 198.207 685.545C198.207 685.545 177.848 695.899 171.64 700.137C171.64 700.137 168.48 697.199 164.613 694.534C161.71 692.528 158.453 690.65 155.774 690.248C155.774 690.248 158.389 693.074 161.084 696.364C162.784 698.419 164.517 700.666 165.64 702.496C165.64 702.496 153.287 708.998 146.293 719.865C146.293 719.865 132.207 693.555 150.592 670.97C164.71 653.617 192.544 654.307 209.709 662.173C209.709 662.173 209.773 662.205 209.886 662.253C215.003 664.613 219.142 667.615 221.677 670.97C221.677 670.97 211.057 678.964 203.308 683.201C203.308 683.201 200.902 681.275 197.757 679.14V679.108Z" fill="#65B247"/>
<g opacity="0.4">
<path d="M200.324 663.345C201.976 666.812 186.046 669.637 184.714 664.34C183.383 659.043 198.656 659.861 200.324 663.345Z" fill="#8FFF55"/>
<path d="M173.613 661.756C177.848 660.985 181.939 671.419 176.019 672.479C170.1 673.538 166.49 663.04 173.613 661.756Z" fill="#8FFF55"/>
</g>
<path opacity="0.28" d="M161.084 696.348C162.784 698.403 164.517 700.65 165.64 702.48C165.64 702.48 153.287 708.981 146.293 719.849C146.293 719.849 132.207 693.539 150.592 670.954C141.528 684.486 146.694 704.712 158.549 697.761C159.335 697.311 160.186 696.83 161.068 696.348H161.084Z" fill="#30562E"/>
<path opacity="0.28" d="M194.581 680.601C195.816 682.062 197.068 683.715 198.207 685.529C198.207 685.529 177.848 695.883 171.64 700.121C171.64 700.121 168.48 697.183 164.613 694.518C173.164 690.2 184.795 685.176 194.581 680.617V680.601Z" fill="#30562E"/>
<path opacity="0.28" d="M221.677 670.954C221.677 670.954 211.057 678.948 203.308 683.185C203.308 683.185 200.902 681.259 197.757 679.124C201.704 677.246 205.217 675.464 207.96 673.907C218.661 667.727 211.137 662.976 209.886 662.253C215.003 664.613 219.142 667.615 221.677 670.97V670.954Z" fill="#30562E"/>
<path d="M147.705 721.775C140.582 725.066 123.384 729.031 123.384 729.031C122.55 726.655 121.539 724.135 120.592 721.887C119.02 718.115 117.625 715.178 117.625 715.178C117.272 717.81 117.127 720.828 117.095 723.493C117.015 727.49 117.175 730.7 117.175 730.7C110.534 733.06 91.9403 738.229 91.9403 738.229C91.8119 735.596 91.7157 732.979 91.6515 730.572C91.5071 724.809 91.5071 720.346 91.5071 720.346C89.8387 723.3 88.2505 727.393 86.9671 731.166C85.1863 736.415 83.9831 741.054 83.9831 741.054C72.9137 744.361 55.0903 750.942 55.0903 750.942C55.0903 750.942 55.0903 732.257 66.641 716.895C71.903 709.928 79.5233 703.636 90.6248 700.104C103.988 695.851 115.379 697.857 124.379 702.031C124.379 702.031 124.379 702.031 124.411 702.031C139.346 708.933 147.721 721.759 147.721 721.759L147.705 721.775Z" fill="#65B247"/>
<g opacity="0.33">
<path d="M103.362 703.572C101.325 707.424 110.437 710.233 113.87 706.349C117.304 702.464 105.015 700.442 103.362 703.572Z" fill="#8FFF55"/>
<path d="M122.566 708.965C125.742 706.076 135.672 711.502 131.132 715.45C126.592 719.415 118.539 712.625 122.566 708.965Z" fill="#8FFF55"/>
<path d="M106.01 713.893C110.598 712.722 111.32 725.066 106.01 724.36C100.699 723.653 100.026 715.434 106.01 713.893Z" fill="#8FFF55"/>
</g>
<path opacity="0.28" d="M86.9671 731.182C85.1863 736.431 83.9831 741.07 83.9831 741.07C72.9137 744.377 55.0903 750.958 55.0903 750.958C55.0903 750.958 55.0903 732.273 66.641 716.911C59.486 727.409 69.0795 732.915 86.9671 731.182Z" fill="#30562E"/>
<path opacity="0.28" d="M117.175 730.716C110.534 733.076 91.9401 738.245 91.9401 738.245C91.8118 735.612 91.7155 732.995 91.6514 730.588C93.2877 730.331 94.9722 730.042 96.7048 729.673C103.892 728.196 111.095 726.045 117.095 723.509C117.015 727.506 117.175 730.716 117.175 730.716Z" fill="#30562E"/>
<path opacity="0.28" d="M147.704 721.775C140.581 725.066 123.384 729.031 123.384 729.031C122.549 726.655 121.539 724.135 120.592 721.887C132.207 716.141 137.357 708.773 124.394 702.047C139.33 708.949 147.704 721.775 147.704 721.775Z" fill="#30562E"/>
<path d="M202.073 744.441C202.587 741.23 203.196 736.88 203.309 733.076C203.309 733.076 200.549 737.699 197.164 742.45C196.362 743.574 195.528 744.714 194.678 745.789C194.678 745.789 183.159 739.657 174.303 735.419C174.303 735.419 175.731 732.386 176.966 728.629C177.913 725.772 178.731 722.529 178.731 719.897C178.731 719.897 176.325 722.224 173.469 724.793C170.983 727.008 168.175 729.4 166.33 730.572C166.33 730.572 156.384 726.88 146.293 719.849C146.293 719.849 155.373 704.567 177.384 703.62C181.555 703.443 186.175 703.796 191.309 704.84C210.881 708.853 219.207 727.538 222.704 741.535C222.704 741.664 222.752 741.808 222.8 741.953C222.8 741.953 222.8 741.985 222.8 742.001C222.897 742.338 222.977 742.691 223.041 743.028C224.966 751.279 225.207 757.556 225.207 757.556C225.207 757.556 208.699 751.905 201.223 749.08C201.223 749.08 201.608 747.186 202.041 744.457L202.073 744.441Z" fill="#65B247"/>
<g opacity="0.29">
<path d="M206.806 720.748C210.463 719.576 217.923 732.691 212.276 736.286C206.629 739.882 202.667 722.08 206.806 720.748Z" fill="#8FFF55"/>
<path d="M193.875 725.034C197.324 724.359 198.784 736.206 194.565 736.286C190.362 736.366 190.426 725.724 193.875 725.034Z" fill="#8FFF55"/>
<path d="M196.282 711.999C198.207 709.078 203.18 716.173 201.255 718.853C199.33 721.534 193.314 716.51 196.282 711.999Z" fill="#8FFF55"/>
</g>
<path opacity="0.28" d="M173.485 724.777C170.999 726.992 168.191 729.384 166.346 730.556C166.346 730.556 156.4 726.864 146.309 719.833C146.309 719.833 155.389 704.551 177.4 703.604C163.122 704.856 165.304 714.905 173.485 724.761V724.777Z" fill="#30562E"/>
<path opacity="0.28" d="M183.736 734.601C187.619 737.619 192.351 740.299 197.164 742.434C196.362 743.558 195.528 744.698 194.677 745.773C194.677 745.773 183.159 739.641 174.303 735.403C174.303 735.403 175.731 732.37 176.966 728.613C179.036 730.7 181.33 732.739 183.72 734.601H183.736Z" fill="#30562E"/>
<path opacity="0.28" d="M225.223 757.54C225.223 757.54 208.715 751.889 201.239 749.064C201.239 749.064 201.624 747.17 202.057 744.441C213.496 748.566 223.956 749.112 223.041 743.012C224.966 751.263 225.207 757.54 225.207 757.54H225.223Z" fill="#30562E"/>
<path d="M64.2507 862.794C64.2507 862.794 250.859 694.358 658.855 708.163C1066.87 721.968 1218.68 892.86 1218.68 892.86L18.3848 904.466L64.2507 862.794Z" fill="#569445"/>
<path opacity="0.21" d="M760.598 747.812C688.903 768.551 647.786 717.216 618.524 727.409C589.262 737.603 655.855 747.812 596.128 773.479C536.386 799.147 487.199 758.711 455.563 754.49C423.927 750.268 397.569 776.289 373.681 754.49C362.195 744.023 365.483 736.142 371.997 730.78C422.435 720.314 479.354 712.497 542.899 709.142L714.539 711.1H714.571C735.683 712.625 756.042 714.584 775.662 716.911C792.009 723.155 807.009 734.376 760.598 747.796V747.812Z" fill="#8FFF55"/>
<path d="M202.715 922.91C202.715 922.91 136.298 874.384 197.437 834.301C258.591 794.219 291.27 863.838 374.547 852.232C457.841 840.626 479.98 791.041 588.572 880.709C697.165 970.377 202.715 922.91 202.715 922.91Z" fill="#6FB557"/>
<path d="M861.281 910.261C861.281 910.261 759.876 869.905 820.469 836.677C881.062 803.449 915.842 848.54 968.831 840.626C1021.8 832.712 1039.21 825.601 1077.95 854.864C1116.7 884.144 1118.28 904.45 1118.28 904.45L861.297 910.245L861.281 910.261Z" fill="#75A15E"/>
<path d="M698.256 775.229C710.448 778.391 729.908 779.146 731.32 775.229C732.747 771.312 735.587 749.963 721.357 746.768C707.127 743.574 707.127 760.284 704.288 760.638C701.448 760.991 692.192 756.015 693.619 764.201C695.047 772.388 695.063 774.41 698.24 775.229H698.256Z" fill="#517186"/>
<path opacity="0.2" d="M731.32 775.229C729.892 779.146 710.448 778.391 698.256 775.229C695.705 774.571 695.175 773.11 694.325 768.278C699.218 766.93 708.314 769.98 719.32 772.388C733.084 775.406 725.512 754.393 722.512 747.089C735.426 751.151 732.715 771.441 731.336 775.245L731.32 775.229Z" fill="#293843"/>
<path d="M694.63 774.475C686.272 777.139 674.448 775.101 671.866 772.067C669.283 769.049 677.817 757.218 685.646 758.631C693.475 760.044 694.63 774.459 694.63 774.459V774.475Z" fill="#517186"/>
<path opacity="0.2" d="M694.63 774.475C686.272 777.139 674.448 775.085 671.865 772.067C671.304 771.409 671.272 770.349 671.641 769.113C674.063 771.393 678.94 774.715 686.031 773.704C693.924 772.58 690.042 763.736 687.555 759.321C693.667 762.516 694.614 774.491 694.614 774.491L694.63 774.475Z" fill="#293843"/>
<path d="M493.103 791.105C481.006 794.973 463.889 792.004 460.151 787.621C456.413 783.239 468.782 766.111 480.108 768.166C491.434 770.221 493.103 791.089 493.103 791.089V791.105Z" fill="#517186"/>
<path opacity="0.2" d="M493.102 791.105C480.99 794.957 463.889 792.003 460.151 787.621C459.349 786.674 459.301 785.133 459.83 783.335C463.343 786.642 470.386 791.458 480.669 789.981C492.108 788.36 486.461 775.55 482.883 769.145C491.723 773.768 493.118 791.121 493.118 791.121L493.102 791.105Z" fill="#293843"/>
<path d="M467.514 789.371C460.889 793.256 450.381 793.769 447.605 791.666C444.83 789.564 449.851 777.829 456.814 777.557C463.776 777.284 467.514 789.371 467.514 789.371Z" fill="#517186"/>
<path opacity="0.2" d="M467.514 789.387C460.873 793.256 450.381 793.769 447.605 791.683C447.012 791.233 446.771 790.334 446.851 789.194C449.37 790.671 454.151 792.598 460.038 790.366C466.568 787.894 461.562 781.072 458.595 777.781C464.418 779.338 467.53 789.403 467.53 789.403L467.514 789.387Z" fill="#293843"/>
<path d="M501.3 792.132C496.471 794.219 489.284 793.705 487.568 792.052C485.851 790.398 490.247 782.822 494.996 783.207C499.76 783.592 501.3 792.132 501.3 792.132Z" fill="#517186"/>
<path opacity="0.2" d="M501.3 792.132C496.455 794.219 489.284 793.705 487.568 792.052C487.199 791.699 487.119 791.056 487.263 790.302C488.851 791.522 491.947 793.224 496.135 792.18C500.787 791.04 497.931 785.984 496.199 783.496C500.033 785.037 501.316 792.148 501.316 792.148L501.3 792.132Z" fill="#293843"/>
<path d="M879.361 758.519C879.361 758.519 905.671 776.337 917.046 767.107C928.42 757.877 923.094 734.761 904.949 730.491C886.805 726.221 875.784 751.311 879.345 758.519H879.361Z" fill="#517186"/>
<path opacity="0.2" d="M917.062 767.107C912.666 770.67 906.024 770.189 899.559 768.262C926.816 766.127 913.933 738.822 910.645 732.626C924.104 739.834 927.152 758.936 917.062 767.107Z" fill="#293843"/>
<path d="M887.591 761.408C879.233 764.073 867.409 762.034 864.827 759C862.244 755.982 870.778 744.152 878.607 745.564C886.436 746.977 887.591 761.392 887.591 761.392V761.408Z" fill="#517186"/>
<path opacity="0.2" d="M887.591 761.408C879.233 764.073 867.409 762.018 864.826 759C864.265 758.342 864.233 757.283 864.602 756.046C867.04 758.326 871.901 761.649 878.992 760.637C886.885 759.514 883.003 750.669 880.516 746.255C886.628 749.449 887.575 761.424 887.575 761.424L887.591 761.408Z" fill="#293843"/>
<path d="M221.34 901.464C221.34 901.464 294.366 937.453 320.035 910.068C345.703 882.683 324.061 825.842 276.527 821.347C228.993 816.853 209.79 884.401 221.34 901.448V901.464Z" fill="#517186"/>
<path opacity="0.2" d="M320.051 910.052C310.136 920.647 293.131 921.754 276.014 919.122C344.452 904.161 302.195 839.358 291.671 824.766C328.377 838.347 342.799 885.781 320.035 910.036L320.051 910.052Z" fill="#293843"/>
<path d="M243.222 905.879C222.944 915.574 192.207 914.531 184.602 907.757C176.998 900.983 194.533 867.963 214.875 868.83C235.233 869.697 243.206 905.879 243.206 905.879H243.222Z" fill="#517186"/>
<path opacity="0.2" d="M243.222 905.895C222.928 915.574 192.223 914.531 184.603 907.757C182.966 906.28 182.501 903.615 182.998 900.325C189.961 905.269 203.469 912.011 221.148 906.922C240.8 901.304 227.821 880.211 219.977 869.857C236.597 875.813 243.222 905.895 243.222 905.895Z" fill="#293843"/>
<path d="M343.44 741.423C343.376 742.001 343.296 742.579 343.232 743.157C343.232 743.317 343.184 743.478 343.168 743.654C342.189 750.798 340.601 756.689 338.451 758.069C332.98 761.585 302.13 761.986 297.061 757.058C291.991 752.13 288.847 721.197 293.628 713.524C295.729 710.137 301.569 708.099 308.515 707.184C322.376 705.37 340.665 708.066 342.75 713.524C344.531 718.179 344.659 730.764 343.456 741.423H343.44Z" fill="#65B247"/>
<g opacity="0.39">
<path d="M334.938 714.905C339.318 714.503 342.254 725.21 336.992 725.323C331.714 725.451 331.714 715.194 334.938 714.905Z" fill="#8FFF55"/>
<path d="M326.821 729.239C328.97 724.151 338.484 732.209 336.27 735.13C334.056 738.052 324.847 733.894 326.821 729.239Z" fill="#8FFF55"/>
<path d="M332.724 743.622C337.489 742.563 336.96 752.098 332.724 751.086C328.489 750.075 328.762 744.505 332.724 743.622Z" fill="#8FFF55"/>
</g>
<path opacity="0.28" d="M343.152 743.654C342.173 750.798 340.585 756.689 338.435 758.069C332.965 761.585 302.115 761.986 297.045 757.058C291.976 752.13 288.832 721.197 293.612 713.524C295.714 710.137 301.553 708.099 308.5 707.184C308.564 707.248 308.612 707.28 308.612 707.28C308.612 707.28 296.307 707.168 298.2 731.102C300.093 755.036 316.489 756.496 327.607 756.496C337.665 756.496 341.949 750.525 343.152 743.638V743.654Z" fill="#3C6B41"/>
<path d="M315.414 796.675L316.97 752.098L307.602 745.773C307.602 743.606 316.97 746.72 316.97 746.72V737.33L309.559 733.67L309.944 732.434L316.184 733.67L316.97 717.826H318.928L320.484 743.221L328.682 737.554L330.238 738.534L321.655 746.72L325.682 796.354L315.414 796.675Z" fill="#684D27"/>
<path d="M509.37 753.061C509.37 752.178 512.578 729.801 512.578 715.723C512.578 715.723 505.231 716.574 504.076 714.07C502.937 711.566 501.766 701.934 501.766 701.934H504.076C504.076 701.934 504.91 705.113 505.776 707.809C506.274 709.367 506.787 710.747 507.156 711.277C507.926 712.368 510.509 712.336 511.808 712.24C512.258 712.208 512.562 712.176 512.562 712.176C512.562 712.176 512.851 683.827 512.562 673.024H515.482C515.482 673.024 515.931 678.707 516.284 685.754C516.413 688.547 516.541 691.549 516.605 694.502C516.637 696.043 516.653 697.568 516.653 699.029C516.653 701.1 516.749 703.909 516.91 707.183C517.391 716.799 518.418 730.363 519.22 740.572C519.637 745.982 519.99 750.444 520.151 752.9L509.354 753.077L509.37 753.061Z" fill="#9F5347"/>
<path opacity="0.38" d="M509.37 753.061C509.37 752.178 512.578 729.801 512.578 715.723C512.578 715.723 505.231 716.574 504.076 714.07C502.937 711.566 501.766 701.934 501.766 701.934H504.076C504.076 701.934 504.91 705.113 505.776 707.809C505.423 707.922 505.054 708.034 504.685 708.147C504.685 708.147 503.835 715.178 511.824 714.15V712.24C512.274 712.208 512.578 712.176 512.578 712.176C512.578 712.176 512.867 683.827 512.578 673.024H515.498C515.498 673.024 515.947 678.707 516.3 685.754C515.707 685.802 515.049 685.802 514.455 685.657V694.069C514.455 694.069 515.402 694.021 516.621 694.502C516.653 696.043 516.669 697.568 516.669 699.029C516.669 701.1 516.766 703.909 516.926 707.183C516.012 707.376 515.097 707.376 514.327 707.216L513.99 744.601C513.99 744.601 516.124 742.194 519.252 740.572C519.669 745.982 520.022 750.444 520.183 752.9L509.386 753.077L509.37 753.061Z" fill="#33170B"/>
<path d="M516.846 705.305C513.654 707.216 509.226 704.455 509.226 704.455C509.226 704.455 507.333 706.911 503.386 706.606C499.44 706.317 497.836 703.395 497.836 703.395C494.627 706.75 488.354 706.75 487.328 701.196C486.317 695.642 493.905 696.075 493.905 696.075C493.905 696.075 491.579 691.404 495.365 689.494C496.44 688.948 497.483 688.916 498.397 689.125C500.723 689.67 502.36 691.837 502.36 691.837C502.36 691.837 504.397 689.349 508.055 690.377C511.712 691.404 511.263 696.958 511.263 696.958C511.263 696.958 513.301 694.631 516.637 695.642C518.033 696.075 518.851 697.488 519.092 699.141C519.445 701.437 518.691 704.198 516.83 705.289L516.846 705.305Z" fill="#A2CC3A"/>
<g opacity="0.36">
<path d="M491.563 699.013C493.023 698.13 494.627 700.473 493.167 701.934C491.707 703.395 490.103 699.896 491.563 699.013Z" fill="#518F2C"/>
<path d="M498.285 692.287C500.338 692.078 501.638 696.525 499.6 697.408C497.563 698.274 495.509 692.576 498.285 692.287Z" fill="#518F2C"/>
<path d="M506.017 693.459C504.702 695.208 506.595 698.274 508.648 696.38C510.702 694.486 507.333 691.709 506.017 693.459Z" fill="#518F2C"/>
<path d="M503.21 700.554C505.424 699.591 506.547 702.978 504.525 703.556C502.504 704.134 500.98 701.517 503.21 700.554Z" fill="#518F2C"/>
<path d="M513.605 698.82C515.129 699.318 514.359 702.223 512.659 701.934C510.974 701.645 512.146 698.339 513.605 698.82Z" fill="#518F2C"/>
</g>
<path opacity="0.14" d="M516.846 705.305C513.654 707.216 509.226 704.455 509.226 704.455C509.226 704.455 507.333 706.911 503.386 706.606C499.44 706.317 497.836 703.395 497.836 703.395C494.627 706.75 488.354 706.75 487.328 701.196C486.317 695.642 493.905 696.075 493.905 696.075C493.905 696.075 491.579 691.404 495.365 689.494C496.44 688.948 497.483 688.916 498.397 689.125C496.745 690.28 495.654 691.87 495.654 694.117C496.103 697.038 499.777 698.949 502.44 697.648C501.349 698.21 501.188 699.88 501.942 700.843C502.696 701.806 504.076 702.127 505.279 701.902C506.482 701.678 507.557 701.003 508.568 700.313C509.402 702.352 511.552 703.764 513.75 703.716C515.948 703.684 518.049 702.223 518.835 700.169C518.964 699.832 519.06 699.494 519.14 699.141C519.493 701.437 518.739 704.198 516.878 705.289L516.846 705.305Z" fill="#3B6818"/>
<path d="M539.691 676.138C539.386 676.78 538.985 677.439 538.439 678.113C533.322 684.405 524.129 680.761 524.129 680.761C524.129 680.761 520.776 684.823 514.793 684.389C508.793 683.956 507.445 678.723 507.445 678.723C507.445 678.723 503.98 685.417 496.392 684.421C488.803 683.426 488.065 677.647 488.065 677.647C488.065 677.647 473.611 679.846 473.9 665.817C474.189 651.787 489.076 655.094 489.076 655.094C489.076 655.094 486.59 640.117 501.782 636.762C503.097 636.473 504.333 636.329 505.488 636.313C517.68 636.104 521.21 649.764 521.21 649.764C521.21 649.764 529.536 643.472 536.835 649.764C544.134 656.057 537.14 666.266 537.14 666.266C537.14 666.266 542.257 670.697 539.723 676.122L539.691 676.138Z" fill="#A2CC3A"/>
<g opacity="0.36">
<path d="M482.21 661.322C485.13 660.889 486.157 666.443 482.643 667.904C479.146 669.364 479.29 661.772 482.21 661.322Z" fill="#518F2C"/>
<path d="M502.809 643.44C507.188 642.83 509.482 649.187 504.092 650.069C498.718 650.952 499.007 643.986 502.809 643.44Z" fill="#518F2C"/>
<path d="M493.745 659.909C498.83 657.181 503.803 667.887 498.782 670.376C493.761 672.864 490.392 661.707 493.745 659.909Z" fill="#518F2C"/>
<path d="M495.654 676.219C494.403 678.964 497.932 682.254 500.001 678.723C502.071 675.191 497.114 672.992 495.654 676.219Z" fill="#518F2C"/>
<path d="M509.29 657.951C513.75 656.169 514.055 663.377 510.974 664.677C507.91 665.977 506.707 658.979 509.29 657.951Z" fill="#518F2C"/>
<path d="M526.488 653.569C524.114 656.924 528.638 659.701 531.413 657.229C534.188 654.741 528.862 650.214 526.488 653.569Z" fill="#518F2C"/>
<path d="M526.889 671.403C530.017 668.626 534.766 675.625 532.215 677.679C529.664 679.734 524.258 673.746 526.889 671.403Z" fill="#518F2C"/>
<path d="M516.526 675.191C519.734 674.613 521.194 679.477 517.408 680.264C513.606 681.034 513.317 675.785 516.526 675.191Z" fill="#518F2C"/>
</g>
<path opacity="0.14" d="M539.691 676.138C539.386 676.78 538.985 677.438 538.439 678.113C533.322 684.405 524.129 680.761 524.129 680.761C524.129 680.761 520.776 684.823 514.793 684.389C508.793 683.956 507.445 678.723 507.445 678.723C507.445 678.723 503.98 685.416 496.392 684.421C488.803 683.426 488.065 677.647 488.065 677.647C488.065 677.647 473.611 679.846 473.9 665.817C474.189 651.787 489.076 655.094 489.076 655.094C489.076 655.094 486.59 640.117 501.782 636.762C503.097 636.473 504.333 636.329 505.488 636.312C501.67 637.613 498.381 640.759 497.515 644.772C496.263 650.471 500.627 656.924 506.45 657.373C502.68 657.694 498.718 658.095 495.589 660.214C492.461 662.333 490.552 666.78 492.493 670.038C493.712 672.077 496.087 673.136 498.397 673.634C502.151 674.453 506.723 673.73 508.648 670.424C508.712 673.698 511.087 676.796 514.231 677.695C517.375 678.594 521.033 677.23 522.814 674.485C524.498 677.92 528.3 680.216 532.119 680.071C535.054 679.959 537.894 678.434 539.675 676.138H539.691Z" fill="#3B6818"/>
<path d="M943.371 781.024C943.371 781.024 802.565 746.865 790.469 765.373C778.373 783.881 821.768 793.208 790.469 798.104C759.17 803 725.753 766.288 668.866 778.985C611.979 791.699 672.427 816.596 624.059 825.136C575.706 833.675 434.964 773.447 364.28 859.536C293.596 945.624 531.124 923.327 531.124 923.327C531.124 923.327 634.005 935.431 710.817 886.327C787.629 837.223 871.549 840.08 854.479 872.811C837.41 905.541 940.532 896.295 947.639 848.62C954.746 800.945 943.371 781.024 943.371 781.024Z" fill="#66A2F1"/>
<path d="M964.708 803.08C964.708 803.08 823.902 768.921 811.806 787.429C799.71 805.937 843.105 815.263 811.806 820.159C780.507 825.055 747.09 788.344 690.203 801.041C633.316 813.755 693.764 838.652 645.396 847.192C597.043 855.731 456.301 795.503 385.617 881.592C314.933 967.68 552.461 945.383 552.461 945.383C552.461 945.383 655.342 957.487 732.154 908.383C808.966 859.279 892.885 862.136 875.816 894.867C858.747 927.597 961.869 918.351 968.976 870.676C976.083 823.001 964.708 803.08 964.708 803.08Z" fill="#588ACD"/>
<path d="M289.409 741.648C289.409 741.648 287.323 758.246 267.976 785.904C267.8 786.161 267.607 786.434 267.415 786.706C267.415 786.706 265.297 759.434 289.393 741.664L289.409 741.648Z" fill="#B4CE49"/>
<path d="M268.185 776.08C268.072 782.308 267.415 786.706 267.415 786.706C267.222 786.161 267.03 785.615 266.837 785.085C255.014 751.327 257.067 740.364 257.067 740.364C266.853 748.679 268.377 765.18 268.169 776.08H268.185Z" fill="#B4CE49"/>
<path d="M299.917 761.809C294.446 773.993 279.671 781.65 272.067 784.909C269.243 786.113 267.415 786.723 267.415 786.723C275.901 772.372 299.917 761.825 299.917 761.825V761.809Z" fill="#B4CE49"/>
<path opacity="0.14" d="M299.917 761.809C299.917 761.809 283.922 776 272.067 784.909C269.243 786.113 267.415 786.723 267.415 786.723C275.901 772.372 299.917 761.825 299.917 761.825V761.809Z" fill="#3B6818"/>
<path opacity="0.14" d="M266.837 785.085C255.014 751.327 257.067 740.364 257.067 740.364C257.067 740.364 266.564 766.079 266.837 785.085Z" fill="#3B6818"/>
<path opacity="0.14" d="M289.393 741.664C288.864 742.466 271.874 768.311 268.008 785.743C267.992 785.792 267.992 785.856 267.976 785.904C267.8 786.161 267.607 786.434 267.415 786.707C267.415 786.707 265.297 759.434 289.393 741.664Z" fill="#3B6818"/>
<path d="M337.602 790.27C337.602 790.27 340.794 786.963 345.751 783.56L346.056 783.977C346.056 783.977 341.307 787.461 338.211 790.671L337.585 790.27H337.602Z" fill="#B4CE49"/>
<path d="M344.628 784.363C344.628 784.363 344.58 780.382 350.275 779.852C350.275 779.852 349.377 784.957 344.628 784.363Z" fill="#B4CE49"/>
<path d="M342.671 785.839C342.671 785.839 338.981 782.95 341.179 778.102C341.179 778.102 345.463 781.923 342.671 785.839Z" fill="#B4CE49"/>
<path d="M342.976 786.385C342.976 786.385 343.585 791.313 348.96 789.451C348.96 789.451 348.045 784.876 342.976 786.385Z" fill="#B4CE49"/>
<path d="M347.131 802.422L212.661 803.674C212.661 803.674 212.036 771.216 236.067 766.529C238.442 766.063 240.656 765.855 242.757 765.855C261.896 765.838 269.757 783.063 269.757 783.063C269.757 783.063 275.067 773.704 287.227 774.956C299.388 776.208 303.142 786.498 303.142 786.498C303.142 786.498 307.505 783.319 313.12 784.748C318.735 786.177 320.612 790.543 320.612 790.543C320.612 790.543 325.601 784.299 335.901 786.803C342.446 788.392 345.206 794.267 346.345 798.344C347.002 800.672 347.131 802.422 347.131 802.422Z" fill="#A2CC3A"/>
<g opacity="0.32">
<path d="M256.025 774.683C259.714 773.094 267.319 780.093 262.378 783.432C257.436 786.771 250.843 776.898 256.025 774.683Z" fill="#F5FF90"/>
<path d="M293.933 779.996C291.334 780.783 294.094 787.011 296.468 786.064C298.842 785.133 296.965 779.065 293.933 779.996Z" fill="#F5FF90"/>
<path d="M335.356 790.96C332.661 793.673 340.505 795.776 340.971 793.272C341.436 790.768 338.58 787.718 335.356 790.96Z" fill="#F5FF90"/>
</g>
<path opacity="0.25" d="M347.131 802.422L212.661 803.674C212.661 803.674 212.036 771.216 236.067 766.529C238.442 766.063 240.656 765.854 242.757 765.854C226.795 766.657 225.495 793.384 231.062 797.815C235.346 801.218 311.644 799.372 346.345 798.36C347.002 800.688 347.131 802.438 347.131 802.438V802.422Z" fill="#335915"/>
<g opacity="0.36">
<path d="M245.42 785.294C250.426 784.764 251.966 794.042 246.351 794.652C240.736 795.278 239.484 785.904 245.42 785.294Z" fill="#518F2C"/>
<path d="M287.227 782.485C290.676 782.485 292.537 788.729 287.227 789.034C281.917 789.339 283.168 782.485 287.227 782.485Z" fill="#518F2C"/>
<path d="M246.672 774.057C248.661 770.092 255.094 776.866 252.912 779.05C250.73 781.233 245.115 777.171 246.672 774.057Z" fill="#518F2C"/>
<path d="M228.254 782.485C233.244 785.294 226.377 795.599 222.014 792.79C217.65 789.981 223.265 779.675 228.254 782.485Z" fill="#518F2C"/>
<path d="M271.939 791.233C269.757 793.737 275.372 799.356 277.858 795.599C280.361 791.859 274.12 788.729 271.939 791.233Z" fill="#518F2C"/>
<path d="M312.495 794.684C314.484 798.633 307.505 805.263 303.447 799.966C299.388 794.652 310.618 790.976 312.495 794.684Z" fill="#518F2C"/>
<path d="M336.205 795.599C338.178 798.023 331.216 803.401 329.034 799.34C326.852 795.278 333.398 792.164 336.205 795.599Z" fill="#518F2C"/>
</g>
<path d="M777.78 864.031C733.55 851.462 718.438 819.181 717.074 816.115C716.994 815.954 716.978 815.874 716.978 815.874C761.737 823.9 777.78 864.031 777.78 864.031Z" fill="#65B247"/>
<path d="M777.78 864.031C733.55 851.462 718.438 819.18 717.074 816.115L777.78 864.031Z" fill="#518F2C"/>
<path d="M761.785 856.791C724.245 864.64 700.582 846.662 698.385 844.912C698.272 844.816 698.224 844.768 698.224 844.768C734.4 833.354 761.785 856.775 761.785 856.775V856.791Z" fill="#65B247"/>
<path d="M761.785 856.791C724.245 864.64 700.582 846.662 698.384 844.912L761.785 856.791Z" fill="#518F2C"/>
<path d="M769.79 857.272C746.191 827.014 751.887 797.831 752.48 795.102C752.496 794.958 752.528 794.893 752.528 794.893C778.726 822.343 769.79 857.272 769.79 857.272Z" fill="#65B247"/>
<path d="M769.79 857.273C746.191 827.014 751.887 797.831 752.48 795.102L769.79 857.273Z" fill="#518F2C"/>
<path d="M888.602 863.87C875.672 819.726 894.907 789.724 896.784 786.947C896.864 786.803 896.928 786.739 896.928 786.739C913.998 828.908 888.602 863.886 888.602 863.886V863.87Z" fill="#65B247"/>
<path d="M888.602 863.87C875.672 819.726 894.907 789.724 896.784 786.947L888.602 863.87Z" fill="#518F2C"/>
<path d="M886.212 846.469C859.565 818.859 862.164 789.243 862.469 786.466C862.469 786.321 862.485 786.257 862.485 786.257C891.41 810.801 886.196 846.485 886.196 846.485L886.212 846.469Z" fill="#65B247"/>
<path d="M886.212 846.469C859.565 818.859 862.164 789.243 862.469 786.466L886.212 846.469Z" fill="#518F2C"/>
<path d="M890.062 853.5C903.073 817.398 930.778 806.659 933.409 805.712C933.538 805.664 933.602 805.648 933.602 805.648C924.345 842.456 890.046 853.5 890.046 853.5H890.062Z" fill="#65B247"/>
<path d="M890.062 853.5C903.073 817.398 930.778 806.659 933.409 805.712L890.062 853.5Z" fill="#518F2C"/>
<path d="M940.741 892.828H692.32C692.32 892.828 695.128 879.729 707.785 876.118C720.427 872.506 728.111 877.466 728.111 877.466C728.111 877.466 724.053 867.53 732.619 863.003C741.202 858.492 747.523 865.716 747.523 865.716C747.523 865.716 742.55 847.641 755.657 841.782C756.988 841.188 758.272 840.739 759.507 840.434C770.047 837.721 776.544 844.575 776.881 844.928C776.737 844.109 771.812 818.602 792.699 810.143C813.924 801.555 826.565 821.893 826.565 821.893C826.565 821.893 833.8 802.919 851.415 805.632C869.03 808.345 871.276 832.295 871.276 832.295C871.276 832.295 878.96 823.258 891.602 830.481C904.26 837.721 898.837 852.168 898.837 852.168C898.837 852.168 911.928 841.975 925.019 849.102C938.126 856.229 934.051 872.057 934.051 872.057C934.051 872.057 939.104 870.965 942.73 875.909C943.179 876.487 943.596 877.177 943.981 877.932C947.607 885.171 940.741 892.844 940.741 892.844V892.828Z" fill="#A2CC3A"/>
<path opacity="0.25" d="M940.741 892.828H692.32C692.32 892.828 695.128 879.73 707.785 876.118C720.427 872.506 728.111 877.466 728.111 877.466C728.111 877.466 724.053 867.53 732.619 863.003C741.202 858.492 747.523 865.716 747.523 865.716C747.523 865.716 742.55 847.641 755.657 841.782C756.988 841.188 758.272 840.739 759.507 840.434C759.122 841.589 758.849 842.809 758.737 844.077C758.464 846.935 766.261 865.042 770.673 859.407C765.908 865.459 771.924 875.058 779.464 876.631C787.004 878.173 794.56 874.545 801.41 871.013C808.678 882.17 828.298 881.222 834.458 869.408C844.036 881.495 863.431 884.24 875.977 875.251C883.837 885.701 900.875 887.467 910.709 878.863C921.024 883.149 934.965 886.552 941.639 877.611C942.04 877.065 942.409 876.503 942.73 875.909C943.179 876.487 943.596 877.177 943.981 877.932C947.607 885.171 940.741 892.844 940.741 892.844V892.828Z" fill="#335915"/>
<g opacity="0.36">
<path d="M767.753 849.375C772.421 851.413 768.202 858.123 764.143 856.181C760.085 854.254 762.796 847.208 767.753 849.375Z" fill="#518F2C"/>
<path d="M765.988 867.546C761.881 868.268 763.694 875.941 767.753 873.678C771.812 871.414 770.079 866.823 765.988 867.546Z" fill="#518F2C"/>
<path d="M792.587 852.745C798.667 855.041 798.908 866.021 788.528 864.881C778.148 863.741 782.656 848.989 792.587 852.745Z" fill="#518F2C"/>
<path d="M808.854 820.368C819.025 824.526 812.464 840.257 800.72 836.629C788.977 833.017 798.908 816.291 808.854 820.368Z" fill="#518F2C"/>
<path d="M819.234 858.556C829.357 860.996 820.132 881.158 810.651 875.62C801.17 870.082 807.042 855.619 819.234 858.556Z" fill="#518F2C"/>
<path d="M847.244 817.655C838.95 824.766 851.768 839.791 860.335 833.017C868.918 826.243 856.725 809.517 847.244 817.655Z" fill="#518F2C"/>
<path d="M886.532 842.055C892.228 843.483 891.056 847.657 885.634 849.375C880.212 851.092 881.126 840.69 886.532 842.055Z" fill="#518F2C"/>
<path d="M888.33 866.005C894.217 866.775 894.201 870.644 888.33 871.478C882.458 872.329 884.864 865.555 888.33 866.005Z" fill="#518F2C"/>
<path d="M935.302 877.787C940.484 874.85 942.072 886.054 936.201 886.648C930.329 887.242 931.227 880.083 935.302 877.787Z" fill="#518F2C"/>
<path d="M843.17 848.973C850.662 847.175 854.015 863.934 845.881 864.961C837.747 866.005 833.239 851.365 843.17 848.973Z" fill="#518F2C"/>
</g>
<path d="M423.221 873.742C390.398 864.4 379.168 840.45 378.157 838.17C378.093 838.042 378.077 837.994 378.077 837.994C411.301 843.949 423.221 873.742 423.221 873.742Z" fill="#65B247"/>
<path d="M423.221 873.742C390.398 864.4 379.168 840.45 378.158 838.17L423.221 873.742Z" fill="#518F2C"/>
<path d="M411.35 868.365C383.484 874.192 365.901 860.836 364.281 859.552C364.2 859.488 364.152 859.455 364.152 859.455C391.008 850.98 411.35 868.381 411.35 868.381V868.365Z" fill="#65B247"/>
<path d="M411.35 868.365C383.484 874.192 365.901 860.836 364.281 859.552L411.35 868.365Z" fill="#518F2C"/>
<path d="M417.286 868.718C399.767 846.261 403.986 824.59 404.436 822.567C404.452 822.455 404.468 822.407 404.468 822.407C423.911 842.777 417.286 868.718 417.286 868.718Z" fill="#65B247"/>
<path d="M417.286 868.718C399.767 846.261 403.986 824.59 404.436 822.567L417.286 868.718Z" fill="#518F2C"/>
<path d="M544.199 895.124H359.772C359.772 895.124 361.858 885.396 371.243 882.715C380.628 880.035 386.323 883.727 386.323 883.727C386.323 883.727 383.307 876.343 389.676 872.988C396.045 869.633 400.745 874.994 400.745 874.994C400.745 874.994 397.056 861.575 406.777 857.224C407.756 856.775 408.719 856.454 409.633 856.213C417.462 854.207 422.275 859.279 422.531 859.552C422.419 858.942 418.777 840 434.275 833.724C450.028 827.351 459.413 842.456 459.413 842.456C459.413 842.456 464.788 828.362 477.862 830.385C490.937 832.391 492.606 850.177 492.606 850.177C492.606 850.177 498.317 843.467 507.686 848.829C517.087 854.206 513.06 864.929 513.06 864.929C513.06 864.929 522.782 857.369 532.504 862.65C542.225 867.947 539.209 879.681 539.209 879.681C539.209 879.681 542.963 878.879 545.659 882.539C545.995 882.972 546.3 883.47 546.589 884.032C549.268 889.409 544.183 895.108 544.183 895.108L544.199 895.124Z" fill="#A2CC3A"/>
<path opacity="0.25" d="M544.199 895.124H359.772C359.772 895.124 361.858 885.396 371.243 882.715C380.628 880.035 386.323 883.727 386.323 883.727C386.323 883.727 383.307 876.343 389.676 872.988C396.045 869.633 400.745 874.994 400.745 874.994C400.745 874.994 397.056 861.575 406.777 857.224C407.756 856.775 408.719 856.454 409.633 856.213C409.344 857.064 409.152 857.979 409.055 858.926C408.847 861.045 414.638 874.481 417.911 870.307C414.366 874.802 418.841 881.929 424.44 883.085C430.039 884.224 435.638 881.528 440.74 878.911C446.13 887.194 460.713 886.488 465.269 877.723C472.376 886.696 486.782 888.735 496.103 882.057C501.942 889.811 514.584 891.127 521.883 884.738C529.536 887.916 539.883 890.453 544.84 883.807C545.145 883.406 545.418 882.988 545.659 882.539C545.995 882.972 546.3 883.47 546.589 884.032C549.268 889.409 544.183 895.108 544.183 895.108L544.199 895.124Z" fill="#335915"/>
<g opacity="0.36">
<path d="M415.778 862.859C419.243 864.368 416.114 869.344 413.098 867.915C410.082 866.486 412.088 861.253 415.778 862.859Z" fill="#518F2C"/>
<path d="M414.462 876.343C411.414 876.872 412.762 882.571 415.778 880.902C418.794 879.216 417.51 875.813 414.462 876.343Z" fill="#518F2C"/>
<path d="M434.211 865.363C438.719 867.064 438.911 875.219 431.195 874.368C423.478 873.517 426.831 862.57 434.211 865.363Z" fill="#518F2C"/>
<path d="M446.275 841.316C453.831 844.414 448.954 856.085 440.243 853.388C431.531 850.707 438.895 838.299 446.275 841.316Z" fill="#518F2C"/>
<path d="M453.991 869.665C461.515 871.479 454.665 886.44 447.622 882.33C440.58 878.221 444.943 867.482 453.991 869.665Z" fill="#518F2C"/>
<path d="M474.782 839.31C468.622 844.591 478.135 855.748 484.504 850.723C490.873 845.699 481.825 833.274 474.782 839.31Z" fill="#518F2C"/>
<path d="M503.948 857.417C508.183 858.476 507.301 861.574 503.274 862.859C499.247 864.127 499.921 856.422 503.948 857.417Z" fill="#518F2C"/>
<path d="M505.296 875.203C509.675 875.781 509.659 878.638 505.296 879.264C500.932 879.89 502.729 874.866 505.296 875.203Z" fill="#518F2C"/>
<path d="M540.156 883.951C543.99 881.768 545.177 890.1 540.83 890.533C536.466 890.966 537.14 885.669 540.156 883.951Z" fill="#518F2C"/>
<path d="M471.766 862.554C477.317 861.222 479.82 873.662 473.772 874.432C467.74 875.203 464.387 864.336 471.766 862.554Z" fill="#518F2C"/>
</g>
<path d="M532.84 750.91C544.247 747.667 548.161 739.336 548.514 738.55L548.546 738.485C536.995 740.556 532.856 750.91 532.856 750.91H532.84Z" fill="#65B247"/>
<path d="M532.84 750.91C544.247 747.667 548.161 739.336 548.514 738.55L532.84 750.91Z" fill="#518F2C"/>
<path d="M536.963 749.048C546.653 751.07 552.765 746.431 553.327 745.982L553.375 745.95C544.038 742.996 536.963 749.048 536.963 749.048Z" fill="#65B247"/>
<path d="M536.963 749.048C546.653 751.071 552.765 746.431 553.327 745.982L536.963 749.048Z" fill="#518F2C"/>
<path d="M534.894 749.16C540.99 741.359 539.514 733.814 539.369 733.108V733.06C532.615 740.139 534.91 749.16 534.91 749.16H534.894Z" fill="#65B247"/>
<path d="M534.894 749.16C540.99 741.359 539.514 733.814 539.369 733.108L534.894 749.16Z" fill="#518F2C"/>
<path d="M490.793 758.342H554.899C554.899 758.342 554.177 754.955 550.904 754.024C547.648 753.093 545.658 754.377 545.658 754.377C545.658 754.377 546.701 751.809 544.487 750.637C542.273 749.465 540.637 751.343 540.637 751.343C540.637 751.343 541.921 746.672 538.536 745.163C538.199 745.003 537.862 744.89 537.541 744.81C534.814 744.104 533.145 745.87 533.065 745.966C533.097 745.757 534.38 739.176 528.99 736.993C523.504 734.777 520.247 740.027 520.247 740.027C520.247 740.027 518.386 735.131 513.83 735.821C509.29 736.527 508.696 742.707 508.696 742.707C508.696 742.707 506.707 740.38 503.45 742.242C500.178 744.104 501.589 747.844 501.589 747.844C501.589 747.844 498.204 745.211 494.835 747.057C491.45 748.903 492.509 752.981 492.509 752.981C492.509 752.981 491.21 752.708 490.263 753.976C490.151 754.12 490.039 754.297 489.942 754.49C489.012 756.352 490.777 758.342 490.777 758.342H490.793Z" fill="#A2CC3A"/>
<path opacity="0.25" d="M490.792 758.342H554.899C554.899 758.342 554.177 754.955 550.904 754.024C547.648 753.093 545.658 754.377 545.658 754.377C545.658 754.377 546.701 751.809 544.487 750.637C542.273 749.465 540.637 751.343 540.637 751.343C540.637 751.343 541.92 746.672 538.535 745.163C538.198 745.003 537.862 744.89 537.541 744.81C537.637 745.115 537.701 745.42 537.733 745.757C537.797 746.496 535.792 751.167 534.653 749.722C535.888 751.279 534.332 753.767 532.391 754.169C530.45 754.57 528.493 753.623 526.728 752.724C524.851 755.597 519.782 755.356 518.193 752.306C515.723 755.421 510.717 756.127 507.477 753.815C505.455 756.512 501.044 756.962 498.509 754.746C495.846 755.854 492.252 756.737 490.52 754.425C490.407 754.281 490.327 754.136 490.231 753.992C490.119 754.136 490.006 754.313 489.91 754.506C488.98 756.368 490.744 758.358 490.744 758.358L490.792 758.342Z" fill="#335915"/>
<g opacity="0.36">
<path d="M535.423 747.138C534.22 747.668 535.311 749.401 536.353 748.887C537.396 748.39 536.706 746.576 535.423 747.138Z" fill="#518F2C"/>
<path d="M535.888 751.825C536.947 752.002 536.482 753.992 535.439 753.414C534.396 752.836 534.829 751.649 535.888 751.825Z" fill="#518F2C"/>
<path d="M529.022 748.005C527.45 748.599 527.386 751.424 530.065 751.135C532.744 750.846 531.573 747.025 529.022 748.005Z" fill="#518F2C"/>
<path d="M524.819 739.641C522.188 740.717 523.888 744.778 526.92 743.847C529.952 742.916 527.385 738.598 524.819 739.641Z" fill="#518F2C"/>
<path d="M522.14 749.498C519.525 750.124 521.899 755.324 524.354 753.896C526.808 752.467 525.284 748.743 522.14 749.498Z" fill="#518F2C"/>
<path d="M514.92 738.935C517.07 740.765 513.749 744.65 511.535 742.9C509.322 741.15 512.466 736.832 514.92 738.935Z" fill="#518F2C"/>
<path d="M504.781 745.244C503.305 745.613 503.61 746.688 505.022 747.138C506.418 747.587 506.193 744.891 504.781 745.244Z" fill="#518F2C"/>
<path d="M504.3 751.424C502.776 751.616 502.792 752.612 504.3 752.836C505.808 753.061 505.199 751.311 504.3 751.424Z" fill="#518F2C"/>
<path d="M492.188 754.458C490.856 753.703 490.439 756.593 491.947 756.737C493.455 756.882 493.231 755.052 492.188 754.458Z" fill="#518F2C"/>
<path d="M515.963 747.025C514.038 746.56 513.172 750.878 515.257 751.151C517.359 751.424 518.514 747.635 515.963 747.025Z" fill="#518F2C"/>
</g>
</g>
</svg>
