<svg width="86" height="43" viewBox="0 0 86 43" fill="none" xmlns="http://www.w3.org/2000/svg">
<path d="M20.4034 33.2899V22.2499L17.9134 16.5499C16.1734 12.5599 10.5234 12.5599 8.78342 16.5499L6.29342 22.2499L0.973419 34.4199C-0.466581 37.7099 1.94342 41.3999 5.53342 41.3999H21.1634C22.2834 41.3999 23.2834 41.0399 24.0934 40.4499C21.8534 38.8599 20.4034 36.2399 20.4034 33.2899Z" fill="#35763C"/>
<path d="M74.3034 3.94988C72.8334 -0.310117 66.7934 -0.310117 65.3234 3.94988L59.9634 19.4499C62.5434 21.8799 64.1534 25.3299 64.1534 29.1599C64.1534 34.5899 60.9134 39.2699 56.2634 41.3599C56.9834 41.8299 57.8534 42.0999 58.8034 42.0999H80.8234C84.0934 42.0999 86.3834 38.8799 85.3134 35.7999L74.3034 3.94988Z" fill="#648943"/>
<path d="M25.7236 34.4199L20.4036 22.2499V33.2899C20.4036 36.2399 21.8536 38.8599 24.0936 40.4499C25.8836 39.1399 26.7136 36.6899 25.7236 34.4199Z" fill="#25602E"/>
<path d="M42.1636 18.9199V12.2199C42.1636 7.35992 38.2236 3.41992 33.3636 3.41992H29.2036C24.3436 3.41992 20.4036 7.35992 20.4036 12.2199V22.2499L25.7236 34.4199C26.7136 36.6899 25.8836 39.1399 24.0936 40.4499C25.5336 41.4799 27.2936 42.0899 29.2036 42.0899H33.3636C36.4736 42.0899 39.2136 40.4699 40.7736 38.0299C38.6736 35.6699 37.3936 32.5499 37.3936 29.1499C37.3936 25.0399 39.2436 21.3599 42.1636 18.9199Z" fill="#A4BC49"/>
<path d="M42.1636 18.9199C39.2436 21.3599 37.3936 25.0399 37.3936 29.1499C37.3936 32.5499 38.6736 35.6699 40.7736 38.0299C41.6536 36.6599 42.1636 35.0399 42.1636 33.2899V18.9199Z" fill="#468D39"/>
<path d="M54.3134 35.7899L59.9634 19.4399C57.5634 17.1599 54.3334 15.7699 50.7734 15.7699C47.4934 15.7699 44.4834 16.9499 42.1634 18.9199V33.2899C42.1634 35.0399 41.6534 36.6599 40.7734 38.0299C43.2134 40.7899 46.7934 42.5299 50.7734 42.5299C52.7334 42.5299 54.5934 42.1099 56.2634 41.3499C54.4834 40.2299 53.5534 37.9799 54.3134 35.7899Z" fill="#68AC45"/>
<path d="M64.1534 29.1498C64.1534 25.3198 62.5434 21.8698 59.9634 19.4398L54.3134 35.7898C53.5534 37.9798 54.4834 40.2298 56.2634 41.3498C60.9134 39.2598 64.1534 34.5798 64.1534 29.1498Z" fill="#35763C"/>
</svg>
