<svg width="182" height="43" viewBox="0 0 182 43" fill="none" xmlns="http://www.w3.org/2000/svg">
<path d="M19.8534 32.535V21.495L17.3634 15.795C15.6234 11.805 9.97337 11.805 8.23337 15.795L5.74337 21.495L0.42337 33.665C-1.01663 36.955 1.39337 40.645 4.98337 40.645H20.6134C21.7334 40.645 22.7334 40.285 23.5434 39.695C21.3034 38.105 19.8534 35.485 19.8534 32.535Z" fill="#35763C"/>
<path d="M73.7534 3.195C72.2834 -1.065 66.2434 -1.065 64.7734 3.195L59.4134 18.695C61.9934 21.125 63.6034 24.575 63.6034 28.405C63.6034 33.835 60.3634 38.515 55.7134 40.605C56.4334 41.075 57.3034 41.345 58.2534 41.345H80.2734C83.5434 41.345 85.8334 38.125 84.7634 35.045L73.7534 3.195Z" fill="#648943"/>
<path d="M25.1735 33.6651L19.8535 21.4951V32.5351C19.8535 35.4851 21.3035 38.1051 23.5435 39.6951C25.3335 38.3851 26.1635 35.9351 25.1735 33.6651Z" fill="#25602E"/>
<path d="M41.6135 18.165V11.465C41.6135 6.60504 37.6735 2.66504 32.8135 2.66504H28.6535C23.7935 2.66504 19.8535 6.60504 19.8535 11.465V21.495L25.1735 33.665C26.1635 35.935 25.3335 38.385 23.5435 39.695C24.9835 40.725 26.7435 41.335 28.6535 41.335H32.8135C35.9235 41.335 38.6635 39.715 40.2235 37.275C38.1235 34.915 36.8435 31.795 36.8435 28.395C36.8435 24.285 38.6935 20.605 41.6135 18.165Z" fill="#A4BC49"/>
<path d="M41.6138 18.165C38.6938 20.605 36.8438 24.285 36.8438 28.395C36.8438 31.795 38.1238 34.915 40.2238 37.275C41.1038 35.905 41.6138 34.285 41.6138 32.535V18.165Z" fill="#468D39"/>
<path d="M53.7636 35.0351L59.4136 18.6851C57.0136 16.4051 53.7836 15.0151 50.2236 15.0151C46.9436 15.0151 43.9336 16.1951 41.6136 18.1651V32.5351C41.6136 34.2851 41.1036 35.9051 40.2236 37.2751C42.6636 40.0351 46.2436 41.7751 50.2236 41.7751C52.1836 41.7751 54.0436 41.3551 55.7136 40.5951C53.9336 39.4751 53.0036 37.2251 53.7636 35.0351Z" fill="#68AC45"/>
<path d="M63.6034 28.3951C63.6034 24.5651 61.9934 21.1151 59.4134 18.6851L53.7634 35.0351C53.0034 37.2251 53.9334 39.4751 55.7134 40.5951C60.3634 38.5051 63.6034 33.8251 63.6034 28.3951Z" fill="#35763C"/>
<path d="M104.613 12.2649H106.913V18.0349H109.593V4.81494H106.913V9.76494H104.613V5.11494H101.943V17.2349H104.613V12.2649Z" fill="#5F4622"/>
<path d="M102.343 17.9648C98.0735 17.9648 95.0435 20.1348 95.0435 23.2348C95.0435 26.3348 98.0635 28.5048 102.343 28.5048C106.623 28.5048 109.643 26.3348 109.643 23.2348C109.643 20.1348 106.623 17.9648 102.343 17.9648ZM102.343 26.1848C99.8435 26.1848 97.8735 25.0848 97.8735 23.2348C97.8735 21.3848 99.8435 20.2848 102.343 20.2848C104.843 20.2848 106.813 21.3848 106.813 23.2348C106.813 25.0848 104.843 26.1848 102.343 26.1848Z" fill="#5F4622"/>
<path d="M95.2934 12.6949C96.8134 14.4149 98.3134 15.7449 99.9634 17.0149L101.613 15.2949C99.9934 13.8749 98.6434 12.4749 97.6434 11.2249C97.0734 10.5249 96.6934 9.7549 96.6934 8.7249V5.2749H93.8934V8.7249C93.8934 9.6949 93.4934 10.5249 92.9434 11.2749C91.8434 12.7449 90.5434 14.1449 88.6934 15.6449L90.3934 17.2649C92.1434 15.9949 93.6634 14.5949 95.2934 12.6949Z" fill="#5F4622"/>
<path d="M125.613 14.5349H129.563V18.0549H132.333V4.81494H129.563V7.63494H125.613V5.75494H114.063V16.5049H125.613V14.5349ZM125.613 10.0449H129.563V12.1449H125.613V10.0449ZM122.843 14.1649H116.843V8.11494H122.843V14.1649Z" fill="#5F4622"/>
<path d="M125.213 17.865C121.013 17.865 118.043 20.065 118.043 23.185C118.043 26.305 121.013 28.505 125.213 28.505C129.413 28.505 132.383 26.305 132.383 23.185C132.383 20.065 129.413 17.865 125.213 17.865ZM125.213 26.165C122.793 26.165 120.863 25.045 120.863 23.195C120.863 21.345 122.783 20.225 125.213 20.225C127.643 20.225 129.563 21.345 129.563 23.195C129.563 25.045 127.643 26.165 125.213 26.165Z" fill="#5F4622"/>
<path d="M151.693 22.4349V20.0649C149.273 20.3849 146.273 20.5349 143.823 20.5349H136.173V22.9349H143.823C146.273 22.9349 149.273 22.7649 151.693 22.4349Z" fill="#5F4622"/>
<path d="M143.593 17.385C147.213 17.385 149.993 14.935 149.993 11.385C149.993 7.83501 147.223 5.38501 143.593 5.38501C139.963 5.38501 137.193 7.83501 137.193 11.385C137.193 14.935 139.963 17.385 143.593 17.385ZM143.593 7.74501C145.543 7.74501 147.193 9.12501 147.193 11.395C147.193 13.665 145.543 15.045 143.593 15.045C141.643 15.045 139.993 13.675 139.993 11.395C139.993 9.11501 141.643 7.74501 143.593 7.74501Z" fill="#5F4622"/>
<path d="M155.463 4.81494H152.693V27.4349H155.463V4.81494Z" fill="#5F4622"/>
<path d="M181.033 17.0852V14.7852H158.663V17.0852H168.413V19.2552H160.943V21.5552H163.793L163.863 24.9052H160.563V27.2052H179.113V24.9052H175.813L175.893 21.5552H178.743V19.2552H171.273V17.0852H181.043H181.033ZM173.113 21.5652L173.033 24.9152H166.633L166.563 21.5652H173.113Z" fill="#5F4622"/>
<path d="M169.844 9.84502C172.724 11.695 175.444 12.995 178.264 14.015L179.464 12.115C176.794 11.015 174.314 9.69502 172.144 8.14502C171.524 7.69502 171.264 7.19502 171.264 6.44502V4.89502H168.414V6.44502C168.414 7.19502 168.164 7.69502 167.544 8.14502C165.374 9.69502 162.894 11.015 160.224 12.115L161.424 14.015C164.244 12.995 166.974 11.695 169.844 9.84502Z" fill="#5F4622"/>
<path d="M92.1733 41.8649H93.0133V37.9149H96.4633V37.2249H93.0133V34.1949H96.6833V33.5049H92.1733V41.8649Z" fill="#5F4622"/>
<path d="M101.223 33.345C98.8833 33.345 97.4233 35.225 97.4233 37.695C97.4233 40.165 98.8733 42.035 101.223 42.035C103.573 42.035 105.023 40.155 105.023 37.695C105.023 35.235 103.573 33.345 101.223 33.345ZM101.223 41.345C99.4033 41.345 98.2733 39.765 98.2733 37.695C98.2733 35.625 99.4033 34.045 101.223 34.045C103.043 34.045 104.173 35.625 104.173 37.695C104.173 39.765 103.043 41.345 101.223 41.345Z" fill="#5F4622"/>
<path d="M110.324 37.7849C111.224 37.4449 111.794 36.7949 111.794 35.7749C111.794 34.2049 110.784 33.5049 109.154 33.5049H106.344V41.8649H107.194V38.0949H108.824C109.914 38.0949 110.284 38.3949 110.584 39.3149L111.414 41.8649H112.294L111.394 39.1949C111.124 38.3849 110.834 38.0049 110.324 37.7849ZM108.984 37.4049H107.204V34.2049H109.054C110.084 34.2049 110.954 34.5049 110.954 35.7749C110.954 36.8849 110.204 37.4049 108.984 37.4049Z" fill="#5F4622"/>
<path d="M114.133 37.9149H117.693V37.2249H114.133V34.1949H117.913V33.5049H113.293V41.8649H118.023V41.1749H114.133V37.9149Z" fill="#5F4622"/>
<path d="M121.713 37.195C120.513 36.635 120.113 36.005 120.113 35.415C120.113 34.535 120.813 34.035 121.653 34.035C122.253 34.035 122.783 34.255 123.233 34.765L123.743 34.295C123.283 33.725 122.493 33.345 121.653 33.345C120.363 33.345 119.263 33.995 119.263 35.415C119.263 36.425 119.883 37.165 121.303 37.845C122.503 38.425 123.233 38.965 123.233 39.845C123.233 40.725 122.523 41.345 121.433 41.345C120.513 41.345 119.833 40.955 119.233 40.465L118.863 41.115C119.613 41.725 120.493 42.035 121.433 42.035C122.893 42.035 124.083 41.185 124.083 39.845C124.083 38.635 123.203 37.885 121.713 37.195Z" fill="#5F4622"/>
<path d="M124.673 34.1949H127.283V41.8649H128.133V34.1949H130.723V33.5049H124.673V34.1949Z" fill="#5F4622"/>
<path d="M134.594 41.8649H135.444V37.9149H138.894V37.2249H135.444V34.1949H139.104V33.5049H134.594V41.8649Z" fill="#5F4622"/>
<path d="M143.654 33.345C141.314 33.345 139.854 35.225 139.854 37.695C139.854 40.165 141.304 42.035 143.654 42.035C146.004 42.035 147.454 40.155 147.454 37.695C147.454 35.235 146.004 33.345 143.654 33.345ZM143.654 41.345C141.834 41.345 140.704 39.765 140.704 37.695C140.704 35.625 141.834 34.045 143.654 34.045C145.474 34.045 146.604 35.625 146.604 37.695C146.604 39.765 145.474 41.345 143.654 41.345Z" fill="#5F4622"/>
<path d="M152.744 37.7849C153.644 37.4449 154.214 36.7949 154.214 35.7749C154.214 34.2049 153.204 33.5049 151.574 33.5049H148.764V41.8649H149.614V38.0949H151.244C152.334 38.0949 152.704 38.3949 153.004 39.3149L153.824 41.8649H154.704L153.804 39.1949C153.524 38.3849 153.244 38.0049 152.734 37.7849H152.744ZM151.404 37.4049H149.624V34.2049H151.474C152.504 34.2049 153.374 34.5049 153.374 35.7749C153.374 36.8849 152.624 37.4049 151.404 37.4049Z" fill="#5F4622"/>
<path d="M159.323 33.5049H158.483V41.8649H163.103V41.1749H159.323V33.5049Z" fill="#5F4622"/>
<path d="M165.083 33.5049H164.233V41.8649H165.083V33.5049Z" fill="#5F4622"/>
<path d="M166.753 41.8649H167.593V37.9149H171.043V37.2249H167.593V34.1949H171.263V33.5049H166.753V41.8649Z" fill="#5F4622"/>
<path d="M173.434 37.9149H176.994V37.2249H173.434V34.1949H177.214V33.5049H172.594V41.8649H177.324V41.1749H173.434V37.9149Z" fill="#5F4622"/>
</svg>
