<svg width="183" height="43" viewBox="0 0 183 43" fill="none" xmlns="http://www.w3.org/2000/svg">
<g clip-path="url(#clip0_37_169)">
<path d="M5.99013 41.65H21.6101C22.6701 41.65 23.6701 41.34 24.5301 40.8C26.0001 41.77 27.7601 42.35 29.6501 42.35H33.8001C36.8601 42.35 39.5801 40.86 41.2701 38.57C43.7901 41.17 47.3201 42.79 51.2101 42.79C53.1401 42.79 54.9801 42.39 56.6601 41.67C57.4301 42.11 58.3101 42.35 59.2401 42.35H81.2601C82.9801 42.35 84.5401 41.55 85.5401 40.14C86.5401 38.73 86.7901 37 86.2301 35.38L75.2201 3.54C74.4801 1.39 72.5301 0 70.2601 0C67.9901 0 66.0401 1.39 65.3001 3.54L60.1801 18.33C57.7601 16.28 54.6301 15.03 51.2201 15.03C48.1901 15.03 45.3901 16.02 43.1101 17.67V11.98C43.1101 6.85 38.9401 2.68 33.8101 2.68H29.6601C24.5301 2.68 20.3601 6.85 20.3601 11.98V19.6L18.8301 16.1C17.9401 14.07 16.0201 12.81 13.8101 12.81C11.6001 12.81 9.67013 14.07 8.79013 16.1L0.960128 33.97C0.220128 35.67 0.380128 37.62 1.40013 39.17C2.42013 40.72 4.13013 41.65 5.99013 41.65ZM41.1501 36.9C39.4001 34.7 38.3501 31.92 38.3501 28.9C38.3501 25.36 39.7901 22.14 42.1101 19.81V33.04C42.1101 34.43 41.7601 35.75 41.1501 36.9ZM66.2501 3.86C66.9801 1.75 68.8001 1 70.2701 1C71.7401 1 73.5601 1.75 74.2901 3.86L85.3001 35.7C85.7601 37.02 85.5501 38.42 84.7501 39.56C83.9401 40.69 82.6801 41.35 81.2901 41.35H59.2701C58.7801 41.35 58.3001 41.26 57.8501 41.11C62.1701 38.76 65.1201 34.17 65.1201 28.91C65.1201 25.06 63.5501 21.58 61.0101 19.07L66.2701 3.87L66.2501 3.86ZM60.6201 20.13C62.7701 22.43 64.1001 25.51 64.1001 28.9C64.1001 34.02 61.0801 38.45 56.7401 40.52C56.3801 40.26 56.0601 39.94 55.7901 39.56C54.9801 38.43 54.7801 37.02 55.2401 35.7L60.6301 20.12L60.6201 20.13ZM43.1101 18.92C45.3301 17.12 48.1501 16.03 51.2201 16.03C54.5301 16.03 57.5401 17.3 59.8301 19.36L54.2901 35.38C53.7301 37 53.9801 38.74 54.9801 40.14C55.2001 40.44 55.4401 40.71 55.7101 40.96C54.3101 41.48 52.8101 41.78 51.2301 41.78C47.5301 41.78 44.2001 40.21 41.8501 37.7C42.6501 36.33 43.1101 34.74 43.1101 33.04V18.91V18.92ZM21.3501 11.98C21.3501 7.4 25.0701 3.68 29.6501 3.68H33.8001C38.3801 3.68 42.1001 7.4 42.1001 11.98V18.47C39.1901 21.02 37.3401 24.75 37.3401 28.91C37.3401 32.3 38.5601 35.4 40.5901 37.82C39.0901 39.95 36.6101 41.36 33.8001 41.36H29.6501C28.0901 41.36 26.6301 40.92 25.3801 40.16C25.6901 39.87 25.9601 39.55 26.2001 39.18C27.2201 37.63 27.3801 35.68 26.6401 33.98L21.3601 21.89V11.98H21.3501ZM21.3501 24.38L25.7201 34.37C26.3301 35.76 26.2001 37.35 25.3601 38.62C25.1301 38.98 24.8401 39.29 24.5301 39.56C22.6001 38.04 21.3501 35.68 21.3501 33.04V24.38ZM1.88013 34.37L9.69013 16.5C10.4101 14.84 11.9901 13.81 13.8001 13.81C15.6101 13.81 17.1801 14.84 17.9101 16.5L20.3601 22.1V33.05C20.3601 35.9 21.6501 38.45 23.6701 40.16C23.0401 40.48 22.3401 40.66 21.6101 40.66H5.99013C4.47013 40.66 3.07013 39.9 2.24013 38.63C1.41013 37.36 1.28013 35.77 1.88013 34.38V34.37Z" fill="white"/>
<path d="M105.61 12.7699H107.91V18.5399H110.59V5.31995H107.91V10.2699H105.61V5.61995H102.94V17.7399H105.61V12.7699Z" fill="white"/>
<path d="M103.34 18.47C99.07 18.47 96.04 20.64 96.04 23.74C96.04 26.84 99.06 29.01 103.34 29.01C107.62 29.01 110.64 26.84 110.64 23.74C110.64 20.64 107.62 18.47 103.34 18.47ZM103.34 26.69C100.84 26.69 98.87 25.59 98.87 23.74C98.87 21.89 100.84 20.79 103.34 20.79C105.84 20.79 107.81 21.89 107.81 23.74C107.81 25.59 105.84 26.69 103.34 26.69Z" fill="white"/>
<path d="M96.2899 13.19C97.8099 14.91 99.3099 16.24 100.96 17.51L102.61 15.79C100.99 14.37 99.6399 12.97 98.6399 11.72C98.0699 11.02 97.6899 10.25 97.6899 9.22002V5.77002H94.8899V9.22002C94.8899 10.19 94.4899 11.02 93.9399 11.77C92.8399 13.24 91.5399 14.64 89.6899 16.14L91.3899 17.76C93.1399 16.48 94.6599 15.09 96.2899 13.19Z" fill="white"/>
<path d="M126.21 18.37C122.01 18.37 119.04 20.57 119.04 23.69C119.04 26.81 122.01 29.01 126.21 29.01C130.41 29.01 133.38 26.81 133.38 23.69C133.38 20.57 130.41 18.37 126.21 18.37ZM126.21 26.67C123.79 26.67 121.86 25.55 121.86 23.7C121.86 21.85 123.78 20.73 126.21 20.73C128.64 20.73 130.56 21.85 130.56 23.7C130.56 25.55 128.64 26.67 126.21 26.67Z" fill="white"/>
<path d="M126.61 15.0399H130.56V18.5599H133.33V5.31995H130.56V8.13995H126.61V6.26995H115.06V17.0199H126.61V15.0499V15.0399ZM126.61 10.5399H130.56V12.6399H126.61V10.5399ZM123.84 14.6699H117.84V8.61995H123.84V14.6699Z" fill="white"/>
<path d="M156.46 5.31995H153.69V27.9399H156.46V5.31995Z" fill="white"/>
<path d="M144.59 17.89C148.21 17.89 150.99 15.44 150.99 11.89C150.99 8.34002 148.22 5.89001 144.59 5.89001C140.96 5.89001 138.19 8.34002 138.19 11.89C138.19 15.44 140.96 17.89 144.59 17.89ZM144.59 8.25001C146.54 8.25001 148.19 9.63001 148.19 11.9C148.19 14.17 146.54 15.55 144.59 15.55C142.64 15.55 140.99 14.17 140.99 11.9C140.99 9.63001 142.64 8.25001 144.59 8.25001Z" fill="white"/>
<path d="M152.69 22.9401V20.5601C150.27 20.8901 147.27 21.0301 144.82 21.0301H137.17V23.4301H144.82C147.27 23.4301 150.27 23.2601 152.69 22.9301V22.9401Z" fill="white"/>
<path d="M170.84 10.34C173.72 12.19 176.44 13.49 179.26 14.51L180.46 12.61C177.79 11.51 175.31 10.19 173.14 8.64002C172.52 8.19002 172.26 7.69001 172.26 6.94001V5.39001H169.41V6.94001C169.41 7.69001 169.16 8.19002 168.54 8.64002C166.37 10.19 163.89 11.51 161.22 12.61L162.42 14.51C165.24 13.48 167.97 12.18 170.84 10.34Z" fill="white"/>
<path d="M169.41 19.77H161.94V22.07H164.79L164.86 25.42H161.56V27.72H180.11V25.42H176.81L176.89 22.07H179.74V19.77H172.27V17.6H182.04V15.3H159.67V17.6H169.42V19.77H169.41ZM174.11 22.07L174.03 25.42H167.63L167.56 22.07H174.11Z" fill="white"/>
<path d="M97.6799 34.71V34.01H93.1699V42.37H94.0099V38.42H97.4599V37.73H94.0099V34.71H97.6799Z" fill="white"/>
<path d="M106.02 38.19C106.02 35.73 104.57 33.84 102.22 33.84C99.8699 33.84 98.4199 35.72 98.4199 38.19C98.4199 40.66 99.8699 42.54 102.22 42.54C104.57 42.54 106.02 40.66 106.02 38.19ZM102.22 41.84C100.4 41.84 99.2699 40.26 99.2699 38.19C99.2699 36.12 100.4 34.54 102.22 34.54C104.04 34.54 105.17 36.12 105.17 38.19C105.17 40.26 104.04 41.84 102.22 41.84Z" fill="white"/>
<path d="M107.35 34.01V42.37H108.2V38.6H109.83C110.92 38.6 111.29 38.9 111.59 39.82L112.42 42.37H113.3L112.4 39.7C112.13 38.89 111.84 38.51 111.33 38.29C112.23 37.95 112.8 37.3 112.8 36.28C112.8 34.71 111.79 34.01 110.16 34.01H107.35ZM111.94 36.28C111.94 37.39 111.19 37.91 109.97 37.91H108.19V34.71H110.04C111.07 34.71 111.94 35.01 111.94 36.28Z" fill="white"/>
<path d="M119.02 41.68H115.13V38.42H118.69V37.73H115.13V34.71H118.91V34.01H114.29V42.37H119.02V41.68Z" fill="white"/>
<path d="M122.43 41.84C121.51 41.84 120.83 41.46 120.23 40.96L119.86 41.61C120.61 42.21 121.49 42.53 122.43 42.53C123.89 42.53 125.08 41.68 125.08 40.34C125.08 39.13 124.2 38.38 122.71 37.69C121.51 37.13 121.11 36.5 121.11 35.91C121.11 35.03 121.81 34.53 122.65 34.53C123.25 34.53 123.78 34.75 124.23 35.26L124.74 34.79C124.28 34.22 123.49 33.84 122.65 33.84C121.36 33.84 120.26 34.49 120.26 35.91C120.26 36.92 120.88 37.66 122.3 38.34C123.5 38.92 124.23 39.46 124.23 40.34C124.23 41.22 123.52 41.84 122.43 41.84Z" fill="white"/>
<path d="M129.13 42.37V34.71H131.72V34.01H125.67V34.71H128.28V42.37H129.13Z" fill="white"/>
<path d="M139.88 37.73H136.44V34.71H140.1V34.01H135.59V42.37H136.44V38.42H139.88V37.73Z" fill="white"/>
<path d="M144.65 42.54C146.99 42.54 148.45 40.66 148.45 38.19C148.45 35.72 147 33.84 144.65 33.84C142.3 33.84 140.85 35.72 140.85 38.19C140.85 40.66 142.3 42.54 144.65 42.54ZM144.65 34.54C146.47 34.54 147.6 36.12 147.6 38.19C147.6 40.26 146.47 41.84 144.65 41.84C142.83 41.84 141.7 40.26 141.7 38.19C141.7 36.12 142.83 34.54 144.65 34.54Z" fill="white"/>
<path d="M154.01 39.82L154.83 42.37H155.71L154.81 39.7C154.53 38.89 154.25 38.51 153.74 38.29C154.64 37.95 155.21 37.3 155.21 36.28C155.21 34.71 154.2 34.01 152.57 34.01H149.76V42.37H150.61V38.6H152.24C153.33 38.6 153.7 38.9 154 39.82H154.01ZM150.62 37.91V34.71H152.47C153.5 34.71 154.37 35.01 154.37 36.28C154.37 37.39 153.62 37.91 152.4 37.91H150.62Z" fill="white"/>
<path d="M164.1 41.68H160.32V34.01H159.47V42.37H164.1V41.68Z" fill="white"/>
<path d="M166.08 34.01H165.23V42.37H166.08V34.01Z" fill="white"/>
<path d="M172.26 34.71V34.01H167.75V42.37H168.59V38.42H172.04V37.73H168.59V34.71H172.26Z" fill="white"/>
<path d="M178.21 34.71V34.01H173.59V42.37H178.32V41.68H174.43V38.42H177.99V37.73H174.43V34.71H178.21Z" fill="white"/>
</g>
<defs>
<clipPath id="clip0_37_169">
<rect width="181.53" height="42.78" fill="white" transform="translate(0.5)"/>
</clipPath>
</defs>
</svg>
