<svg id="그룹_139" data-name="그룹 139" xmlns="http://www.w3.org/2000/svg" xmlns:xlink="http://www.w3.org/1999/xlink" width="125.584" height="51" viewBox="0 0 125.584 51">
  <defs>
    <clipPath id="clip-path">
      <rect id="사각형_188" data-name="사각형 188" width="125.584" height="51" fill="#fff"/>
    </clipPath>
  </defs>
  <g id="그룹_138" data-name="그룹 138" clip-path="url(#clip-path)">
    <path id="패스_481" data-name="패스 481" d="M48.1,13.682a14.34,14.34,0,0,0-1.437-2.391,25.581,25.581,0,1,0,1.425,2.4ZM25.5,1.594a23.779,23.779,0,0,1,9.252,1.864,9.933,9.933,0,0,0-7.138,1.806,2.132,2.132,0,0,0-1.99.356,1.968,1.968,0,0,0-.9,2.12,6.053,6.053,0,0,0-1.237,2.6c-1.042,4.855,3.142,11.045,3.807,11.991,1.3,4.4,1.269,7.641-.083,9.661-.759-.443-1.512-.528-1.8-.154-.258.335-.063.941.433,1.51-4.548,3.047-14.08-.485-14.18-.523l-.362-.136L4.45,36.82A23.9,23.9,0,0,1,25.5,1.594m0,47.813A23.907,23.907,0,0,1,5.257,38.194l6.214-3.749c1.975.69,11.07,3.553,15.706-.124.625.272,1.194.282,1.434-.03.214-.279.116-.743-.206-1.219,1.773-2.447,1.9-6.248.379-11.33l-.039-.13-.08-.11c-.045-.063-4.579-6.374-3.619-10.834a4.445,4.445,0,0,1,1.086-2.131,2.429,2.429,0,0,0,1.261-.463A2.3,2.3,0,0,0,28.33,6.69c1.58-1.277,5.765-3.554,12.311.8a25.152,25.152,0,0,1,4.717,4.716A23.894,23.894,0,0,1,25.5,49.406" fill="#fff"/>
    <path id="패스_482" data-name="패스 482" d="M49.46,29.586a1.253,1.253,0,0,1-1.2.583,12.173,12.173,0,0,1-7.825-4.636,1.044,1.044,0,0,1,.119-1.45L46.97,18.53l-1.043-1.2-6.416,5.553a2.631,2.631,0,0,0-.319,3.654,13.759,13.759,0,0,0,8.881,5.22,2.961,2.961,0,0,0,.324.018,2.863,2.863,0,0,0,2.41-1.335c2.32-3.679,3.5-6.191,3.5-7.466H52.71c0,.706-.853,2.815-3.25,6.616" transform="translate(-7.841 -3.519)" fill="#fff"/>
    <path id="패스_483" data-name="패스 483" d="M5.349,42.052l.457-.139c.149-.045,3.667-1.137,4.672-3.469l-1.464-.63c-.5,1.151-2.172,2.008-3.182,2.4-1.181-1.751-.19-4.826-.179-4.859l-1.512-.5c-.061.183-1.468,4.522.869,6.859Z" transform="translate(-0.745 -7.08)" fill="#fff"/>
    <path id="패스_484" data-name="패스 484" d="M43.763,14.4A1.008,1.008,0,1,0,42.755,13.4,1.008,1.008,0,0,0,43.763,14.4" transform="translate(-8.685 -2.516)" fill="#fff"/>
    <path id="패스_485" data-name="패스 485" d="M24.151,40.343a1.008,1.008,0,1,0-1.008-1.008,1.008,1.008,0,0,0,1.008,1.008" transform="translate(-4.701 -7.785)" fill="#fff"/>
    <path id="패스_486" data-name="패스 486" d="M79.663,10.439a1.708,1.708,0,0,0-.891-.239H73.716a1.714,1.714,0,0,0-.885.239,1.806,1.806,0,0,0-.645.64,1.7,1.7,0,0,0-.239.89v6.837H73.8V16.033h4.877v2.773h1.877V11.969a1.664,1.664,0,0,0-.245-.89,1.877,1.877,0,0,0-.645-.64m-.987,3.729H73.8v-2.1h4.877Z" transform="translate(-14.614 -2.072)" fill="#fff"/>
    <path id="패스_487" data-name="패스 487" d="M86.256,14.129h3.371v5.1h1.829v-5.2a1.654,1.654,0,0,0-.233-.861,1.8,1.8,0,0,0-.627-.634,1.651,1.651,0,0,0-.873-.239h-5.3v6.933h1.829Z" transform="translate(-17.149 -2.498)" fill="#fff"/>
    <rect id="사각형_184" data-name="사각형 184" width="1.829" height="6.933" transform="translate(75.573 9.802)" fill="#fff"/>
    <rect id="사각형_185" data-name="사각형 185" width="1.829" height="1.841" transform="translate(75.573 7.53)" fill="#fff"/>
    <path id="패스_488" data-name="패스 488" d="M100.131,14.129h2.295v5.1h1.841v-5.1h2.295v5.1h1.817v-5.2a1.669,1.669,0,0,0-.233-.861,1.811,1.811,0,0,0-.628-.634,1.651,1.651,0,0,0-.873-.239H98.3v6.933h1.829Z" transform="translate(-19.968 -2.498)" fill="#fff"/>
    <path id="패스_489" data-name="패스 489" d="M113.338,18.994a1.651,1.651,0,0,0,.873.239h5.3v-5.2a1.661,1.661,0,0,0-.233-.861,1.8,1.8,0,0,0-.628-.634,1.644,1.644,0,0,0-.873-.239h-5.3v1.829h5.2v.717h-5.2V17.5a1.657,1.657,0,0,0,.233.86,1.8,1.8,0,0,0,.627.634m.968-2.546h3.371V17.4h-3.371Z" transform="translate(-22.847 -2.498)" fill="#fff"/>
    <path id="패스_490" data-name="패스 490" d="M123.355,18.412a1.63,1.63,0,0,0,.861.239h1.506V16.822h-1.4V9.434h-1.841v7.483a1.625,1.625,0,0,0,.239.86,1.856,1.856,0,0,0,.634.634" transform="translate(-24.879 -1.916)" fill="#fff"/>
    <path id="패스_491" data-name="패스 491" d="M79.633,28.454a1.7,1.7,0,0,0-.891-.239H71.917v8.594H73.77V33.988l4.973-.012a1.706,1.706,0,0,0,.891-.239,1.854,1.854,0,0,0,.645-.645,1.689,1.689,0,0,0,.245-.885V29.984a1.689,1.689,0,0,0-.245-.885,1.854,1.854,0,0,0-.645-.645m-.987,3.658H73.77V30.068h4.877Z" transform="translate(-14.608 -5.731)" fill="#fff"/>
    <path id="패스_492" data-name="패스 492" d="M85.551,32.129h3.741V30.3H85.467a1.658,1.658,0,0,0-.873.239,1.861,1.861,0,0,0-.634.634,1.63,1.63,0,0,0-.239.861v5.2h1.829Z" transform="translate(-17.006 -6.155)" fill="#fff"/>
    <path id="패스_493" data-name="패스 493" d="M97.84,36.994a1.8,1.8,0,0,0,.627-.634A1.662,1.662,0,0,0,98.7,35.5V32.033a1.662,1.662,0,0,0-.233-.861,1.8,1.8,0,0,0-.627-.634,1.651,1.651,0,0,0-.873-.239H93.405a1.63,1.63,0,0,0-.861.239,1.854,1.854,0,0,0-.634.634,1.623,1.623,0,0,0-.239.861V35.5a1.623,1.623,0,0,0,.239.861,1.854,1.854,0,0,0,.634.634,1.63,1.63,0,0,0,.861.239h3.562a1.651,1.651,0,0,0,.873-.239m-.968-1.59H93.5V32.129h3.371Z" transform="translate(-18.621 -6.155)" fill="#fff"/>
    <path id="패스_494" data-name="패스 494" d="M106.225,34.88h-2.57V31.6h2.57V29.776h-2.57V27.72h-1.829v7.256a1.63,1.63,0,0,0,.239.861,1.854,1.854,0,0,0,.634.634,1.651,1.651,0,0,0,.873.239h2.654Z" transform="translate(-20.683 -5.631)" fill="#fff"/>
    <path id="패스_495" data-name="패스 495" d="M115.59,35.4h-5.2v-.717h5.2V32.033a1.661,1.661,0,0,0-.233-.861,1.8,1.8,0,0,0-.628-.634,1.65,1.65,0,0,0-.872-.239h-3.563a1.63,1.63,0,0,0-.861.239,1.861,1.861,0,0,0-.634.634,1.629,1.629,0,0,0-.238.861V35.5a1.629,1.629,0,0,0,.238.861,1.861,1.861,0,0,0,.634.634,1.63,1.63,0,0,0,.861.239h5.3Zm-5.2-3.275h3.371v.956H110.39Z" transform="translate(-22.052 -6.155)" fill="#fff"/>
    <path id="패스_496" data-name="패스 496" d="M125.594,35.4h-5.2V32.129h5.188V30.3H120.3a1.63,1.63,0,0,0-.861.239,1.858,1.858,0,0,0-.634.633,1.635,1.635,0,0,0-.239.861V35.5a1.63,1.63,0,0,0,.239.861,1.854,1.854,0,0,0,.634.634,1.63,1.63,0,0,0,.861.239h5.3Z" transform="translate(-24.084 -6.155)" fill="#fff"/>
    <path id="패스_497" data-name="패스 497" d="M130.445,27.72h-1.829v7.256a1.635,1.635,0,0,0,.239.861,1.852,1.852,0,0,0,.634.633,1.644,1.644,0,0,0,.873.239h2.654V34.88h-2.57V31.6h2.57V29.776h-2.57Z" transform="translate(-26.125 -5.631)" fill="#fff"/>
    <rect id="사각형_186" data-name="사각형 186" width="1.829" height="6.933" transform="translate(107.87 24.145)" fill="#fff"/>
    <rect id="사각형_187" data-name="사각형 187" width="1.829" height="1.841" transform="translate(107.87 21.874)" fill="#fff"/>
    <path id="패스_498" data-name="패스 498" d="M144.953,30.539a1.648,1.648,0,0,0-.872-.239h-3.563a1.63,1.63,0,0,0-.861.239,1.861,1.861,0,0,0-.634.634,1.629,1.629,0,0,0-.238.861V35.5a1.629,1.629,0,0,0,.238.861,1.861,1.861,0,0,0,.634.634,1.63,1.63,0,0,0,.861.239h3.563a1.648,1.648,0,0,0,.872-.239,1.8,1.8,0,0,0,.628-.634,1.661,1.661,0,0,0,.233-.861V32.033a1.661,1.661,0,0,0-.233-.861,1.8,1.8,0,0,0-.628-.634m-.967,4.865h-3.371V32.129h3.371Z" transform="translate(-28.191 -6.155)" fill="#fff"/>
    <path id="패스_499" data-name="패스 499" d="M155.571,31.173a1.81,1.81,0,0,0-.628-.634,1.654,1.654,0,0,0-.872-.239h-5.3v6.933H150.6v-5.1h3.371v5.1H155.8v-5.2a1.661,1.661,0,0,0-.233-.861" transform="translate(-30.22 -6.155)" fill="#fff"/>
    <path id="패스_500" data-name="패스 500" d="M72.8,46.439a1.81,1.81,0,0,0-.64.64,1.7,1.7,0,0,0-.24.89v5.068a1.7,1.7,0,0,0,.24.89,1.81,1.81,0,0,0,.64.64,1.7,1.7,0,0,0,.89.239H80.5V52.942H74.164a.354.354,0,0,1-.394-.394V48.459a.4.4,0,0,1,.1-.3.413.413,0,0,1,.293-.1H80.5V46.2H73.686a1.7,1.7,0,0,0-.89.239" transform="translate(-14.608 -9.384)" fill="#fff"/>
    <path id="패스_501" data-name="패스 501" d="M90.19,48.539a1.651,1.651,0,0,0-.873-.239H85.755a1.63,1.63,0,0,0-.861.239,1.854,1.854,0,0,0-.634.634,1.63,1.63,0,0,0-.239.861V53.5a1.63,1.63,0,0,0,.239.861,1.854,1.854,0,0,0,.634.634,1.63,1.63,0,0,0,.861.239h5.3V53.4h-5.2v-.717h5.2V50.033a1.661,1.661,0,0,0-.233-.861,1.8,1.8,0,0,0-.628-.634m-.968,2.546H85.851v-.956h3.371Z" transform="translate(-17.067 -9.811)" fill="#fff"/>
    <path id="패스_502" data-name="패스 502" d="M100.615,48.539a1.663,1.663,0,0,0-.873-.239h-5.3v6.933h1.829v-5.1h3.371v5.1h1.829v-5.2a1.661,1.661,0,0,0-.233-.861,1.815,1.815,0,0,0-.627-.634" transform="translate(-19.184 -9.811)" fill="#fff"/>
    <path id="패스_503" data-name="패스 503" d="M106.7,45.72h-1.829v7.256a1.635,1.635,0,0,0,.239.861,1.852,1.852,0,0,0,.634.633,1.644,1.644,0,0,0,.873.239h2.654V52.88H106.7V49.6h2.57V47.776H106.7Z" transform="translate(-21.302 -9.287)" fill="#fff"/>
    <path id="패스_504" data-name="패스 504" d="M117.775,48.539a1.651,1.651,0,0,0-.873-.239H113.34a1.63,1.63,0,0,0-.861.239,1.854,1.854,0,0,0-.634.634,1.63,1.63,0,0,0-.239.861V53.5a1.63,1.63,0,0,0,.239.861,1.854,1.854,0,0,0,.634.634,1.63,1.63,0,0,0,.861.239h5.3V53.4h-5.2v-.717h5.2V50.033a1.662,1.662,0,0,0-.233-.861,1.8,1.8,0,0,0-.627-.634m-.968,2.546h-3.371v-.956h3.371Z" transform="translate(-22.67 -9.811)" fill="#fff"/>
    <path id="패스_505" data-name="패스 505" d="M122.77,48.539a1.861,1.861,0,0,0-.634.634,1.63,1.63,0,0,0-.239.861v5.2h1.829v-5.1h3.741V48.3h-3.825a1.659,1.659,0,0,0-.873.239" transform="translate(-24.76 -9.811)" fill="#fff"/>
  </g>
</svg>
