<svg xmlns="http://www.w3.org/2000/svg" xmlns:xlink="http://www.w3.org/1999/xlink" width="180" height="180" viewBox="0 0 180 180">
  <defs>
    <clipPath id="clip-path">
      <rect id="사각형_194" data-name="사각형 194" width="171.135" height="165.578" fill="#395a7d"/>
    </clipPath>
  </defs>
  <g id="slogan" transform="translate(-867 -1545)">
    <g id="그룹_142" data-name="그룹 142" transform="translate(871 1552)" style="isolation: isolate">
      <g id="그룹_140" data-name="그룹 140" transform="translate(0 0)" clip-path="url(#clip-path)">
        <path id="패스_506" data-name="패스 506" d="M1.742,40.862a2.181,2.181,0,0,0-1.2,1.832L.005,51.463A2.135,2.135,0,0,0,.23,52.584a2.164,2.164,0,0,0,1.834,1.2l10.957.67.091-1.479-4.8-.293.62-10.192,4.8.295.091-1.48L2.865,40.637a2.141,2.141,0,0,0-1.124.225M6.829,52.592l-4.675-.285a.681.681,0,0,1-.49-.24.688.688,0,0,1-.179-.514l.536-8.767a.717.717,0,0,1,.756-.67l4.675.285Z" transform="translate(0 33.718)" fill="#395a7d"/>
        <path id="패스_507" data-name="패스 507" d="M5.729,33.423a2.306,2.306,0,0,0-.977.586,2.079,2.079,0,0,0-.56,1L2.108,43.354,12.4,45.927l.362-1.455L4.619,42.435a.67.67,0,0,1-.436-.337.719.719,0,0,1-.079-.547l1.543-6.179a.7.7,0,0,1,.326-.436.693.693,0,0,1,.54-.082l8.146,2.038.366-1.458L6.877,33.4a2.122,2.122,0,0,0-1.147.024" transform="translate(1.749 27.66)" fill="#395a7d"/>
        <rect id="사각형_189" data-name="사각형 189" width="1.502" height="10.612" transform="matrix(0.347, -0.938, 0.938, 0.347, 7.503, 58.028)" fill="#395a7d"/>
        <rect id="사각형_190" data-name="사각형 190" width="1.5" height="1.501" transform="translate(4.243 56.822) rotate(-69.73)" fill="#395a7d"/>
        <path id="패스_508" data-name="패스 508" d="M13.481,21.742a2.223,2.223,0,0,0-1.089.315,2.126,2.126,0,0,0-.8.845L4.9,35.219l9.325,5.065.725-1.334L7.571,34.941a.718.718,0,0,1-.289-.968L9.4,30.083a.714.714,0,0,1,.964-.287L17.745,33.8l.725-1.334-7.38-4.009a.69.69,0,0,1-.342-.426.682.682,0,0,1,.055-.542l2.106-3.876a.713.713,0,0,1,.428-.35.685.685,0,0,1,.547.046l7.38,4.011.708-1.3-7.38-4.011a2.162,2.162,0,0,0-1.111-.271" transform="translate(4.065 18.042)" fill="#395a7d"/>
        <path id="패스_509" data-name="패스 509" d="M25.3,21.874l-6.437-5.393A2.11,2.11,0,0,0,17.815,16a2.323,2.323,0,0,0-1.135.1,2.124,2.124,0,0,0-.953.67l-5.512,6.576,1.149.964,5.512-6.58a.718.718,0,0,1,1.006-.088l1.8,1.5-5.971,7.125,2.946,2.468a2.115,2.115,0,0,0,1.043.479,2.32,2.32,0,0,0,1.135-.1,2.13,2.13,0,0,0,.941-.657ZM18.622,27.5a.719.719,0,0,1-1,.09l-1.8-1.5,5.006-5.976,2.342,1.962Z" transform="translate(8.478 13.253)" fill="#395a7d"/>
        <path id="패스_510" data-name="패스 510" d="M22.88,22.851a2.284,2.284,0,0,0,1.138.033,2.11,2.11,0,0,0,1.012-.54l1.3-1.233L25.3,20.02,24,21.254a.706.706,0,0,1-.511.192.689.689,0,0,1-.5-.221l-8.157-8.631-1.091,1.03L21.9,22.255a2.108,2.108,0,0,0,.981.6" transform="translate(11.405 10.45)" fill="#395a7d"/>
        <path id="패스_511" data-name="패스 511" d="M27.5,22.145,24.89,17.993l8.042-5.054a2.108,2.108,0,0,0,.776-.844,2.269,2.269,0,0,0,.251-1.1,2.105,2.105,0,0,0-.337-1.085L31.567,6.644a2.081,2.081,0,0,0-.831-.774,2.263,2.263,0,0,0-1.1-.251,2.086,2.086,0,0,0-1.1.333l-9.3,5.843,7,11.14Zm-3.338-5.7a.659.659,0,0,1-.441-.307l-2.055-3.27a.689.689,0,0,1-.09-.536.679.679,0,0,1,.315-.446l7.437-4.675a.692.692,0,0,1,.538-.09.7.7,0,0,1,.446.315l2.053,3.27a.652.652,0,0,1,.086.529.7.7,0,0,1-.32.441L24.7,16.342a.707.707,0,0,1-.534.1" transform="translate(15.97 4.662)" fill="#395a7d"/>
        <path id="패스_512" data-name="패스 512" d="M31.174,17.066l1.38-.589-3.3-7.724a.715.715,0,0,1,.375-.937l5.486-2.344-.589-1.38L29.038,6.436a2.108,2.108,0,0,0-.9.712,2.324,2.324,0,0,0-.423,1.058,2.1,2.1,0,0,0,.157,1.136Z" transform="translate(22.983 3.395)" fill="#395a7d"/>
        <path id="패스_513" data-name="패스 513" d="M34.463,12.823a2.093,2.093,0,0,0,.575.994,2.313,2.313,0,0,0,.984.571,2.13,2.13,0,0,0,1.149.009l6.152-1.638a2.136,2.136,0,0,0,1.01-.578,2.338,2.338,0,0,0,.575-.986,2.142,2.142,0,0,0,.005-1.147L43.325,4.069a2.1,2.1,0,0,0-.576-.992,2.305,2.305,0,0,0-.984-.571,2.148,2.148,0,0,0-1.164,0L34.445,4.137a2.133,2.133,0,0,0-.994.578,2.326,2.326,0,0,0-.571.983,2.131,2.131,0,0,0-.005,1.149Zm-.064-6.9a.7.7,0,0,1,.43-.335l6.156-1.632a.677.677,0,0,1,.54.075.69.69,0,0,1,.335.432l1.585,5.976a.715.715,0,0,1-.505.873l-6.156,1.636a.684.684,0,0,1-.54-.075.677.677,0,0,1-.331-.432L34.324,6.461a.677.677,0,0,1,.075-.54" transform="translate(27.218 2.011)" fill="#395a7d"/>
        <path id="패스_514" data-name="패스 514" d="M41.287,13.029a2.234,2.234,0,0,0,.895.692,2.111,2.111,0,0,0,1.156.15l3.845-.511-.2-1.489-3.845.512a.716.716,0,0,1-.8-.611l-.913-6.838,4.553-.609-.2-1.486-4.553.608L40.766,0,39.278.2,40.85,11.969a2.17,2.17,0,0,0,.437,1.059" transform="translate(32.595 -0.001)" fill="#395a7d"/>
        <path id="패스_515" data-name="패스 515" d="M44.462,11a2.283,2.283,0,0,0,.82.792,2.1,2.1,0,0,0,1.111.284l8.6-.139-.024-1.5-8.6.139a.719.719,0,0,1-.726-.7L45.606,7.53l9.312-.152-.062-3.843a2.1,2.1,0,0,0-.32-1.1,2.329,2.329,0,0,0-.818-.794,2.156,2.156,0,0,0-1.131-.282l-6.366.1a2.094,2.094,0,0,0-1.1.317,2.328,2.328,0,0,0-.792.82,2.1,2.1,0,0,0-.284,1.111l.1,6.185a2.113,2.113,0,0,0,.318,1.1m1.283-7.815a.692.692,0,0,1,.5-.22l6.368-.1a.69.69,0,0,1,.507.2.7.7,0,0,1,.218.5l.038,2.34-7.8.13-.037-2.344a.683.683,0,0,1,.2-.505" transform="translate(36.549 1.128)" fill="#395a7d"/>
        <path id="패스_516" data-name="패스 516" d="M51.549,11.706a2.126,2.126,0,0,0,1.045.472l8.492,1.36.238-1.482L52.831,10.7a.678.678,0,0,1-.463-.287.689.689,0,0,1-.13-.529l.979-6.108a.714.714,0,0,1,.816-.591l8.456,1.352.238-1.48L54.272,1.7a2.115,2.115,0,0,0-1.14.123,2.334,2.334,0,0,0-.924.668,2.125,2.125,0,0,0-.472,1.047l-.977,6.106a2.122,2.122,0,0,0,.123,1.142,2.336,2.336,0,0,0,.668.922" transform="translate(42.097 1.385)" fill="#395a7d"/>
        <path id="패스_517" data-name="패스 517" d="M57.3,13.525a2.259,2.259,0,0,0,.536,1,2.162,2.162,0,0,0,1,.606l3.722,1.1.423-1.442L59.249,13.69a.723.723,0,0,1-.483-.887l1.947-6.619,4.406,1.3.423-1.44-4.406-1.3.981-3.334L60.678.985l-3.35,11.394a2.159,2.159,0,0,0-.033,1.145" transform="translate(47.495 0.817)" fill="#395a7d"/>
        <rect id="사각형_191" data-name="사각형 191" width="10.614" height="1.5" transform="translate(111.171 17.511) rotate(-69.272)" fill="#395a7d"/>
        <rect id="사각형_192" data-name="사각형 192" width="1.501" height="1.5" transform="translate(115.627 5.739) rotate(-69.354)" fill="#395a7d"/>
        <path id="패스_518" data-name="패스 518" d="M62.969,13.25a2.3,2.3,0,0,0,.353,1.083,2.108,2.108,0,0,0,.849.77l5.676,2.886a2.162,2.162,0,0,0,1.14.242,2.3,2.3,0,0,0,1.083-.355,2.113,2.113,0,0,0,.772-.849l2.8-5.512a2.112,2.112,0,0,0,.232-1.125,2.315,2.315,0,0,0-.353-1.083,2.156,2.156,0,0,0-.866-.78L68.982,5.643a2.1,2.1,0,0,0-1.125-.232,2.32,2.32,0,0,0-1.081.351,2.124,2.124,0,0,0-.77.851l-2.8,5.513a2.1,2.1,0,0,0-.232,1.124m1.57-.445,2.8-5.512a.682.682,0,0,1,.415-.353.7.7,0,0,1,.543.038l5.676,2.888a.686.686,0,0,1,.355.415.692.692,0,0,1-.042.543l-2.8,5.515a.72.72,0,0,1-.959.311l-5.676-2.886a.72.72,0,0,1-.313-.961" transform="translate(52.251 4.485)" fill="#395a7d"/>
        <path id="패스_519" data-name="패스 519" d="M69.537,17.921l4.97-6.769a.68.68,0,0,1,.476-.278.713.713,0,0,1,.536.135l5.135,3.766a.7.7,0,0,1,.282.468.687.687,0,0,1-.13.529l-4.97,6.772,1.211.887,4.968-6.769a2.115,2.115,0,0,0,.412-1.072,2.311,2.311,0,0,0-.172-1.127,2.1,2.1,0,0,0-.714-.9L74.607,8.479l-6.28,8.556Z" transform="translate(56.701 7.036)" fill="#395a7d"/>
        <path id="패스_520" data-name="패스 520" d="M77.577,22.547a.693.693,0,0,1,.253-.485l6.767-5.6a.719.719,0,0,1,1,.1l6.977,8.426,1.142-.944-6.977-8.43a2.176,2.176,0,0,0-3.092-.289l-6.765,5.6a2.182,2.182,0,0,0-.772,2.051,2.181,2.181,0,0,0,.479,1.041l6.979,8.428,1.142-.944-6.979-8.43a.7.7,0,0,1-.157-.522" transform="translate(63.137 12.289)" fill="#395a7d"/>
        <path id="패스_521" data-name="패스 521" d="M82.545,28.242a.688.688,0,0,1-.062-.543.7.7,0,0,1,.337-.43l2.044-1.144,4.545,8.132,3.354-1.876a2.123,2.123,0,0,0,.82-.8,2.338,2.338,0,0,0,.309-1.1,2.158,2.158,0,0,0-.285-1.129L90.5,23.8a2.11,2.11,0,0,0-.8-.82,2.3,2.3,0,0,0-1.1-.309,2.107,2.107,0,0,0-1.113.274l-5.4,3.019a2.123,2.123,0,0,0-.82.8,2.332,2.332,0,0,0-.309,1.1,2.115,2.115,0,0,0,.276,1.114l4.2,7.506,1.308-.734Zm5.673-3.989a.683.683,0,0,1,.542-.064.7.7,0,0,1,.43.337L92.3,30.087a.717.717,0,0,1-.274.97L89.976,32.2l-3.8-6.8Z" transform="translate(67.182 18.808)" fill="#395a7d"/>
        <path id="패스_522" data-name="패스 522" d="M96.194,39.223a2.329,2.329,0,0,0,.489-1.028,2.108,2.108,0,0,0-.088-1.144l-2.888-8.1-10,3.565.505,1.413,7.91-2.822a.679.679,0,0,1,.549.038.726.726,0,0,1,.37.414l2.139,6a.718.718,0,0,1-.434.911l-7.91,2.82.5,1.413,7.912-2.822a2.112,2.112,0,0,0,.941-.653" transform="translate(69.466 24.022)" fill="#395a7d"/>
        <path id="패스_523" data-name="패스 523" d="M87.563,40.44a.715.715,0,0,1,.551-.845l6.748-1.431.952,4.492,1.469-.311-.953-4.492,3.4-.721-.311-1.466L87.8,38.127a2.145,2.145,0,0,0-1.021.516,2.239,2.239,0,0,0-.624.946,2.15,2.15,0,0,0-.06,1.162l.8,3.8,1.468-.311Z" transform="translate(71.403 29.597)" fill="#395a7d"/>
        <path id="패스_524" data-name="패스 524" d="M96.951,41.627a2.323,2.323,0,0,0-.866-.743,2.138,2.138,0,0,0-1.127-.216l-6.167.474a2.152,2.152,0,0,0-1.081.386,2.335,2.335,0,0,0-.741.866,2.135,2.135,0,0,0-.216,1.127l.661,8.575,1.5-.113L88.25,43.4a.717.717,0,0,1,.657-.765l2.335-.177.715,9.285,3.83-.295a2.127,2.127,0,0,0,1.081-.384,2.349,2.349,0,0,0,.741-.866,2.131,2.131,0,0,0,.214-1.147l-.487-6.346a2.146,2.146,0,0,0-.386-1.081m-.794,8.062a.686.686,0,0,1-.485.249l-2.337.177-.6-7.771,2.335-.179a.717.717,0,0,1,.767.657l.489,6.35a.7.7,0,0,1-.172.518" transform="translate(71.986 33.742)" fill="#395a7d"/>
        <path id="패스_525" data-name="패스 525" d="M96.562,48.565a2.124,2.124,0,0,0-1.085-.375L87.1,47.646l-.1,1.5,8.383.543a.7.7,0,0,1,.489.243.693.693,0,0,1,.177.516L95.658,56.4l1.5.1.386-5.951a2.129,2.129,0,0,0-.229-1.125,2.319,2.319,0,0,0-.752-.855" transform="translate(72.194 39.538)" fill="#395a7d"/>
        <path id="패스_526" data-name="패스 526" d="M26.243,80.568a11.15,11.15,0,0,0-4.791-2.635,2.237,2.237,0,0,0-2.232.805,2.307,2.307,0,0,0-.339,2.362c.452,1.215,1.7,2.582,3.59,4.115s3.469,2.463,4.752,2.653a2.317,2.317,0,0,0,2.258-.807A2.249,2.249,0,0,0,29.8,84.7a11.083,11.083,0,0,0-3.552-4.134m2.088,5.561a1.143,1.143,0,0,1-1.144.392,9.443,9.443,0,0,1-3.943-2.258,9.436,9.436,0,0,1-3.021-3.393,1.181,1.181,0,0,1,.148-1.2,1.229,1.229,0,0,1,1.144-.393,9.432,9.432,0,0,1,3.943,2.258,9.436,9.436,0,0,1,3.021,3.393,1.183,1.183,0,0,1-.148,1.2" transform="translate(15.523 64.641)" fill="#395a7d"/>
        <path id="패스_527" data-name="패스 527" d="M28.771,81.28l4.392,3.563.785-.966-8.67-7.034,1.855-2.287,8.584,6.964.8-.981-9.72-7.888-3.436,4.236,4.264,3.458-1.4,1.722L21.095,77.9l-.8.981,11.455,9.3.8-.983L27.377,83Z" transform="translate(16.845 60.288)" fill="#395a7d"/>
        <path id="패스_528" data-name="패스 528" d="M29.578,82.01l6.075,2.637-.737,1.694-5.05-2.192-.474,1.092,10.136,4.4-.662,1.528-10.136-4.4-1.61,3.709,11.846,5.142.474-1.089L28.934,89.968l.657-1.511,10.136,4.4,1.618-3.727-5.085-2.207.736-1.7,6.11,2.653.5-1.158L30.082,80.851Z" transform="translate(22.505 67.094)" fill="#395a7d"/>
        <path id="패스_529" data-name="패스 529" d="M29.647,82.265l11.479,4.986,1.894-4.364L31.543,77.9ZM41.19,83.429l-.926,2.132-8.792-3.819L32.4,79.61Z" transform="translate(24.603 64.647)" fill="#395a7d"/>
        <path id="패스_530" data-name="패스 530" d="M51.265,92.613,52.6,82.9l-1.449-.2-.467,3.407-9.768-1.339.467-3.405-1.449-.2L38.6,90.877l5.636.772-.578,4.221-6.505-.891-.174,1.268L51.4,98.224l.174-1.268-6.45-.882.578-4.225ZM40.224,89.788l.512-3.733L50.5,87.394l-.512,3.731Z" transform="translate(30.684 67.352)" fill="#395a7d"/>
        <path id="패스_531" data-name="패스 531" d="M55.7,93.715l-.406-3.03a8.188,8.188,0,0,0,4.267-1.791,2.7,2.7,0,0,0,.847-2.368,2.676,2.676,0,0,0-1.44-2.06,9.071,9.071,0,0,0-5.356-.538,9.069,9.069,0,0,0-5.025,1.925,2.741,2.741,0,0,0,.593,4.43,8.34,8.34,0,0,0,4.661.595l.406,3.032-6.514.871.168,1.272,14.447-1.934-.17-1.27Zm-5.709-4.556a1.507,1.507,0,0,1-.8-1.133,1.561,1.561,0,0,1,.47-1.319c.692-.758,2.194-1.272,4.117-1.53a7.183,7.183,0,0,1,4.375.393,1.56,1.56,0,0,1,.8,1.151,1.5,1.5,0,0,1-.472,1.3c-.71.778-2.192,1.29-4.115,1.548s-3.508.156-4.379-.412" transform="translate(39.597 69.527)" fill="#395a7d"/>
        <path id="패스_532" data-name="패스 532" d="M60.54,82.446l-5.989.8-.289-2.157-1.488.2.289,2.161-6.007.8.17,1.27L60.71,83.714Z" transform="translate(39.049 67.29)" fill="#395a7d"/>
        <path id="패스_533" data-name="패스 533" d="M61.335,89.752l-1.619-3.766-1.345.58L60.49,91.49l11.6-4.988-.5-1.162Z" transform="translate(48.439 70.819)" fill="#395a7d"/>
        <path id="패스_534" data-name="패스 534" d="M59.524,84.271l2.4-1.034,2.533,5.881,1.294-.554-4.282-9.953-1.294.558,1.244,2.891-2.4,1.032Z" transform="translate(48.976 65.235)" fill="#395a7d"/>
        <rect id="사각형_193" data-name="사각형 193" width="1.427" height="11.236" transform="matrix(0.919, -0.395, 0.395, 0.919, 112.428, 142.895)" fill="#395a7d"/>
        <path id="패스_535" data-name="패스 535" d="M63.744,85.94a4.707,4.707,0,0,1-4.617-3.091L57.875,79.94l-1.328.571,1.266,2.942a5.321,5.321,0,0,1-.8,5.782l.543,1.259a6.863,6.863,0,0,0,2.077-4.659A6.321,6.321,0,0,0,64.285,87.2Z" transform="translate(46.925 66.338)" fill="#395a7d"/>
        <path id="패스_536" data-name="패스 536" d="M76.629,86.289l-3.517,2.842L69.57,84.745l4.357-3.521-.805-1-4.357,3.521-3.44-4.258,4.856-3.921-.805-1L63.394,79.4l9.387,11.62,4.6-3.715a8.878,8.878,0,0,0,2.479-2.758l-.77-.953a9.454,9.454,0,0,1-2.461,2.694" transform="translate(52.607 61.882)" fill="#395a7d"/>
        <path id="패스_537" data-name="패스 537" d="M68.188,73.556l4.278,5.3-2.677,2.161.818,1.012,2.677-2.163,5.2,6.437,1.155-.933-10.3-12.745Z" transform="translate(56.586 60.265)" fill="#395a7d"/>
        <path id="패스_538" data-name="패스 538" d="M123.717,44.826a32.166,32.166,0,0,0-3.239-5.382,57.786,57.786,0,1,0,3.211,5.394ZM72.649,15.766a55.457,55.457,0,0,1,29.408,8.406C90.483,19.2,82.368,22.787,78.335,25.627c-1.255-1.131-3.532-1.049-5.4.3-2.075,1.495-2.849,3.969-1.727,5.524.048.066.112.112.163.172a13.069,13.069,0,0,0-2.448,5.325C66.556,47.971,76.457,62.271,77.6,63.882c3.114,10.454,3.01,18.191-.265,23.089-1.978-1.44-4.134-1.834-4.889-.851-.694.9.04,2.657,1.643,4.13-10.816,7.42-33.3-.917-33.536-1.008l-.415-.157L23.979,98.841a55.772,55.772,0,0,1,48.67-83.075m0,111.621A55.835,55.835,0,0,1,24.89,100.426l15.44-9.318c3.369,1.211,24.579,8.351,35.314.291,1.749,1.028,3.488,1.224,4.15.364.6-.787.121-2.216-1.069-3.546,3.753-5.387,3.956-13.777.587-25.007l-.137-.276c-.108-.148-10.754-14.946-8.467-25.6a11.253,11.253,0,0,1,2.264-4.772,5.171,5.171,0,0,0,4.022-1A4.757,4.757,0,0,0,79.182,27.2c4.212-3.127,13.982-7.559,28.776,2.284a58.72,58.72,0,0,1,11.061,11.076,55.781,55.781,0,0,1-46.37,86.83" transform="translate(12.455 11.564)" fill="#395a7d"/>
        <path id="패스_539" data-name="패스 539" d="M78.405,59.087a3.8,3.8,0,0,1-3.638,1.76C65.419,59.757,59.117,53.5,56.193,49.865a3.309,3.309,0,0,1,.388-4.595L71.315,32.522l-1.2-1.382L55.382,43.887a5.133,5.133,0,0,0-.615,7.125c3.1,3.852,9.792,10.487,19.788,11.654a5.608,5.608,0,0,0,5.4-2.6c3.6-5.705,7.885-13.226,7.885-16.655h-1.83c0,2.265-2.842,8.128-7.6,15.68" transform="translate(44.489 25.841)" fill="#395a7d"/>
        <path id="패스_540" data-name="패스 540" d="M21.888,63.651l.525-.159c.326-.1,8.013-2.481,10.154-7.451l-1.68-.726c-1.513,3.511-6.767,5.636-8.469,6.243-3.619-4.3-.984-12.447-.957-12.533l-1.737-.578c-.132.4-3.2,9.843,1.775,14.816Z" transform="translate(15.494 40.203)" fill="#395a7d"/>
        <path id="패스_541" data-name="패스 541" d="M59.58,30.454a2.316,2.316,0,1,0-2.315-2.315,2.314,2.314,0,0,0,2.315,2.315" transform="translate(47.521 21.429)" fill="#395a7d"/>
        <path id="패스_542" data-name="패스 542" d="M39.968,56.393a2.316,2.316,0,1,0-2.315-2.315,2.314,2.314,0,0,0,2.315,2.315" transform="translate(31.246 42.954)" fill="#395a7d"/>
      </g>
    </g>
    <rect id="사각형_222" data-name="사각형 222" width="180" height="180" transform="translate(867 1545)" fill="none"/>
  </g>
</svg>
