<svg xmlns="http://www.w3.org/2000/svg" xmlns:xlink="http://www.w3.org/1999/xlink" width="130" height="130" viewBox="0 0 130 130">
  <defs>
    <clipPath id="clip-path">
      <rect id="사각형_194" data-name="사각형 194" width="125" height="120.941" fill="none"/>
    </clipPath>
  </defs>
  <g id="그룹_149" data-name="그룹 149" transform="translate(-1565 -573)">
    <g id="그룹_141" data-name="그룹 141" transform="translate(1567 577)">
      <g id="그룹_140" data-name="그룹 140" transform="translate(0 0)" clip-path="url(#clip-path)">
        <path id="패스_506" data-name="패스 506" d="M1.272,40.8a1.593,1.593,0,0,0-.878,1.338L0,48.543a1.559,1.559,0,0,0,.164.819,1.581,1.581,0,0,0,1.339.877l8,.489.067-1.08-3.508-.214.453-7.445,3.508.215.067-1.081-8-.488a1.564,1.564,0,0,0-.821.164m3.716,8.567-3.415-.208a.5.5,0,0,1-.358-.175.5.5,0,0,1-.131-.376l.392-6.4a.523.523,0,0,1,.552-.489l3.415.208Z" transform="translate(0 13.675)" fill="#fff"/>
        <path id="패스_507" data-name="패스 507" d="M4.753,33.4a1.685,1.685,0,0,0-.714.428,1.518,1.518,0,0,0-.409.731L2.108,40.652l7.519,1.879.265-1.063-5.95-1.488a.49.49,0,0,1-.318-.246.525.525,0,0,1-.057-.4l1.127-4.514a.513.513,0,0,1,.238-.318.506.506,0,0,1,.394-.06l5.95,1.489.267-1.065L5.591,33.381a1.55,1.55,0,0,0-.838.017" transform="translate(0.709 11.218)" fill="#fff"/>
        <rect id="사각형_189" data-name="사각형 189" width="1.097" height="7.752" transform="matrix(0.347, -0.938, 0.938, 0.347, 5.481, 42.384)" fill="#fff"/>
        <rect id="사각형_190" data-name="사각형 190" width="1.096" height="1.096" transform="translate(3.099 41.504) rotate(-69.73)" fill="#fff"/>
        <path id="패스_508" data-name="패스 508" d="M11.167,21.742a1.624,1.624,0,0,0-.8.23,1.553,1.553,0,0,0-.585.617l-4.888,9,6.811,3.7.529-.974L6.85,31.383a.525.525,0,0,1-.211-.707l1.546-2.842a.522.522,0,0,1,.7-.21l5.392,2.928.529-.974L9.421,26.65a.5.5,0,0,1-.25-.311.5.5,0,0,1,.04-.4l1.538-2.831a.521.521,0,0,1,.313-.255.5.5,0,0,1,.4.033l5.39,2.93.517-.95-5.39-2.93a1.579,1.579,0,0,0-.811-.2" transform="translate(1.649 7.317)" fill="#fff"/>
        <path id="패스_509" data-name="패스 509" d="M21.231,20.283l-4.7-3.939a1.541,1.541,0,0,0-.762-.352,1.7,1.7,0,0,0-.829.074,1.551,1.551,0,0,0-.7.489l-4.026,4.8.839.7,4.026-4.806a.525.525,0,0,1,.735-.064l1.311,1.1-4.361,5.2,2.152,1.8a1.545,1.545,0,0,0,.762.35,1.7,1.7,0,0,0,.829-.072,1.555,1.555,0,0,0,.687-.48Zm-4.874,4.111a.525.525,0,0,1-.734.065l-1.311-1.1L17.968,19l1.711,1.433Z" transform="translate(3.438 5.375)" fill="#fff"/>
        <path id="패스_510" data-name="패스 510" d="M20.417,20.086a1.669,1.669,0,0,0,.831.024,1.541,1.541,0,0,0,.739-.394l.952-.9-.752-.8-.952.9a.516.516,0,0,1-.373.14A.5.5,0,0,1,20.5,18.9l-5.958-6.3-.8.752,5.957,6.3a1.54,1.54,0,0,0,.716.436" transform="translate(4.626 4.238)" fill="#fff"/>
        <path id="패스_511" data-name="패스 511" d="M25.276,17.69l-1.907-3.033,5.874-3.692a1.54,1.54,0,0,0,.567-.616,1.657,1.657,0,0,0,.183-.8,1.538,1.538,0,0,0-.246-.793l-1.5-2.387a1.52,1.52,0,0,0-.607-.565,1.653,1.653,0,0,0-.8-.183,1.523,1.523,0,0,0-.8.243l-6.79,4.268,5.114,8.137Zm-2.438-4.166a.482.482,0,0,1-.322-.225l-1.5-2.388a.5.5,0,0,1-.065-.392.5.5,0,0,1,.23-.326l5.432-3.415A.506.506,0,0,1,27,6.712a.513.513,0,0,1,.326.23l1.5,2.388a.477.477,0,0,1,.063.386.513.513,0,0,1-.234.322l-5.43,3.412a.517.517,0,0,1-.39.072" transform="translate(6.477 1.891)" fill="#fff"/>
        <path id="패스_512" data-name="패스 512" d="M30.236,13.568l1.008-.43L28.832,7.5a.522.522,0,0,1,.274-.684L33.113,5.1l-.43-1.008L28.676,5.8a1.54,1.54,0,0,0-.658.52,1.7,1.7,0,0,0-.309.773,1.537,1.537,0,0,0,.115.83Z" transform="translate(9.321 1.377)" fill="#fff"/>
        <path id="패스_513" data-name="패스 513" d="M34.014,10.02a1.529,1.529,0,0,0,.42.726,1.69,1.69,0,0,0,.719.417,1.556,1.556,0,0,0,.839.007l4.493-1.2a1.56,1.56,0,0,0,.738-.422,1.708,1.708,0,0,0,.42-.72,1.564,1.564,0,0,0,0-.838l-1.16-4.367a1.533,1.533,0,0,0-.421-.724,1.684,1.684,0,0,0-.719-.417,1.569,1.569,0,0,0-.85,0L34,3.675a1.558,1.558,0,0,0-.726.422,1.7,1.7,0,0,0-.417.718,1.556,1.556,0,0,0,0,.839Zm-.047-5.041a.51.51,0,0,1,.314-.245l4.5-1.192a.494.494,0,0,1,.394.055.5.5,0,0,1,.245.315l1.157,4.365a.523.523,0,0,1-.369.638l-4.5,1.195a.5.5,0,0,1-.394-.055.5.5,0,0,1-.242-.315l-1.16-4.367a.494.494,0,0,1,.055-.394" transform="translate(11.038 0.815)" fill="#fff"/>
        <path id="패스_514" data-name="패스 514" d="M40.746,9.516a1.632,1.632,0,0,0,.654.505,1.542,1.542,0,0,0,.845.11l2.808-.373L44.906,8.67,42.1,9.044a.523.523,0,0,1-.585-.446L40.846,3.6l3.325-.445-.146-1.085L40.7,2.517,40.365,0,39.278.144l1.148,8.6a1.585,1.585,0,0,0,.319.774" transform="translate(13.219 0)" fill="#fff"/>
        <path id="패스_515" data-name="패스 515" d="M44.349,8.4a1.668,1.668,0,0,0,.6.579,1.534,1.534,0,0,0,.811.207l6.28-.1-.017-1.1-6.28.1a.525.525,0,0,1-.531-.512l-.027-1.711,6.8-.111-.045-2.807a1.531,1.531,0,0,0-.234-.8,1.7,1.7,0,0,0-.6-.58,1.575,1.575,0,0,0-.826-.206l-4.65.076a1.53,1.53,0,0,0-.8.231,1.7,1.7,0,0,0-.579.6,1.534,1.534,0,0,0-.207.811L44.117,7.6a1.543,1.543,0,0,0,.233.8m.937-5.708a.506.506,0,0,1,.365-.16L50.3,2.456a.5.5,0,0,1,.37.147.51.51,0,0,1,.159.365l.028,1.709-5.694.095L45.139,3.06a.5.5,0,0,1,.147-.369" transform="translate(14.823 0.457)" fill="#fff"/>
        <path id="패스_516" data-name="패스 516" d="M51.328,9a1.553,1.553,0,0,0,.763.345l6.2.993.174-1.083-6.2-.993a.5.5,0,0,1-.338-.21.5.5,0,0,1-.095-.386L52.547,3.2a.522.522,0,0,1,.6-.432l6.176.988.174-1.081L53.317,1.69a1.545,1.545,0,0,0-.833.09,1.705,1.705,0,0,0-.675.488,1.552,1.552,0,0,0-.345.765l-.714,4.46a1.55,1.55,0,0,0,.09.834A1.707,1.707,0,0,0,51.328,9" transform="translate(17.073 0.561)" fill="#fff"/>
        <path id="패스_517" data-name="패스 517" d="M57.278,10.144a1.65,1.65,0,0,0,.392.728,1.579,1.579,0,0,0,.727.442l2.719.8.309-1.053-2.719-.8a.528.528,0,0,1-.353-.648l1.422-4.834,3.218.948L63.3,4.678,60.084,3.73,60.8,1.3,59.75.985,57.3,9.308a1.577,1.577,0,0,0-.024.837" transform="translate(19.262 0.331)" fill="#fff"/>
        <rect id="사각형_191" data-name="사각형 191" width="7.753" height="1.096" transform="translate(81.201 12.791) rotate(-69.272)" fill="#fff"/>
        <rect id="사각형_192" data-name="사각형 192" width="1.097" height="1.096" transform="translate(84.456 4.192) rotate(-69.354)" fill="#fff"/>
        <path id="패스_518" data-name="패스 518" d="M62.968,11.135a1.681,1.681,0,0,0,.258.791,1.54,1.54,0,0,0,.62.563L67.992,14.6a1.579,1.579,0,0,0,.833.176,1.683,1.683,0,0,0,.791-.259,1.544,1.544,0,0,0,.564-.62l2.046-4.026a1.543,1.543,0,0,0,.17-.822,1.691,1.691,0,0,0-.258-.791,1.575,1.575,0,0,0-.632-.569L67.36,5.579a1.53,1.53,0,0,0-.822-.17,1.7,1.7,0,0,0-.79.257,1.551,1.551,0,0,0-.563.621l-2.048,4.027a1.536,1.536,0,0,0-.17.821m1.147-.325,2.048-4.026a.5.5,0,0,1,.3-.258.512.512,0,0,1,.4.028l4.146,2.109a.521.521,0,0,1,.229.7L69.19,13.392a.526.526,0,0,1-.7.227l-4.146-2.108a.526.526,0,0,1-.229-.7" transform="translate(21.191 1.819)" fill="#fff"/>
        <path id="패스_519" data-name="패스 519" d="M69.21,15.376l3.63-4.944a.5.5,0,0,1,.347-.2.521.521,0,0,1,.392.1l3.75,2.751a.51.51,0,0,1,.206.342.5.5,0,0,1-.095.386l-3.63,4.947.885.648,3.629-4.944a1.545,1.545,0,0,0,.3-.783,1.688,1.688,0,0,0-.126-.823,1.537,1.537,0,0,0-.521-.655L72.914,8.479l-4.587,6.25Z" transform="translate(22.996 2.853)" fill="#fff"/>
        <path id="패스_520" data-name="패스 520" d="M77.174,20.461a.506.506,0,0,1,.184-.354l4.943-4.09a.525.525,0,0,1,.734.071l5.1,6.155.834-.69-5.1-6.158a1.589,1.589,0,0,0-2.259-.211l-4.941,4.09a1.593,1.593,0,0,0-.564,1.5,1.593,1.593,0,0,0,.35.76l5.1,6.156.834-.69-5.1-6.158a.508.508,0,0,1-.115-.381" transform="translate(25.606 4.984)" fill="#fff"/>
        <path id="패스_521" data-name="패스 521" d="M82.117,26.739a.5.5,0,0,1-.045-.4.51.51,0,0,1,.246-.314l1.493-.835,3.32,5.94,2.45-1.37a1.55,1.55,0,0,0,.6-.587,1.708,1.708,0,0,0,.226-.8,1.576,1.576,0,0,0-.209-.825l-2.269-4.059a1.541,1.541,0,0,0-.587-.6,1.678,1.678,0,0,0-.8-.226,1.539,1.539,0,0,0-.813.2l-3.943,2.205a1.55,1.55,0,0,0-.6.587,1.7,1.7,0,0,0-.226.8,1.545,1.545,0,0,0,.2.814l3.066,5.483.956-.536Zm4.143-2.914a.5.5,0,0,1,.4-.047.511.511,0,0,1,.314.246l2.269,4.062a.524.524,0,0,1-.2.708l-1.494.834-2.777-4.969Z" transform="translate(27.247 7.628)" fill="#fff"/>
        <path id="패스_522" data-name="패스 522" d="M92.828,36.453a1.7,1.7,0,0,0,.357-.751,1.54,1.54,0,0,0-.064-.835l-2.109-5.918-7.3,2.6.369,1.032,5.778-2.061a.5.5,0,0,1,.4.028.53.53,0,0,1,.27.3l1.562,4.381a.525.525,0,0,1-.317.666l-5.778,2.06.368,1.032,5.779-2.061a1.543,1.543,0,0,0,.687-.477" transform="translate(28.173 9.742)" fill="#fff"/>
        <path id="패스_523" data-name="패스 523" d="M87.154,39.153a.522.522,0,0,1,.4-.617l4.929-1.045.7,3.281,1.073-.227-.7-3.281,2.483-.527-.227-1.071-8.486,1.8a1.567,1.567,0,0,0-.746.377,1.635,1.635,0,0,0-.456.691,1.57,1.57,0,0,0-.044.849l.587,2.772,1.072-.227Z" transform="translate(28.958 12.003)" fill="#fff"/>
        <path id="패스_524" data-name="패스 524" d="M94.2,41.367a1.7,1.7,0,0,0-.632-.543,1.562,1.562,0,0,0-.823-.158l-4.5.346a1.572,1.572,0,0,0-.79.282,1.706,1.706,0,0,0-.541.632,1.56,1.56,0,0,0-.158.823l.482,6.263,1.093-.083-.482-6.266a.524.524,0,0,1,.48-.559l1.705-.13.523,6.782,2.8-.215a1.553,1.553,0,0,0,.79-.281,1.716,1.716,0,0,0,.541-.632,1.557,1.557,0,0,0,.156-.838l-.356-4.635a1.567,1.567,0,0,0-.282-.79m-.58,5.889a.5.5,0,0,1-.354.182l-1.707.13-.436-5.676,1.705-.131a.524.524,0,0,1,.56.48l.357,4.638a.508.508,0,0,1-.126.378" transform="translate(29.195 13.684)" fill="#fff"/>
        <path id="패스_525" data-name="패스 525" d="M93.983,48.317a1.552,1.552,0,0,0-.793-.274l-6.121-.4L87,48.739l6.123.4a.513.513,0,0,1,.357.178.506.506,0,0,1,.13.377l-.283,4.348,1.095.071.282-4.346a1.555,1.555,0,0,0-.167-.822,1.694,1.694,0,0,0-.549-.624" transform="translate(29.279 16.035)" fill="#fff"/>
        <path id="패스_526" data-name="패스 526" d="M24.211,79.847a8.144,8.144,0,0,0-3.5-1.925,1.634,1.634,0,0,0-1.631.588,1.685,1.685,0,0,0-.247,1.726,8.21,8.21,0,0,0,2.622,3.006,8.12,8.12,0,0,0,3.471,1.938,1.692,1.692,0,0,0,1.649-.589,1.643,1.643,0,0,0,.229-1.724,8.1,8.1,0,0,0-2.594-3.019m1.525,4.062a.835.835,0,0,1-.835.286,6.9,6.9,0,0,1-2.88-1.649,6.892,6.892,0,0,1-2.207-2.478.862.862,0,0,1,.108-.875.9.9,0,0,1,.835-.287,6.889,6.889,0,0,1,2.88,1.649,6.892,6.892,0,0,1,2.207,2.478.864.864,0,0,1-.108.877" transform="translate(6.296 26.216)" fill="#fff"/>
        <path id="패스_527" data-name="패스 527" d="M26.487,78.953l3.208,2.6.573-.706-6.333-5.138,1.355-1.671,6.27,5.087.581-.716-7.1-5.762-2.51,3.094,3.114,2.526-1.02,1.258L20.88,76.486,20.3,77.2l8.367,6.79.581-.718L25.469,80.21Z" transform="translate(6.832 24.45)" fill="#fff"/>
        <path id="패스_528" data-name="패스 528" d="M28.915,81.7l4.437,1.926-.539,1.238-3.689-1.6-.346.8,7.4,3.213L35.7,88.387l-7.4-3.214-1.176,2.709,8.653,3.756.346-.8L28.445,87.51l.48-1.1,7.4,3.217L37.509,86.9,33.8,85.289l.537-1.239L38.8,85.988l.366-.846-9.878-4.29Z" transform="translate(9.127 27.211)" fill="#fff"/>
        <path id="패스_529" data-name="패스 529" d="M29.647,81.089l8.384,3.642,1.383-3.188L31.032,77.9Zm8.431.85L37.4,83.5,30.98,80.707l.676-1.557Z" transform="translate(9.978 26.218)" fill="#fff"/>
        <path id="패스_530" data-name="패스 530" d="M47.413,89.526l.972-7.1-1.059-.144-.341,2.489L39.851,83.8l.341-2.487-1.059-.147-.973,7.1,4.117.564-.422,3.083L37.1,91.254l-.127.926,10.535,1.443.127-.926-4.711-.644.422-3.086Zm-8.065-2.064.374-2.727,7.135.978-.374,2.725Z" transform="translate(12.444 27.315)" fill="#fff"/>
        <path id="패스_531" data-name="패스 531" d="M53.55,91.038l-.3-2.213a5.981,5.981,0,0,0,3.117-1.308,1.975,1.975,0,0,0,.619-1.729,1.955,1.955,0,0,0-1.052-1.5,6.625,6.625,0,0,0-3.912-.393,6.624,6.624,0,0,0-3.67,1.406,2,2,0,0,0,.433,3.236,6.091,6.091,0,0,0,3.4.434l.3,2.215-4.758.636.123.929,10.552-1.413-.124-.928ZM49.38,87.71a1.1,1.1,0,0,1-.583-.827,1.14,1.14,0,0,1,.343-.964A5.218,5.218,0,0,1,52.148,84.8a5.247,5.247,0,0,1,3.2.287,1.14,1.14,0,0,1,.585.841,1.1,1.1,0,0,1-.345.95,5.148,5.148,0,0,1-3.006,1.131,5.119,5.119,0,0,1-3.2-.3" transform="translate(16.059 28.197)" fill="#fff"/>
        <path id="패스_532" data-name="패스 532" d="M56.9,82.08l-4.375.584-.211-1.576-1.087.144.211,1.578-4.388.587.124.928,9.849-1.319Z" transform="translate(15.837 27.29)" fill="#fff"/>
        <path id="패스_533" data-name="패스 533" d="M60.536,88.562l-1.183-2.751-.982.424,1.548,3.6,8.471-3.643-.364-.849Z" transform="translate(19.645 28.721)" fill="#fff"/>
        <path id="패스_534" data-name="패스 534" d="M59.388,82.745l1.755-.755,1.85,4.3.945-.4-3.128-7.27-.945.408.909,2.112-1.756.754Z" transform="translate(19.863 26.457)" fill="#fff"/>
        <rect id="사각형_193" data-name="사각형 193" width="1.043" height="8.207" transform="matrix(0.919, -0.395, 0.395, 0.919, 82.12, 104.373)" fill="#fff"/>
        <path id="패스_535" data-name="패스 535" d="M61.8,84.323a3.438,3.438,0,0,1-3.372-2.257l-.914-2.125-.97.417.925,2.149a3.887,3.887,0,0,1-.584,4.224l.4.92a5.013,5.013,0,0,0,1.517-3.4,4.617,4.617,0,0,0,3.4,1Z" transform="translate(19.031 26.904)" fill="#fff"/>
        <path id="패스_536" data-name="패스 536" d="M73.061,83.13l-2.569,2.076L67.9,82l3.182-2.572L70.5,78.7l-3.182,2.572L64.8,78.164,68.351,75.3l-.588-.728L63.394,78.1l6.857,8.487,3.36-2.713a6.485,6.485,0,0,0,1.811-2.014l-.563-.7a6.905,6.905,0,0,1-1.8,1.967" transform="translate(21.336 25.097)" fill="#fff"/>
        <path id="패스_537" data-name="패스 537" d="M68.188,73.3l3.125,3.869-1.955,1.578.6.739,1.955-1.58,3.8,4.7.843-.682L69.03,72.623Z" transform="translate(22.949 24.441)" fill="#fff"/>
        <path id="패스_538" data-name="패스 538" d="M94.411,36.5a23.494,23.494,0,0,0-2.366-3.931,42.208,42.208,0,1,0,2.346,3.94ZM57.11,15.273a40.507,40.507,0,0,1,21.48,6.14c-8.454-3.634-14.381-1.012-17.327,1.063a3.228,3.228,0,0,0-3.944.218c-1.516,1.092-2.081,2.9-1.262,4.035.035.048.082.082.119.126a9.546,9.546,0,0,0-1.788,3.889c-1.728,8.053,5.5,18.5,6.342,19.674,2.275,7.636,2.2,13.287-.194,16.865-1.445-1.052-3.019-1.339-3.571-.621-.507.66.029,1.941,1.2,3.017-7.9,5.42-24.321-.67-24.5-.736l-.3-.115L21.561,75.952a40.737,40.737,0,0,1,35.55-60.68m0,81.53A40.783,40.783,0,0,1,22.226,77.11L33.5,70.3c2.461.885,17.953,6.1,25.794.213,1.278.751,2.547.894,3.031.266.441-.575.088-1.619-.781-2.59,2.741-3.935,2.89-10.063.429-18.265l-.1-.2c-.079-.108-7.855-10.917-6.184-18.7a8.219,8.219,0,0,1,1.653-3.486,3.777,3.777,0,0,0,2.938-.728,3.474,3.474,0,0,0,1.6-3.188C64.959,21.338,72.095,18.1,82.9,25.29a42.89,42.89,0,0,1,8.079,8.09A40.743,40.743,0,0,1,57.11,96.8" transform="translate(5.051 4.69)" fill="#fff"/>
        <path id="패스_539" data-name="패스 539" d="M71.721,51.553a2.774,2.774,0,0,1-2.657,1.286c-6.828-.8-11.432-5.368-13.567-8.022a2.417,2.417,0,0,1,.283-3.356l10.762-9.312-.874-1.009L54.9,40.45a3.749,3.749,0,0,0-.449,5.2c2.264,2.813,7.152,7.66,14.454,8.513a4.1,4.1,0,0,0,3.943-1.9C75.48,48.1,78.611,42.6,78.611,40.1H77.275c0,1.655-2.076,5.937-5.553,11.453" transform="translate(18.043 10.48)" fill="#fff"/>
        <path id="패스_540" data-name="패스 540" d="M21.021,59.552l.384-.116c.238-.072,5.853-1.812,7.417-5.442l-1.227-.531c-1.105,2.565-4.943,4.117-6.186,4.56-2.644-3.142-.719-9.091-.7-9.154l-1.268-.422c-.1.293-2.335,7.189,1.3,10.822Z" transform="translate(6.284 16.305)" fill="#fff"/>
        <path id="패스_541" data-name="패스 541" d="M58.956,29.206a1.691,1.691,0,1,0-1.691-1.691,1.69,1.69,0,0,0,1.691,1.691" transform="translate(19.273 8.69)" fill="#fff"/>
        <path id="패스_542" data-name="패스 542" d="M39.344,55.145a1.691,1.691,0,1,0-1.691-1.691,1.69,1.69,0,0,0,1.691,1.691" transform="translate(12.672 17.42)" fill="#fff"/>
      </g>
    </g>
    <rect id="사각형_252" data-name="사각형 252" width="130" height="130" transform="translate(1565 573)" fill="none"/>
  </g>
</svg>
