<svg width="142" height="142" viewBox="0 0 142 142" fill="none" xmlns="http://www.w3.org/2000/svg">
<g clip-path="url(#clip0_147_11)">
<path d="M140.088 93.2338C139.603 92.5505 138.804 92.152 137.977 92.152C130.844 92.152 126.022 88.5934 120.43 84.4371C119.232 83.5546 118.005 82.6436 116.75 81.761C111.643 78.2025 105.195 74.587 95.9504 74.587C92.0416 74.587 88.8747 74.6155 86.3069 74.7009H66.6203C62.3121 74.7009 58.8027 78.2025 58.8027 82.5012C58.8027 86.7999 62.3121 90.3015 66.6203 90.3015H84.8518C87.3055 90.7855 89.0459 92.9206 89.0459 95.4258C89.0459 97.2194 88.1043 98.8705 86.5636 99.81C85.5651 100.066 83.0258 100.749 79.7732 101.603C77.4622 102.173 75.0941 102.799 72.8401 103.425L72.3551 103.539C59.7157 106.87 55.4646 107.98 54.2092 108.265C53.6386 108.265 53.1536 108.265 52.7256 108.208L24.1088 89.7037L18.8875 85.9459C18.8875 85.9459 18.6878 85.8036 18.5737 85.7466C18.3169 85.5758 18.0316 85.4335 17.7463 85.2911C17.1757 85.0064 16.6621 84.7787 16.0629 84.6079C15.6635 84.494 15.207 84.3801 14.6934 84.3232C13.4095 84.1239 12.3539 84.1809 11.2697 84.3801C5.62051 84.9495 1.34082 89.5898 1.34082 95.2835C1.34082 98.1873 2.48207 100.892 4.53632 102.97C4.59338 103.027 4.62191 103.055 4.67898 103.112C5.44932 103.852 6.27673 104.45 7.16119 104.934L54.6372 139.267C54.8654 139.438 55.0937 139.552 55.379 139.637L55.7784 139.779C55.7784 139.779 55.864 139.808 55.8926 139.836C57.3191 140.32 58.6601 140.548 60.0011 140.548C60.7999 140.548 61.6273 140.463 62.4547 140.32C62.5118 140.32 62.5689 140.32 62.6259 140.292L62.8257 140.235C92.8976 132.605 114.467 127.168 125.138 124.549C125.252 124.549 125.338 124.492 125.423 124.464L126.365 124.122C131.557 122.841 135.523 122.158 137.863 122.158C139.289 122.158 140.459 120.99 140.459 119.567V117.83C140.459 117.688 140.488 117.517 140.488 117.346V95.255C140.573 94.5718 140.402 93.8601 140.003 93.2623L140.088 93.2338ZM135.352 117.09C132.699 117.375 129.246 118.058 125.052 119.111C124.967 119.111 124.824 119.168 124.738 119.225L123.854 119.567C113.098 122.215 91.6137 127.624 61.6273 135.225H61.4847C60.2293 135.481 59.1166 135.424 57.7471 134.968L10.157 100.636C10.157 100.636 9.92872 100.493 9.8146 100.436C9.32957 100.18 8.87307 99.8384 8.41657 99.4399C8.41657 99.4399 8.35951 99.3829 8.33098 99.3545C7.21826 98.2727 6.6191 96.8208 6.6191 95.312C6.6191 92.3228 8.9016 89.8461 11.9259 89.5898C12.04 89.5898 12.1256 89.5898 12.2398 89.5329C12.7533 89.419 13.2669 89.3906 13.9516 89.5044C14.1799 89.5329 14.4367 89.5898 14.6364 89.6468C14.8932 89.7322 15.1499 89.8461 15.4638 89.9884C15.635 90.0738 15.8062 90.1592 15.9488 90.2731C15.9773 90.2731 16.0344 90.33 16.0629 90.33L21.1415 94.0024C21.1415 94.0024 21.1986 94.0594 21.2556 94.0878L50.3575 112.905C50.5857 113.048 50.8711 113.19 51.1564 113.247C52.1835 113.503 53.3818 113.589 54.7798 113.503C54.9225 113.503 55.0937 113.503 55.2363 113.446C56.5488 113.133 62.7686 111.51 73.7246 108.635L74.2667 108.493C76.5207 107.838 78.8032 107.24 81.1142 106.671C84.8803 105.674 87.7334 104.934 88.3041 104.763C88.5038 104.707 88.7035 104.621 88.9032 104.536C92.2414 102.685 94.3241 99.2121 94.3241 95.4258C94.3241 90.3016 90.6436 85.9744 85.5651 85.1488C85.4224 85.1488 85.2797 85.1203 85.1371 85.1203H66.6488C65.2223 85.1203 64.0525 83.9531 64.0525 82.5297C64.0525 81.1063 65.2223 79.9391 66.6488 79.9391H86.3925C88.9603 79.8537 92.0987 79.8252 95.9504 79.8252C103.711 79.8252 109.103 82.8144 113.782 86.0598C115.009 86.9138 116.179 87.7679 117.349 88.6504C122.542 92.4936 127.905 96.4792 135.352 97.2478V116.948C135.352 116.948 135.352 117.062 135.352 117.09Z" fill="white" stroke="white" stroke-miterlimit="10"/>
<path d="M91.0998 4.09948V3.95714C91.0713 2.59066 89.9871 1.50887 88.6176 1.42346H88.475C88.475 1.42346 88.3894 1.42346 88.3323 1.42346C70.1008 1.42346 54.1233 12.5261 47.447 28.81C46.2487 21.6644 42.9106 14.832 37.4326 9.36612C37.2328 9.19531 37.0617 9.0245 36.8619 8.85369C36.7763 8.76829 36.6907 8.71135 36.6052 8.62595C35.6351 7.71496 34.0944 7.71496 33.0958 8.56901C33.0387 8.62595 32.9817 8.65442 32.9246 8.71135C19.4864 22.1199 18.8873 43.6989 31.5551 57.8761L31.6407 57.99L15.7773 73.8184L18.4878 76.5229L34.3512 60.6945L34.4653 60.7799C41.2843 66.8437 49.8436 69.8613 58.3745 69.8613C67.5901 69.8613 76.7486 66.3597 83.7102 59.4134L83.8244 59.2996C84.7374 58.3316 84.7088 56.7374 83.8244 55.7126C83.7958 55.6556 83.7388 55.6271 83.7102 55.5702C77.8328 49.7057 70.3861 46.2895 62.6257 45.3501C79.345 39.0586 91.0428 23.0309 91.0428 4.09948H91.0998ZM78.1752 57.5061C66.6486 67.2138 49.4727 67.1283 38.0032 56.9082C37.8891 56.7943 37.7464 56.6805 37.6323 56.5951C37.5467 56.5381 37.4611 56.4527 37.404 56.3958C37.2614 56.2819 37.1472 56.1396 37.0046 56.0257C36.8905 55.9403 36.8049 55.8549 36.6052 55.6841C36.3484 55.4279 36.1201 55.1717 35.8919 54.887L35.4924 54.4315C25.2497 42.9587 25.1641 25.7923 34.9503 14.2911C44.3657 24.7675 45.4498 40.3966 37.347 52.0971C36.6337 53.1219 36.7478 54.5169 37.6608 55.3994C38.5453 56.2819 39.9433 56.4243 40.999 55.7126C52.4971 47.7984 67.7613 48.6809 78.2037 57.5061H78.1752ZM49.4727 42.9303C49.5869 41.4784 49.7581 39.998 50.0434 38.4608C53.2674 20.8389 68.1036 7.8573 85.793 6.71857C84.5376 26.2194 69.1308 41.6777 49.4727 42.9303Z" fill="white" stroke="white" stroke-miterlimit="10"/>
</g>
<defs>
<clipPath id="clip0_147_11">
<rect width="142" height="142" fill="white"/>
</clipPath>
</defs>
</svg>
