<svg width="30" height="30" viewBox="0 0 30 30" fill="#fff" xmlns="http://www.w3.org/2000/svg">
<path d="M15 26.875C13.3718 26.875 11.8353 26.5629 10.3906 25.9387C8.94592 25.3145 7.6859 24.4647 6.61056 23.3894C5.53525 22.3141 4.6855 21.0541 4.06131 19.6093C3.4371 18.1647 3.125 16.6282 3.125 15C3.125 13.359 3.4371 11.8193 4.06131 10.381C4.6855 8.94274 5.53525 7.68593 6.61056 6.61059C7.6859 5.53528 8.94592 4.68553 10.3906 4.06134C11.8353 3.43714 13.3718 3.12503 15 3.12503C16.641 3.12503 18.1806 3.43714 19.6189 4.06134C21.0572 4.68553 22.314 5.53528 23.3894 6.61059C24.4647 7.68593 25.3144 8.94274 25.9386 10.381C26.5628 11.8193 26.8749 13.359 26.8749 15C26.8749 16.6282 26.5628 18.1647 25.9386 19.6093C25.3144 21.0541 24.4647 22.3141 23.3894 23.3894C22.314 24.4647 21.0572 25.3145 19.6189 25.9387C18.1806 26.5629 16.641 26.875 15 26.875ZM15 24.9736C15.6378 24.1274 16.1747 23.274 16.6106 22.4134C17.0465 21.5529 17.4014 20.6121 17.6755 19.5913H12.3245C12.6145 20.6442 12.9735 21.6009 13.4014 22.4615C13.8293 23.3221 14.3621 24.1595 15 24.9736ZM12.5793 24.6298C12.1002 23.9423 11.6699 23.1607 11.2885 22.2848C10.9071 21.409 10.6106 20.5112 10.399 19.5913H6.15859C6.81886 20.8894 7.70429 21.98 8.81487 22.863C9.92548 23.746 11.1803 24.335 12.5793 24.6298ZM17.4206 24.6298C18.8196 24.335 20.0745 23.746 21.1851 22.863C22.2956 21.98 23.1811 20.8894 23.8413 19.5913H19.6009C19.3493 20.5192 19.0328 21.4211 18.6514 22.2969C18.27 23.1727 17.8597 23.9503 17.4206 24.6298ZM5.37256 17.7164H10.0192C9.9407 17.2516 9.88381 16.7961 9.84856 16.3498C9.81331 15.9034 9.79569 15.4535 9.79569 15C9.79569 14.5465 9.81331 14.0966 9.84856 13.6502C9.88381 13.2039 9.9407 12.7484 10.0192 12.2836H5.37256C5.25238 12.7083 5.16023 13.1498 5.09612 13.6082C5.03202 14.0665 4.99997 14.5304 4.99997 15C4.99997 15.4696 5.03202 15.9335 5.09612 16.3918C5.16023 16.8502 5.25238 17.2917 5.37256 17.7164ZM11.8942 17.7164H18.1058C18.1843 17.2516 18.2412 16.8001 18.2764 16.3618C18.3117 15.9235 18.3293 15.4696 18.3293 15C18.3293 14.5304 18.3117 14.0765 18.2764 13.6382C18.2412 13.1999 18.1843 12.7484 18.1058 12.2836H11.8942C11.8157 12.7484 11.7588 13.1999 11.7235 13.6382C11.6883 14.0765 11.6706 14.5304 11.6706 15C11.6706 15.4696 11.6883 15.9235 11.7235 16.3618C11.7588 16.8001 11.8157 17.2516 11.8942 17.7164ZM19.9807 17.7164H24.6274C24.7476 17.2917 24.8397 16.8502 24.9038 16.3918C24.9679 15.9335 25 15.4696 25 15C25 14.5304 24.9679 14.0665 24.9038 13.6082C24.8397 13.1498 24.7476 12.7083 24.6274 12.2836H19.9807C20.0592 12.7484 20.1161 13.2039 20.1514 13.6502C20.1866 14.0966 20.2043 14.5465 20.2043 15C20.2043 15.4535 20.1866 15.9034 20.1514 16.3498C20.1161 16.7961 20.0592 17.2516 19.9807 17.7164ZM19.6009 10.4087H23.8413C23.1731 9.09456 22.2936 8.004 21.2031 7.137C20.1125 6.27002 18.8517 5.67707 17.4206 5.35816C17.8998 6.08572 18.326 6.8814 18.6994 7.74519C19.0729 8.60898 19.3733 9.49681 19.6009 10.4087ZM12.3245 10.4087H17.6755C17.3854 9.36381 17.0204 8.40106 16.5805 7.52044C16.1406 6.63983 15.6138 5.8085 15 5.02644C14.3862 5.8085 13.8593 6.63983 13.4194 7.52044C12.9795 8.40106 12.6145 9.36381 12.3245 10.4087ZM6.15859 10.4087H10.399C10.6266 9.49681 10.9271 8.60898 11.3005 7.74519C11.6739 6.8814 12.1002 6.08572 12.5793 5.35816C11.1402 5.67707 9.87741 6.27203 8.79084 7.14303C7.7043 8.01403 6.82689 9.10258 6.15859 10.4087Z" fill="white"/>
</svg>
