<svg width="58" height="58" viewBox="0 0 58 58" fill="none" xmlns="http://www.w3.org/2000/svg">
<g clip-path="url(#clip0_127_1113)">
<path d="M27.1442 40.8679C25.3105 41.14 23.763 41.6947 22.4698 42.3749C20.9541 43.1599 19.7776 44.1436 18.866 45.096C18.707 45.2739 18.5586 45.4413 18.4208 45.6193H9.64453C9.76112 45.6193 9.87772 45.6193 9.99431 45.5983C12.2414 45.3786 13.9373 43.5575 13.9373 41.2865C13.9373 39.0155 12.146 37.184 9.98371 36.9643C9.86712 36.9433 9.76112 36.9433 9.64453 36.9433H22.5122C21.9716 37.8957 22.1942 39.162 23.1588 39.9051C23.7418 40.4074 25.7026 40.6377 27.1442 40.8679Z" stroke="black" stroke-miterlimit="10"/>
<path d="M32.5084 45.6193H23.6367C23.7215 45.4832 23.8169 45.3367 23.9123 45.2006C25.3644 43.254 27.1557 41.5796 27.8235 40.983C27.6221 40.9516 27.3889 40.9098 27.1451 40.8679C27.4525 40.826 27.7705 40.7842 28.0885 40.7528C27.7599 39.6853 27.3253 37.9376 26.8165 36.9433H28.9364C28.6714 38.2201 28.4913 39.7795 28.2581 40.7737C28.4701 40.8051 28.6714 40.8365 28.8728 40.8574C28.6926 40.9098 28.5337 40.9621 28.3853 41.004C29.0954 41.6214 30.9185 43.2959 32.2752 45.3053C32.3494 45.4099 32.4342 45.5146 32.5084 45.6193Z" stroke="black" stroke-miterlimit="10"/>
<path d="M48.0368 41.2865C48.0368 43.7145 45.9911 45.6193 43.638 45.6193H37.6706C37.554 45.4727 37.4374 45.3367 37.3102 45.2006C35.5931 43.411 32.9326 41.5272 28.873 40.8574C30.6325 40.3551 33.452 39.6853 34.2046 38.8481C34.6285 38.3143 34.9465 37.5817 34.9465 36.9433H43.744C46.1077 36.9433 48.0368 38.8481 48.0368 41.2865Z" stroke="black" stroke-miterlimit="10"/>
<path d="M53.0704 30.3814C52.7524 30.3814 52.4238 30.0675 52.4238 29.7431V8.88524C52.4238 8.57127 52.7418 8.24684 53.0704 8.24684C53.399 8.24684 53.717 8.56081 53.717 8.88524V29.6384C53.717 30.057 53.399 30.3814 53.0704 30.3814Z" fill="black"/>
<path d="M39.9911 49.5438L36.0269 47.6391L34.0978 50.6009C34.3946 49.0101 33.6527 47.231 32.5079 45.6193C32.4337 45.5146 32.3489 45.41 32.2748 45.3053C30.918 43.2959 29.0949 41.6214 28.3848 41.004C28.5332 40.9621 28.6921 40.9098 28.8723 40.8575C32.9319 41.5272 35.5924 43.411 37.3095 45.2006C37.4367 45.3367 37.5533 45.4728 37.6699 45.6193C38.486 46.5821 39.0478 47.5031 39.4082 48.2043C39.8321 49.0101 39.9911 49.5438 39.9911 49.5438Z" fill="#6C2C7A" stroke="black" stroke-miterlimit="10"/>
<path d="M28.8722 40.8575C28.6921 40.9098 28.5331 40.9621 28.3847 41.004C28.3211 40.9516 28.2787 40.9098 28.2363 40.8784C28.1409 40.7947 28.0879 40.7528 28.0879 40.7528C28.1409 40.7633 28.2045 40.7633 28.2575 40.7737C28.4695 40.8051 28.6709 40.8365 28.8722 40.8575Z" stroke="black" stroke-miterlimit="10"/>
<path d="M27.8237 40.983C27.1559 41.5796 25.3646 43.2541 23.9125 45.2007C23.8171 45.3367 23.7217 45.4832 23.6369 45.6193C22.577 47.21 21.7926 48.9368 22.0894 50.4962L20.1497 47.5345L16.1855 49.4392C16.1855 49.4392 16.7367 47.6391 18.422 45.6193C18.5598 45.4414 18.7082 45.2739 18.8672 45.096C19.7787 44.1436 20.9553 43.1599 22.471 42.375C23.7641 41.6947 25.3116 41.14 27.1453 40.8679C27.3891 40.9098 27.6223 40.9516 27.8237 40.983Z" fill="#6C2C7A" stroke="black" stroke-miterlimit="10"/>
<path d="M28.0879 40.7528C28.0879 40.7528 27.9925 40.8365 27.8229 40.983C27.6215 40.9516 27.3883 40.9098 27.1445 40.8679C27.4519 40.8261 27.7699 40.7842 28.0879 40.7528Z" stroke="black" stroke-miterlimit="10"/>
<path d="M53.3885 49.4392C55.6356 49.4392 57.4587 51.2393 57.4587 53.458C57.4587 55.6767 55.6356 57.4767 53.3885 57.4767C51.1415 57.4767 49.3184 55.6767 49.3184 53.458C49.3184 51.2393 51.1415 49.4392 53.3885 49.4392Z" stroke="black" stroke-miterlimit="10"/>
<path d="M6.52931 22.4381C8.03442 22.4381 9.21096 23.5998 9.21096 25.0859C9.21096 26.572 8.03442 27.7337 6.52931 27.7337C5.02419 27.7337 3.84766 26.572 3.84766 25.0859C3.84766 23.5998 5.02419 22.4381 6.52931 22.4381Z" stroke="black" stroke-miterlimit="10"/>
<path d="M56.7168 33.3432V38.7434H49.3184V33.3432C49.3184 31.3338 50.9295 29.7431 52.9646 29.7431C53.9291 29.7431 54.8937 30.1617 55.5402 30.8001C56.2928 31.4385 56.7168 32.2862 56.7168 33.3432Z" fill="#6C2C7A" stroke="black" stroke-miterlimit="10"/>
<path d="M45.3435 10.8946V24.3428H13.7148V11.1144L28.6176 15.0285L45.3435 10.8946Z" stroke="black" stroke-miterlimit="10"/>
<path d="M56.3884 42.8668C56.9289 42.8668 57.3529 43.2855 57.3529 43.8192C57.3529 44.3529 56.9289 44.8762 56.3884 44.8762C55.8478 44.8762 55.4238 44.4576 55.4238 43.9239C55.4238 43.3901 55.8478 42.8668 56.3884 42.8668Z" stroke="black" stroke-miterlimit="10"/>
<path d="M53.072 0.523277C53.6125 0.523277 54.0365 0.941899 54.0365 1.47564C54.0365 2.00938 53.6125 2.53266 53.072 2.53266C52.5314 2.53266 52.1074 2.11404 52.1074 1.5803C52.1074 1.04655 52.542 0.523277 53.072 0.523277Z" stroke="black" stroke-miterlimit="10"/>
<path d="M42.9919 29C43.5325 29 43.9564 29.4186 43.9564 29.9524C43.9564 30.4861 43.5219 30.9047 42.9919 30.9047C42.4619 30.9047 42.0273 30.4861 42.0273 29.9524C42.0273 29.4186 42.4619 29 42.9919 29Z" stroke="black" stroke-miterlimit="10"/>
<path d="M30.3356 50.8102C30.8762 50.8102 31.3002 51.2288 31.3002 51.7625C31.3002 52.2963 30.8656 52.7149 30.3356 52.7149C29.8057 52.7149 29.3711 52.2963 29.3711 51.7625C29.3711 51.2288 29.6891 50.8102 30.3356 50.8102Z" stroke="#020202" stroke-miterlimit="10"/>
<path d="M9.53877 51.5532C10.0793 51.5532 10.5033 51.9718 10.5033 52.5056C10.5033 53.0393 10.0687 53.458 9.53877 53.458C9.00879 53.458 8.57422 53.0393 8.57422 52.5056C8.57422 51.9718 9.00879 51.5532 9.53877 51.5532Z" stroke="black" stroke-miterlimit="10"/>
<path d="M5.45869 13.7622C5.99926 13.7622 6.42323 14.1808 6.42323 14.7145C6.42323 15.2483 5.99926 15.6669 5.45869 15.6669C4.91812 15.6669 4.49414 15.2483 4.49414 14.7145C4.49414 14.1808 4.91812 13.7622 5.45869 13.7622Z" stroke="black" stroke-miterlimit="10"/>
<path d="M1.49384 34.2956C2.03441 34.2956 2.45839 34.7142 2.45839 35.2479C2.45839 35.7817 2.02381 36.2003 1.49384 36.2003C0.963873 36.2003 0.529297 35.7817 0.529297 35.2479C0.529297 34.7142 0.953273 34.2956 1.49384 34.2956Z" stroke="black" stroke-miterlimit="10"/>
<path d="M55.1064 8.57127C54.6719 8.67593 28.6185 15.1332 28.6185 15.1332C28.5125 15.1332 4.49422 8.78058 3.84766 8.57127L28.6185 1.26633L55.1064 8.57127Z" fill="#6C2C7A" stroke="black" stroke-miterlimit="10"/>
<path d="M9.64597 36.9433C12.0096 36.9433 14.0447 38.8481 14.0447 41.2865C14.0447 43.725 12.1156 45.6297 9.64597 45.6297C8.46944 45.6297 7.39889 45.096 6.54034 44.3634C5.78778 43.6203 5.25781 42.4587 5.25781 41.297C5.25781 38.8585 7.2929 36.9538 9.65657 36.9538L9.64597 36.9433Z" stroke="#020202" stroke-miterlimit="10"/>
<path d="M34.946 36.9433C34.946 37.5817 34.6281 38.3143 34.2041 38.8481C33.4515 39.6853 30.6321 40.3551 28.8726 40.8575C28.6712 40.8365 28.4698 40.8051 28.2578 40.7737C28.491 39.7795 28.6712 38.2201 28.9362 36.9433C29.127 36.0328 29.3708 35.2584 29.6993 34.934C30.8759 33.6572 32.805 33.4479 34.0981 34.5049C34.6281 35.1433 35.0626 35.991 34.946 36.9433Z" fill="#6C2C7A" stroke="black" stroke-miterlimit="10"/>
<path d="M28.8737 40.8575C28.6935 40.9098 28.5345 40.9621 28.3861 41.004C28.3225 41.0249 28.2589 41.0458 28.1953 41.0668C28.2165 41.004 28.2271 40.9412 28.2377 40.8784C28.2377 40.847 28.2589 40.8156 28.2589 40.7737C28.4709 40.8051 28.6723 40.8365 28.8737 40.8575Z" stroke="black" stroke-miterlimit="10"/>
<path d="M28.088 40.7528C27.77 40.7842 27.4521 40.8261 27.1447 40.8679C25.7032 40.6377 23.7423 40.4074 23.1593 39.9051C22.1948 39.162 21.9722 37.8957 22.5127 36.9433C22.6187 36.734 22.7247 36.6294 22.8307 36.5143C23.6893 35.5619 25.3004 35.4572 26.3709 36.3049C26.5299 36.441 26.6783 36.6608 26.8161 36.9433C27.3249 37.9376 27.7594 39.6853 28.088 40.7528Z" fill="#6C2C7A" stroke="black" stroke-miterlimit="10"/>
<path d="M28.1939 41.0668C28.0879 41.0354 27.9607 41.0144 27.8229 40.983C27.6215 40.9516 27.3883 40.9098 27.1445 40.8679C27.4519 40.8261 27.7699 40.7842 28.0879 40.7528C28.1303 40.8679 28.1621 40.9726 28.1939 41.0668Z" stroke="black" stroke-miterlimit="10"/>
</g>
<defs>
<clipPath id="clip0_127_1113">
<rect width="58" height="58" fill="white"/>
</clipPath>
</defs>
</svg>
