<svg width="50" height="59" viewBox="0 0 50 59" fill="none" xmlns="http://www.w3.org/2000/svg">
<g clip-path="url(#clip0_22_309)">
<path d="M30.0778 49.1736H24.2988V54.9267H30.0778V49.1736Z" stroke="black" stroke-miterlimit="10"/>
<path d="M39.9032 54.9267H14.4639V56.7492H39.9032V54.9267Z" stroke="black" stroke-miterlimit="10"/>
<path d="M43.1398 56.7576H11.1357V58.5801H43.1398V56.7576Z" stroke="black" stroke-miterlimit="10"/>
<path d="M7.9923 41.6486C18.0886 51.6849 34.53 51.6765 44.6263 41.6402L43.0548 40.078C33.8118 49.2577 18.7899 49.2661 9.55532 40.0864C0.320786 30.9068 0.320786 15.9657 9.55532 6.78607L7.98385 5.22394C-2.12092 15.2686 -2.12092 31.6039 7.98385 41.6486H7.9923Z" stroke="black" stroke-miterlimit="10"/>
<path d="M42.6328 38.3647C42.4891 38.5075 42.354 38.6335 42.2103 38.7594C42.1005 38.8518 41.9991 38.9526 41.8808 39.0366C41.6865 39.213 41.4753 39.3809 41.2725 39.5405C40.8923 39.8429 40.5037 40.1368 40.0981 40.414C39.8362 40.5903 39.5743 40.7667 39.3039 40.9347C39.0758 41.0774 38.8477 41.2202 38.6111 41.3546C37.1917 42.1777 35.6625 42.8579 34.0234 43.3619C22.3641 46.948 9.99505 40.4643 6.38741 28.8827C4.0133 21.2484 6.02412 13.3034 11.0174 7.75189L11.9214 8.65054L12.6057 9.33922H12.6142L14.1265 10.8426L19.0522 15.7389L42.2019 38.751C42.3455 38.6251 42.4976 38.4907 42.6328 38.3647Z" stroke="black" stroke-miterlimit="10"/>
<path d="M43.9596 37.0209L21.9589 15.151L20.0241 13.2278C19.2891 12.9254 18.7315 12.6063 18.8159 12.2703C18.8328 12.2031 18.8497 12.1359 18.8751 12.0855L12.7666 6.01338C12.8849 5.8958 13.0116 5.78661 13.1468 5.67743C13.5692 5.31629 14.0086 4.97195 14.4648 4.64441C14.4902 4.61921 14.5155 4.59402 14.5408 4.58562C14.769 4.41765 15.0055 4.25807 15.2505 4.0985C15.9856 3.61138 16.7544 3.16626 17.5655 2.76313C17.6247 2.72953 17.6838 2.69594 17.7514 2.67074C18.2245 2.44398 18.7146 2.22562 19.213 2.02405C19.5003 1.91487 19.7876 1.80569 20.0748 1.70491C20.3621 1.59572 20.6493 1.50334 20.945 1.41096C23.5811 0.596294 26.2509 0.302344 28.8447 0.461917C29.0474 0.470315 29.2587 0.487112 29.4699 0.512308C29.6895 0.529105 29.9092 0.554301 30.1289 0.579497C30.3992 0.613091 30.6612 0.646685 30.9231 0.688678C30.9822 0.697077 31.0414 0.705475 31.092 0.713874C31.3455 0.755867 31.5905 0.806258 31.844 0.85665C32.1313 0.907041 32.4101 0.97423 32.6973 1.04142C32.9677 1.10861 33.2296 1.1758 33.4915 1.25138C33.7872 1.33537 34.0829 1.41935 34.3786 1.52014C34.6405 1.60412 34.9109 1.69651 35.1728 1.79729C35.5023 1.91487 35.8234 2.04925 36.1444 2.18362C36.3472 2.26761 36.5415 2.35999 36.7443 2.44398C37.53 2.80512 38.2989 3.21665 39.0424 3.67017C39.2874 3.82135 39.524 3.97252 39.769 4.13209C40.2421 4.45124 40.7068 4.78718 41.163 5.13992C41.3911 5.31629 41.6108 5.50106 41.8305 5.68583C42.0501 5.8706 42.2614 6.05537 42.4641 6.25693C43.1062 6.83644 43.7061 7.46633 44.2806 8.12982C44.4412 8.30619 44.5932 8.49096 44.7453 8.68412C44.9565 8.95288 45.1678 9.23003 45.3705 9.50718C46.7561 11.3969 47.846 13.5385 48.5811 15.8901C50.9552 23.5244 48.9359 31.4611 43.9511 37.0209H43.9596Z" stroke="black" stroke-miterlimit="10"/>
<path d="M14.2531 14.8739C14.4305 15.7978 15.8837 16.2261 16.323 17.2843C14.9036 18.7037 14.0587 16.3521 12.7914 16.52C11.1355 16.814 12.0733 19.1404 12.1831 20.1986C12.3267 21.3492 12.3098 22.3402 10.806 22.8022C9.20913 23.2893 9.42035 22.5754 9.1162 21.2484C8.72755 19.3 8.79514 19.1656 9.8259 17.5447C10.6201 16.2093 9.97798 15.2099 11.0003 13.9165C11.7776 12.9086 12.952 12.4383 13.6617 11.5649C13.856 11.3465 14.0165 11.1029 14.1263 10.8426L19.052 15.739C18.7394 15.7894 18.4606 15.8229 18.2747 15.8145C16.8553 15.8145 15.7316 13.9837 14.2531 14.8739Z" fill="#8CBD01" stroke="black" stroke-miterlimit="10"/>
<path d="M21.9582 15.1511L20.0234 13.2278C21.7216 13.9249 24.3408 14.5296 21.9582 15.1511Z" fill="#8CBD01" stroke="black" stroke-miterlimit="10"/>
<path d="M42.2014 38.751C42.1 38.8518 41.9901 38.9442 41.8803 39.0366C41.686 39.2129 41.4748 39.3809 41.272 39.5405C40.8918 39.8428 40.5031 40.1368 40.0976 40.4139C39.8357 40.5903 39.5738 40.7667 39.3034 40.9346C39.0753 41.0774 38.8472 41.2202 38.6106 41.3546C36.8448 40.5735 34.9945 38.8854 33.9469 38.3311C32.4092 37.6088 30.6687 36.9453 29.6718 35.5092C28.9029 34.4425 29.0635 33.1911 28.0581 32.0909C25.5572 29.6973 24.0956 34.5013 20.9273 34.1738C19.2122 33.9386 19.0347 32.6872 17.7928 31.8726C16.2973 30.9151 15.6299 30.8983 14.7428 29.101C12.0391 24.0367 15.9256 19.5183 20.6907 17.6454C20.7667 17.6622 20.8597 17.6622 20.9695 17.6454L42.2014 38.751Z" fill="#8CBD01" stroke="black" stroke-miterlimit="10"/>
<path d="M36.7354 13.5049C37.631 13.5637 39.4053 12.5811 40.2924 12.959C41.9653 13.7485 40.4614 15.9573 39.6165 16.7636C37.6564 18.5608 34.9612 17.847 32.6969 16.9063C31.2944 17.3179 32.1984 18.5357 32.9757 19.0228C34.0149 19.9046 35.4681 19.997 36.7608 20.2574C39.7601 20.7529 39.4475 22.9113 39.9206 25.4897C40.2755 27.6733 40.0896 30.2349 40.9345 32.2589C41.3738 33.2836 42.4806 34.7533 43.165 36.2315L23.3272 16.5116C23.7327 16.2848 24.1298 16.0749 24.4509 15.9489C25.5915 15.3778 26.7659 15.2686 28.1937 14.9411C27.7882 13.6477 26.6138 14.4455 25.7689 13.8325C24.9832 13.4209 24.8564 13.0262 24.4762 12.1611C25.2958 11.2541 26.9517 11.2877 26.4533 9.70035C26.0477 8.40697 24.2735 7.97864 23.3272 8.8101C22.1106 9.84313 23.5722 11.3549 21.6374 11.8336C20.97 12.0436 19.314 10.9685 18.8747 12.0855L12.7662 6.01338C12.6902 6.07217 12.6141 6.13935 12.5381 6.21494C12.6057 6.13935 12.6817 6.07217 12.7578 6.00498C12.8845 5.8958 13.0112 5.77822 13.1464 5.67743C13.5688 5.31629 14.0082 4.97195 14.4644 4.64441C14.4898 4.61921 14.5151 4.59402 14.5405 4.58562C14.7686 4.41765 15.0051 4.25807 15.2502 4.0985C15.9852 3.60298 16.754 3.15786 17.5651 2.76313C17.6243 2.72953 17.6834 2.69594 17.751 2.67074C18.2241 2.44398 18.7142 2.22562 19.2126 2.02405C19.4999 1.91487 19.7872 1.80569 20.0744 1.70491C20.3617 1.59572 20.6489 1.50334 20.9446 1.41096C23.5807 0.596294 26.2505 0.302344 28.8443 0.461917C29.047 0.470315 29.2583 0.487112 29.4695 0.512308C29.6892 0.529105 29.9088 0.554301 30.1285 0.579497C30.3988 0.613091 30.6608 0.646685 30.9227 0.688678C30.9818 0.697077 31.041 0.705475 31.0917 0.713874C31.3451 0.755867 31.5901 0.806258 31.8436 0.85665C32.1309 0.907041 32.4097 0.97423 32.6969 1.04142C32.9673 1.10861 33.2292 1.1758 33.4911 1.25138C33.7868 1.33537 34.0825 1.41935 34.3782 1.52014C34.6401 1.60412 34.9105 1.69651 35.1724 1.79729C35.5019 1.91487 35.823 2.04925 36.144 2.18362C36.3468 2.26761 36.5411 2.35999 36.7439 2.44398C37.5296 2.80512 38.2985 3.21665 39.042 3.67017C39.287 3.82135 39.5236 3.97252 39.7686 4.13209C40.2417 4.45124 40.7064 4.78718 41.1626 5.13992C41.3907 5.31629 41.6104 5.50106 41.8301 5.68583C42.0497 5.8706 42.261 6.05537 42.4637 6.25693C43.1058 6.83644 43.7057 7.46633 44.2802 8.12982C44.4408 8.30619 44.5928 8.49096 44.7449 8.68412C44.9561 8.95288 45.1674 9.23003 45.3701 9.50718C44.4239 10.1875 42.7256 9.04526 41.6527 9.27202C39.9629 9.46519 40.1657 10.8174 39.1856 11.5564C38.4083 12.2283 37.0903 11.8672 36.1356 11.9512C33.5756 12.1863 34.6401 13.4965 36.727 13.5049H36.7354Z" fill="#8CBD01" stroke="black" stroke-miterlimit="10"/>
<path d="M46.4097 33.3003C45.1509 33.4683 43.9342 31.3351 43.2921 30.3356C42.4641 29.0255 42.5486 27.9924 42.5571 26.699C43.3006 26.3211 44.5425 26.7074 45.2945 27.9756C46.3844 29.7141 46.1816 31.5198 46.4013 33.3003H46.4097Z" fill="#8CBD01" stroke="black" stroke-miterlimit="10"/>
<path d="M47.0431 40.5903C47.0431 40.9011 46.9164 41.2118 46.6713 41.4554C46.1898 41.9425 45.404 41.9425 44.9224 41.4554L42.2104 38.7594C42.354 38.6334 42.4892 38.5075 42.6328 38.3647C42.4976 38.4907 42.3456 38.625 42.2019 38.751L19.0522 15.7389L14.1266 10.8426L12.6142 9.33921H12.6058L11.9214 8.65053L11.0174 7.75188L8.29689 5.04754C8.06033 4.81238 7.93359 4.49323 7.93359 4.17409C7.93359 3.85494 8.06033 3.55259 8.29689 3.30903C8.77847 2.83031 9.56421 2.82192 10.0458 3.30903L12.7579 6.00498C12.6818 6.07217 12.6058 6.13935 12.5382 6.21494C12.6142 6.13935 12.6903 6.07217 12.7663 6.01338L18.8748 12.0855C18.8494 12.1359 18.8325 12.2031 18.8156 12.2703C18.7312 12.6063 19.2888 12.9254 20.0238 13.2278L21.9586 15.151L46.6713 39.7169C46.9164 39.952 47.0431 40.2712 47.0431 40.5903Z" stroke="black" stroke-miterlimit="10"/>
<path d="M20.0233 13.2278C19.2882 12.9254 18.7306 12.6063 18.8151 12.2703C18.832 12.2032 18.8489 12.136 18.8743 12.0856L20.0233 13.2278Z" stroke="black" stroke-miterlimit="10"/>
<path d="M42.6324 38.3647C42.4888 38.5075 42.3536 38.6334 42.21 38.7594C42.3536 38.625 42.5057 38.4907 42.6409 38.3647H42.6324Z" stroke="black" stroke-miterlimit="10"/>
</g>
<defs>
<clipPath id="clip0_22_309">
<rect width="50" height="59" fill="white"/>
</clipPath>
</defs>
</svg>
