<svg width="56" height="58" viewBox="0 0 56 58" fill="none" xmlns="http://www.w3.org/2000/svg">
<g clip-path="url(#clip0_22_231)">
<path d="M36.1262 0.502258H28V6.18774H36.1262V0.502258Z" fill="#FD6907" stroke="black" stroke-miterlimit="10"/>
<path d="M27.9995 0.893982C27.7614 0.893982 27.5332 1.15515 27.5332 1.41632V9.53271C27.5332 9.79388 27.7713 10.055 27.9995 10.055C28.2277 10.055 28.4659 9.79388 28.4659 9.53271V1.41632C28.4659 1.07479 28.2277 0.893982 27.9995 0.893982Z" fill="black"/>
<path d="M20.5689 26.2979H16.7588V30.1552H20.5689V26.2979Z" stroke="black" stroke-miterlimit="10"/>
<path d="M20.5689 33.3093H16.7588V37.1666H20.5689V33.3093Z" stroke="black" stroke-miterlimit="10"/>
<path d="M26.7995 26.2979H22.9795V30.1552H26.7995V26.2979Z" stroke="black" stroke-miterlimit="10"/>
<path d="M26.7995 33.3093H22.9795V37.1666H26.7995V33.3093Z" stroke="black" stroke-miterlimit="10"/>
<path d="M33.1198 26.2979H29.2998V30.1552H33.1198V26.2979Z" stroke="black" stroke-miterlimit="10"/>
<path d="M33.1198 33.3093H29.2998V37.1666H33.1198V33.3093Z" stroke="black" stroke-miterlimit="10"/>
<path d="M39.3413 26.2979H35.5312V30.1552H39.3413V26.2979Z" stroke="black" stroke-miterlimit="10"/>
<path d="M39.3413 33.3093H35.5312V37.1666H39.3413V33.3093Z" stroke="black" stroke-miterlimit="10"/>
<path d="M49.8784 7.19226C51.9819 7.19226 53.6885 8.92001 53.6885 11.0496C53.6885 13.1791 51.9819 14.9068 49.8784 14.9068C47.775 14.9068 46.0684 13.1791 46.0684 11.0496C46.0684 8.92001 47.775 7.19226 49.8784 7.19226Z" stroke="black" stroke-miterlimit="10"/>
<path d="M5.4175 11.6723C6.82643 11.6723 7.92778 12.7873 7.92778 14.2137C7.92778 15.6401 6.82643 16.7551 5.4175 16.7551C4.00857 16.7551 2.90723 15.6401 2.90723 14.2137C2.90723 12.8878 4.00857 11.6723 5.4175 11.6723Z" stroke="black" stroke-miterlimit="10"/>
<path d="M39.3413 33.3093H35.5312V37.1666H39.3413V33.3093Z" stroke="black" stroke-miterlimit="10"/>
<path d="M39.3413 26.2979H35.5312V30.1552H39.3413V26.2979Z" stroke="black" stroke-miterlimit="10"/>
<path d="M55.5038 53.6304H44.3613V57.4978H55.5038V53.6304Z" stroke="black" stroke-miterlimit="10"/>
<path d="M55.5038 38.3921V53.6304L44.3613 53.4195V38.1711L55.5038 38.3921Z" stroke="black" stroke-miterlimit="10"/>
<path d="M55.5038 34.5247V38.3921L44.3613 38.2615V34.3942L55.5038 34.5247Z" stroke="black" stroke-miterlimit="10"/>
<path d="M52.7955 21.8278C53.3015 21.8278 53.6984 22.2296 53.6984 22.7419C53.6984 23.2542 53.3015 23.656 52.7955 23.656C52.2895 23.656 51.8926 23.2542 51.8926 22.7419C51.8926 22.3401 52.2895 21.8278 52.7955 21.8278Z" stroke="black" stroke-miterlimit="10"/>
<path d="M52.3887 46.0163H47.3682V50.4863H52.3887V46.0163Z" stroke="black" stroke-miterlimit="10"/>
<path d="M52.3887 44.1881V46.1167H47.3682V44.1881C47.3682 42.7617 48.4695 41.6467 49.8784 41.6467C50.5829 41.6467 51.1782 41.948 51.6843 42.3599C52.0911 42.8722 52.3887 43.5753 52.3887 44.1881Z" stroke="black" stroke-miterlimit="10"/>
<path d="M46.4846 21.8279H9.61426L27.7716 9.97474L27.9899 9.83411L28.2082 9.98478H28.2181L46.4846 21.8279Z" stroke="black" stroke-miterlimit="10"/>
<path d="M42.7545 2.82263C43.2605 2.82263 43.6574 3.22443 43.6574 3.73673C43.6574 4.24903 43.2506 4.75128 42.7545 4.75128C42.2584 4.75128 41.8516 4.34948 41.8516 3.83718C41.8516 3.32488 42.2484 2.82263 42.7545 2.82263Z" stroke="black" stroke-miterlimit="10"/>
<path d="M33.0206 42.8621H28V57.4977H33.0206V42.8621Z" stroke="black" stroke-miterlimit="10"/>
<path d="M33.1198 33.3093H29.2998V37.1666H33.1198V33.3093Z" stroke="black" stroke-miterlimit="10"/>
<path d="M33.1198 26.2979H29.2998V30.1552H33.1198V26.2979Z" stroke="black" stroke-miterlimit="10"/>
<path d="M28 42.8621V57.4977H23.0787V53.6304H22.9795V42.8621H28Z" stroke="black" stroke-miterlimit="10"/>
<path d="M23.0787 53.6304H22.9795V57.4978H23.0787V53.6304Z" stroke="black" stroke-miterlimit="10"/>
<path d="M26.7995 33.3093H22.9795V37.1666H26.7995V33.3093Z" stroke="black" stroke-miterlimit="10"/>
<path d="M26.7995 26.2979H22.9795V30.1552H26.7995V26.2979Z" stroke="black" stroke-miterlimit="10"/>
<path d="M11.7373 21.8278V53.6304H11.8365V57.4977H22.979V42.8621H33.0201V57.4977H44.361V21.8278H11.7373ZM20.5679 37.1666H16.7579V33.3093H20.5679V37.1666ZM20.5679 30.1551H16.7579V26.2979H20.5679V30.1551ZM26.799 37.1666H22.979V33.3093H26.799V37.1666ZM26.799 30.1551H22.979V26.2979H26.799V30.1551ZM33.1193 37.1666H29.2993V33.3093H33.1193V37.1666ZM33.1193 30.1551H29.2993V26.2979H33.1193V30.1551ZM39.3404 37.1666H35.5304V33.3093H39.3404V37.1666ZM39.3404 30.1551H35.5304V26.2979H39.3404V30.1551Z" fill="#FD6907" stroke="black" stroke-miterlimit="10"/>
<path d="M11.8365 53.6304H11.7373V57.4978H11.8365V53.6304Z" stroke="black" stroke-miterlimit="10"/>
<path d="M23.0787 53.6304H22.9795V57.4978H23.0787V53.6304Z" stroke="black" stroke-miterlimit="10"/>
<path d="M20.1715 1.50677C20.6775 1.50677 21.0744 1.90858 21.0744 2.42087C21.0744 2.93317 20.6775 3.33497 20.1715 3.33497C19.6654 3.33497 19.2686 2.93317 19.2686 2.42087C19.2686 1.90858 19.6654 1.50677 20.1715 1.50677Z" stroke="black" stroke-miterlimit="10"/>
<path d="M20.5689 33.3093H16.7588V37.1666H20.5689V33.3093Z" stroke="black" stroke-miterlimit="10"/>
<path d="M20.5689 26.2979H16.7588V30.1552H20.5689V26.2979Z" stroke="black" stroke-miterlimit="10"/>
<path d="M13.8511 12.3755C14.3572 12.3755 14.7541 12.7773 14.7541 13.2896C14.7541 13.8019 14.3572 14.2037 13.8511 14.2037C13.3451 14.2037 12.9482 13.7918 12.9482 13.2896C12.9482 12.7873 13.3451 12.3755 13.8511 12.3755Z" stroke="black" stroke-miterlimit="10"/>
<path d="M11.837 53.6304H0.496094V57.4978H11.837V53.6304Z" stroke="black" stroke-miterlimit="10"/>
<path d="M11.7378 38.4122V53.6605L0.496094 53.6304V38.3921L11.7378 38.4122Z" stroke="black" stroke-miterlimit="10"/>
<path d="M11.5492 34.5348H0.496094V38.3921H11.5492V34.5348Z" stroke="black" stroke-miterlimit="10"/>
<path d="M8.73149 46.0163H3.71094V50.4863H8.73149V46.0163Z" stroke="black" stroke-miterlimit="10"/>
<path d="M8.73149 44.1881V46.1167H3.71094V44.1881C3.71094 42.7617 4.81228 41.6467 6.22121 41.6467C6.92568 41.6467 7.53092 41.948 8.02703 42.3599C8.42391 42.8722 8.73149 43.5753 8.73149 44.1881Z" stroke="black" stroke-miterlimit="10"/>
<path d="M3.20466 25.0825C3.71069 25.0825 4.10757 25.4943 4.10757 25.9966C4.10757 26.4988 3.71069 26.9107 3.20466 26.9107C2.69864 26.9107 2.30176 26.5089 2.30176 25.9966C2.30176 25.4843 2.69864 25.0825 3.20466 25.0825Z" stroke="black" stroke-miterlimit="10"/>
<path d="M28.0004 13.2092C29.7863 13.2092 31.2449 14.6758 31.2449 16.494C31.2449 18.3121 29.7963 19.7787 28.0004 19.7787C26.2045 19.7787 24.7559 18.3121 24.7559 16.494C24.7559 14.6758 26.2045 13.2092 28.0004 13.2092Z" stroke="black" stroke-miterlimit="10"/>
<path d="M20.1715 1.50677C20.6775 1.50677 21.0744 1.90858 21.0744 2.42087C21.0744 2.93317 20.6775 3.33497 20.1715 3.33497C19.6654 3.33497 19.2686 2.93317 19.2686 2.42087C19.2686 1.90858 19.6654 1.50677 20.1715 1.50677Z" stroke="black" stroke-miterlimit="10"/>
<path d="M3.20466 26.9107C2.69864 26.9107 2.30176 26.5089 2.30176 25.9966C2.30176 25.4843 2.69864 25.0825 3.20466 25.0825" stroke="black" stroke-miterlimit="10"/>
</g>
<defs>
<clipPath id="clip0_22_231">
<rect width="56" height="58" fill="white"/>
</clipPath>
</defs>
</svg>
