<svg width="170" height="57" viewBox="0 0 170 57" fill="none" xmlns="http://www.w3.org/2000/svg">
<g clip-path="url(#clip0_11_46)">
<path d="M49.7298 43.3412C48.5681 42.9217 48.348 42.642 48.348 42.1608C48.348 41.6796 48.6823 41.2971 49.477 41.2971C50.0599 41.2971 50.4471 41.4904 50.871 41.8442L51.2867 41.33C50.7976 40.9352 50.3004 40.7049 49.5178 40.7049C48.4336 40.7049 47.7 41.2642 47.7 42.202C47.7 43.0492 48.1239 43.4605 49.3792 43.9129C50.443 44.2995 50.765 44.608 50.765 45.1509C50.765 45.7719 50.2841 46.1585 49.5137 46.1585C48.9146 46.1585 48.4092 45.8789 47.969 45.4552L47.541 45.9406C47.9975 46.4094 48.7026 46.7549 49.4934 46.7549C50.7039 46.7549 51.4172 46.0393 51.4172 45.1221C51.4172 44.2049 51.0218 43.8142 49.7338 43.3453L49.7298 43.3412Z" fill="#004289"/>
<path d="M54.0506 42.1732C53.4841 42.1732 52.9705 42.313 52.5874 42.5228L52.8238 43.0328C53.1784 42.823 53.5534 42.6955 54.0099 42.6955C54.6457 42.6955 54.9555 43.0122 54.9555 43.6703V44.1885C54.6987 44.0445 54.3033 43.9335 53.8672 43.9335C53.0072 43.9335 52.2002 44.353 52.2002 45.3401C52.2002 46.4012 52.9135 46.7467 53.5901 46.7467C54.2177 46.7467 54.6457 46.4505 54.9555 46.1174V46.6562H55.575V43.588C55.575 42.568 54.9881 42.1649 54.0506 42.1649V42.1732ZM54.9555 45.5827C54.6905 45.9488 54.2667 46.2408 53.7042 46.2408C53.1702 46.2408 52.8116 45.957 52.8116 45.3031C52.8116 44.7519 53.1947 44.4394 53.8346 44.4394C54.3645 44.4394 54.6702 44.5381 54.9555 44.6944V45.5868V45.5827Z" fill="#004289"/>
<path d="M61.8272 44.0856V46.6603H62.4467V43.9828C62.4467 42.6996 61.8924 42.1732 61.0039 42.1732C60.2947 42.1732 59.9401 42.5063 59.6833 42.9258C59.4754 42.5063 59.1045 42.1732 58.4891 42.1732C57.9755 42.1732 57.6087 42.4241 57.3845 42.8024V42.2678H56.7568V46.6644H57.3845V44.0898C57.3845 43.115 57.7554 42.7161 58.3546 42.7161C58.9537 42.7161 59.292 43.0821 59.292 44.0898V46.6644H59.9156V44.0898C59.9156 43.115 60.2947 42.7161 60.8857 42.7161C61.5134 42.7161 61.8231 43.0821 61.8231 44.0898L61.8272 44.0856Z" fill="#004289"/>
<path d="M64.9448 44.1021C64.2071 43.7649 63.987 43.6209 63.987 43.2466C63.987 42.9258 64.2478 42.7037 64.7084 42.7037C65.169 42.7037 65.4543 42.8271 65.7926 43.0986L66.139 42.6338C65.8089 42.3583 65.3442 42.1691 64.7492 42.1691C63.9544 42.1691 63.3878 42.6215 63.3878 43.2878C63.3878 43.9911 63.7506 44.2584 64.6269 44.6368C65.3972 44.9699 65.654 45.1714 65.654 45.5334C65.654 45.9611 65.3728 46.212 64.7736 46.212C64.3416 46.212 63.934 46.0351 63.5875 45.7267L63.2207 46.1832C63.6364 46.5205 64.1582 46.7467 64.7573 46.7467C65.5113 46.7467 66.2491 46.3724 66.2491 45.5046C66.2491 44.719 65.7681 44.4764 64.9407 44.098L64.9448 44.1021Z" fill="#004289"/>
<path d="M69.885 44.8342C69.885 45.7966 69.4081 46.2038 68.8089 46.2038C68.1079 46.2038 67.7777 45.7801 67.7777 44.8342V42.2637H67.1582V44.9411C67.1582 46.2038 67.7655 46.7508 68.6826 46.7508C69.2328 46.7508 69.6363 46.4917 69.885 46.1215V46.6603H70.5086V42.2637H69.885V44.8342Z" fill="#004289"/>
<path d="M74.9101 46.6603V43.9828C74.9101 42.7161 74.3028 42.1732 73.3816 42.1732C72.8355 42.1732 72.4279 42.4323 72.1833 42.8024V42.2678H71.5557V46.6644H72.1833V44.0898C72.1833 43.1274 72.6521 42.7161 73.2553 42.7161C73.9523 42.7161 74.2865 43.1438 74.2865 44.0898V46.6644H74.9101V46.6603Z" fill="#004289"/>
<path d="M76.8707 47.7954L77.0704 48.2725C78.6885 48.2232 79.2754 47.5857 79.2754 46.2614V42.2596H78.6518V42.7531C78.3461 42.3994 77.9711 42.1691 77.425 42.1691C76.512 42.1691 75.7783 42.9711 75.7783 44.5298C75.7783 46.0886 76.4712 46.7467 77.3394 46.7467C77.9304 46.7467 78.3461 46.4505 78.6518 46.1174V46.3436C78.6518 47.3677 78.3217 47.7543 76.8666 47.7913L76.8707 47.7954ZM77.4983 46.2038C76.8095 46.2038 76.3938 45.628 76.3938 44.5216C76.3938 43.3412 76.7484 42.712 77.4739 42.712C77.9915 42.712 78.4113 43.004 78.6518 43.37V45.5704C78.3461 45.957 77.963 46.2038 77.4983 46.2038Z" fill="#004289"/>
<path d="M86.1478 43.6867C86.1478 41.6755 85.0229 40.7954 83.4985 40.7954H81.9619V46.6603H83.3844C84.9373 46.6603 86.1478 45.8131 86.1478 43.6867ZM82.61 41.3876H83.4496C84.7865 41.3876 85.4998 42.2102 85.4998 43.7073C85.4998 45.3935 84.7172 46.0639 83.4659 46.0639H82.61V41.3876Z" fill="#004289"/>
<path d="M87.8062 42.8066V42.2637H87.1826V46.6603H87.8062V44.0774C87.8062 43.2384 88.1486 42.749 88.7559 42.749C89.0453 42.749 89.2328 42.8148 89.408 42.9176L89.5629 42.2842C89.4162 42.2184 89.2083 42.1773 88.8823 42.1773C88.4135 42.1773 88.0019 42.4611 87.8062 42.8107V42.8066Z" fill="#004289"/>
<path d="M93.2882 46.2408L92.9947 45.7884C92.5953 46.0557 92.2977 46.2079 91.7882 46.2079C91.079 46.2079 90.6348 45.6115 90.5777 44.6779H93.4797C93.5001 44.5751 93.5083 44.4846 93.5083 44.3365C93.5083 43.0821 92.8887 42.1773 91.7516 42.1773C90.7163 42.1773 89.9541 43.0451 89.9541 44.4394C89.9541 46.1709 90.9242 46.7549 91.723 46.7549C92.3792 46.7549 92.7624 46.578 93.2882 46.2449V46.2408ZM91.7516 42.7161C92.5137 42.7161 92.8806 43.3124 92.9295 44.1638H90.5777C90.6511 43.1808 91.1035 42.7161 91.7516 42.7161Z" fill="#004289"/>
<path d="M95.5876 46.7508C96.2112 46.7508 96.6392 46.4547 96.9449 46.1215V46.6603H97.5685V43.5921C97.5685 42.5721 96.9816 42.1691 96.0441 42.1691C95.4776 42.1691 94.964 42.3089 94.5809 42.5187L94.8132 43.0287C95.1719 42.8189 95.5428 42.6914 95.9993 42.6914C96.6392 42.6914 96.9449 43.0081 96.9449 43.6661V44.1844C96.6881 44.0404 96.2968 43.9294 95.8607 43.9294C94.9966 43.9294 94.1855 44.3489 94.1855 45.336C94.1855 46.3971 94.9029 46.7426 95.5836 46.7426L95.5876 46.7508ZM95.8281 44.4352C96.358 44.4352 96.6677 44.534 96.949 44.6902V45.5827C96.684 45.9488 96.2602 46.2408 95.6977 46.2408C95.1678 46.2408 94.8051 45.957 94.8051 45.3031C94.8051 44.7519 95.1923 44.4394 95.8281 44.4394V44.4352Z" fill="#004289"/>
<path d="M103.821 44.0856V46.6603H104.444V43.9828C104.444 42.6996 103.89 42.1732 103.001 42.1732C102.296 42.1732 101.938 42.5063 101.685 42.9258C101.477 42.5063 101.106 42.1732 100.491 42.1732C99.9731 42.1732 99.6103 42.4241 99.3861 42.8024V42.2678H98.7666V46.6644H99.3861V44.0898C99.3861 43.115 99.7611 42.7161 100.36 42.7161C100.959 42.7161 101.302 43.0821 101.302 44.0898V46.6644H101.921V44.0898C101.921 43.115 102.3 42.7161 102.895 42.7161C103.523 42.7161 103.833 43.0821 103.833 44.0898L103.821 44.0856Z" fill="#004289"/>
<path d="M49.7298 52.0646C48.5641 51.6451 48.3521 51.3695 48.3521 50.8842C48.3521 50.3989 48.6863 50.0246 49.4811 50.0246C50.064 50.0246 50.4553 50.2138 50.8751 50.5675L51.2908 50.0575C50.8017 49.6668 50.3004 49.4324 49.5219 49.4324C48.4336 49.4324 47.7041 49.9835 47.7041 50.9294C47.7041 51.7767 48.1279 52.1839 49.3833 52.6363C50.4471 53.027 50.7691 53.3313 50.7691 53.8783C50.7691 54.4953 50.2881 54.8819 49.5137 54.8819C48.9146 54.8819 48.4092 54.6022 47.969 54.1786L47.541 54.6639C47.9975 55.1328 48.7026 55.4741 49.4934 55.4741C50.7039 55.4741 51.4131 54.7626 51.4131 53.8413C51.4131 52.9201 51.0177 52.5334 49.7338 52.0646H49.7298Z" fill="#004289"/>
<path d="M54.0579 51.4394C54.4981 51.4394 54.7875 51.5957 55.1014 51.8836L55.4763 51.4147C55.134 51.1104 54.6815 50.8924 54.0987 50.8924C53.1857 50.8924 52.2197 51.5793 52.2197 53.2038C52.2197 54.7379 53.096 55.47 54.0539 55.47C54.6652 55.47 55.0891 55.2356 55.456 54.8572L55.081 54.4583C54.7834 54.7503 54.5022 54.923 54.0783 54.923C53.308 54.923 52.8474 54.2279 52.8474 53.1463C52.8474 52.0646 53.3732 51.4312 54.0539 51.4312L54.0579 51.4394Z" fill="#004289"/>
<path d="M58.1385 50.8965C57.5923 50.8965 57.1807 51.1556 56.932 51.5258V49.4612H56.3125V55.3919H56.932V52.8172C56.932 51.8548 57.4089 51.4435 58.0121 51.4435C58.7132 51.4435 59.0433 51.8672 59.0433 52.8172V55.3919H59.6669V52.7062C59.6669 51.4435 59.0596 50.8965 58.1385 50.8965Z" fill="#004289"/>
<path d="M62.4464 50.8965C61.3867 50.8965 60.543 51.6985 60.543 53.1915C60.543 54.6845 61.3541 55.4782 62.4138 55.4782C63.4735 55.4782 64.3254 54.6516 64.3254 53.1586C64.3254 51.6656 63.5061 50.8965 62.4464 50.8965ZM62.4342 54.9312C61.6761 54.9312 61.1666 54.3308 61.1666 53.175C61.1666 52.0193 61.6761 51.4435 62.4342 51.4435C63.1923 51.4435 63.7018 52.0193 63.7018 53.175C63.7018 54.3308 63.1882 54.9312 62.4342 54.9312Z" fill="#004289"/>
<path d="M65.8863 49.457H65.2627V55.3878H65.8863V49.457Z" fill="#004289"/>
<path d="M68.735 50.8965C68.1685 50.8965 67.6549 51.0405 67.2759 51.2502L67.5082 51.7643C67.8669 51.5546 68.2419 51.4271 68.6984 51.4271C69.3342 51.4271 69.644 51.7479 69.644 52.3977V52.9201C69.3872 52.7761 68.9959 52.6651 68.5598 52.6651C67.6957 52.6651 66.8887 53.0846 66.8887 54.0758C66.8887 55.1369 67.6019 55.4782 68.2826 55.4782C68.9062 55.4782 69.3342 55.1862 69.644 54.8531V55.3919H70.2676V52.3278C70.2676 51.2996 69.6766 50.9006 68.7391 50.9006L68.735 50.8965ZM69.6399 54.3061C69.379 54.668 68.947 54.9641 68.3886 54.9641C67.8587 54.9641 67.5001 54.6804 67.5001 54.0264C67.5001 53.4712 67.8832 53.1668 68.5231 53.1668C69.053 53.1668 69.3586 53.2573 69.6399 53.4177V54.3061Z" fill="#004289"/>
<path d="M72.0738 51.534V50.9829H71.4502V55.3837H72.0738V52.8008C72.0738 51.9659 72.408 51.4682 73.0194 51.4682C73.3129 51.4682 73.5003 51.534 73.6756 51.6368L73.8346 50.9994C73.6838 50.9335 73.48 50.8883 73.1539 50.8883C72.6893 50.8883 72.2694 51.1721 72.0779 51.5299L72.0738 51.534Z" fill="#004289"/>
<path d="M76.2233 52.8296C75.4855 52.4923 75.2614 52.3401 75.2614 51.9741C75.2614 51.6574 75.5263 51.4312 75.9828 51.4312C76.4393 51.4312 76.7328 51.5587 77.0711 51.826L77.4175 51.3654C77.0833 51.0898 76.6227 50.8965 76.0236 50.8965C75.2328 50.8965 74.6581 51.3489 74.6581 52.0193C74.6581 52.6897 75.025 52.99 75.8972 53.3642C76.6676 53.6974 76.9243 53.903 76.9243 54.2608C76.9243 54.6927 76.6431 54.9395 76.048 54.9395C75.6119 54.9395 75.2084 54.7626 74.8579 54.4541L74.4951 54.9148C74.9109 55.252 75.4326 55.4741 76.0317 55.4741C76.7857 55.4741 77.5235 55.0957 77.5235 54.2362C77.5235 53.4465 77.0425 53.208 76.2192 52.8296H76.2233Z" fill="#004289"/>
<path d="M80.3681 50.8965C79.8138 50.8965 79.4103 51.1556 79.1617 51.5258V49.4612H78.5381V55.3919H79.1617V52.8172C79.1617 51.8548 79.6345 51.4435 80.2418 51.4435C80.9388 51.4435 81.2689 51.8672 81.2689 52.8172V55.3919H81.8925V52.7062C81.8925 51.4435 81.2893 50.8965 80.3681 50.8965Z" fill="#004289"/>
<path d="M83.7426 50.9829H83.123V55.3836H83.7426V50.9829Z" fill="#004289"/>
<path d="M83.4456 49.3049C83.1929 49.3049 82.9932 49.5064 82.9932 49.7614C82.9932 50.0164 83.1929 50.2056 83.4456 50.2056C83.6779 50.2056 83.8776 49.9999 83.8776 49.7614C83.8776 49.5064 83.6779 49.3049 83.4456 49.3049Z" fill="#004289"/>
<path d="M86.9341 50.8965C86.3472 50.8965 85.9314 51.1927 85.6217 51.5258V50.987H84.998V57.0041H85.6217V54.8942C85.9273 55.2438 86.3023 55.4782 86.8526 55.4782C87.7615 55.4782 88.4951 54.6721 88.4951 53.1175C88.4951 51.5628 87.8022 50.8965 86.9341 50.8965ZM86.7996 54.9312C86.286 54.9312 85.8621 54.6392 85.6217 54.2691V52.0728C85.9273 51.6903 86.3105 51.4394 86.7751 51.4394C87.468 51.4394 87.8838 52.0152 87.8838 53.1216C87.8838 54.302 87.5251 54.9271 86.8037 54.9271L86.7996 54.9312Z" fill="#004289"/>
<path d="M91.7926 50.1151H94.556V49.5228H91.1445V55.3878H91.7926V52.6527H93.3863V52.0605H91.7926V50.1151Z" fill="#004289"/>
<path d="M96.4475 50.8965C95.3878 50.8965 94.54 51.6985 94.54 53.1915C94.54 54.6845 95.3552 55.4782 96.4149 55.4782C97.4747 55.4782 98.3265 54.6516 98.3265 53.1586C98.3265 51.6656 97.5154 50.8965 96.4475 50.8965ZM96.4312 54.9312C95.6731 54.9312 95.1718 54.3308 95.1718 53.175C95.1718 52.0193 95.6772 51.4435 96.4312 51.4435C97.1853 51.4435 97.7029 52.0193 97.7029 53.175C97.7029 54.3308 97.1893 54.9312 96.4312 54.9312Z" fill="#004289"/>
<path d="M101.762 53.5575C101.762 54.5199 101.293 54.9312 100.686 54.9312C99.9889 54.9312 99.6547 54.5076 99.6547 53.5575V50.9829H99.0352V53.6645C99.0352 54.9271 99.6425 55.4741 100.564 55.4741C101.106 55.4741 101.513 55.2191 101.762 54.849V55.3878H102.39V50.987H101.762V53.5617V53.5575Z" fill="#004289"/>
<path d="M105.26 50.8965C104.713 50.8965 104.306 51.1556 104.057 51.5258V50.987H103.434V55.3878H104.057V52.8131C104.057 51.8507 104.53 51.4394 105.137 51.4394C105.834 51.4394 106.164 51.863 106.164 52.8131V55.3878H106.788V52.7021C106.788 51.4394 106.181 50.8924 105.26 50.8924V50.8965Z" fill="#004289"/>
<path d="M110.534 51.4847C110.224 51.131 109.853 50.8924 109.303 50.8924C108.39 50.8924 107.66 51.6944 107.66 53.2573C107.66 54.8202 108.349 55.4741 109.221 55.4741C109.812 55.4741 110.224 55.1821 110.53 54.849V55.3878H111.153V49.457H110.53V51.4847H110.534ZM110.534 54.2937C110.224 54.6762 109.845 54.9271 109.38 54.9271C108.691 54.9271 108.276 54.3513 108.276 53.245C108.276 52.0605 108.63 51.4353 109.356 51.4353C109.869 51.4353 110.289 51.7273 110.534 52.0975V54.2896V54.2937Z" fill="#004289"/>
<path d="M113.794 50.8965C113.231 50.8965 112.718 51.0405 112.335 51.2502L112.563 51.7643C112.922 51.5546 113.297 51.4271 113.753 51.4271C114.389 51.4271 114.695 51.7479 114.695 52.3977V52.9201C114.438 52.7761 114.047 52.6651 113.606 52.6651C112.746 52.6651 111.939 53.0846 111.939 54.0758C111.939 55.1369 112.657 55.4782 113.337 55.4782C113.961 55.4782 114.389 55.1862 114.695 54.8531V55.3919H115.318V52.3278C115.318 51.2996 114.731 50.9006 113.79 50.9006L113.794 50.8965ZM114.695 54.3061C114.43 54.668 114.01 54.9641 113.439 54.9641C112.914 54.9641 112.559 54.6804 112.559 54.0264C112.559 53.4712 112.938 53.1668 113.578 53.1668C114.108 53.1668 114.418 53.2573 114.695 53.4177V54.3061Z" fill="#004289"/>
<path d="M117.307 49.457H116.68V50.9829H116.142V51.5135H116.68V54.4788C116.68 55.2068 116.973 55.47 117.515 55.47C117.841 55.47 118.074 55.4207 118.314 55.322L118.359 54.7791C118.159 54.8613 117.996 54.9024 117.743 54.9024C117.413 54.9024 117.307 54.7667 117.307 54.376V51.5135H118.387V50.9829H117.307V49.457Z" fill="#004289"/>
<path d="M119.802 49.3049C119.546 49.3049 119.342 49.5064 119.342 49.7614C119.342 50.0164 119.546 50.2056 119.802 50.2056C120.035 50.2056 120.23 49.9999 120.23 49.7614C120.23 49.5064 120.031 49.3049 119.802 49.3049Z" fill="#004289"/>
<path d="M120.099 50.9829H119.476V55.3836H120.099V50.9829Z" fill="#004289"/>
<path d="M122.945 50.8965C121.885 50.8965 121.037 51.6985 121.037 53.1915C121.037 54.6845 121.848 55.4782 122.912 55.4782C123.976 55.4782 124.82 54.6516 124.82 53.1586C124.82 51.6656 124.004 50.8965 122.945 50.8965ZM122.928 54.9312C122.174 54.9312 121.665 54.3308 121.665 53.175C121.665 52.0193 122.174 51.4435 122.928 51.4435C123.682 51.4435 124.2 52.0193 124.2 53.175C124.2 54.3308 123.686 54.9312 122.928 54.9312Z" fill="#004289"/>
<path d="M127.546 50.8965C127 50.8965 126.592 51.1556 126.339 51.5258V50.987H125.716V55.3878H126.339V52.8131C126.339 51.8507 126.812 51.4394 127.42 51.4394C128.116 51.4394 128.451 51.863 128.451 52.8131V55.3878H129.07V52.7021C129.07 51.4394 128.463 50.8924 127.546 50.8924V50.8965Z" fill="#004289"/>
<path d="M71.5191 29.2506C69.0165 29.2547 66.9541 31.2289 66.9541 33.7048C66.9541 36.1807 69.0165 38.1344 71.5191 38.1426C74.0461 38.1344 76.0881 36.1561 76.0881 33.7048C76.0881 31.2536 74.0461 29.2547 71.5191 29.2506ZM71.4579 36.1108C70.1496 36.1108 69.1632 35.0333 69.1632 33.7048C69.1632 32.3764 70.2189 31.2782 71.5231 31.2782C72.8274 31.2782 73.8464 32.3558 73.8464 33.7048C73.8464 35.0538 72.7785 36.1108 71.462 36.1108H71.4579Z" fill="#004289"/>
<path d="M50.5729 26.1865C51.2699 26.8816 52.0688 27.4903 52.8554 27.881L52.9369 27.9263L54.286 26.3181L54.1556 26.2441C52.8758 25.5449 51.8731 24.6607 51.2169 23.5461C50.5648 22.4479 50.2305 21.173 50.2305 19.6471V18.2158H47.8176V19.4949C47.8176 21.1483 47.4467 22.4479 46.7498 23.5872C45.9713 24.8498 44.8178 25.8657 43.3423 26.8076L43.2119 26.8898L44.6751 28.4198L44.7567 28.3746C45.6289 27.8975 46.5541 27.1613 47.3571 26.3387C48.054 25.619 48.6573 24.8498 49.0241 24.1219C49.3787 24.8375 49.9208 25.5655 50.5729 26.1906V26.1865Z" fill="#004289"/>
<path d="M47.96 37.0897H58.0599V30.1266H47.96V37.0897ZM50.2302 32.0926H55.7897V35.1237H50.2302V32.0926Z" fill="#004289"/>
<path d="M81.6348 37.0897H93.0553V30.1266H81.6348V37.0897ZM83.8806 32.0926H90.8136V35.1237H83.8806V32.0926Z" fill="#004289"/>
<path d="M58.1013 17.8045H55.8555V29.3287H58.1013V24.2288H60.7302V22.1806H58.1013V17.8045Z" fill="#004289"/>
<path d="M104.663 26.7747C105.401 27.4204 106.245 27.9633 107.04 28.3129L107.121 28.3499L108.336 26.6924L108.205 26.6266C107.048 26.0302 106.017 25.2899 105.275 24.3851C104.521 23.4638 104.072 22.3533 104.072 21.0167V20.6259H107.415V18.6436H98.3418V20.6259H101.68V21.103C101.68 22.3204 101.281 23.4556 100.616 24.4386C99.8377 25.6189 98.7005 26.569 97.5959 27.1859L97.4492 27.2641L98.941 28.8229L99.0225 28.7817C99.8254 28.3211 100.714 27.626 101.472 26.8446C102.079 26.203 102.626 25.5244 102.96 24.8457C103.363 25.5038 103.983 26.1618 104.668 26.7747H104.663Z" fill="#004289"/>
<path d="M120.906 32.1378H129.07V37.0856H131.336V30.1719H120.906V32.1378Z" fill="#004289"/>
<path d="M126.539 24.2124C126.539 23.1225 126.054 22.1189 125.336 21.3539H127.578V19.3921H123.298V17.2328H120.865V19.3921H116.483V21.3539H118.774C118.073 22.1189 117.588 23.1142 117.588 24.2124C117.588 26.6431 119.573 28.6172 122.055 28.6254C124.537 28.6172 126.534 26.6431 126.539 24.2124ZM119.752 24.1219C119.752 22.777 120.877 21.6377 122.055 21.6377C123.233 21.6377 124.354 22.7811 124.358 24.1219C124.358 25.4462 123.233 26.5896 122.055 26.5937C120.873 26.5896 119.756 25.4462 119.752 24.1219Z" fill="#004289"/>
<path d="M131.336 17.8045H129.095V29.3699H131.336V24.9568H133.974V22.9086H131.336V17.8045Z" fill="#004289"/>
<path d="M112.314 17.8045H110.072V29.3699H112.314V24.2288H114.947V22.1806H112.314V17.8045Z" fill="#004289"/>
<path d="M74.2621 21.2347H70.7324V23.2623H74.2621V29.7359H76.5079V17.8045H74.2621V21.2347Z" fill="#004289"/>
<path d="M68.5592 26.4868C69.2602 27.1777 70.0795 27.7864 70.8621 28.1977L70.9477 28.2471L72.2968 26.6389L72.1663 26.5649C70.8865 25.8863 69.9042 25.0061 69.2439 23.908C68.5755 22.8181 68.2413 21.4938 68.2413 19.9679V18.2158H65.8243V19.8198C65.8243 21.4732 65.4575 22.7687 64.7768 23.8874C64.0024 25.1707 62.8245 26.1947 61.349 27.1284L61.2227 27.2106L62.694 28.7447L62.7674 28.6954C63.6356 28.2142 64.5404 27.5191 65.3433 26.7253C66.0689 25.9973 66.6721 25.2036 67.0389 24.4427C67.3854 25.1377 67.9152 25.8452 68.5592 26.4909V26.4868Z" fill="#004289"/>
<path d="M107.501 29.2506C104.998 29.2547 102.936 31.2289 102.932 33.7048C102.936 36.1561 104.994 38.1344 107.501 38.1426C110.024 38.1344 112.07 36.1561 112.07 33.7048C112.07 31.2536 110.024 29.2547 107.501 29.2506ZM107.435 36.1108C106.131 36.1108 105.137 35.0333 105.137 33.7048C105.137 32.3764 106.188 31.2782 107.501 31.2782C108.813 31.2782 109.82 32.3558 109.824 33.7048C109.824 35.0291 108.752 36.1108 107.435 36.1108Z" fill="#004289"/>
<path d="M84.3697 24.4139H86.6155V18.5284H80.5547V20.4861H84.3697V24.4139Z" fill="#004289"/>
<path d="M91.1117 24.4139H93.3616V18.5284H87.3008V20.4861H91.1117V24.4139Z" fill="#004289"/>
<path d="M148.357 23.0155H146.47V18.1253H144.347V36.592H146.47V25.2365H148.357V37.0856H150.558V17.8045H148.357V23.0155Z" fill="#004289"/>
<path d="M141.232 25.5696C140.727 24.455 140.519 23.2088 140.519 21.6788V20.9509H143.066V18.8739H135.665V20.9509H138.294V21.72C138.294 23.1677 138.106 24.3522 137.654 25.4503C137.128 26.713 136.243 27.8481 134.833 29.0655L134.735 29.156L136.129 30.5503L136.215 30.4845C136.916 29.9621 137.65 29.2054 138.261 28.4239C138.779 27.7659 139.215 27.0831 139.488 26.4826C139.769 27.0667 140.209 27.7371 140.723 28.3622C141.318 29.0943 141.99 29.7894 142.634 30.2048L142.72 30.2624L143.894 28.8475L143.8 28.7612C142.537 27.6507 141.754 26.6595 141.24 25.5655L141.232 25.5696Z" fill="#004289"/>
<path d="M78.6758 27.153H86.1305V29.3493H88.5638V27.153H96.1368V25.183H78.6758V27.153Z" fill="#004289"/>
<path d="M163.344 26.5238H155.755V20.6959H161.534V18.6436H153.48V28.5144H163.344V26.5238Z" fill="#004289"/>
<path d="M159.052 30.941H156.781V37.0856H167.399V35.0621H159.052V30.941Z" fill="#004289"/>
<path d="M167.346 23.143V17.8004H165.104V32.0268H167.346V25.1912H170V23.143H167.346Z" fill="#004289"/>
<path d="M47.6102 11.8532L41.7939 9.42254L47.6102 6.99185L46.5749 4.47889L40.7627 6.90959L43.1715 1.04055L40.6771 0L38.2724 5.86904L35.8635 0L33.3691 1.04055L35.7779 6.90959L29.9658 4.47889L28.9346 6.99185L34.7467 9.42254L28.9346 11.8532L29.9658 14.3662L35.7779 11.9355L33.3691 17.8045L35.8635 18.8451L38.2724 12.9802L40.6771 18.8451L43.1715 17.8004L40.7627 11.9355L46.5749 14.3662L47.6102 11.8532Z" fill="#009FE3"/>
<path d="M9.97731 28.2265H13.8453V17.8045H0.619141V21.3169H9.97731V28.2265Z" fill="#009FE3"/>
<path d="M25.0662 28.2265H28.9342V17.8045H15.708V21.3169H25.0662V28.2265Z" fill="#009FE3"/>
<path d="M0 33.6184H25.0665V38.9857H28.9345V30.1061H0V33.6184Z" fill="#009FE3"/>
<path d="M9.3584 55.3878H28.9347V40.7913H9.3584V55.3878ZM13.2264 44.3036H25.0708V51.8754H13.2264V44.3036Z" fill="#009FE3"/>
</g>
<defs>
<clipPath id="clip0_11_46">
<rect width="170" height="57" fill="white"/>
</clipPath>
</defs>
</svg>
