<svg width="24" height="24" viewBox="0 0 24 24" fill="#3d3d3d" xmlns="http://www.w3.org/2000/svg">
<path d="M11.9998 14.9499C11.8665 14.9499 11.7415 14.9291 11.6248 14.8874C11.5081 14.8457 11.3998 14.7749 11.2998 14.6749L6.6998 10.0749C6.51647 9.89157 6.4248 9.65824 6.4248 9.3749C6.4248 9.09157 6.51647 8.85824 6.6998 8.6749C6.88314 8.49157 7.11647 8.3999 7.3998 8.3999C7.68314 8.3999 7.91647 8.49157 8.0998 8.6749L11.9998 12.5749L15.8998 8.6749C16.0831 8.49157 16.3165 8.3999 16.5998 8.3999C16.8831 8.3999 17.1165 8.49157 17.2998 8.6749C17.4831 8.85824 17.5748 9.09157 17.5748 9.3749C17.5748 9.65824 17.4831 9.89157 17.2998 10.0749L12.6998 14.6749C12.5998 14.7749 12.4915 14.8457 12.3748 14.8874C12.2581 14.9291 12.1331 14.9499 11.9998 14.9499Z"/>
</svg>
