<svg width="24" height="24" viewBox="0 0 24 24" fill="#3d3d3d" xmlns="http://www.w3.org/2000/svg">
<path d="M12.0002 9.0501C12.1335 9.0501 12.2585 9.07093 12.3752 9.1126C12.4919 9.15426 12.6002 9.2251 12.7002 9.3251L17.3002 13.9251C17.4835 14.1084 17.5752 14.3418 17.5752 14.6251C17.5752 14.9084 17.4835 15.1418 17.3002 15.3251C17.1169 15.5084 16.8835 15.6001 16.6002 15.6001C16.3169 15.6001 16.0835 15.5084 15.9002 15.3251L12.0002 11.4251L8.1002 15.3251C7.91686 15.5084 7.68353 15.6001 7.4002 15.6001C7.11686 15.6001 6.88353 15.5084 6.7002 15.3251C6.51686 15.1418 6.4252 14.9084 6.4252 14.6251C6.4252 14.3418 6.51686 14.1084 6.7002 13.9251L11.3002 9.3251C11.4002 9.2251 11.5085 9.15426 11.6252 9.1126C11.7419 9.07093 11.8669 9.0501 12.0002 9.0501Z"/>
</svg>
